<svg width="18" height="20" viewBox="0 0 18 20" fill="none" xmlns="http://www.w3.org/2000/svg">
<path d="M15.875 0.375H3.5C3.13533 0.375 2.78559 0.519866 2.52773 0.777728C2.26987 1.03559 2.125 1.38533 2.125 1.75V4.5H0.75V5.875H2.125V9.3125H0.75V10.6875H2.125V14.125H0.75V15.5H2.125V18.25C2.125 18.6147 2.26987 18.9644 2.52773 19.2223C2.78559 19.4801 3.13533 19.625 3.5 19.625H15.875C16.2397 19.625 16.5894 19.4801 16.8473 19.2223C17.1051 18.9644 17.25 18.6147 17.25 18.25V1.75C17.25 1.38533 17.1051 1.03559 16.8473 0.777728C16.5894 0.519866 16.2397 0.375 15.875 0.375ZM15.875 18.25H3.5V15.5H4.875V14.125H3.5V10.6875H4.875V9.3125H3.5V5.875H4.875V4.5H3.5V1.75H15.875V18.25Z" fill="#8A8FB9"/>
<path d="M7.625 4.5H13.125V5.875H7.625V4.5Z" fill="#8A8FB9"/>
<path d="M7.625 9.3125H13.125V10.6875H7.625V9.3125Z" fill="#8A8FB9"/>
<path d="M7.625 14.125H13.125V15.5H7.625V14.125Z" fill="#8A8FB9"/>
</svg>
