<svg width="24" height="21" viewBox="0 0 24 21" fill="none" xmlns="http://www.w3.org/2000/svg">
<path d="M14 6.47705V4.47705C14 3.94662 13.7893 3.43791 13.4142 3.06284C13.0391 2.68776 12.5304 2.47705 12 2.47705H5C4.46957 2.47705 3.96086 2.68776 3.58579 3.06284C3.21071 3.43791 3 3.94662 3 4.47705V16.4771C3 17.0075 3.21071 17.5162 3.58579 17.8913C3.96086 18.2663 4.46957 18.4771 5 18.4771H12C12.5304 18.4771 13.0391 18.2663 13.4142 17.8913C13.7893 17.5162 14 17.0075 14 16.4771V14.4771" stroke="#8A8FB9" stroke-width="1.5" stroke-linecap="round" stroke-linejoin="round"/>
<path d="M7 10.4771H21M21 10.4771L18 7.47705M21 10.4771L18 13.4771" stroke="#8A8FB9" stroke-width="1.5" stroke-linecap="round" stroke-linejoin="round"/>
</svg>
