<svg width="18" height="17" fill="none" xmlns="http://www.w3.org/2000/svg"><path d="M13.791.5a1.15 1.15 0 00-.322.043L2.297 3.486a1.98 1.98 0 00-1.117.73c-.287.373-.43.796-.43 1.268v9.454c0 .558.2 1.045.602 1.46.415.401.902.602 1.46.602h12.376c.558 0 1.038-.2 1.439-.602.415-.415.623-.902.623-1.46V6c0-.559-.208-1.038-.623-1.44a1.93 1.93 0 00-1.44-.622H5.992l7.82-2.063V3.25h1.376V1.875c0-.387-.144-.709-.43-.967A1.321 1.321 0 0013.79.5zM2.812 5.313h12.376c.2 0 .365.064.494.193a.67.67 0 01.193.494v8.938a.67.67 0 01-.193.494.67.67 0 01-.495.193H2.813a.67.67 0 01-.495-.193.67.67 0 01-.193-.495V6c0-.2.064-.365.193-.494a.67.67 0 01.494-.194zM13.47 9.438c-.287 0-.53.1-.73.3a.993.993 0 00-.302.73c0 .287.1.53.301.731.2.2.444.301.73.301.287 0 .53-.1.731-.3a1 1 0 00.301-.731c0-.287-.1-.53-.3-.73a.996.996 0 00-.731-.302z" fill="#8A8FB9"/></svg>