<svg width="16" height="19" fill="none" xmlns="http://www.w3.org/2000/svg"><path d="M8 .125c-.415 0-.78.136-1.096.408-.3.244-.53.566-.687.967H.437v17.188h15.126V1.5h-5.78a2.292 2.292 0 00-.687-.967A1.626 1.626 0 008 .125zM8 1.5c.186 0 .344.072.473.215a.612.612 0 01.214.472v.688h2.063V4.25h-5.5V2.875h2.063v-.688c0-.186.064-.343.193-.472A.68.68 0 018 1.5zM1.812 2.875h2.063v2.75h8.25v-2.75h2.063v14.438H1.812V2.874zm9.819 5.006l-4.319 4.318-2.255-2.256-.989.989 2.75 2.75.495.472.494-.472 4.812-4.813-.988-.988z" fill="#8181A5"/></svg>