<svg width="18" height="19" fill="none" xmlns="http://www.w3.org/2000/svg"><path d="M7 .188c-.874 0-1.683.214-2.428.644a4.776 4.776 0 00-1.74 1.762A4.66 4.66 0 002.188 5c0 .83.186 1.597.558 2.299a5.024 5.024 0 001.547 1.697 7.044 7.044 0 00-2.17 1.482 6.741 6.741 0 00-1.46 2.17 6.76 6.76 0 00-.538 2.665H1.5c0-.989.243-1.905.73-2.75a5.512 5.512 0 012.02-1.998A5.295 5.295 0 017 9.813c.83 0 1.611.186 2.342.558v-.021c.129-.272.236-.473.322-.602a2.88 2.88 0 01.43-.559l-.408-.171a4.697 4.697 0 001.546-1.72c.387-.701.58-1.467.58-2.298a4.66 4.66 0 00-.644-2.406A4.727 4.727 0 009.406.832 4.66 4.66 0 007 .188zm0 1.375c.63 0 1.203.157 1.719.472.53.3.945.716 1.246 1.246.315.516.473 1.089.473 1.719 0 .63-.158 1.21-.473 1.74-.3.516-.716.931-1.246 1.246A3.35 3.35 0 017 8.438c-.63 0-1.21-.15-1.74-.452A3.704 3.704 0 014.014 6.74 3.463 3.463 0 013.562 5c0-.63.15-1.203.452-1.719A3.46 3.46 0 015.26 2.035 3.343 3.343 0 017 1.562zm6.188 7.562c-.502 0-.96.129-1.376.387a2.899 2.899 0 00-1.01.988 2.67 2.67 0 00-.364 1.375v1.375H8.374v5.5H18v-5.5h-2.063v-1.375c0-.501-.128-.96-.386-1.375a2.724 2.724 0 00-.989-.988 2.556 2.556 0 00-1.374-.387zm0 1.375c.372 0 .694.136.966.408.272.272.409.595.409.967v1.375h-2.75v-1.375c0-.372.136-.695.408-.967a1.32 1.32 0 01.966-.408zM9.75 14.625h6.875v2.75H9.75v-2.75z" fill="#8A8FB9"/></svg>