<svg width="24" height="23" fill="none" xmlns="http://www.w3.org/2000/svg"><rect x=".5" width="23" height="23" rx="11.5" fill="#7289DA"/><path d="M17.766 7.561c-1.055-.844-2.32-1.266-3.657-1.336l-.211.21c1.196.282 2.25.845 3.235 1.618a10.708 10.708 0 00-3.939-1.195c-.422-.07-.773-.07-1.195-.07-.422 0-.774 0-1.196.07-1.407.14-2.743.562-3.939 1.195.985-.773 2.04-1.336 3.236-1.617l-.211-.211c-1.337.07-2.603.492-3.658 1.336-1.196 2.25-1.829 4.783-1.899 7.385 1.055 1.126 2.532 1.83 4.08 1.83 0 0 .492-.564.844-1.056-.915-.211-1.759-.703-2.322-1.477.493.281.985.563 1.478.774.633.281 1.266.422 1.899.562.562.07 1.125.141 1.688.141.562 0 1.125-.07 1.688-.14.633-.141 1.266-.282 1.899-.563.492-.211.985-.493 1.477-.774-.563.774-1.407 1.266-2.321 1.477.351.492.844 1.055.844 1.055 1.547 0 3.024-.703 4.08-1.829-.071-2.602-.704-5.134-1.9-7.385zm-8.088 6.12c-.704 0-1.337-.634-1.337-1.407 0-.774.633-1.407 1.337-1.407.703 0 1.336.633 1.336 1.406 0 .774-.633 1.407-1.336 1.407zm4.642 0c-.704 0-1.337-.634-1.337-1.407 0-.774.633-1.407 1.337-1.407.703 0 1.336.633 1.336 1.406 0 .774-.633 1.407-1.336 1.407z" fill="#fff"/></svg>