<svg width="21" height="21" fill="none" xmlns="http://www.w3.org/2000/svg"><circle cx="10.5" cy="10.5" r="10.5" fill="#fff"/><path d="M13.33 3.5H7.67A4.176 4.176 0 003.5 7.67v5.66a4.175 4.175 0 004.17 4.17h5.66a4.175 4.175 0 004.17-4.17V7.67a4.175 4.175 0 00-4.17-4.17zm2.762 9.83a2.762 2.762 0 01-2.763 2.762H7.671a2.762 2.762 0 01-2.763-2.763V7.671a2.762 2.762 0 012.763-2.763h5.658a2.762 2.762 0 012.763 2.763v5.658z" fill="url(#paint0_linear_840_1429)"/><path d="M10.5 6.88a3.625 3.625 0 00-3.621 3.62 3.625 3.625 0 003.62 3.62 3.625 3.625 0 003.622-3.62A3.625 3.625 0 0010.5 6.88zm0 5.833a2.212 2.212 0 110-4.425 2.212 2.212 0 010 4.425z" fill="url(#paint1_linear_840_1429)"/><path d="M14.13 7.774a.868.868 0 100-1.735.868.868 0 000 1.735z" fill="url(#paint2_linear_840_1429)"/><defs><linearGradient id="paint0_linear_840_1429" x1="10.5" y1="17.459" x2="10.5" y2="3.609" gradientUnits="userSpaceOnUse"><stop stop-color="#E09B3D"/><stop offset=".3" stop-color="#C74C4D"/><stop offset=".6" stop-color="#C21975"/><stop offset="1" stop-color="#7024C4"/></linearGradient><linearGradient id="paint1_linear_840_1429" x1="10.5" y1="17.459" x2="10.5" y2="3.609" gradientUnits="userSpaceOnUse"><stop stop-color="#E09B3D"/><stop offset=".3" stop-color="#C74C4D"/><stop offset=".6" stop-color="#C21975"/><stop offset="1" stop-color="#7024C4"/></linearGradient><linearGradient id="paint2_linear_840_1429" x1="14.129" y1="17.459" x2="14.129" y2="3.609" gradientUnits="userSpaceOnUse"><stop stop-color="#E09B3D"/><stop offset=".3" stop-color="#C74C4D"/><stop offset=".6" stop-color="#C21975"/><stop offset="1" stop-color="#7024C4"/></linearGradient></defs></svg>