<svg width="16" height="16" fill="none" xmlns="http://www.w3.org/2000/svg"><circle cx="8" cy="8" r="8" fill="#FF808B"/><path d="M10.156 2.667H5.845a3.181 3.181 0 00-3.178 3.177v4.312a3.181 3.181 0 003.178 3.177h4.311a3.181 3.181 0 003.178-3.177V5.844a3.181 3.181 0 00-3.178-3.177zm2.105 7.489a2.105 2.105 0 01-2.105 2.104H5.845a2.105 2.105 0 01-2.105-2.104V5.844c0-1.162.942-2.104 2.105-2.104h4.311c1.162 0 2.105.942 2.105 2.104v4.312z" fill="#fff"/><path d="M8 5.241A2.762 2.762 0 005.241 8 2.762 2.762 0 008 10.759 2.762 2.762 0 0010.759 8 2.762 2.762 0 008 5.241zm0 4.445a1.686 1.686 0 110-3.372 1.686 1.686 0 010 3.372zm2.765-3.763a.661.661 0 100-1.322.661.661 0 000 1.322z" fill="#fff"/></svg>