<svg width="24" height="23" fill="none" xmlns="http://www.w3.org/2000/svg"><rect x=".5" width="23" height="23" rx="11.5" fill="#0F88FE"/><path d="M12.09 18.243c-.042 0-.08 0-.109-.006-.022.006-.048.006-.074.006-.855 0-1.426-.403-1.935-.76-.362-.256-.702-.499-1.102-.566a3.288 3.288 0 00-.577-.048c-.34 0-.609.05-.801.09-.122.022-.225.041-.305.041-.083 0-.189-.022-.23-.163-.036-.116-.058-.225-.08-.33-.058-.266-.106-.43-.206-.446-1.07-.163-1.71-.41-1.836-.702-.01-.032-.022-.064-.022-.09a.172.172 0 01.147-.179c.85-.14 1.612-.592 2.256-1.336.5-.577.744-1.134.766-1.195 0-.007.006-.007.006-.007.122-.253.148-.467.074-.644-.138-.33-.593-.47-.903-.567-.08-.022-.148-.048-.206-.067-.266-.106-.708-.33-.65-.64.042-.225.34-.386.583-.386a.36.36 0 01.173.036c.273.125.52.189.73.189.264 0 .388-.1.42-.132a17.945 17.945 0 00-.025-.426c-.064-.98-.138-2.198.173-2.896.932-2.09 2.913-2.256 3.499-2.256l.256-.007h.036c.586 0 2.566.164 3.499 2.256.314.699.237 1.92.173 2.897l-.007.048c-.006.131-.016.256-.022.384.032.026.147.122.384.125.206-.006.43-.073.686-.189a.577.577 0 01.224-.048c.09 0 .18.023.257.048h.006c.215.08.356.231.356.388.006.148-.109.372-.657.593a1.539 1.539 0 01-.205.067c-.304.093-.76.24-.904.567-.08.173-.048.395.074.644 0 .007.006.007.006.007.036.09.962 2.192 3.022 2.534.09.017.148.09.148.18a.19.19 0 01-.023.093c-.125.295-.76.535-1.836.702-.1.016-.147.179-.205.445a4.855 4.855 0 01-.08.33c-.032.106-.1.163-.215.163h-.016c-.074 0-.173-.01-.304-.035a3.797 3.797 0 00-1.378-.035c-.398.064-.74.31-1.102.567-.516.353-1.09.756-1.94.756z" fill="#fff"/></svg>