<svg width="24" height="23" fill="none" xmlns="http://www.w3.org/2000/svg"><rect x=".5" width="23" height="23" rx="11.5" fill="#419FD9"/><rect x=".5" width="23" height="23" rx="11.5" fill="url(#paint0_linear_189_3021)"/><path d="M5.669 11.246a540.172 540.172 0 016.69-2.942c3.186-1.353 3.848-1.588 4.28-1.596.094-.001.306.023.444.137a.497.497 0 01.163.317c.015.091.034.299.02.46-.173 1.853-.92 6.348-1.3 8.422-.161.878-.478 1.172-.784 1.2-.667.063-1.172-.449-1.818-.88-1.01-.676-1.58-1.097-2.56-1.757-1.132-.762-.398-1.18.247-1.865.17-.18 3.104-2.905 3.161-3.152.007-.031.014-.147-.053-.207-.067-.061-.166-.04-.238-.024-.1.024-1.714 1.112-4.838 3.266-.458.32-.873.477-1.245.469-.41-.01-1.197-.237-1.783-.431-.718-.239-1.29-.364-1.24-.77.026-.21.31-.426.854-.647z" fill="#fff"/><defs><linearGradient id="paint0_linear_189_3021" x1="12" y1="0" x2="12" y2="22.829" gradientUnits="userSpaceOnUse"><stop stop-color="#2AABEE"/><stop offset="1" stop-color="#229ED9"/></linearGradient></defs></svg>