<svg width="24" height="23" fill="none" xmlns="http://www.w3.org/2000/svg"><rect x=".5" width="23" height="23" rx="11.5" fill="#1DA1F2"/><path d="M17.637 9.015v.359c0 3.72-2.839 8.014-8.014 8.014a8.09 8.09 0 01-4.33-1.258c.216.018.45.036.665.036a5.701 5.701 0 003.504-1.204 2.789 2.789 0 01-2.624-1.958 2.614 2.614 0 001.276-.054A2.797 2.797 0 015.85 10.2v-.035c.377.215.809.341 1.276.359A2.822 2.822 0 015.868 8.17c0-.521.144-1.006.377-1.42a8.015 8.015 0 005.804 2.947 2.552 2.552 0 01-.072-.646 2.814 2.814 0 012.821-2.822c.809 0 1.546.342 2.049.881a5.725 5.725 0 001.797-.683 2.903 2.903 0 01-1.24 1.563 5.396 5.396 0 001.617-.449 5.15 5.15 0 01-1.384 1.474z" fill="#fff"/></svg>