<svg width="24" height="23" fill="none" xmlns="http://www.w3.org/2000/svg"><rect x=".5" width="23" height="23" rx="11.5" fill="#5181B8"/><path fill-rule="evenodd" clip-rule="evenodd" d="M19.314 7.922c.106-.355 0-.616-.508-.616H17.13c-.427 0-.623.225-.73.474 0 0-.853 2.08-2.062 3.43-.39.391-.568.515-.781.515-.107 0-.261-.124-.261-.48V7.923c0-.426-.124-.616-.48-.616H10.18c-.266 0-.427.198-.427.385 0 .405.605.498.667 1.635v2.47c0 .542-.098.64-.311.64-.569 0-1.952-2.088-2.773-4.478-.16-.465-.322-.652-.75-.652H4.907c-.48 0-.575.225-.575.474 0 .444.569 2.648 2.648 5.563 1.386 1.99 3.34 3.069 5.116 3.069 1.067 0 1.198-.24 1.198-.652v-1.505c0-.48.101-.575.44-.575.248 0 .675.125 1.67 1.084 1.137 1.138 1.325 1.648 1.964 1.648h1.678c.48 0 .719-.24.58-.713-.15-.471-.694-1.155-1.414-1.965-.391-.463-.978-.96-1.155-1.209-.25-.32-.178-.462 0-.746 0 0 2.043-2.88 2.257-3.857z" fill="#fff"/></svg>