<svg width="24" height="23" fill="none" xmlns="http://www.w3.org/2000/svg"><rect x=".5" width="23" height="23" rx="11.5" fill="red"/><path fill-rule="evenodd" clip-rule="evenodd" d="M17.624 6.775a1.801 1.801 0 011.267 1.267c.308 1.125.296 3.47.296 3.47s0 2.332-.296 3.457a1.801 1.801 0 01-1.267 1.267c-1.124.296-5.624.296-5.624.296s-4.488 0-5.624-.308a1.8 1.8 0 01-1.267-1.267c-.296-1.113-.296-3.457-.296-3.457s0-2.333.296-3.458a1.838 1.838 0 011.267-1.279C7.5 6.467 12 6.467 12 6.467s4.5 0 5.624.308zM14.308 11.5l-3.742 2.155v-4.31l3.742 2.155z" fill="#fff"/></svg>