<svg width="25" height="19" viewBox="0 0 25 19" fill="none" xmlns="http://www.w3.org/2000/svg">
<path fill-rule="evenodd" clip-rule="evenodd" d="M23.811 15.4565H24.5969C24.4559 15.5338 24.2673 15.6804 24.0305 15.896L23.2448 16.6836L23.6758 17.2888C24.1265 17.919 24.5208 18.3998 24.8589 18.7315H23.7349C23.5941 18.4108 23.4109 18.0848 23.1856 17.7531L22.6786 17.007L23.1182 16.4597C23.5123 15.9568 23.7434 15.6224 23.811 15.4565ZM22.6194 15.8213V18.3584L22.6532 18.5491C22.6757 18.5822 22.7266 18.6099 22.8052 18.632V18.7315H21.7151V18.632L21.8672 18.5491C21.8896 18.5159 21.901 18.4524 21.901 18.3584V15.8213L21.8672 15.6389C21.8447 15.6003 21.7938 15.5754 21.7151 15.5643V15.4565H22.8052V15.5643C22.7264 15.5753 22.6756 15.6003 22.6532 15.6389L22.6194 15.8213ZM20.9969 15.8213V18.3584L21.0307 18.5491L21.1828 18.632V18.7315H20.0842V18.632C20.163 18.6099 20.2194 18.5822 20.2533 18.5491L20.2784 18.3584V17.0401H18.9939V18.3584L19.0277 18.5491C19.0504 18.5822 19.1009 18.6099 19.1797 18.632V18.7315H18.0726V18.632C18.1629 18.6099 18.219 18.5822 18.2417 18.5491L18.2755 18.3584V15.8213L18.2417 15.6389C18.219 15.6003 18.1629 15.5754 18.0726 15.5643V15.4565H19.1797V15.5643C19.1007 15.5753 19.0502 15.6003 19.0277 15.6389L18.9939 15.8213V16.8246H20.2784V15.8213L20.2533 15.6389C20.2194 15.6003 20.163 15.5754 20.0842 15.5643V15.4565H21.1828V15.5643C21.1039 15.5753 21.0532 15.6003 21.0307 15.6389L20.9969 15.8213ZM15.6814 15.5643V15.4565H16.6446C16.6558 15.6058 16.6955 15.7661 16.763 15.9374L17.4728 17.8941C17.5911 18.2368 17.7066 18.5159 17.8193 18.7315H16.9742L16.611 17.5542H15.5376L15.3094 18.3335L15.2418 18.7315H14.6334L15.7149 16.2773C15.8221 16.0177 15.8755 15.8407 15.8755 15.7467C15.8758 15.6418 15.8109 15.5809 15.6814 15.5643ZM16.0786 16.0037L15.6223 17.322H16.535L16.0786 16.0037ZM14.3716 16.1696H14.1855L14.1432 16.0286C14.0981 15.8683 14.0305 15.7633 13.9404 15.7136L13.4756 15.6555H13.0279C12.9263 15.6555 12.8589 15.6721 12.8251 15.7053C12.797 15.733 12.7828 15.7825 12.7828 15.8545V16.6339H12.9688C13.5096 16.6339 13.8843 16.6864 14.0927 16.7914C14.3914 16.9352 14.5406 17.217 14.5406 17.6371C14.5406 18.0461 14.4223 18.339 14.1855 18.5159C13.9771 18.6597 13.6533 18.7315 13.2137 18.7315H11.8786V18.632L12.039 18.5491L12.0644 18.3584V15.8213L12.039 15.6389C12.0165 15.6003 11.9631 15.5754 11.8786 15.5643V15.4565H14.3716V16.1696ZM12.7828 16.8411V18.2423C12.7828 18.3529 12.8026 18.4247 12.842 18.4579C12.8873 18.5022 12.9661 18.5242 13.0786 18.5242H13.18C13.3943 18.5242 13.5519 18.4522 13.6534 18.3086C13.7435 18.176 13.7886 17.9632 13.7886 17.6702C13.7886 17.3829 13.7407 17.1784 13.6448 17.0567C13.5434 16.9129 13.3546 16.8411 13.0786 16.8411H12.7828ZM11.5829 16.3934C11.5829 16.7748 11.4645 17.0484 11.2278 17.2142C11.0249 17.358 10.7096 17.4298 10.2813 17.4298H9.94325V18.3584L9.97705 18.5491C9.99395 18.5822 10.0474 18.6099 10.1374 18.632V18.7315H9.03886V18.632L9.19097 18.5491L9.22477 18.3584V15.8213L9.19097 15.6389C9.16849 15.6003 9.11762 15.5754 9.03886 15.5643V15.4565H10.4248C10.8022 15.4565 11.0782 15.5118 11.2529 15.6224C11.473 15.7661 11.5829 16.0231 11.5829 16.3934ZM9.99412 15.6887C9.96032 15.7107 9.94342 15.7605 9.94342 15.8379V17.2225H10.2814C10.4898 17.2225 10.6364 17.1451 10.7209 16.9904C10.7942 16.8522 10.8307 16.6421 10.8307 16.3603C10.8307 15.8905 10.6306 15.6555 10.2307 15.6555H10.1462L9.99412 15.6887ZM8.53215 16.1696H8.35469L8.31244 16.0286C8.25616 15.8683 8.18568 15.7633 8.10117 15.7136L7.64483 15.6555H7.273L7.13779 15.6887L7.10399 15.813V16.8246H7.54342C7.84765 16.8246 8.04759 16.7914 8.14342 16.7251V17.1396C8.04776 17.0733 7.84765 17.0401 7.54342 17.0401H7.10399V18.2672C7.10399 18.3667 7.13779 18.4358 7.2054 18.4745L7.62793 18.5242H7.72089L8.17723 18.4579C8.25616 18.4081 8.31818 18.2866 8.36314 18.0931L8.39694 17.9687H8.60821V18.7315H6.19977V18.632C6.28427 18.6099 6.33785 18.5822 6.36033 18.5491L6.39413 18.3584V15.8213L6.36033 15.6389C6.33785 15.6003 6.28427 15.5754 6.19977 15.5643V15.4565H8.53215V16.1696ZM5.65047 16.1696H5.47301L5.43075 16.0286C5.38005 15.8683 5.30957 15.7633 5.21949 15.7136L4.7716 15.6555H4.30681C4.21098 15.6555 4.14338 15.6721 4.104 15.7053C4.08709 15.733 4.07864 15.7825 4.07864 15.8545V16.6339H4.26456C4.79982 16.6339 5.17436 16.6864 5.3885 16.7914C5.6814 16.9352 5.82793 17.217 5.82793 17.6371C5.82793 18.0461 5.70963 18.339 5.47301 18.5159C5.27019 18.6597 4.94619 18.7315 4.50118 18.7315H3.15752V18.632C3.24777 18.6099 3.30405 18.5822 3.32653 18.5491L3.36034 18.3584V15.8213L3.32653 15.6389C3.30405 15.6003 3.24777 15.5754 3.15752 15.5643V15.4565H5.65047V16.1696ZM2.2871 15.7218C2.18569 15.65 2.028 15.6141 1.81386 15.6141C1.47583 15.6141 1.23634 15.7356 1.09555 15.9789C0.977242 16.189 0.918088 16.5315 0.918088 17.007C0.918088 17.4824 0.98282 17.8332 1.11245 18.0599C1.27014 18.3418 1.54057 18.4828 1.92372 18.4828C2.20547 18.4828 2.48434 18.4164 2.76034 18.2838L2.86175 18.491C2.54062 18.6844 2.16321 18.7812 1.72935 18.7812C0.670144 18.7812 0.140625 18.2312 0.140625 17.1313C0.140625 15.9762 0.689919 15.3985 1.78851 15.3985C2.21104 15.3985 2.53504 15.4482 2.76034 15.5477V16.2276H2.54907L2.48991 16.0286C2.44479 15.8905 2.37718 15.7882 2.2871 15.7218ZM4.07864 16.8411V18.2423C4.07864 18.3529 4.09555 18.4247 4.12935 18.4579C4.17447 18.5022 4.25611 18.5242 4.37442 18.5242H4.46738C4.87301 18.5242 5.07582 18.2395 5.07582 17.6702C5.07582 17.3829 5.02799 17.1784 4.93216 17.0567C4.82518 16.9129 4.63352 16.8411 4.35752 16.8411H4.07864Z" fill="#006236"/>
<path fill-rule="evenodd" clip-rule="evenodd" d="M16.4088 1.00899L16.9616 1.50482L9.98098 5.44051L6.60122 3.51915L6.91709 2.89936L9.98098 4.61928L16.4088 1.00899ZM15.0032 0.21875L15.7455 0.590626L9.98098 3.84454L7.29613 2.34154L7.75413 1.79922L9.98098 3.05431L15.0032 0.21875ZM17.4512 2.01615L17.8618 2.55847L9.98098 7.00549L6.1748 4.8672L6.34853 4.18543L9.98098 6.23075L17.4512 2.01615Z" fill="url(#paint0_radial_662_6276)"/>
<path fill-rule="evenodd" clip-rule="evenodd" d="M18.5885 4.01499C18.82 4.65555 18.936 5.32678 18.936 6.02932C18.936 6.73185 18.82 7.41363 18.5885 8.07464L18.4306 8.49331C18.1043 9.24728 17.6463 9.91883 17.0566 10.5076C16.4564 11.0859 15.7723 11.5303 15.0034 11.8402C14.1929 12.1811 13.3559 12.3515 12.4923 12.3515C11.6183 12.3515 10.7813 12.1808 9.98118 11.8402C9.23353 11.5303 8.55442 11.0859 7.94385 10.5076C7.34371 9.91883 6.8857 9.24728 6.56984 8.49331C6.23281 7.69749 6.06445 6.87627 6.06445 6.02932V5.61096L9.98118 7.79573L18.2411 3.14728L18.5885 4.01499Z" fill="url(#paint1_radial_662_6276)"/>
<defs>
<radialGradient id="paint0_radial_662_6276" cx="0" cy="0" r="1" gradientUnits="userSpaceOnUse" gradientTransform="translate(12.9186 6.16898) scale(7.39516 7.25543)">
<stop stop-color="#52A347"/>
<stop offset="0.502" stop-color="#83B03E"/>
<stop offset="0.7059" stop-color="#2EA64C"/>
<stop offset="0.9294" stop-color="#264122"/>
<stop offset="0.9333" stop-color="#264122"/>
</radialGradient>
<radialGradient id="paint1_radial_662_6276" cx="0" cy="0" r="1" gradientUnits="userSpaceOnUse" gradientTransform="translate(12.9188 6.16883) scale(7.39529 7.25555)">
<stop stop-color="#52A347"/>
<stop offset="0.502" stop-color="#83B03E"/>
<stop offset="0.7059" stop-color="#2B9940"/>
<stop offset="0.9294" stop-color="#264122"/>
<stop offset="0.9333" stop-color="#264122"/>
</radialGradient>
</defs>
</svg>
