<svg width="23" height="16" viewBox="0 0 23 16" fill="none" xmlns="http://www.w3.org/2000/svg">
<path d="M14.7809 0C10.2329 0 6.61523 3.59493 6.61523 8C6.61523 12.4557 10.2846 16 14.7809 16C19.2772 16 22.9465 12.4051 22.9465 8C22.9465 3.59493 19.2772 0 14.7809 0ZM14.7809 10.9873C13.1271 10.9873 11.7317 9.62025 11.7317 8C11.7317 6.37975 13.1271 5.01266 14.7809 5.01266C16.4347 5.01266 17.8301 6.37975 17.8301 8C17.7785 9.62025 16.4347 10.9873 14.7809 10.9873Z" fill="#8B3FFD"/>
<path d="M6.61522 2.32928V13.9748H3.72107L0 2.32928H6.61522Z" fill="#8B3FFD"/>
</svg>
