<svg width="35" height="16" viewBox="0 0 35 16" fill="none" xmlns="http://www.w3.org/2000/svg">
<path d="M17.1553 8.88354H17.6947V10.0696H18.0844L18.7838 8.88354H19.3735L18.5341 10.2756V10.2854L19.4235 11.8045H18.8139L18.0944 10.53H17.7049V11.8045H17.1652V8.88324H17.1553V8.88354ZM20.6324 9.65803C21.2814 9.65803 21.8112 10.1187 21.8112 10.7558C21.8112 11.4029 21.2917 11.8538 20.6424 11.8538C19.9927 11.8538 19.4732 11.4029 19.4732 10.7558C19.4632 10.1089 19.9828 9.65803 20.6324 9.65803ZM22.2308 9.70677H22.7404V11.3538H23.4099V9.70708H23.9192V11.3538H24.5887V9.70708H25.0983V11.8045H22.2507V9.70677H22.2308ZM26.6072 9.65803C27.2165 9.65803 27.5563 10.0992 27.5563 10.6482C27.5546 10.7171 27.5479 10.7859 27.5364 10.8539H26.0675C26.0976 11.2164 26.3874 11.4126 26.7072 11.4126C26.9268 11.4126 27.1467 11.3145 27.3165 11.1872L27.5265 11.5598C27.3066 11.7457 26.9768 11.8636 26.6672 11.8636C25.9576 11.8636 25.5182 11.3636 25.5182 10.7655C25.5182 10.1089 25.9675 9.65803 26.6072 9.65803ZM27.8059 11.3636C28.0659 11.3243 28.2556 11.1089 28.2556 10.3637V9.70708H29.8145V11.8045H29.2847V10.1281H28.7652V10.3633C28.7652 11.2749 28.5155 11.8045 27.8059 11.824V11.3633V11.3636ZM31.3331 9.65803C31.9424 9.65803 32.2821 10.0992 32.2821 10.6482C32.2804 10.7171 32.2738 10.7859 32.2622 10.8539H30.7934C30.8235 11.2164 31.1132 11.4126 31.4331 11.4126C31.6526 11.4126 31.8725 11.3145 32.0424 11.1872L32.2523 11.5598C32.0324 11.7457 31.7026 11.8636 31.393 11.8636C30.6837 11.8636 30.244 11.3636 30.244 10.7655C30.244 10.1089 30.6937 9.65803 31.3331 9.65803ZM32.7218 9.70677H33.2513V10.5108H33.5112L34.0308 9.70708H34.6202L33.9407 10.7067V10.7168L34.7 11.8045H34.0808L33.5212 10.952H33.2417V11.8045H32.7116V9.70677H32.7215H32.7218ZM20.6324 11.4029C20.9821 11.4029 21.2718 11.1381 21.2718 10.746C21.2718 10.3637 20.9821 10.0891 20.6321 10.0891C20.2827 10.0891 20.0029 10.3542 20.0029 10.746C20.0029 11.1381 20.2824 11.4029 20.6324 11.4029ZM27.0169 10.4913C27.0169 10.2168 26.8268 10.0501 26.5871 10.0501C26.3175 10.0501 26.1175 10.2265 26.0675 10.4913H27.0169ZM31.7427 10.4913C31.7427 10.2168 31.5529 10.0501 31.3132 10.0501C31.043 10.0501 30.8434 10.2265 30.7934 10.4913H31.7427Z" fill="#2D3540"/>
<path d="M24.6187 2.52165V7.472C24.6191 7.49012 24.6158 7.50814 24.6089 7.52496C24.602 7.54178 24.5918 7.55706 24.5787 7.56988C24.5656 7.58269 24.5501 7.59278 24.5329 7.59952C24.5158 7.60626 24.4974 7.60952 24.4789 7.60911H23.4498C23.4313 7.60952 23.413 7.60626 23.3958 7.59952C23.3787 7.59278 23.3631 7.58269 23.35 7.56988C23.337 7.55706 23.3267 7.54178 23.3198 7.52496C23.313 7.50814 23.3096 7.49012 23.31 7.472V2.52165C23.3096 2.50353 23.313 2.48552 23.3198 2.4687C23.3267 2.45187 23.337 2.43659 23.35 2.42378C23.3631 2.41096 23.3787 2.40088 23.3958 2.39414C23.413 2.38739 23.4313 2.38413 23.4498 2.38455H24.4789C24.4974 2.38413 24.5158 2.38739 24.5329 2.39414C24.5501 2.40088 24.5656 2.41096 24.5787 2.42378C24.5918 2.43659 24.602 2.45187 24.6089 2.4687C24.6158 2.48552 24.6191 2.50353 24.6187 2.52165ZM32.6518 2.38455C32.6918 2.38455 32.7418 2.40405 32.7915 2.44335C32.8216 2.4726 32.8216 2.52165 32.8117 2.56096L31.113 7.52105C31.1027 7.54672 31.0849 7.56881 31.0618 7.58454C31.0387 7.60027 31.0114 7.60892 30.9832 7.60941H30.064C30.0041 7.60941 29.9541 7.57986 29.9342 7.52105L28.9445 4.62939L27.9555 7.52075C27.9451 7.54642 27.9273 7.56851 27.9042 7.58424C27.8811 7.59996 27.8538 7.60862 27.8256 7.60911H26.9064C26.8465 7.60911 26.7965 7.57986 26.7766 7.52075L25.078 2.56065C25.068 2.52165 25.068 2.48235 25.0978 2.44335C25.118 2.40405 25.168 2.38455 25.2078 2.38455H26.3568C26.4167 2.38455 26.4667 2.42355 26.4869 2.48235L27.3959 5.41332L28.3952 2.48235C28.4055 2.45668 28.4233 2.43459 28.4464 2.41886C28.4695 2.40314 28.4969 2.39448 28.525 2.39399H29.3343C29.3942 2.39399 29.4442 2.42355 29.4641 2.48235L30.4634 5.41332L31.3727 2.48235C31.3808 2.45458 31.3978 2.43011 31.4212 2.41251C31.4445 2.39491 31.473 2.38511 31.5025 2.38455H32.6515H32.6518ZM34.3902 2.38455C34.4601 2.38455 34.52 2.44335 34.5299 2.52165V7.472C34.5304 7.49012 34.527 7.50814 34.5202 7.52496C34.5133 7.54178 34.503 7.55706 34.49 7.56988C34.4769 7.58269 34.4613 7.59278 34.4442 7.59952C34.427 7.60626 34.4087 7.60952 34.3902 7.60911H33.3611C33.3426 7.60952 33.3242 7.60626 33.3071 7.59952C33.2899 7.59278 33.2744 7.58269 33.2613 7.56988C33.2482 7.55706 33.238 7.54178 33.2311 7.52496C33.2242 7.50814 33.2209 7.49012 33.2213 7.472V2.52165C33.2209 2.50353 33.2242 2.48552 33.2311 2.4687C33.238 2.45187 33.2482 2.43659 33.2613 2.42378C33.2744 2.41096 33.2899 2.40088 33.3071 2.39414C33.3242 2.38739 33.3426 2.38413 33.3611 2.38455H34.3902ZM22.7104 7.433C22.7703 7.50156 22.7203 7.59936 22.6303 7.59936H21.3713C21.3465 7.60001 21.3219 7.59505 21.2994 7.58485C21.2769 7.57465 21.2571 7.55949 21.2415 7.54055L21.0319 7.28585C20.5922 7.56005 20.0723 7.72701 19.523 7.72701C17.9846 7.72701 16.7356 6.50161 16.7356 4.99195C16.7356 3.48229 17.9846 2.25689 19.523 2.25689C21.0617 2.25689 22.3107 3.48229 22.3107 4.99195C22.3107 5.53123 22.1508 6.04095 21.871 6.47206L22.7104 7.4327V7.433ZM12.1892 9.83445C12.4491 9.93255 12.5491 10.3146 12.569 10.4813C12.6091 10.7853 12.5193 10.9029 12.4193 10.9029C12.3193 10.9029 12.1793 10.7853 12.0296 10.5501C11.8796 10.3146 11.8197 10.0502 11.8998 9.91275C11.9495 9.82439 12.0594 9.78539 12.1895 9.83445H12.1892ZM10.6707 10.9422C10.8306 10.9422 11.0104 11.0108 11.1703 11.1479C11.4799 11.4029 11.57 11.6969 11.4101 11.9126C11.32 12.0205 11.1703 12.089 11.0005 12.089C10.8306 12.089 10.6508 12.0302 10.5309 11.9224C10.2511 11.6872 10.1713 11.2948 10.3508 11.0793C10.421 10.991 10.5309 10.9422 10.6707 10.9422ZM7.17397 13.7751C3.37697 13.7751 0.299805 10.7558 0.299805 7.03083C0.299805 3.30588 3.37728 0.286865 7.17366 0.286865C10.9703 0.286865 14.0478 3.30619 14.0478 7.03083C14.0478 8.29523 13.6882 9.48163 13.0789 10.4913C13.0587 10.5206 13.0087 10.5108 12.9988 10.4715C12.7591 8.81501 11.7299 7.90312 10.2313 7.62891C10.1011 7.60911 10.0813 7.5308 10.2511 7.5113C10.7107 7.472 11.3601 7.48175 11.6998 7.54055C11.7197 7.3739 11.7299 7.19749 11.7299 7.02108C11.7299 4.56053 9.69153 2.56065 7.18359 2.56065C4.67597 2.56065 2.63757 4.56053 2.63757 7.02108C2.63757 9.48164 4.67597 11.4815 7.1839 11.4815H7.39352C7.32231 11.0835 7.29214 10.6795 7.30346 10.2756C7.31371 10.0011 7.37365 9.9618 7.49352 10.1775C8.12298 11.246 9.02231 12.2066 10.7806 12.589C12.2193 12.9028 13.6581 13.2654 15.2068 15.1964C15.3465 15.3631 15.1369 15.5395 14.977 15.4024C13.3985 14.0298 11.9597 13.5789 10.6508 13.5789C9.18193 13.589 8.18292 13.7751 7.17366 13.7751H7.17397ZM20.2124 6.33496L19.6627 5.67808C19.6031 5.60953 19.6531 5.50167 19.7429 5.50167H20.9018C20.9617 5.34477 20.9919 5.16836 20.9919 4.99195C20.9919 4.17847 20.3723 3.47254 19.523 3.47254C18.674 3.47254 18.0541 4.17847 18.0541 4.99195C18.0541 5.80543 18.674 6.50161 19.523 6.50161C19.7627 6.51136 20.0028 6.44281 20.2124 6.33496Z" fill="#FF8C00"/>
</svg>
