<svg width="23" height="19" viewBox="0 0 23 19" fill="none" xmlns="http://www.w3.org/2000/svg">
<path d="M11.5494 0.21875C12.472 0.21875 13.3497 0.424683 14.1373 0.793059C14.2609 0.847357 14.3852 0.912343 14.5083 0.977386L13.9682 1.44349L13.1586 0.630673L11.7635 1.82267L10.9419 0.966416L8.37654 3.18814L10.019 4.93295L9.37779 5.47468L10.9982 7.21949L10.357 7.76099L12.6749 10.2428L14.0468 9.02895L15.2401 10.3298C15.0036 10.5032 14.7448 10.6769 14.4638 10.8284C13.6086 11.2943 12.6183 11.5647 11.5608 11.5647C8.30879 11.5647 5.66508 9.01853 5.66508 5.88688C5.65359 2.77638 8.29777 0.21875 11.5494 0.21875ZM10.4691 5.53983L11.8756 4.326L13.136 5.68061L11.7292 6.89432L10.4691 5.53983ZM11.4708 7.88073L12.8658 6.65615L14.1373 8.01065L12.7308 9.22454L11.4708 7.88073ZM9.46829 3.23163L10.8744 2.0178L12.1345 3.37241L10.728 4.58618L9.46829 3.23163ZM12.0444 2.58119L13.0909 1.67092L14.0362 2.67882L12.9897 3.59984L12.0444 2.58119ZM13.9123 6.75349L14.9585 5.84316L15.9038 6.86158L14.8572 7.77247L13.9123 6.75349ZM14.8348 8.80192L15.8814 7.89142L16.8259 8.89926L15.7798 9.82017L14.8348 8.80192ZM15.2625 4.12007L15.96 3.51313L16.5898 4.18528L15.8925 4.792L15.2625 4.12007ZM14.3623 2.1152L15.0599 1.49762L15.6902 2.18024L14.9921 2.78713L14.3623 2.1152ZM16.1512 6.12511L16.8487 5.51823L17.49 6.19016L16.7815 6.79688L16.1512 6.12511ZM13.0121 4.6187L14.0587 3.70837L15.0036 4.71605L13.9575 5.62654L13.0121 4.6187Z" fill="#036CB5"/>
<path d="M2.36534 15.6019H2.33262L1.71845 17.8908H1.21645L0.462891 14.6391H0.983744L1.50472 17.0654H1.53726L2.14182 14.6391H2.55591L3.20246 17.0654H3.23502L3.70952 14.6391H4.25376L3.50001 17.8908H2.99763L2.36534 15.6019Z" fill="#036CB5"/>
<path d="M4.91419 16.5065H5.97912C5.95602 16.0251 5.71867 15.8326 5.4676 15.8326C5.18388 15.8326 4.96513 16.0481 4.91419 16.5065ZM6.35117 17.369V17.7176C6.14191 17.8368 5.86298 17.9286 5.5279 17.9286C4.7467 17.9286 4.42578 17.4516 4.42578 16.7271C4.42578 16.0297 4.78385 15.5251 5.48155 15.5251C6.06279 15.5251 6.42116 15.8969 6.42116 16.6443V16.814H4.90486C4.90486 17.3642 5.13263 17.6073 5.61189 17.6073C5.86298 17.6073 6.09554 17.52 6.35117 17.369Z" fill="#036CB5"/>
<path d="M7.50347 17.5608C7.65234 17.625 7.81526 17.6345 7.93173 17.6345C8.27584 17.6345 8.53602 17.4232 8.53602 16.6804C8.53602 16.098 8.3221 15.9099 8.0106 15.9099C7.8244 15.9099 7.68957 15.9605 7.50347 16.0612V17.5608H7.50347ZM7.50837 15.722C7.64756 15.6488 7.88473 15.5522 8.136 15.5522C8.71281 15.5522 9.02449 15.9466 9.02449 16.6804C9.02449 17.5381 8.6058 17.9555 7.93174 17.9555C7.68502 17.9555 7.30364 17.8775 7.02441 17.7304V14.5295L7.50837 14.415V15.722H7.50837Z" fill="#036CB5"/>
<path d="M11.1174 17.2008H11.1407L12.1358 14.637H12.7129V17.889H12.2106V15.5314H12.1686L11.2197 17.889H10.9222L9.97305 15.5865H9.93134V17.889H9.5127V14.637H10.0757L11.1174 17.2008Z" fill="#036CB5"/>
<path d="M14.7661 16.7269C14.7661 16.1078 14.5105 15.8465 14.1942 15.8465C13.8873 15.8465 13.622 16.1078 13.622 16.7269C13.622 17.3553 13.8641 17.6073 14.1942 17.6073C14.5243 17.6073 14.7661 17.3553 14.7661 16.7269ZM13.1338 16.7269C13.1338 15.924 13.5804 15.5251 14.1942 15.5251C14.8084 15.5251 15.2547 15.924 15.2547 16.7269C15.2547 17.511 14.8315 17.9286 14.1942 17.9286C13.557 17.9286 13.1338 17.511 13.1338 16.7269Z" fill="#036CB5"/>
<path d="M15.6221 15.8648C15.8314 15.7408 16.2734 15.5251 16.8082 15.5251C17.3663 15.5251 17.5752 15.7408 17.5752 16.213V17.8735H17.0918V16.3186C17.0918 15.9564 16.9107 15.8922 16.6732 15.8922C16.4874 15.8922 16.2499 15.9749 16.1058 16.0574V17.8735H15.6221V15.8648H15.6221Z" fill="#036CB5"/>
<path d="M18.5996 16.5065H19.6646C19.6417 16.0251 19.4042 15.8326 19.1531 15.8326C18.8693 15.8326 18.651 16.0481 18.5996 16.5065ZM20.0366 17.369V17.7176C19.8274 17.8368 19.5483 17.9286 19.2134 17.9286C18.4325 17.9286 18.1113 17.4516 18.1113 16.7271C18.1113 16.0297 18.4693 15.5251 19.167 15.5251C19.7486 15.5251 20.1069 15.8969 20.1069 16.6443V16.814H18.5904C18.5904 17.3642 18.8184 17.6073 19.2975 17.6073C19.5483 17.6073 19.7813 17.52 20.0366 17.369Z" fill="#036CB5"/>
<path d="M22.0389 15.5251H22.5367L21.6948 17.818C21.4619 18.451 21.1785 18.7812 20.6437 18.7812V18.4054C20.9602 18.4054 21.1552 18.1576 21.2671 17.818L20.374 15.5251H20.8857L21.4811 17.2129H21.509L22.0389 15.5251Z" fill="#036CB5"/>
</svg>
