<svg width="30" height="22" viewBox="0 0 30 22" fill="none" xmlns="http://www.w3.org/2000/svg">
<path fill-rule="evenodd" clip-rule="evenodd" d="M28.1526 18.0595H29.0664C28.9025 18.1511 28.6832 18.3248 28.4079 18.5803L27.4942 19.5138L27.9954 20.2311C28.5195 20.9779 28.978 21.5479 29.3711 21.9409H28.0641C27.9004 21.5608 27.6874 21.1745 27.4254 20.7814L26.8359 19.897L27.347 19.2485C27.8053 18.6524 28.074 18.256 28.1526 18.0595ZM26.7671 18.4919V21.4987L26.8064 21.7247C26.8325 21.7641 26.8917 21.7969 26.9831 21.823V21.9409H25.7154V21.823L25.8923 21.7247C25.9185 21.6854 25.9316 21.6102 25.9316 21.4987V18.4919L25.8923 18.2757C25.8662 18.2299 25.807 18.2004 25.7154 18.1873V18.0595H26.9831V18.1873C26.8915 18.2002 26.8323 18.2299 26.8064 18.2757L26.7671 18.4919ZM24.8804 18.4919V21.4987L24.9197 21.7247L25.0966 21.823V21.9409H23.8192V21.823C23.9107 21.7969 23.9764 21.7641 24.0157 21.7247L24.045 21.4987V19.9363H22.5514V21.4987L22.5907 21.7247C22.617 21.7641 22.6758 21.7969 22.7673 21.823V21.9409H21.4801V21.823C21.585 21.7969 21.6503 21.7641 21.6766 21.7247L21.7159 21.4987V18.4919L21.6766 18.2757C21.6503 18.2299 21.585 18.2004 21.4801 18.1873V18.0595H22.7673V18.1873C22.6756 18.2002 22.6168 18.2299 22.5907 18.2757L22.5514 18.4919V19.6809H24.045V18.4919L24.0157 18.2757C23.9764 18.2299 23.9107 18.2004 23.8192 18.1873V18.0595H25.0966V18.1873C25.0048 18.2002 24.9458 18.2299 24.9197 18.2757L24.8804 18.4919ZM18.6996 18.1873V18.0595H19.8196C19.8326 18.2364 19.8788 18.4264 19.9572 18.6294L20.7826 20.9485C20.9202 21.3547 21.0544 21.6854 21.1855 21.9409H20.2029L19.7805 20.5456H18.5324L18.2671 21.4693L18.1884 21.9409H17.4809L18.7385 19.0323C18.8631 18.7246 18.9252 18.5149 18.9252 18.4034C18.9256 18.279 18.8502 18.2069 18.6996 18.1873ZM19.1615 18.708L18.6308 20.2704H19.6921L19.1615 18.708ZM17.1765 18.9046H16.9601L16.911 18.7375C16.8585 18.5475 16.7799 18.4231 16.6752 18.3641L16.1347 18.2953H15.6141C15.496 18.2953 15.4176 18.315 15.3783 18.3543C15.3457 18.3871 15.3292 18.4459 15.3292 18.5312V19.4549H15.5453C16.1742 19.4549 16.6099 19.5172 16.8523 19.6416C17.1995 19.8119 17.3731 20.146 17.3731 20.6438C17.3731 21.1287 17.2355 21.4757 16.9601 21.6854C16.7178 21.8558 16.3413 21.9409 15.8301 21.9409H14.2777V21.823L14.4642 21.7247L14.4937 21.4987V18.4919L14.4642 18.2757C14.4381 18.2299 14.376 18.2004 14.2777 18.1873V18.0595H17.1765V18.9046ZM15.3292 19.7005V21.3612C15.3292 21.4923 15.3522 21.5773 15.3979 21.6167C15.4506 21.6691 15.5422 21.6953 15.6731 21.6953H15.791C16.0402 21.6953 16.2234 21.61 16.3415 21.4398C16.4462 21.2826 16.4987 21.0304 16.4987 20.6831C16.4987 20.3426 16.4429 20.1002 16.3315 19.956C16.2135 19.7856 15.994 19.7005 15.6731 19.7005H15.3292ZM13.9338 19.1699C13.9338 19.6219 13.7963 19.9462 13.5209 20.1427C13.2851 20.3131 12.9184 20.3982 12.4204 20.3982H12.0273V21.4987L12.0666 21.7247C12.0863 21.7641 12.1484 21.7969 12.2531 21.823V21.9409H10.9757V21.823L11.1526 21.7247L11.1919 21.4987V18.4919L11.1526 18.2757C11.1264 18.2299 11.0673 18.2004 10.9757 18.1873V18.0595H12.5872C13.0261 18.0595 13.347 18.125 13.5502 18.256C13.8061 18.4264 13.9338 18.731 13.9338 19.1699ZM12.0865 18.3346C12.0472 18.3608 12.0275 18.4197 12.0275 18.5115V20.1525H12.4206C12.6629 20.1525 12.8333 20.0607 12.9315 19.8774C13.0168 19.7137 13.0593 19.4647 13.0593 19.1306C13.0593 18.5738 12.8266 18.2953 12.3616 18.2953H12.2633L12.0865 18.3346ZM10.3865 18.9046H10.1801L10.131 18.7375C10.0656 18.5475 9.98362 18.4231 9.88535 18.3641L9.35473 18.2953H8.92237L8.76515 18.3346L8.72584 18.482V19.6809H9.23681C9.59056 19.6809 9.82305 19.6416 9.93449 19.5629V20.0543C9.82325 19.9757 9.59056 19.9363 9.23681 19.9363H8.72584V21.3906C8.72584 21.5086 8.76515 21.5905 8.84376 21.6363L9.33508 21.6953H9.44317L9.97379 21.6167C10.0656 21.5577 10.1377 21.4136 10.19 21.1843L10.2293 21.0369H10.4749V21.9409H7.67442V21.823C7.77268 21.7969 7.83498 21.7641 7.86112 21.7247L7.90042 21.4987V18.4919L7.86112 18.2757C7.83498 18.2299 7.77268 18.2004 7.67442 18.1873V18.0595H10.3865V18.9046ZM7.0357 18.9046H6.82935L6.78022 18.7375C6.72126 18.5475 6.63931 18.4231 6.53456 18.3641L6.01376 18.2953H5.47331C5.36188 18.2953 5.28327 18.315 5.23748 18.3543C5.21782 18.3871 5.208 18.4459 5.208 18.5312V19.4549H5.42418C6.04658 19.4549 6.48209 19.5172 6.73109 19.6416C7.07167 19.8119 7.24206 20.146 7.24206 20.6438C7.24206 21.1287 7.10449 21.4757 6.82935 21.6854C6.59352 21.8558 6.21677 21.9409 5.69932 21.9409H4.13692V21.823C4.24187 21.7969 4.30731 21.7641 4.33345 21.7247L4.37276 21.4987V18.4919L4.33345 18.2757C4.30731 18.2299 4.24187 18.2004 4.13692 18.1873V18.0595H7.0357V18.9046ZM3.12481 18.374C3.00689 18.2889 2.82353 18.2462 2.57453 18.2462C2.18147 18.2462 1.90299 18.3903 1.73929 18.6786C1.60172 18.9276 1.53293 19.3336 1.53293 19.897C1.53293 20.4605 1.6082 20.8763 1.75894 21.145C1.9423 21.4791 2.25674 21.6461 2.70227 21.6461C3.02988 21.6461 3.35415 21.5675 3.67508 21.4103L3.793 21.656C3.4196 21.8851 2.98075 21.9999 2.47626 21.9999C1.24463 21.9999 0.628906 21.348 0.628906 20.0444C0.628906 18.6754 1.26762 17.9907 2.54505 17.9907C3.03637 17.9907 3.41311 18.0497 3.67508 18.1676V18.9734H3.42942L3.36064 18.7375C3.30817 18.5738 3.22956 18.4526 3.12481 18.374ZM5.208 19.7005V21.3612C5.208 21.4923 5.22765 21.5773 5.26696 21.6167C5.31943 21.6691 5.41435 21.6953 5.55192 21.6953H5.66001C6.13168 21.6953 6.36751 21.3578 6.36751 20.6831C6.36751 20.3426 6.31189 20.1002 6.20046 19.956C6.07606 19.7856 5.8532 19.7005 5.53227 19.7005H5.208Z" fill="#006236"/>
<path fill-rule="evenodd" clip-rule="evenodd" d="M19.5446 0.936577L20.1873 1.52423L12.0703 6.18875L8.14037 3.91159L8.50765 3.17702L12.0703 5.21545L19.5446 0.936577ZM17.9101 0L18.7733 0.440742L12.0703 4.29724L8.94839 2.5159L9.48096 1.87315L12.0703 3.36066L17.9101 0ZM20.7566 2.13025L21.2341 2.773L12.0703 8.04354L7.64453 5.50928L7.84654 4.70125L12.0703 7.12533L20.7566 2.13025Z" fill="url(#paint0_radial_152_3840)"/>
<path fill-rule="evenodd" clip-rule="evenodd" d="M22.0785 4.49935C22.3477 5.25852 22.4825 6.05406 22.4825 6.8867C22.4825 7.71933 22.3477 8.52736 22.0785 9.31078L21.8948 9.80698C21.5154 10.7006 20.9829 11.4965 20.2971 12.1943C19.5993 12.8797 18.8038 13.4064 17.9098 13.7737C16.9673 14.1777 15.994 14.3797 14.9899 14.3797C13.9736 14.3797 13.0003 14.1773 12.07 13.7737C11.2006 13.4064 10.4109 12.8797 9.70097 12.1943C9.00313 11.4965 8.47057 10.7006 8.10328 9.80698C7.71139 8.86379 7.51562 7.89049 7.51562 6.8867V6.39086L12.07 8.98022L21.6745 3.47095L22.0785 4.49935Z" fill="url(#paint1_radial_152_3840)"/>
<defs>
<radialGradient id="paint0_radial_152_3840" cx="0" cy="0" r="1" gradientUnits="userSpaceOnUse" gradientTransform="translate(15.4861 7.05213) scale(8.59902)">
<stop stop-color="#52A347"/>
<stop offset="0.502" stop-color="#83B03E"/>
<stop offset="0.7059" stop-color="#2EA64C"/>
<stop offset="0.9294" stop-color="#264122"/>
<stop offset="0.9333" stop-color="#264122"/>
</radialGradient>
<radialGradient id="paint1_radial_152_3840" cx="0" cy="0" r="1" gradientUnits="userSpaceOnUse" gradientTransform="translate(15.4858 7.05205) scale(8.59917)">
<stop stop-color="#52A347"/>
<stop offset="0.502" stop-color="#83B03E"/>
<stop offset="0.7059" stop-color="#2B9940"/>
<stop offset="0.9294" stop-color="#264122"/>
<stop offset="0.9333" stop-color="#264122"/>
</radialGradient>
</defs>
</svg>
