<svg width="32" height="32" viewBox="0 0 32 32" fill="none" xmlns="http://www.w3.org/2000/svg">
<path d="M30.094 21.6894L31.9699 9.71135C32.165 8.49587 31.3379 7.35217 30.1223 7.15655L4.80915 3.09368C3.59365 2.89862 2.45003 3.72568 2.25497 4.94117L1.35547 10.5428V21.6197L30.094 21.6894Z" fill="#8A8FB9"/>
<path d="M30.1229 7.1568L22.9334 6.00317C18.1046 13.3916 10.2987 18.5089 4.3125 21.6272L30.0945 21.6897L31.9704 9.71162C32.1655 8.49607 31.3384 7.35242 30.1229 7.1568Z" fill="#616692"/>
<path d="M2.22931 9.9856H27.8663C29.0974 9.9856 30.0956 10.9838 30.0956 12.2149V26.7054C30.0956 27.9365 29.0974 28.9347 27.8663 28.9347H2.22931C0.998184 28.9347 0 27.9365 0 26.7054V12.2149C0 10.9838 0.998184 9.9856 2.22931 9.9856Z" fill="#ECECF2"/>
<path d="M27.8671 9.9856H27.4212C22.1601 19.3259 12.3294 25.7328 6.32812 28.9347H27.8671C29.0982 28.9347 30.0964 27.9365 30.0964 26.7053V12.2149C30.0964 10.9838 29.0982 9.9856 27.8671 9.9856Z" fill="#E3E3EE"/>
<path d="M8.35841 12.7725H2.78516V17.2311H8.35841V12.7725Z" fill="#F178B6"/>
<path d="M4.45716 14.4443H2.78516V15.559H4.45716V14.4443Z" fill="#FCDDEC"/>
<path d="M8.35951 14.4443H6.6875V15.559H8.35951V14.4443Z" fill="#FCDDEC"/>
<path d="M24.5211 26.148C26.06 26.148 27.3077 24.9004 27.3077 23.3614C27.3077 21.8223 26.06 20.5747 24.5211 20.5747C22.982 20.5747 21.7344 21.8223 21.7344 23.3614C21.7344 24.9004 22.982 26.148 24.5211 26.148Z" fill="#F178B6"/>
<path d="M21.1772 26.148C22.7162 26.148 23.9638 24.9004 23.9638 23.3614C23.9638 21.8223 22.7162 20.5747 21.1772 20.5747C19.6382 20.5747 18.3906 21.8223 18.3906 23.3614C18.3906 24.9004 19.6382 26.148 21.1772 26.148Z" fill="#FCDDEC"/>
<path d="M5.5744 21.1323H2.23047V22.247H5.5744V21.1323Z" fill="#A5A6F6"/>
<path d="M11.1486 21.1323H7.80469V22.247H11.1486V21.1323Z" fill="#A5A6F6"/>
<path d="M16.7189 21.1323H13.375V22.247H16.7189V21.1323Z" fill="#A5A6F6"/>
<path d="M16.721 24.4761H2.23047V25.5907H16.721V24.4761Z" fill="#A5A6F6"/>
<path d="M20.6225 12.7725H19.5078V15.0018H20.6225V12.7725Z" fill="#A5A6F6"/>
<path d="M22.8529 12.7725H21.7383V15.0018H22.8529V12.7725Z" fill="#A5A6F6"/>
<path d="M25.0795 12.7725H23.9648V15.0018H25.0795V12.7725Z" fill="#A5A6F6"/>
<path d="M27.31 12.7725H26.1953V15.0018H27.31V12.7725Z" fill="#A5A6F6"/>
</svg>
