<svg width="27" height="19" viewBox="0 0 27 19" fill="none" xmlns="http://www.w3.org/2000/svg">
<path d="M17.3514 0C12.0125 0 7.76562 4.26899 7.76562 9.5C7.76562 14.7911 12.0732 19 17.3514 19C22.6297 19 26.9372 14.731 26.9372 9.5C26.9372 4.26899 22.6297 0 17.3514 0ZM17.3514 13.0475C15.41 13.0475 13.7719 11.424 13.7719 9.5C13.7719 7.57595 15.41 5.95254 17.3514 5.95254C19.2929 5.95254 20.9309 7.57595 20.9309 9.5C20.8703 11.424 19.2929 13.0475 17.3514 13.0475Z" fill="#8B3FFD"/>
<path d="M7.7657 2.76587V16.595H4.36821L0 2.76587H7.7657Z" fill="#8B3FFD"/>
</svg>
