<svg width="40" height="19" viewBox="0 0 40 19" fill="none" xmlns="http://www.w3.org/2000/svg">
<path d="M19.5977 10.6398H20.2249V12.0455H20.6781L21.4912 10.6398H22.177L21.2009 12.2896V12.3012L22.2351 14.1016H21.5263L20.6896 12.5911H20.2368V14.1016H19.6092V10.6394H19.5977V10.6398ZM23.6408 11.5577C24.3955 11.5577 25.0116 12.1036 25.0116 12.8587C25.0116 13.6257 24.4075 14.1601 23.6524 14.1601C22.897 14.1601 22.2929 13.6257 22.2929 12.8587C22.2813 12.0921 22.8854 11.5577 23.6408 11.5577ZM25.4994 11.6154H26.092V13.5675H26.8705V11.6158H27.4627V13.5675H28.2412V11.6158H28.8338V14.1016H25.5225V11.6154H25.4994ZM30.5883 11.5577C31.2968 11.5577 31.6918 12.0805 31.6918 12.7312C31.6899 12.8129 31.6822 12.8944 31.6687 12.975H29.9607C29.9958 13.4047 30.3327 13.6372 30.7046 13.6372C30.9599 13.6372 31.2155 13.5209 31.4131 13.37L31.6572 13.8116C31.4015 14.0319 31.018 14.1716 30.658 14.1716C29.8329 14.1716 29.322 13.5791 29.322 12.8703C29.322 12.0921 29.8445 11.5577 30.5883 11.5577ZM31.9822 13.5791C32.2844 13.5325 32.505 13.2772 32.505 12.394V11.6158H34.3177V14.1016H33.7017V12.1148H33.0976V12.3936C33.0976 13.474 32.8073 14.1016 31.9822 14.1247V13.5787V13.5791ZM36.0835 11.5577C36.7919 11.5577 37.187 12.0805 37.187 12.7312C37.185 12.8129 37.1773 12.8944 37.1639 12.975H35.4559C35.4909 13.4047 35.8278 13.6372 36.1997 13.6372C36.455 13.6372 36.7107 13.5209 36.9082 13.37L37.1523 13.8116C36.8967 14.0319 36.5132 14.1716 36.1532 14.1716C35.3284 14.1716 34.8171 13.5791 34.8171 12.8703C34.8171 12.0921 35.34 11.5577 36.0835 11.5577ZM37.6983 11.6154H38.314V12.5684H38.6162L39.2203 11.6158H39.9057L39.1156 12.8006V12.8125L39.9985 14.1016H39.2784L38.6278 13.0912H38.3028V14.1016H37.6864V11.6154H37.6979H37.6983ZM23.6408 13.6257C24.0474 13.6257 24.3843 13.3119 24.3843 12.8471C24.3843 12.394 24.0474 12.0686 23.6405 12.0686C23.2342 12.0686 22.9089 12.3828 22.9089 12.8471C22.9089 13.3119 23.2339 13.6257 23.6408 13.6257ZM31.0646 12.5453C31.0646 12.2199 30.8436 12.0224 30.5649 12.0224C30.2514 12.0224 30.0189 12.2315 29.9607 12.5453H31.0646ZM36.5598 12.5453C36.5598 12.2199 36.3391 12.0224 36.0604 12.0224C35.7462 12.0224 35.514 12.2315 35.4559 12.5453H36.5598Z" fill="#2D3540"/>
<path d="M28.2778 3.09981V8.96689C28.2782 8.98836 28.2744 9.00971 28.2664 9.02965C28.2584 9.04959 28.2464 9.0677 28.2313 9.08289C28.2161 9.09808 28.198 9.11003 28.178 9.11802C28.1581 9.12601 28.1367 9.12987 28.1153 9.12938H26.9186C26.8971 9.12987 26.8758 9.12601 26.8558 9.11802C26.8359 9.11003 26.8178 9.09808 26.8026 9.08289C26.7874 9.0677 26.7755 9.04959 26.7675 9.02965C26.7595 9.00971 26.7556 8.98836 26.7561 8.96689V3.09981C26.7556 3.07833 26.7595 3.05698 26.7675 3.03705C26.7755 3.01711 26.7874 2.999 26.8026 2.98381C26.8178 2.96862 26.8359 2.95667 26.8558 2.94868C26.8758 2.94069 26.8971 2.93682 26.9186 2.93732H28.1153C28.1367 2.93682 28.1581 2.94069 28.178 2.94868C28.198 2.95667 28.2161 2.96862 28.2313 2.98381C28.2464 2.999 28.2584 3.01711 28.2664 3.03705C28.2744 3.05698 28.2782 3.07833 28.2778 3.09981ZM37.6186 2.93732C37.6652 2.93732 37.7233 2.96043 37.7811 3.00701C37.8161 3.04167 37.8161 3.09981 37.8045 3.14639L35.8293 9.02503C35.8174 9.05545 35.7966 9.08163 35.7698 9.10027C35.7429 9.11891 35.7111 9.12916 35.6784 9.12974H34.6096C34.5399 9.12974 34.4817 9.09472 34.4586 9.02503L33.3078 5.59787L32.1577 9.02466C32.1457 9.05509 32.125 9.08127 32.0981 9.09991C32.0713 9.11855 32.0395 9.1288 32.0068 9.12938H30.9379C30.8683 9.12938 30.8101 9.09472 30.787 9.02466L28.8118 3.14603C28.8003 3.09981 28.8003 3.05323 28.8349 3.00701C28.8584 2.96043 28.9165 2.93732 28.9628 2.93732H30.2988C30.3685 2.93732 30.4266 2.98354 30.4501 3.05323L31.507 6.52697L32.669 3.05323C32.681 3.02281 32.7018 2.99662 32.7286 2.97798C32.7555 2.95934 32.7873 2.94909 32.82 2.94851H33.761C33.8307 2.94851 33.8888 2.98354 33.9119 3.05323L35.0739 6.52697L36.1312 3.05323C36.1407 3.02032 36.1605 2.99131 36.1876 2.97045C36.2148 2.9496 36.2479 2.93798 36.2822 2.93732H37.6182H37.6186ZM39.64 2.93732C39.7212 2.93732 39.7909 3.00701 39.8025 3.09981V8.96689C39.803 8.98836 39.7991 9.00971 39.7911 9.02965C39.7831 9.04959 39.7712 9.0677 39.756 9.08289C39.7408 9.09808 39.7227 9.11003 39.7028 9.11802C39.6828 9.12601 39.6615 9.12987 39.64 9.12938H38.4433C38.4218 9.12987 38.4005 9.12601 38.3806 9.11802C38.3606 9.11003 38.3425 9.09808 38.3273 9.08289C38.3121 9.0677 38.3002 9.04959 38.2922 9.02965C38.2842 9.00971 38.2803 8.98836 38.2808 8.96689V3.09981C38.2803 3.07833 38.2842 3.05698 38.2922 3.03705C38.3002 3.01711 38.3121 2.999 38.3273 2.98381C38.3425 2.96862 38.3606 2.95667 38.3806 2.94868C38.4005 2.94069 38.4218 2.93682 38.4433 2.93732H39.64ZM26.0588 8.92067C26.1285 9.00192 26.0704 9.11783 25.9657 9.11783H24.5018C24.473 9.11861 24.4443 9.11272 24.4182 9.10063C24.392 9.08855 24.3689 9.07058 24.3508 9.04814L24.1071 8.74626C23.5958 9.07125 22.9913 9.26913 22.3525 9.26913C20.5637 9.26913 19.1113 7.8168 19.1113 6.02757C19.1113 4.23834 20.5637 2.78602 22.3525 2.78602C24.1418 2.78602 25.5941 4.23834 25.5941 6.02757C25.5941 6.66671 25.4081 7.27082 25.0828 7.78177L26.0588 8.92031V8.92067ZM13.8249 11.7668C14.1271 11.8831 14.2434 12.3359 14.2665 12.5334C14.3131 12.8938 14.2087 13.0332 14.0925 13.0332C13.9762 13.0332 13.8133 12.8938 13.6393 12.615C13.4649 12.3359 13.3952 12.0225 13.4884 11.8596C13.5461 11.7549 13.674 11.7087 13.8253 11.7668H13.8249ZM12.0591 13.0798C12.2451 13.0798 12.4542 13.161 12.6401 13.3235C13.0002 13.6257 13.1049 13.9742 12.9189 14.2299C12.8142 14.3577 12.6401 14.4389 12.4426 14.4389C12.2451 14.4389 12.036 14.3692 11.8967 14.2414C11.5713 13.9626 11.4785 13.4976 11.6872 13.2423C11.7688 13.1375 11.8967 13.0798 12.0591 13.0798ZM7.99321 16.4372C3.5781 16.4372 0 12.8588 0 8.44402C0 4.02927 3.57846 0.451172 7.99285 0.451172C12.4076 0.451172 15.9861 4.02963 15.9861 8.44402C15.9861 9.94257 15.5679 11.3487 14.8594 12.5453C14.836 12.58 14.7778 12.5685 14.7663 12.5219C14.4875 10.5586 13.2908 9.47784 11.5482 9.15285C11.3969 9.12938 11.3738 9.03658 11.5713 9.01347C12.1057 8.96689 12.8608 8.97844 13.2558 9.04814C13.2789 8.85062 13.2908 8.64154 13.2908 8.43247C13.2908 5.51626 10.9206 3.14603 8.0044 3.14603C5.08856 3.14603 2.71833 5.51626 2.71833 8.43247C2.71833 11.3487 5.08856 13.7189 8.00477 13.7189H8.24851C8.1657 13.2472 8.13062 12.7684 8.14379 12.2897C8.1557 11.9643 8.2254 11.9178 8.36478 12.1734C9.09672 13.4398 10.1425 14.5783 12.187 15.0315C13.8599 15.4034 15.5329 15.8331 17.3337 18.1217C17.4962 18.3193 17.2524 18.5283 17.0665 18.3658C15.231 16.7391 13.5581 16.2047 12.036 16.2047C10.3281 16.2166 9.16641 16.4372 7.99285 16.4372H7.99321ZM23.1542 7.61928L22.515 6.84076C22.4457 6.75951 22.5038 6.63168 22.6082 6.63168H23.9558C24.0255 6.44572 24.0605 6.23665 24.0605 6.02757C24.0605 5.06345 23.3401 4.22679 22.3525 4.22679C21.3653 4.22679 20.6446 5.06345 20.6446 6.02757C20.6446 6.9917 21.3653 7.8168 22.3525 7.8168C22.6313 7.82835 22.9104 7.74711 23.1542 7.61928Z" fill="#FF8C00"/>
</svg>
