<svg width="26" height="22" viewBox="0 0 26 22" fill="none" xmlns="http://www.w3.org/2000/svg">
<path d="M13.0571 0C14.1299 0 15.1505 0.244068 16.0664 0.680663C16.21 0.745016 16.3546 0.822036 16.4977 0.899125L15.8697 1.45155L14.9283 0.488205L13.3061 1.90094L12.3508 0.886123L9.36775 3.51927L11.2776 5.5872L10.532 6.22925L12.4162 8.29717L11.6706 8.93895L14.3659 11.8803L15.9611 10.4417L17.3486 11.9834C17.0736 12.1889 16.7727 12.3949 16.446 12.5744C15.4515 13.1266 14.3 13.4471 13.0704 13.4471C9.28897 13.4471 6.21489 10.4294 6.21489 6.71778C6.20153 3.03127 9.27616 0 13.0571 0ZM11.8009 6.30647L13.4364 4.86786L14.902 6.47331L13.2662 7.91179L11.8009 6.30647ZM12.9657 9.08086L14.5878 7.62952L16.0664 9.23484L14.4308 10.6735L12.9657 9.08086ZM10.6372 3.57082L12.2722 2.13221L13.7375 3.73767L12.102 5.17621L10.6372 3.57082ZM13.6327 2.79993L14.8495 1.72109L15.9488 2.91564L14.7319 4.00722L13.6327 2.79993ZM15.8047 7.74488L17.0212 6.66597L18.1204 7.87298L16.9035 8.95256L15.8047 7.74488ZM16.8774 10.1726L18.0943 9.09354L19.1926 10.288L17.9762 11.3795L16.8774 10.1726ZM17.3747 4.62379L18.1857 3.90445L18.9181 4.70108L18.1072 5.42015L17.3747 4.62379ZM16.328 2.24764L17.1391 1.51569L17.872 2.32473L17.0603 3.044L16.328 2.24764ZM18.4081 7.00014L19.2191 6.28086L19.9648 7.07722L19.1409 7.7963L18.4081 7.00014ZM14.758 5.21476L15.9749 4.13585L17.0736 5.33013L15.8572 6.40924L14.758 5.21476Z" fill="#036CB5"/>
<path d="M2.38011 18.2319H2.34208L1.62792 20.9446H1.0442L0.167969 17.0907H0.773612L1.3794 19.9663H1.41723L2.12021 17.0907H2.60172L3.35352 19.9663H3.39137L3.94312 17.0907H4.57595L3.6995 20.9446H3.11534L2.38011 18.2319Z" fill="#036CB5"/>
<path d="M5.34526 19.3039H6.58355C6.55669 18.7334 6.2807 18.5053 5.98876 18.5053C5.65886 18.5053 5.40449 18.7607 5.34526 19.3039ZM7.01617 20.3261V20.7393C6.77284 20.8806 6.44851 20.9894 6.05887 20.9894C5.1505 20.9894 4.77734 20.4241 4.77734 19.5654C4.77734 18.7388 5.1937 18.1409 6.00498 18.1409C6.68084 18.1409 7.09755 18.5815 7.09755 19.4672V19.6684H5.33441C5.33441 20.3205 5.59926 20.6086 6.15654 20.6086C6.44851 20.6086 6.71893 20.5052 7.01617 20.3261Z" fill="#036CB5"/>
<path d="M8.35392 20.5536C8.52702 20.6296 8.71646 20.6409 8.8519 20.6409C9.25202 20.6409 9.55456 20.3905 9.55456 19.5102C9.55456 18.8198 9.30581 18.597 8.9436 18.597C8.72709 18.597 8.57032 18.6569 8.35391 18.7763V20.5536H8.35392ZM8.35961 18.3742C8.52146 18.2875 8.79724 18.1729 9.08941 18.1729C9.76012 18.1729 10.1225 18.6404 10.1225 19.5102C10.1225 20.5267 9.6357 21.0213 8.8519 21.0213C8.56502 21.0213 8.12156 20.9289 7.79688 20.7546V16.9609L8.35962 16.8252V18.3742H8.35961Z" fill="#036CB5"/>
<path d="M12.5573 20.1268H12.5844L13.7416 17.0883H14.4126V20.9424H13.8285V18.1483H13.7797L12.6762 20.9424H12.3304L11.2267 18.2136H11.1782V20.9424H10.6914V17.0883H11.346L12.5573 20.1268Z" fill="#036CB5"/>
<path d="M16.8004 19.5652C16.8004 18.8314 16.5031 18.5218 16.1354 18.5218C15.7785 18.5218 15.47 18.8314 15.47 19.5652C15.47 20.31 15.7516 20.6086 16.1354 20.6086C16.5192 20.6086 16.8004 20.31 16.8004 19.5652ZM14.9023 19.5652C14.9023 18.6136 15.4217 18.1409 16.1354 18.1409C16.8495 18.1409 17.3686 18.6136 17.3686 19.5652C17.3686 20.4945 16.8764 20.9894 16.1354 20.9894C15.3945 20.9894 14.9023 20.4945 14.9023 19.5652Z" fill="#036CB5"/>
<path d="M17.7969 18.5434C18.0402 18.3964 18.5542 18.1409 19.176 18.1409C19.825 18.1409 20.0679 18.3964 20.0679 18.9561V20.9241H19.5059V19.0813C19.5059 18.652 19.2953 18.5759 19.0191 18.5759C18.8031 18.5759 18.5269 18.6739 18.3594 18.7717V20.9241H17.7969V18.5434H17.7969Z" fill="#036CB5"/>
<path d="M21.2552 19.3039H22.4936C22.467 18.7334 22.1909 18.5053 21.8988 18.5053C21.5688 18.5053 21.315 18.7607 21.2552 19.3039ZM22.9262 20.3261V20.7393C22.683 20.8806 22.3585 20.9894 21.969 20.9894C21.0609 20.9894 20.6875 20.4241 20.6875 19.5654C20.6875 18.7388 21.1037 18.1409 21.915 18.1409C22.5913 18.1409 23.008 18.5815 23.008 19.4672V19.6684H21.2446C21.2446 20.3205 21.5096 20.6086 22.0667 20.6086C22.3585 20.6086 22.6293 20.5052 22.9262 20.3261Z" fill="#036CB5"/>
<path d="M25.2562 18.1409H25.8351L24.8561 20.8583C24.5853 21.6085 24.2558 21.9999 23.6339 21.9999V21.5545C24.0019 21.5545 24.2287 21.2608 24.3588 20.8583L23.3203 18.1409H23.9153L24.6076 20.1411H24.64L25.2562 18.1409Z" fill="#036CB5"/>
</svg>
