<svg width="15" height="12" fill="none" xmlns="http://www.w3.org/2000/svg"><path d="M14.25 2.066a5.73 5.73 0 01-1.371 1.442v.351c0 .938-.176 1.864-.527 2.778a8.954 8.954 0 01-1.495 2.531c-.644.773-1.476 1.395-2.496 1.863-1.02.469-2.138.703-3.357.703a7.765 7.765 0 01-4.254-1.23c.21.023.434.035.668.035a5.403 5.403 0 003.445-1.195c-.61 0-1.148-.182-1.617-.545a2.867 2.867 0 01-.984-1.389c.164.047.34.07.527.07.258 0 .504-.035.738-.105a2.82 2.82 0 01-1.617-.967 2.632 2.632 0 01-.633-1.74v-.035c.399.21.82.328 1.266.351-.82-.562-1.23-1.336-1.23-2.32 0-.492.128-.96.386-1.406 1.477 1.828 3.375 2.8 5.696 2.918a2.91 2.91 0 01-.07-.633c0-.773.269-1.43.808-1.969a2.68 2.68 0 011.969-.808c.796 0 1.464.293 2.003.879a5.157 5.157 0 001.758-.668 2.653 2.653 0 01-1.195 1.511 6.323 6.323 0 001.582-.422z" fill="#8181A5"/></svg>