<svg width="24" height="23" viewBox="0 0 24 23" fill="none" xmlns="http://www.w3.org/2000/svg">
<rect x="0.5" width="23" height="23" rx="11.5" fill="#7289DA"/>
<path d="M17.7663 7.561C16.7112 6.71696 15.4452 6.29495 14.1088 6.22461L13.8978 6.43562C15.0935 6.71696 16.1485 7.27966 17.1333 8.05336C15.9375 7.42033 14.6011 6.99831 13.1944 6.85764C12.7724 6.7873 12.4207 6.7873 11.9987 6.7873C11.5767 6.7873 11.225 6.7873 10.803 6.85764C9.39625 6.99831 8.05986 7.42033 6.86414 8.05336C7.84885 7.27966 8.9039 6.71696 10.0996 6.43562L9.88861 6.22461C8.55221 6.29495 7.28616 6.71696 6.23111 7.561C5.0354 9.81176 4.40237 12.3439 4.33203 14.9463C5.38708 16.0717 6.86414 16.7751 8.41154 16.7751C8.41154 16.7751 8.9039 16.2124 9.25558 15.72C8.34121 15.509 7.49717 15.0167 6.93448 14.243C7.42683 14.5243 7.91919 14.8056 8.41154 15.0167C9.04457 15.298 9.6776 15.4387 10.3106 15.5793C10.8733 15.6497 11.436 15.72 11.9987 15.72C12.5614 15.72 13.1241 15.6497 13.6868 15.5793C14.3198 15.4387 14.9528 15.298 15.5859 15.0167C16.0782 14.8056 16.5706 14.5243 17.0629 14.243C16.5002 15.0167 15.6562 15.509 14.7418 15.72C15.0935 16.2124 15.5859 16.7751 15.5859 16.7751C17.1333 16.7751 18.6103 16.0717 19.6654 14.9463C19.595 12.3439 18.962 9.81176 17.7663 7.561ZM9.6776 13.6803C8.97423 13.6803 8.34121 13.0472 8.34121 12.2735C8.34121 11.4998 8.97423 10.8668 9.6776 10.8668C10.381 10.8668 11.014 11.4998 11.014 12.2735C11.014 13.0472 10.381 13.6803 9.6776 13.6803ZM14.3198 13.6803C13.6164 13.6803 12.9834 13.0472 12.9834 12.2735C12.9834 11.4998 13.6164 10.8668 14.3198 10.8668C15.0232 10.8668 15.6562 11.4998 15.6562 12.2735C15.6562 13.0472 15.0232 13.6803 14.3198 13.6803Z" fill="white"/>
</svg>
