<svg width="16" height="16" viewBox="0 0 16 16" fill="none" xmlns="http://www.w3.org/2000/svg">
<circle cx="8" cy="8" r="8" fill="#FF808B"/>
<path d="M10.156 2.66675H5.84465C4.09248 2.66675 2.66699 4.09224 2.66699 5.84441V10.1558C2.66699 11.9079 4.09248 13.3334 5.84465 13.3334H10.156C11.9082 13.3334 13.3337 11.9079 13.3337 10.1558V5.84441C13.3336 4.09224 11.9081 2.66675 10.156 2.66675ZM12.2606 10.1558C12.2606 11.3181 11.3183 12.2603 10.156 12.2603H5.84465C4.68233 12.2603 3.74006 11.3181 3.74006 10.1558V5.84441C3.74006 4.68206 4.68233 3.73981 5.84465 3.73981H10.156C11.3183 3.73981 12.2606 4.68206 12.2606 5.84441V10.1558Z" fill="white"/>
<path d="M7.99999 5.24121C6.4788 5.24121 5.24121 6.4788 5.24121 7.99997C5.24121 9.52115 6.4788 10.7588 7.99999 10.7588C9.52118 10.7588 10.7588 9.52116 10.7588 7.99997C10.7588 6.47878 9.52118 5.24121 7.99999 5.24121ZM7.99999 9.6857C7.06899 9.6857 6.31428 8.93099 6.31428 7.99999C6.31428 7.06899 7.06901 6.31428 7.99999 6.31428C8.93099 6.31428 9.6857 7.06899 9.6857 7.99999C9.6857 8.93097 8.93097 9.6857 7.99999 9.6857Z" fill="white"/>
<path d="M10.7646 5.92319C11.1297 5.92319 11.4256 5.62723 11.4256 5.26213C11.4256 4.89704 11.1297 4.60107 10.7646 4.60107C10.3995 4.60107 10.1035 4.89704 10.1035 5.26213C10.1035 5.62723 10.3995 5.92319 10.7646 5.92319Z" fill="white"/>
</svg>
