<svg width="24" height="23" viewBox="0 0 24 23" fill="none" xmlns="http://www.w3.org/2000/svg">
<rect x="0.5" width="23" height="23" rx="11.5" fill="#0F88FE"/>
<path d="M12.0899 18.2433C12.0483 18.2433 12.0098 18.2433 11.981 18.2369C11.9586 18.2433 11.9329 18.2433 11.9073 18.2433C11.0517 18.2433 10.4814 17.8396 9.97189 17.4839C9.6098 17.2275 9.27014 16.984 8.86961 16.9167C8.67414 16.8815 8.47547 16.8687 8.29283 16.8687C7.95317 16.8687 7.68401 16.9199 7.49175 16.9584C7.36999 16.9808 7.26745 17 7.18734 17C7.10403 17 6.99828 16.9776 6.95663 16.8366C6.92138 16.7213 6.89895 16.6123 6.87652 16.5066C6.81884 16.2406 6.77078 16.0772 6.67144 16.0612C5.6012 15.8978 4.96034 15.651 4.83537 15.3594C4.82576 15.3274 4.81294 15.2953 4.81294 15.2697C4.80653 15.18 4.87062 15.1063 4.96034 15.0903C5.80948 14.9493 6.57211 14.4975 7.21618 13.7541C7.71605 13.1773 7.95958 12.6197 7.98201 12.5589C7.98201 12.5524 7.98842 12.5524 7.98842 12.5524C8.11018 12.2993 8.13582 12.0846 8.06212 11.9084C7.92433 11.5783 7.46932 11.4373 7.1585 11.3412C7.07839 11.3188 7.0111 11.2932 6.95342 11.2739C6.68747 11.1682 6.24527 10.9439 6.30295 10.6331C6.3446 10.4088 6.64261 10.2485 6.88613 10.2485C6.95342 10.2485 7.0111 10.2582 7.05917 10.2838C7.33153 10.4088 7.57827 10.4728 7.78975 10.4728C8.0525 10.4728 8.17747 10.3735 8.20952 10.3415C8.20311 10.2005 8.19349 10.0531 8.18388 9.9153C8.1198 8.93478 8.0461 7.71713 8.35691 7.01859C9.28937 4.92938 11.2696 4.76276 11.856 4.76276C11.872 4.76276 12.1124 4.75635 12.1124 4.75635C12.122 4.75635 12.1348 4.75635 12.1476 4.75635C12.734 4.75635 14.7143 4.91977 15.6467 7.01219C15.9608 7.71073 15.8839 8.93157 15.8198 9.90889L15.8134 9.95695C15.8069 10.0883 15.7973 10.2133 15.7909 10.3415C15.823 10.3671 15.9383 10.4632 16.1754 10.4664C16.3805 10.46 16.6048 10.3927 16.8612 10.2774C16.9413 10.2421 17.0246 10.2293 17.0855 10.2293C17.1752 10.2293 17.2649 10.2517 17.3418 10.2774H17.3482C17.5629 10.3575 17.7039 10.5081 17.7039 10.6651C17.7103 10.8125 17.595 11.0368 17.047 11.2579C16.9893 11.2803 16.9221 11.306 16.8419 11.3252C16.5375 11.4181 16.0825 11.5655 15.9383 11.8924C15.8582 12.0654 15.8903 12.2865 16.012 12.5364C16.012 12.5428 16.0184 12.5428 16.0184 12.5428C16.0537 12.6326 16.9797 14.7346 19.0401 15.0774C19.1298 15.0935 19.1875 15.1672 19.1875 15.2569C19.1875 15.2889 19.1811 15.321 19.1651 15.3498C19.0401 15.6446 18.4056 15.8849 17.329 16.0516C17.2297 16.0676 17.1816 16.231 17.1239 16.497C17.1015 16.6059 17.0759 16.7117 17.0438 16.827C17.0118 16.9327 16.9445 16.9904 16.8291 16.9904H16.8131C16.7394 16.9904 16.6401 16.9808 16.5087 16.9552C16.278 16.9071 16.0248 16.8719 15.7076 16.8719C15.5186 16.8719 15.3231 16.8879 15.1308 16.9199C14.7335 16.984 14.3906 17.2307 14.0286 17.4871C13.5127 17.8396 12.9391 18.2433 12.0899 18.2433Z" fill="white"/>
</svg>
