<svg width="24" height="23" viewBox="0 0 24 23" fill="none" xmlns="http://www.w3.org/2000/svg">
<rect x="0.5" width="23" height="23" rx="11.5" fill="#419FD9"/>
<rect x="0.5" width="23" height="23" rx="11.5" fill="url(#paint0_linear_189_3021)"/>
<path d="M5.66895 11.2464C9.0132 9.75875 11.2432 8.77799 12.359 8.30414C15.5449 6.95119 16.2068 6.71617 16.6383 6.70833C16.7332 6.7067 16.9454 6.73072 17.0828 6.84459C17.1989 6.94074 17.2308 7.07063 17.2461 7.16179C17.2614 7.25295 17.2804 7.46062 17.2653 7.62288C17.0927 9.47497 16.3456 13.9695 15.9656 16.0439C15.8048 16.9216 15.4882 17.2159 15.1816 17.2447C14.5154 17.3073 14.0096 16.7952 13.3643 16.3633C12.3547 15.6876 11.7843 15.2669 10.8042 14.6075C9.67158 13.8454 10.4058 13.4266 11.0513 12.7421C11.2202 12.5629 14.1554 9.83699 14.2123 9.5897C14.2194 9.55878 14.226 9.44349 14.1589 9.38262C14.0918 9.32175 13.9928 9.34257 13.9214 9.35912C13.8201 9.38259 12.2071 10.4711 9.08251 12.6246C8.62468 12.9456 8.20999 13.102 7.83844 13.0938C7.42884 13.0848 6.64093 12.8574 6.0552 12.663C5.33678 12.4245 4.7658 12.2985 4.81552 11.8935C4.84142 11.6826 5.12589 11.4669 5.66895 11.2464Z" fill="white"/>
<defs>
<linearGradient id="paint0_linear_189_3021" x1="12" y1="0" x2="12" y2="22.8293" gradientUnits="userSpaceOnUse">
<stop stop-color="#2AABEE"/>
<stop offset="1" stop-color="#229ED9"/>
</linearGradient>
</defs>
</svg>
