<svg width="24" height="23" viewBox="0 0 24 23" fill="none" xmlns="http://www.w3.org/2000/svg">
<rect x="0.5" width="23" height="23" rx="11.5" fill="#1DA1F2"/>
<path d="M17.6375 9.01465C17.6375 9.14043 17.6375 9.26621 17.6375 9.37402C17.6375 13.0936 14.7984 17.3881 9.62344 17.3881C8.02422 17.3881 6.55078 16.9209 5.29297 16.1303C5.50859 16.1482 5.74219 16.1662 5.95781 16.1662C7.26953 16.1662 8.49141 15.717 9.46172 14.9623C8.22187 14.9443 7.17969 14.1178 6.83828 13.0037C7.01797 13.0396 7.17969 13.0576 7.37734 13.0576C7.62891 13.0576 7.88047 13.0217 8.11406 12.9498C6.82031 12.6982 5.85 11.5662 5.85 10.2006C5.85 10.1826 5.85 10.1826 5.85 10.1646C6.22734 10.3803 6.65859 10.5061 7.12578 10.524C6.37109 10.0209 5.86797 9.1584 5.86797 8.17012C5.86797 7.64902 6.01172 7.16387 6.24531 6.75059C7.62891 8.45762 9.71328 9.57168 12.0492 9.69746C11.9953 9.4998 11.9773 9.26621 11.9773 9.05059C11.9773 7.4873 13.2352 6.22949 14.7984 6.22949C15.607 6.22949 16.3437 6.5709 16.8469 7.10996C17.4937 6.98418 18.0867 6.75059 18.6437 6.42715C18.4281 7.09199 17.9789 7.63105 17.4039 7.99043C17.9789 7.91855 18.518 7.7748 19.0211 7.54121C18.6617 8.11621 18.1945 8.61934 17.6375 9.01465Z" fill="white"/>
</svg>
