<svg width="24" height="23" viewBox="0 0 24 23" fill="none" xmlns="http://www.w3.org/2000/svg">
<rect x="0.5" width="23" height="23" rx="11.5" fill="#5181B8"/>
<path fill-rule="evenodd" clip-rule="evenodd" d="M19.3136 7.92226C19.4202 7.56687 19.3136 7.30566 18.8062 7.30566H17.1288C16.7022 7.30566 16.5057 7.53128 16.3991 7.78015C16.3991 7.78015 15.546 9.85938 14.3375 11.21C13.9465 11.601 13.7688 11.7252 13.5555 11.7252C13.4489 11.7252 13.2945 11.601 13.2945 11.2456V7.92226C13.2945 7.4957 13.1708 7.30566 12.8153 7.30566H10.1792C9.91275 7.30566 9.75243 7.50361 9.75243 7.69124C9.75243 8.09564 10.3566 8.18885 10.4189 9.32618V11.7965C10.4189 12.3381 10.3211 12.4363 10.1078 12.4363C9.53915 12.4363 8.15595 10.3476 7.33543 7.95784C7.17463 7.4933 7.01336 7.30566 6.58464 7.30566H4.90717C4.42789 7.30566 4.33203 7.53128 4.33203 7.78015C4.33203 8.22444 4.90081 10.4282 6.98005 13.3427C8.36636 15.3329 10.3192 16.412 12.0963 16.412C13.1627 16.412 13.2945 16.1723 13.2945 15.7595V14.2552C13.2945 13.7759 13.3955 13.6803 13.7331 13.6803C13.9821 13.6803 14.4085 13.8047 15.4038 14.7643C16.5412 15.9015 16.7286 16.412 17.3684 16.412H19.0459C19.5252 16.412 19.7648 16.1723 19.6265 15.6994C19.4753 15.228 18.9323 14.5443 18.2117 13.7336C17.8207 13.2715 17.2342 12.7739 17.0566 12.5251C16.8078 12.2052 16.8788 12.0631 17.0566 11.7789C17.0566 11.7789 19.1003 8.89986 19.3136 7.92238V7.92226Z" fill="white"/>
</svg>
