<svg width="24" height="23" viewBox="0 0 24 23" fill="none" xmlns="http://www.w3.org/2000/svg">
<rect x="0.5" width="23" height="23" rx="11.5" fill="#FF0000"/>
<path fill-rule="evenodd" clip-rule="evenodd" d="M17.6244 6.77515C18.2402 6.94092 18.7256 7.4264 18.8914 8.04213C19.1993 9.16703 19.1874 11.5115 19.1874 11.5115C19.1874 11.5115 19.1874 13.8442 18.8914 14.9691C18.7256 15.5848 18.2402 16.0703 17.6244 16.2361C16.4995 16.5321 12 16.5321 12 16.5321C12 16.5321 7.51224 16.5321 6.37551 16.2242C5.75978 16.0585 5.2743 15.573 5.10852 14.9573C4.8125 13.8442 4.8125 11.4997 4.8125 11.4997C4.8125 11.4997 4.8125 9.16703 5.10852 8.04213C5.2743 7.4264 5.77162 6.92908 6.37551 6.76331C7.5004 6.46729 12 6.46729 12 6.46729C12 6.46729 16.4995 6.46729 17.6244 6.77515ZM14.308 11.4997L10.5662 13.6548V9.34466L14.308 11.4997Z" fill="white"/>
</svg>
