<svg width="455" height="370" viewBox="0 0 455 370" fill="none" xmlns="http://www.w3.org/2000/svg">
<path d="M422.331 90.4054C433.679 125.657 442.714 158.097 449.494 200.89C456.275 243.682 460.719 296.79 435.737 313.345C410.817 329.82 356.406 309.71 318.755 291.837C281.141 274.091 260.209 258.53 241.201 244.471C222.073 230.453 204.708 217.84 181.982 198.1C159.175 178.31 131.001 151.402 125.893 120.901C120.863 90.4426 138.782 56.3228 166.684 42.2587C194.586 28.1945 232.442 34.0043 270.349 26.8522C308.169 19.6567 346.146 -0.702444 371.835 8.19304C397.609 17.1301 411.066 55.1954 422.331 90.4054Z" fill="#E7EAFC" fill-opacity="0.45"/>
<path d="M114.582 167.11C116.022 164.39 116.822 162.62 117.842 160.99C123.552 151.88 122.332 141.09 114.692 133.69C111.119 130.267 106.469 128.189 101.536 127.81C96.602 127.43 91.6894 128.773 87.6348 131.609C83.5801 134.446 80.6343 138.6 79.2991 143.365C77.9639 148.129 78.3219 153.21 80.3122 157.74C81.5122 160.61 82.9622 163.36 84.7422 167.11H71.8122C63.0022 167.11 54.1922 167.17 45.3822 167.11C39.3822 167.05 35.3822 163.65 35.2522 157.77C35.0222 143.49 35.1822 129.21 35.1822 114.04C37.1208 114.766 39.0055 115.628 40.8222 116.62C48.8222 121.83 58.5922 122.12 65.6622 117.22C69.3325 114.716 72.1494 111.15 73.7349 107C75.3203 102.849 75.5985 98.3131 74.5322 94C73.4875 89.6779 71.084 85.8048 67.6748 82.95C64.2656 80.0952 60.0306 78.4093 55.5922 78.14C51.2022 77.9 46.6422 79.85 42.2422 81.14C40.1022 81.74 38.1522 83.02 35.3922 84.34C35.2722 81.83 35.1222 80.09 35.1222 78.34C35.1222 67.7 35.0522 57.06 35.1222 46.42C35.1222 39.24 38.7022 35.69 45.8622 35.66C60.6522 35.58 75.4322 35.66 91.6422 35.66C89.5322 30.87 87.8022 26.74 85.9022 22.66C80.9022 11.89 88.1622 -0.0199748 99.9022 2.51544e-05C112.012 2.51544e-05 119.062 12.59 113.262 23.62C111.442 27.07 110.072 30.75 108.082 35.25C110.962 35.43 112.672 35.62 114.392 35.62C127.519 35.62 140.649 35.62 153.782 35.62C163.702 35.62 166.622 38.51 166.632 48.27C166.632 62.21 166.632 76.16 166.632 91.84C172.212 89.53 176.992 87.72 181.632 85.57C189.482 81.94 197.942 83.97 202.282 90.76C204.19 93.7157 205.043 97.229 204.703 100.73C204.364 104.232 202.852 107.516 200.412 110.05C195.192 115.37 187.502 116.05 180.712 112.52C176.622 110.39 172.062 109.15 166.642 107.11V117.18C166.642 130.18 166.642 143.11 166.642 156.08C166.642 163.47 163.052 167.08 155.642 167.08C142.342 167.15 129.062 167.11 114.582 167.11Z" fill="url(#paint0_linear_663_6706)"/>
<path d="M245.532 165.5C248.082 171.5 249.992 176.21 252.022 180.83C256.312 190.61 251.562 201.09 241.792 203.3C238.781 204.045 235.615 203.858 232.712 202.766C229.808 201.673 227.305 199.725 225.532 197.18C221.622 191.57 221.472 185.68 224.962 179.85C227.562 175.51 229.392 171.1 228.592 165.5H184.462C182.635 165.562 180.806 165.528 178.982 165.4C173.922 164.86 170.732 161.59 170.702 156.53C170.602 142.41 170.702 128.29 170.702 113.2C173.322 114.6 175.472 115.58 177.452 116.85C181.61 119.536 186.567 120.704 191.486 120.158C196.406 119.611 200.986 117.383 204.452 113.85C211.402 107.01 212.602 95.85 207.312 87.22C204.685 83.1342 200.747 80.0632 196.144 78.5113C191.541 76.9594 186.547 77.0189 181.982 78.68C178.442 80.01 175.102 81.87 171.112 83.75C170.952 82 170.742 80.63 170.732 79.26C170.732 67.46 170.682 55.66 170.732 43.86C170.732 37.99 173.932 34.27 179.732 34.18C193.682 33.95 207.652 34.11 221.612 34.18C222.262 34.3386 222.888 34.5842 223.472 34.91C222.472 36.72 221.682 38.45 220.672 40.05C214.412 50.05 215.452 60.75 223.452 68.18C227.16 71.7013 232.007 73.7776 237.115 74.0326C242.222 74.2876 247.252 72.7044 251.292 69.57C259.862 62.94 262.002 52.04 256.782 41.81C255.652 39.61 254.582 37.37 253.172 34.51C255.032 34.34 256.422 34.11 257.802 34.11C268.602 34.11 279.406 34.11 290.212 34.11C298.592 34.11 302.052 37.6 302.082 45.92C302.082 58.55 302.082 71.19 302.082 83.82V90.55C306.872 88.45 310.872 86.77 314.812 84.94C321.282 81.94 328.382 83.07 333.172 88.01C335.377 90.3949 336.803 93.3943 337.263 96.6095C337.722 99.8247 337.191 103.103 335.742 106.01C331.742 114.01 321.642 116.63 313.492 112.01C310.252 110.17 306.642 109.01 302.082 107.01V113.41C302.082 126.543 302.082 139.677 302.082 152.81C302.082 162.26 298.932 165.45 289.632 165.47C277.172 165.47 264.709 165.47 252.242 165.47L245.532 165.5Z" fill="url(#paint1_linear_663_6706)"/>
<path d="M325.322 333.05C329.762 336.16 333.552 338.73 337.262 341.42C342.602 345.28 344.932 350.6 343.772 357.05C343.345 359.961 342.057 362.677 340.074 364.849C338.09 367.022 335.502 368.551 332.642 369.24C326.502 370.99 320.692 369.54 316.962 364.5C314.672 361.4 313.962 357.03 312.962 353.12C312.052 349.55 311.692 345.84 310.962 341.4C297.222 349.58 284.552 357.1 271.902 364.66C263.322 369.78 259.142 368.57 254.082 359.88C247.392 348.41 240.482 337.06 233.662 325.67C233.124 324.955 232.55 324.267 231.942 323.61C229.242 326.84 226.672 329.87 224.162 332.96C222.162 335.39 220.632 338.3 218.292 340.28C213.212 344.55 205.552 344.58 200.132 340.87C197.377 338.955 195.298 336.217 194.193 333.048C193.089 329.88 193.015 326.443 193.982 323.23C195.692 317.09 202.052 312.47 209.072 312.23C217.512 311.99 218.872 311.59 223.182 307.97C215.849 295.637 208.486 283.263 201.092 270.85C199.812 268.916 198.708 266.871 197.792 264.74C196.332 260.74 196.942 256.6 200.432 254.39C212.722 246.59 225.312 239.25 238.622 231.24C238.852 234.54 239.172 236.8 239.152 239.06C239.022 251.54 247.472 260.88 259.622 261.58C270.922 262.24 281.252 253.28 282.112 241.4C282.389 237.977 281.789 234.539 280.369 231.412C278.948 228.286 276.753 225.573 273.992 223.53C270.922 221.11 267.552 219.09 263.582 216.39C276.112 209.02 287.822 201.82 299.852 195.22C304.092 192.9 308.632 194.59 311.172 198.72C318.732 210.99 325.972 223.45 333.842 236.72C330.842 236.91 328.602 237.19 326.392 237.18C315.692 237.1 306.192 244.18 304.302 253.72C302.152 264.65 307.432 274.48 317.722 278.66C327.182 282.5 337.612 278.91 343.722 269.66C345.262 267.33 346.722 264.96 348.782 261.8C353.902 270.33 358.642 278.21 363.362 286.1C364.822 288.52 366.222 290.97 367.672 293.39C372.082 300.72 370.932 305.69 363.672 310C351.972 317.013 340.259 323.987 328.532 330.92C327.842 331.34 327.182 331.82 325.322 333.05Z" fill="url(#paint2_linear_663_6706)"/>
<path d="M166.812 223.67L159.252 219.41C148.392 213.31 135.552 216.68 129.422 227.24C123.692 237.1 127.122 250.02 137.422 256.24C144.212 260.37 151.332 260.03 158.422 256.73C160.942 255.55 163.422 254.23 166.422 252.68C166.612 254.34 166.832 255.39 166.832 256.45C166.832 268.25 166.892 280.05 166.832 291.86C166.832 298.86 163.462 302.25 156.462 302.28C142.512 302.28 128.572 302.28 113.672 302.28C115.162 299.47 116.182 297.28 117.432 295.28C120.088 291.013 121.153 285.945 120.44 280.969C119.726 275.994 117.28 271.429 113.532 268.08C109.847 264.799 105.154 262.871 100.226 262.613C95.2988 262.355 90.4303 263.782 86.4222 266.66C82.4234 269.568 79.5603 273.776 78.3234 278.563C77.0865 283.351 77.5527 288.419 79.6422 292.9C80.9422 295.74 82.3322 298.55 84.1422 302.33H74.8422C65.3722 302.33 55.8922 302.33 46.4222 302.33C38.8022 302.33 35.4222 299.11 35.4222 291.46C35.3222 278.33 35.4222 265.2 35.4222 252.06V245.9C30.4222 248.15 26.2922 250.08 22.1222 251.84C11.3322 256.4 0.182193 249.53 0.00219317 238.27C-0.187807 225.89 12.0022 218.51 23.0022 224.19C26.6122 226.04 30.4322 227.49 35.0822 229.54C35.2322 226.54 35.3922 224.76 35.4022 223.02C35.4022 209.88 35.4022 196.75 35.4022 183.62C35.4022 174.17 38.5322 171 47.8622 170.98C60.1622 170.98 72.4622 170.98 84.7622 170.98H91.5322C89.6022 165.98 88.0322 161.98 86.4722 157.88C85.5822 155.56 84.3122 153.32 83.9022 150.88C83.3296 147.66 83.802 144.341 85.2503 141.408C86.6987 138.475 89.047 136.083 91.9522 134.58C94.8927 133.183 98.1822 132.69 101.403 133.166C104.624 133.641 107.631 135.063 110.042 137.25C112.421 139.605 113.993 142.653 114.532 145.957C115.071 149.261 114.55 152.651 113.042 155.64C111.432 158.893 110 162.231 108.752 165.64C107.502 169.2 108.332 171.22 112.852 171.03C120.152 170.71 127.482 170.92 134.792 170.95C170.892 171.06 166.722 167.16 166.872 203.27C166.832 209.74 166.812 216.18 166.812 223.67Z" fill="url(#paint3_linear_663_6706)"/>
<defs>
<linearGradient id="paint0_linear_663_6706" x1="0" y1="184.975" x2="370.262" y2="184.975" gradientUnits="userSpaceOnUse">
<stop stop-color="#B224EF" stop-opacity="0.95"/>
<stop offset="1" stop-color="#7579FF"/>
</linearGradient>
<linearGradient id="paint1_linear_663_6706" x1="0" y1="184.975" x2="370.262" y2="184.975" gradientUnits="userSpaceOnUse">
<stop stop-color="#B224EF" stop-opacity="0.95"/>
<stop offset="1" stop-color="#7579FF"/>
</linearGradient>
<linearGradient id="paint2_linear_663_6706" x1="0" y1="184.975" x2="370.262" y2="184.975" gradientUnits="userSpaceOnUse">
<stop stop-color="#B224EF" stop-opacity="0.95"/>
<stop offset="1" stop-color="#7579FF"/>
</linearGradient>
<linearGradient id="paint3_linear_663_6706" x1="0" y1="184.975" x2="370.262" y2="184.975" gradientUnits="userSpaceOnUse">
<stop stop-color="#B224EF" stop-opacity="0.95"/>
<stop offset="1" stop-color="#7579FF"/>
</linearGradient>
</defs>
</svg>
