<svg width="514" height="357" viewBox="0 0 514 357" fill="none" xmlns="http://www.w3.org/2000/svg">
<path d="M281.62 113.229C304.831 141.353 324.902 167.747 346.678 204.433C368.453 241.119 391.845 288.094 375.012 312.332C358.206 336.474 301.105 337.874 260.152 335.222C219.279 332.672 194.464 326.052 171.956 320.105C149.354 314.24 128.877 309.018 100.899 299.226C72.8309 289.419 37.2611 275.052 21.4876 249.003C5.80175 222.965 9.78124 185.226 30.1925 162.205C50.6039 139.183 87.3551 130.724 119.436 110.386C151.421 90.0396 178.76 57.5922 205.502 56.383C232.336 55.1814 258.5 85.1126 281.62 113.229Z" fill="#E7EAFC" fill-opacity="0.29"/>
<path d="M384.698 153.365C384.728 156.443 384.868 158.38 384.748 160.299C384.069 171.029 390.283 179.934 400.526 182.8C405.298 184.107 410.376 183.718 414.895 181.701C419.413 179.684 423.092 176.162 425.305 171.737C427.519 167.311 428.129 162.255 427.033 157.43C425.936 152.604 423.201 148.309 419.292 145.274C416.87 143.323 414.285 141.596 410.933 139.147L422.301 132.986C430.046 128.788 437.763 124.537 445.537 120.392C450.841 117.586 455.978 118.669 458.894 123.777C465.9 136.222 472.564 148.853 479.792 162.19C477.742 162.476 475.674 162.616 473.604 162.609C464.088 161.841 455.361 166.241 451.48 173.918C449.446 177.868 448.668 182.346 449.252 186.75C449.836 191.154 451.753 195.275 454.745 198.559C457.723 201.861 461.682 204.121 466.039 205.006C470.397 205.892 474.924 205.356 478.954 203.478C482.928 201.597 486.008 197.71 489.262 194.479C490.857 192.932 491.962 190.878 493.759 188.402C495.061 190.552 496.022 192.01 496.856 193.548C501.926 202.903 507.057 212.224 512.065 221.612C515.486 227.924 514.03 232.751 507.75 236.189C494.785 243.307 481.752 250.279 467.501 258.003C471.638 261.209 475.127 264.016 478.742 266.697C488.269 273.784 487.562 287.714 477.23 293.29C466.584 299.061 454.386 291.351 454.23 278.89C454.186 274.99 453.637 271.101 453.243 266.197C450.625 267.411 449.031 268.059 447.519 268.878C435.978 275.133 424.434 281.389 412.888 287.647C404.166 292.374 400.222 291.224 395.563 282.648C388.92 270.393 382.273 258.128 374.802 244.342C370.997 249.032 367.657 252.901 364.602 257.002C359.43 263.934 351.025 266.18 343.974 262.279C340.889 260.589 338.464 257.907 337.094 254.667C335.725 251.427 335.489 247.819 336.426 244.428C338.481 237.264 344.918 233.002 352.569 232.87C357.18 232.794 361.78 231.711 367.517 230.922L362.719 222.069C356.525 210.639 350.364 199.272 344.184 187.869C340.662 181.371 342.099 176.487 348.613 172.956C360.273 166.557 371.968 160.265 384.698 153.365Z" fill="url(#paint0_linear_663_6715)"/>
<path d="M270.337 217.177C265.236 213.117 261.312 209.886 257.326 206.791C248.894 200.237 248.077 188.76 255.613 182.162C257.906 180.072 260.778 178.727 263.852 178.305C266.925 177.882 270.053 178.402 272.825 179.795C278.936 182.864 281.874 187.971 281.584 194.759C281.366 199.814 281.858 204.563 285.23 209.105L324.028 188.078C325.605 187.153 327.229 186.311 328.894 185.555C333.6 183.618 337.962 184.973 340.4 189.408C347.216 201.774 353.856 214.236 361.046 227.502C358.075 227.52 355.718 227.683 353.372 227.51C348.437 227.129 343.522 228.464 339.458 231.289C335.393 234.114 332.428 238.255 331.064 243.012C328.213 252.338 332.475 262.721 341.238 267.788C345.495 270.128 350.421 270.952 355.207 270.123C359.993 269.294 364.355 266.862 367.577 263.227C370.056 260.371 372.106 257.144 374.718 253.59C375.693 255.052 376.53 256.156 377.192 257.356C382.814 267.73 388.481 278.081 394.059 288.479C396.856 293.64 395.815 298.435 390.759 301.278C378.604 308.127 366.246 314.643 353.939 321.233C353.292 321.404 352.625 321.486 351.956 321.478C351.973 319.41 351.843 317.513 351.968 315.625C352.707 303.85 346.694 294.938 336.121 292.218C331.183 290.889 325.932 291.373 321.32 293.582C316.708 295.792 313.041 299.58 310.982 304.261C306.607 314.174 309.919 324.777 319.383 331.283C321.424 332.679 323.432 334.139 326.035 335.981C324.48 337.017 323.368 337.881 322.155 338.539C312.66 343.685 303.162 348.833 293.661 353.982C286.293 357.975 281.588 356.555 277.597 349.255C271.579 338.151 265.556 327.038 259.538 315.934L256.332 310.017C253.121 314.146 250.405 317.529 247.813 321.015C243.554 326.735 236.773 329.125 230.208 327.064C227.134 326.018 224.45 324.061 222.515 321.453C220.579 318.845 219.483 315.709 219.372 312.463C219.077 303.524 226.708 296.408 236.075 296.586C239.8 296.66 243.527 295.96 248.489 295.546L245.439 289.919C239.181 278.372 232.923 266.826 226.666 255.279C222.163 246.971 223.412 242.665 231.579 238.216C242.534 232.279 253.491 226.341 264.452 220.401L270.337 217.177Z" fill="url(#paint1_linear_663_6715)"/>
<path d="M120.351 107.889C114.966 107.27 110.409 106.817 105.865 106.22C99.3314 105.37 94.748 101.803 92.6945 95.58C91.6831 92.8176 91.5214 89.8159 92.2301 86.9609C92.9388 84.1058 94.4856 81.5281 96.6714 79.5595C101.236 75.0953 107.035 73.6017 112.716 76.2554C116.206 77.8897 118.912 81.3935 121.655 84.3546C124.156 87.0596 126.24 90.1499 128.997 93.7056C137.18 79.967 144.736 67.3184 152.255 54.6442C157.359 46.0546 161.61 45.1267 170.2 50.3557C181.547 57.2522 193.03 63.9384 204.453 70.7026C205.267 71.0753 206.099 71.4062 206.947 71.6941C207.782 67.5679 208.598 63.6794 209.332 59.7667C209.932 56.6774 209.891 53.3899 211.005 50.5342C213.436 44.3595 220.157 40.6832 226.69 41.3624C230.025 41.7333 233.157 43.1498 235.638 45.4092C238.119 47.6685 239.821 50.6549 240.502 53.9408C241.924 60.1537 238.534 67.246 232.476 70.8019C225.17 75.0345 224.165 76.0342 222.101 81.2705C234.425 88.6195 246.794 95.9893 259.209 103.38C261.256 104.471 263.202 105.742 265.022 107.179C268.212 110.001 269.648 113.931 267.633 117.537C260.544 130.251 252.973 142.703 245.087 156.087C243.313 153.295 241.955 151.461 240.895 149.464C235.063 138.43 223.183 134.245 212.168 139.419C201.919 144.223 197.106 157.023 202.011 167.877C203.398 171.019 205.563 173.755 208.303 175.827C211.042 177.899 214.264 179.239 217.664 179.719C221.517 180.384 225.442 180.554 230.219 181.036C222.714 193.486 215.85 205.396 208.418 216.931C205.796 220.991 200.999 221.668 196.798 219.247C184.305 212.062 172.003 204.557 158.761 196.64C161.308 195.044 163.144 193.73 165.091 192.686C174.537 187.658 179.515 176.907 176.631 167.619C173.314 156.985 163.988 150.858 152.949 152.086C142.802 153.218 135.343 161.344 134.379 172.388C134.135 175.17 133.981 177.949 133.675 181.709C125.109 176.649 117.187 171.98 109.278 167.292C106.841 165.86 104.443 164.373 102.015 162.937C94.6455 158.594 93.2884 153.676 97.6176 146.428C104.562 134.687 111.538 122.975 118.544 111.291C118.95 110.593 119.302 109.857 120.351 107.889Z" fill="url(#paint2_linear_663_6715)"/>
<path d="M311.828 128.526L320.505 128.669C332.959 128.857 342.642 119.776 343 107.571C343.339 96.1722 334.168 86.4476 322.148 85.8869C314.211 85.4913 308.113 89.1828 303.452 95.4624C301.799 97.7005 300.247 100.043 298.348 102.835C297.39 101.466 296.697 100.648 296.191 99.7158C290.569 89.3414 284.894 78.9957 279.319 68.584C275.984 62.4297 277.331 57.8436 283.471 54.4818C295.736 47.8347 307.992 41.1925 321.091 34.0928C321.12 37.2733 321.267 39.6847 321.121 42.0387C320.82 47.0561 322.298 52.0189 325.296 56.0534C328.294 60.0879 332.619 62.9352 337.51 64.0941C342.314 65.2225 347.358 64.6817 351.814 62.5607C356.269 60.4397 359.869 56.8649 362.021 52.4249C364.151 47.9629 364.664 42.899 363.47 38.1008C362.276 33.3026 359.452 29.0688 355.479 26.1247C352.983 24.2472 350.422 22.439 347.03 19.9782L355.206 15.5468C363.532 11.0345 371.867 6.51737 380.192 2.00503C386.892 -1.62581 391.398 -0.405357 395.043 6.32038C401.387 17.8164 407.555 29.4076 413.816 40.9601L416.752 46.3758C420.075 42.0152 422.787 38.3505 425.614 34.8162C432.928 25.6658 446.004 26.393 451.528 36.2068C457.594 47.0005 450.393 59.2972 438.016 59.5449C433.96 59.6385 429.911 60.1839 424.846 60.5972C426.143 63.3062 426.851 64.9474 427.671 66.482C433.932 78.0344 440.189 89.5781 446.445 101.122C450.948 109.43 449.706 113.708 441.513 118.172C430.699 124.032 419.885 129.893 409.071 135.754L403.119 138.98C407.198 142.456 410.485 145.225 413.81 148.086C415.698 149.702 417.882 151.066 419.405 153.016C421.443 155.574 422.609 158.717 422.733 161.986C422.857 165.254 421.932 168.477 420.094 171.182C418.175 173.812 415.517 175.812 412.459 176.929C409.401 178.045 406.08 178.228 402.918 177.454C399.704 176.518 396.869 174.587 394.821 171.939C392.773 169.291 391.616 166.062 391.517 162.716C391.383 159.088 391.052 155.471 390.524 151.88C389.927 148.154 388.235 146.774 384.351 149.095C378.086 152.854 371.541 156.162 365.1 159.619C333.309 176.724 338.834 178.165 321.496 146.49C318.448 140.782 315.397 135.111 311.828 128.526Z" fill="url(#paint3_linear_663_6715)"/>
<defs>
<linearGradient id="paint0_linear_663_6715" x1="476.924" y1="83.0617" x2="151.397" y2="259.487" gradientUnits="userSpaceOnUse">
<stop stop-color="#7028E4"/>
<stop offset="1" stop-color="#E5B2CA"/>
</linearGradient>
<linearGradient id="paint1_linear_663_6715" x1="476.924" y1="83.0617" x2="151.397" y2="259.487" gradientUnits="userSpaceOnUse">
<stop stop-color="#7028E4"/>
<stop offset="1" stop-color="#E5B2CA"/>
</linearGradient>
<linearGradient id="paint2_linear_663_6715" x1="476.924" y1="83.0617" x2="151.397" y2="259.487" gradientUnits="userSpaceOnUse">
<stop stop-color="#7028E4"/>
<stop offset="1" stop-color="#E5B2CA"/>
</linearGradient>
<linearGradient id="paint3_linear_663_6715" x1="476.924" y1="83.0617" x2="151.397" y2="259.487" gradientUnits="userSpaceOnUse">
<stop stop-color="#7028E4"/>
<stop offset="1" stop-color="#E5B2CA"/>
</linearGradient>
</defs>
</svg>
