<svg width="614" height="638" viewBox="0 0 614 638" fill="none" xmlns="http://www.w3.org/2000/svg">
<circle cx="307" cy="331" r="307" fill="url(#paint0_linear_449_6636)"/>
<g filter="url(#filter0_d_449_6636)">
<path fill-rule="evenodd" clip-rule="evenodd" d="M214.251 277.533C214.251 230.402 252.458 192.195 299.589 192.195C346.719 192.195 384.926 230.402 384.926 277.533C384.926 324.663 346.719 362.87 299.589 362.87C252.458 362.87 214.251 324.663 214.251 277.533Z" fill="white"/>
</g>
<mask id="mask0_449_6636" style="mask-type:alpha" maskUnits="userSpaceOnUse" x="335" y="138" width="119" height="268">
<path fill-rule="evenodd" clip-rule="evenodd" d="M372.316 138.024L335.213 181.064L358.217 381.422L395.32 405.91L453.201 322.799L445.781 193.679L372.316 138.024Z" fill="white"/>
</mask>
<g mask="url(#mask0_449_6636)">
<path d="M161.09 277.531C161.09 200.215 223.767 137.538 301.082 137.538C378.398 137.538 441.075 200.215 441.075 277.531C441.075 354.846 378.398 417.523 301.082 417.523C223.767 417.523 161.09 354.846 161.09 277.531Z" stroke="#6879E3" stroke-opacity="0.55" stroke-width="2"/>
</g>
<mask id="mask1_449_6636" style="mask-type:alpha" maskUnits="userSpaceOnUse" x="111" y="299" width="377" height="166">
<path fill-rule="evenodd" clip-rule="evenodd" d="M468.785 307.215L487.337 313.151L453.202 397.747L354.507 464.533L225.388 457.854L139.308 394.779L111.109 299.052L154.149 303.505L250.618 421.493L388.642 410.362L468.785 307.215Z" fill="white"/>
</mask>
<g mask="url(#mask1_449_6636)">
<path d="M123.984 277.532C123.984 179.725 203.273 100.436 301.08 100.436C398.887 100.436 478.176 179.725 478.176 277.532C478.176 375.339 398.887 454.628 301.08 454.628C203.273 454.628 123.984 375.339 123.984 277.532Z" stroke="#6879E3" stroke-opacity="0.55" stroke-width="2"/>
</g>
<mask id="mask2_449_6636" style="mask-type:alpha" maskUnits="userSpaceOnUse" x="67" y="61" width="175" height="360">
<path fill-rule="evenodd" clip-rule="evenodd" d="M151.181 407.395L122.982 420.01L67.3271 313.895L90.3312 173.644L146.728 111.311L226.871 61.5923L241.713 106.116L113.335 212.232L102.204 339.125L151.181 407.395Z" fill="white"/>
</mask>
<g mask="url(#mask2_449_6636)">
<path d="M86.8799 277.534C86.8799 159.235 182.78 63.3347 301.079 63.3347C419.378 63.3347 515.278 159.235 515.278 277.534C515.278 395.833 419.378 491.733 301.079 491.733C182.78 491.733 86.8799 395.833 86.8799 277.534Z" stroke="#6879E3" stroke-opacity="0.55" stroke-width="2"/>
</g>
<mask id="mask3_449_6636" style="mask-type:alpha" maskUnits="userSpaceOnUse" x="74" y="0" width="495" height="265">
<path fill-rule="evenodd" clip-rule="evenodd" d="M130.397 75.6907L74.7422 138.766L102.57 153.608L205.346 63.0756L341.144 56.397L501.43 176.612L531.112 264.175L568.958 245.624L520.724 66.0438L294.394 0L130.397 75.6907Z" fill="white"/>
</mask>
<g mask="url(#mask3_449_6636)">
<path d="M49.7725 277.532C49.7725 138.741 162.284 26.2292 301.075 26.2292C439.865 26.2292 552.377 138.741 552.377 277.532C552.377 416.322 439.865 528.834 301.075 528.834C162.284 528.834 49.7725 416.322 49.7725 277.532Z" stroke="#6879E3" stroke-opacity="0.55" stroke-width="2"/>
</g>
<mask id="mask4_449_6636" style="mask-type:alpha" maskUnits="userSpaceOnUse" x="171" y="399" width="362" height="147">
<path fill-rule="evenodd" clip-rule="evenodd" d="M194.219 482.342L171.215 519.445L289.203 545.417L482.882 497.925L532.601 425.203L501.434 399.23L363.41 501.636L194.219 482.342Z" fill="white"/>
</mask>
<g mask="url(#mask4_449_6636)">
<path d="M49.7764 277.531C49.7764 138.741 162.288 26.2288 301.079 26.2288C439.869 26.2288 552.381 138.741 552.381 277.531C552.381 416.322 439.869 528.833 301.079 528.833C162.288 528.833 49.7764 416.322 49.7764 277.531Z" stroke="#6879E3" stroke-opacity="0.55" stroke-width="2"/>
</g>
<path d="M371.833 394.036C371.833 390.49 374.708 387.615 378.254 387.615C381.8 387.615 384.674 390.49 384.674 394.036C384.674 397.582 381.8 400.457 378.254 400.457C374.708 400.457 371.833 397.582 371.833 394.036Z" fill="white" stroke="#6C63FF" stroke-width="2"/>
<path d="M509.111 408.134C509.111 404.588 511.986 401.713 515.532 401.713C519.078 401.713 521.953 404.588 521.953 408.134C521.953 411.68 519.078 414.555 515.532 414.555C511.986 414.555 509.111 411.68 509.111 408.134Z" fill="white" stroke="#6C63FF" stroke-width="2"/>
<path d="M172.955 496.441C172.955 492.895 175.83 490.02 179.376 490.02C182.922 490.02 185.796 492.895 185.796 496.441C185.796 499.987 182.922 502.861 179.376 502.861C175.83 502.861 172.955 499.987 172.955 496.441Z" fill="white" stroke="#6C63FF" stroke-width="2"/>
<path d="M353.279 150.639C353.279 147.093 356.154 144.218 359.7 144.218C363.246 144.218 366.121 147.093 366.121 150.639C366.121 154.185 363.246 157.059 359.7 157.059C356.154 157.059 353.279 154.185 353.279 150.639Z" fill="white" stroke="#6C63FF" stroke-width="2"/>
<path d="M469.044 308.697C469.044 305.151 471.919 302.277 475.465 302.277C479.011 302.277 481.885 305.151 481.885 308.697C481.885 312.243 479.011 315.118 475.465 315.118C471.919 315.118 469.044 312.243 469.044 308.697Z" fill="white" stroke="#6C63FF" stroke-width="2"/>
<path d="M118.781 301.276C118.781 297.73 121.656 294.855 125.202 294.855C128.748 294.855 131.623 297.73 131.623 301.276C131.623 304.822 128.748 307.697 125.202 307.697C121.656 307.697 118.781 304.822 118.781 301.276Z" fill="white" stroke="#6C63FF" stroke-width="2"/>
<path d="M128.434 413.329C128.434 409.783 131.308 406.908 134.854 406.908C138.4 406.908 141.275 409.783 141.275 413.329C141.275 416.875 138.4 419.749 134.854 419.749C131.308 419.749 128.434 416.875 128.434 413.329Z" fill="white" stroke="#6C63FF" stroke-width="2"/>
<path d="M224.159 74.9475C224.159 71.4015 227.034 68.5269 230.58 68.5269C234.126 68.5269 237 71.4015 237 74.9475C237 78.4935 234.126 81.3682 230.58 81.3682C227.034 81.3682 224.159 78.4935 224.159 74.9475Z" fill="white" stroke="#6C63FF" stroke-width="2"/>
<path d="M81.6836 143.217C81.6836 139.671 84.5582 136.797 88.1043 136.797C91.6503 136.797 94.5249 139.671 94.5249 143.217C94.5249 146.763 91.6503 149.638 88.1043 149.638C84.5582 149.638 81.6836 146.763 81.6836 143.217Z" fill="white" stroke="#6C63FF" stroke-width="2"/>
<path d="M544.732 253.042C544.732 249.496 547.607 246.622 551.153 246.622C554.699 246.622 557.574 249.496 557.574 253.042C557.574 256.589 554.699 259.463 551.153 259.463C547.607 259.463 544.732 256.589 544.732 253.042Z" fill="white" stroke="#6C63FF" stroke-width="2"/>
<g filter="url(#filter1_d_449_6636)">
<circle cx="300.48" cy="278.759" r="64.0475" fill="url(#paint1_radial_449_6636)" shape-rendering="crispEdges"/>
</g>
<rect x="97" y="271" width="60" height="60" rx="30" fill="#419FD9"/>
<rect x="97" y="271" width="60" height="60" rx="30" fill="url(#paint2_linear_449_6636)"/>
<path d="M110.484 300.339C119.208 296.458 125.026 293.899 127.937 292.663C136.247 289.134 137.974 288.521 139.1 288.5C139.348 288.496 139.901 288.559 140.26 288.856C140.562 289.106 140.646 289.445 140.686 289.683C140.725 289.921 140.775 290.463 140.736 290.886C140.285 295.718 138.336 307.442 137.345 312.854C136.926 315.143 136.1 315.911 135.3 315.986C133.562 316.15 132.242 314.814 130.559 313.687C127.925 311.924 126.437 310.827 123.881 309.107C120.926 307.119 122.841 306.026 124.525 304.24C124.966 303.773 132.623 296.662 132.771 296.017C132.79 295.936 132.807 295.635 132.632 295.477C132.457 295.318 132.199 295.372 132.012 295.415C131.748 295.477 127.54 298.316 119.389 303.934C118.195 304.771 117.113 305.179 116.144 305.158C115.075 305.134 113.02 304.541 111.492 304.034C109.618 303.412 108.128 303.083 108.258 302.027C108.325 301.477 109.068 300.914 110.484 300.339Z" fill="white"/>
<rect x="299.998" y="25.092" width="248.521" height="43" rx="21.5" transform="rotate(-3.94364 299.998 25.092)" fill="#FCFF8D"/>
<path d="M360.34 37.1613L353.336 37.6441L353.65 42.1933C353.926 41.7466 354.355 41.3695 354.935 41.0622C355.514 40.7416 356.15 40.5575 356.842 40.5098C357.946 40.4337 358.859 40.6046 359.583 41.0224C360.306 41.427 360.839 41.985 361.182 42.6964C361.538 43.3937 361.743 44.148 361.799 44.9594C361.865 45.9171 361.745 46.7874 361.438 47.5704C361.131 48.3534 360.62 48.99 359.906 49.4803C359.204 49.9697 358.308 50.252 357.218 50.3272C355.821 50.4235 354.666 50.1423 353.751 49.4836C352.837 48.8249 352.246 47.9034 351.977 46.7191L353.753 46.5966C353.978 47.3429 354.385 47.9096 354.973 48.2968C355.561 48.6839 356.28 48.8481 357.132 48.7894C358.182 48.717 358.952 48.3499 359.441 47.688C359.929 47.0128 360.138 46.1565 360.066 45.1189C359.995 44.0814 359.674 43.3016 359.103 42.7796C358.531 42.2443 357.727 42.0125 356.689 42.084C355.984 42.1326 355.378 42.3482 354.87 42.7307C354.374 43.099 354.026 43.584 353.827 44.1858L352.111 44.3041L351.55 36.1634L360.229 35.5651L360.34 37.1613ZM364.048 42.4187C363.891 40.1308 364.14 38.3226 364.797 36.9943C365.453 35.6527 366.712 34.9177 368.574 34.7893C370.423 34.6619 371.765 35.2176 372.599 36.4565C373.432 37.6821 373.927 39.4389 374.085 41.7268C374.245 44.0546 373.997 45.8893 373.341 47.2309C372.685 48.5726 371.433 49.3071 369.584 49.4346C367.722 49.5629 366.374 49.0077 365.54 47.7688C364.706 46.5298 364.209 44.7465 364.048 42.4187ZM372.289 41.8506C372.209 40.6933 372.062 39.7211 371.847 38.934C371.645 38.1327 371.287 37.5025 370.775 37.0433C370.275 36.5833 369.58 36.3839 368.689 36.4454C367.784 36.5077 367.109 36.8015 366.664 37.3267C366.233 37.8509 365.965 38.5243 365.861 39.3467C365.77 40.1549 365.764 41.1376 365.844 42.2949C365.927 43.492 366.069 44.4913 366.271 45.2926C366.487 46.093 366.844 46.7232 367.344 47.1833C367.857 47.6424 368.565 47.8408 369.47 47.7785C370.361 47.7171 371.023 47.4242 371.454 46.8999C371.899 46.3748 372.167 45.7014 372.257 44.8799C372.361 44.0575 372.371 43.0477 372.289 41.8506ZM376.577 41.5549C376.42 39.267 376.669 37.4589 377.326 36.1306C377.982 34.789 379.241 34.054 381.103 33.9256C382.952 33.7981 384.294 34.3539 385.128 35.5928C385.96 36.8184 386.456 38.5752 386.614 40.8631C386.774 43.1909 386.526 45.0256 385.87 46.3672C385.214 47.7088 383.962 48.4434 382.113 48.5708C380.251 48.6992 378.903 48.144 378.069 46.905C377.235 45.6661 376.738 43.8828 376.577 41.5549ZM384.818 40.9869C384.738 39.8296 384.591 38.8574 384.376 38.0703C384.174 37.269 383.816 36.6388 383.304 36.1796C382.804 35.7195 382.109 35.5202 381.217 35.5817C380.313 35.644 379.638 35.9378 379.193 36.463C378.762 36.9872 378.494 37.6606 378.39 38.483C378.299 39.2912 378.293 40.2739 378.373 41.4311C378.456 42.6283 378.598 43.6275 378.8 44.4289C379.016 45.2293 379.373 45.8595 379.873 46.3196C380.386 46.7787 381.094 46.9771 381.999 46.9148C382.89 46.8533 383.551 46.5605 383.983 46.0362C384.428 45.511 384.696 44.8377 384.786 44.0162C384.89 43.1938 384.9 42.184 384.818 40.9869ZM389.106 40.6912C388.948 38.4033 389.198 36.5952 389.855 35.2669C390.511 33.9253 391.77 33.1903 393.632 33.0619C395.481 32.9344 396.823 33.4901 397.656 34.7291C398.489 35.9547 398.985 37.7114 399.142 39.9993C399.303 42.3272 399.055 44.1619 398.399 45.5035C397.743 46.8451 396.491 47.5797 394.642 47.7071C392.78 47.8355 391.432 47.2802 390.598 46.0413C389.764 44.8024 389.267 43.019 389.106 40.6912ZM397.347 40.1231C397.267 38.9659 397.12 37.9937 396.905 37.2066C396.703 36.4053 396.345 35.7751 395.832 35.3159C395.333 34.8558 394.638 34.6565 393.746 34.718C392.842 34.7803 392.167 35.0741 391.722 35.5993C391.291 36.1235 391.023 36.7968 390.919 37.6193C390.828 38.4275 390.822 39.4102 390.902 40.5674C390.984 41.7646 391.127 42.7638 391.329 43.5651C391.545 44.3656 391.902 44.9958 392.402 45.4559C392.914 45.915 393.623 46.1134 394.528 46.0511C395.419 45.9896 396.08 45.6968 396.512 45.1725C396.957 44.6473 397.225 43.974 397.315 43.1525C397.419 42.3301 397.429 41.3203 397.347 40.1231ZM416.222 35.474L416.959 46.1686L415.204 46.2896L414.57 37.0915L409.043 37.4725L409.677 46.6706L407.921 46.7917L407.184 36.0971L416.222 35.474ZM429.3 39.9251C429.422 41.6942 429.064 43.0955 428.226 44.1289C427.402 45.1613 426.225 45.7303 424.695 45.8358C423.751 45.9009 422.892 45.7463 422.117 45.372C421.356 44.9834 420.733 44.3915 420.251 43.5961C419.767 42.7875 419.485 41.7912 419.403 40.6073C419.281 38.8382 419.633 37.4441 420.458 36.4249C421.283 35.4057 422.461 34.8434 423.99 34.738C424.961 34.671 425.828 34.8318 426.59 35.2203C427.364 35.5946 427.986 36.1799 428.455 36.9762C428.937 37.7583 429.218 38.7412 429.3 39.9251ZM421.219 40.4822C421.306 41.7458 421.621 42.7332 422.165 43.4441C422.721 44.1409 423.544 44.4517 424.635 44.3765C425.712 44.3022 426.479 43.8818 426.934 43.1154C427.388 42.3356 427.571 41.3139 427.484 40.0503C427.397 38.7866 427.076 37.813 426.521 37.1296C425.966 36.4461 425.143 36.142 424.052 36.2172C422.962 36.2924 422.195 36.7061 421.752 37.4583C421.31 38.2106 421.132 39.2185 421.219 40.4822ZM439.656 33.8584L440.292 43.0766L441.848 42.9693L442.206 48.157L440.51 48.2739L440.254 44.5627L432.812 45.0758L433.068 48.7869L431.392 48.9025L431.034 43.7148L431.892 43.6557C432.723 42.3287 433.309 40.8449 433.65 39.2042C434.004 37.5493 434.13 35.8967 434.03 34.2463L439.656 33.8584ZM435.681 35.5158C435.69 36.424 435.615 37.3714 435.456 38.358C435.296 39.3313 435.066 40.2693 434.768 41.172C434.483 42.0737 434.129 42.8599 433.708 43.5305L438.596 43.1935L438.055 35.3521L435.681 35.5158ZM452.347 32.9836L453.085 43.6782L451.329 43.7992L450.695 34.601L445.168 34.9821L445.802 44.1802L444.046 44.3013L443.309 33.6067L452.347 32.9836ZM457.866 39.1587C457.877 39.3183 457.886 39.5582 457.895 39.8783C457.904 40.1985 457.906 40.5191 457.901 40.8402C457.91 41.1603 457.914 41.414 457.914 41.6011L463.023 32.2476L465.177 32.0991L465.915 42.7937L464.279 42.9065L463.844 36.6014C463.829 36.3886 463.81 36.1093 463.786 35.7634C463.776 35.4167 463.766 35.0766 463.756 34.7431C463.745 34.3963 463.741 34.136 463.742 33.9622L458.672 43.293L456.497 43.4429L455.76 32.7483L457.416 32.6341L457.866 39.1587ZM473.622 42.4629C472.677 42.528 471.819 42.3933 471.048 42.0589C470.29 41.7236 469.67 41.1649 469.188 40.3828C468.72 39.5999 468.442 38.5765 468.355 37.3129C468.264 35.996 468.41 34.9101 468.792 34.0551C469.174 33.2001 469.724 32.5541 470.443 32.117C471.174 31.679 472.019 31.427 472.977 31.3609C473.522 31.3233 474.052 31.347 474.565 31.4318C475.078 31.5034 475.5 31.608 475.83 31.7456L475.392 33.2393C475.064 33.1416 474.684 33.0542 474.251 32.9771C473.818 32.9001 473.415 32.8744 473.043 32.9C470.941 33.0449 469.983 34.4675 470.169 37.1678C470.258 38.458 470.579 39.4316 471.133 40.0884C471.698 40.7311 472.486 41.0175 473.497 40.9478C474.083 40.9075 474.591 40.8123 475.021 40.6623C475.465 40.5114 475.867 40.3367 476.228 40.1381L476.335 41.6944C475.989 41.9054 475.6 42.0726 475.167 42.1959C474.749 42.3317 474.234 42.4207 473.622 42.4629ZM479.972 34.9884C480.056 36.2122 480.784 36.7768 482.154 36.6824C482.819 36.6365 483.417 36.495 483.949 36.2579C484.48 36.0075 485.019 35.6896 485.567 35.3044L485.251 30.7153L487.007 30.5942L487.744 41.2888L485.988 41.4099L485.659 36.6412C485.087 37.0682 484.516 37.415 483.947 37.6814C483.389 37.9337 482.705 38.0878 481.894 38.1437C480.803 38.2189 479.932 37.9916 479.281 37.4618C478.643 36.9311 478.291 36.1869 478.225 35.2292L477.948 31.2187L479.704 31.0976L479.972 34.9884ZM492.51 36.7703C492.521 36.93 492.531 37.1698 492.54 37.49C492.548 37.8102 492.55 38.1308 492.546 38.4519C492.554 38.772 492.559 39.0257 492.558 39.2128L497.667 29.8593L499.822 29.7108L500.559 40.4054L498.923 40.5182L498.488 34.2131C498.474 34.0003 498.454 33.721 498.43 33.3751C498.42 33.0283 498.41 32.6882 498.4 32.3548C498.39 32.008 498.385 31.7477 498.386 31.5739L493.316 40.9047L491.141 41.0546L490.404 30.36L492.06 30.2458L492.51 36.7703ZM509.55 29.0401L511.466 28.908L507.251 34.3708L512.582 39.5765L510.547 39.7168L505.344 34.6226L505.718 40.0497L503.963 40.1707L503.225 29.4761L504.981 29.3551L505.339 34.5428L509.55 29.0401ZM523.062 33.4613C523.184 35.2304 522.826 36.6317 521.988 37.6651C521.164 38.6976 519.987 39.2665 518.457 39.372C517.513 39.4371 516.653 39.2825 515.879 38.9082C515.117 38.5197 514.495 37.9277 514.013 37.1323C513.529 36.3237 513.247 35.3274 513.165 34.1436C513.043 32.3744 513.395 30.9803 514.22 29.9611C515.045 28.9419 516.223 28.3796 517.752 28.2742C518.723 28.2072 519.59 28.368 520.352 28.7565C521.126 29.1309 521.748 29.7161 522.217 30.5124C522.698 31.2945 522.98 32.2775 523.062 33.4613ZM514.981 34.0184C515.068 35.2821 515.383 36.2694 515.927 36.9803C516.483 37.6771 517.306 37.9879 518.397 37.9127C519.474 37.8384 520.24 37.418 520.695 36.6516C521.15 35.8719 521.333 34.8501 521.246 33.5865C521.159 32.3228 520.838 31.3493 520.283 30.6658C519.728 29.9824 518.905 29.6782 517.814 29.7534C516.723 29.8286 515.957 30.2423 515.514 30.9945C515.071 31.7468 514.894 32.7547 514.981 34.0184ZM534.262 30.0429C534.308 30.708 534.144 31.2405 533.771 31.6405C533.398 32.0404 532.903 32.3284 532.287 32.5046L532.293 32.5844C532.964 32.6316 533.559 32.8312 534.078 33.183C534.596 33.5215 534.882 34.0898 534.937 34.8879C535 35.7925 534.712 36.5674 534.075 37.2127C533.45 37.8439 532.366 38.2126 530.823 38.319L526.214 38.6367L525.477 27.9421L530.066 27.6257C530.824 27.5735 531.509 27.6132 532.119 27.7448C532.742 27.8623 533.24 28.1086 533.614 28.4838C533.999 28.8448 534.216 29.3645 534.262 30.0429ZM532.502 30.3848C532.467 29.8793 532.255 29.5264 531.867 29.3259C531.492 29.1112 530.892 29.0323 530.067 29.0892L527.333 29.2776L527.536 32.2107L529.95 32.0442C531.719 31.9223 532.57 31.3691 532.502 30.3848ZM533.122 35.0131C533.079 34.4012 532.816 33.9783 532.332 33.7444C531.848 33.5104 531.154 33.4246 530.25 33.487L527.636 33.6672L527.873 37.099L530.526 36.9161C531.404 36.8556 532.067 36.6829 532.515 36.3981C532.963 36.1 533.165 35.6383 533.122 35.0131Z" fill="black" fill-opacity="0.7"/>
<g clip-path="url(#clip0_449_6636)">
<path d="M333.403 52.8548L333.265 50.8595C333.192 49.8012 332.702 48.8152 331.902 48.1184C331.102 47.4216 330.058 47.0711 328.999 47.1441L322.016 47.6255C320.958 47.6985 319.972 48.1889 319.275 48.9889C318.578 49.7888 318.228 50.8328 318.3 51.8912L318.438 53.8864" stroke="black" stroke-opacity="0.7" stroke-width="2" stroke-linecap="round" stroke-linejoin="round"/>
<path d="M325.234 43.3944C327.438 43.2425 329.101 41.3327 328.95 39.1288C328.798 36.9249 326.888 35.2614 324.684 35.4134C322.48 35.5653 320.817 37.4751 320.968 39.679C321.12 41.8829 323.03 43.5464 325.234 43.3944Z" stroke="black" stroke-opacity="0.7" stroke-width="2" stroke-linecap="round" stroke-linejoin="round"/>
<path d="M333.715 42.81L335.848 44.6677L339.563 40.402" stroke="black" stroke-opacity="0.7" stroke-width="2" stroke-linecap="round" stroke-linejoin="round"/>
</g>
<rect x="5.91504" y="528" width="249" height="43" rx="21.5" transform="rotate(3.88438 5.91504 528)" fill="#FFDBA5"/>
<g clip-path="url(#clip1_449_6636)">
<g clip-path="url(#clip2_449_6636)">
<path d="M31.4886 554.743C32.1331 554.787 32.7685 554.573 33.2551 554.148C33.7418 553.723 34.0397 553.122 34.0835 552.478C34.1273 551.833 33.9132 551.198 33.4885 550.711C33.0637 550.225 32.463 549.927 31.8186 549.883C31.1741 549.839 30.5387 550.053 30.0521 550.478C29.5654 550.903 29.2674 551.503 29.2237 552.148C29.1799 552.792 29.394 553.428 29.8187 553.914C30.2435 554.401 30.8442 554.699 31.4886 554.743Z" stroke="#4D4232" stroke-width="1.5" stroke-linecap="round" stroke-linejoin="round"/>
<path d="M42.5881 553.055C40.0463 556.534 35.6757 559.909 31.1585 559.603C26.6413 559.296 22.7672 555.36 20.7189 551.57C23.7465 548.307 27.2789 544.693 32.1485 545.023C37.018 545.354 40.0294 549.413 42.5881 553.055Z" stroke="#4D4232" stroke-width="1.5" stroke-linecap="round" stroke-linejoin="round"/>
</g>
</g>
<path d="M57.0072 549.417C57.1835 548.2 57.7207 547.274 58.6191 546.64C59.5174 546.006 60.645 545.735 62.0019 545.828C62.9065 545.889 63.6734 546.108 64.3027 546.485C64.9461 546.849 65.4152 547.322 65.7098 547.904C66.0177 548.486 66.1478 549.129 66.0999 549.834C66.0439 550.659 65.7561 551.355 65.2366 551.921C64.7303 552.488 64.0922 552.832 63.3222 552.953L63.3154 553.053C64.1657 553.325 64.8223 553.79 65.2853 554.45C65.7484 555.109 65.9456 555.945 65.877 556.956C65.8255 557.714 65.606 558.387 65.2186 558.976C64.8321 559.551 64.2812 559.988 63.566 560.287C62.8508 560.586 62.0076 560.702 61.0365 560.636C59.6264 560.54 58.4939 560.096 57.639 559.303C56.785 558.497 56.3509 557.411 56.3366 556.047L58.0925 556.166C58.1315 556.971 58.4131 557.645 58.9375 558.188C59.4619 558.732 60.1897 559.035 61.1209 559.098C62.0521 559.162 62.7734 558.97 63.2848 558.524C63.8104 558.065 64.0994 557.45 64.1518 556.678C64.2195 555.68 63.9357 554.94 63.3004 554.455C62.6651 553.971 61.6756 553.684 60.3321 553.592L59.8731 553.561L59.9761 552.045L60.455 552.077C61.6797 552.147 62.6178 552.01 63.2692 551.667C63.9216 551.31 64.2757 550.72 64.3317 549.895C64.3796 549.19 64.1852 548.609 63.7485 548.151C63.3251 547.695 62.6877 547.438 61.8364 547.38C61.0116 547.324 60.332 547.492 59.7976 547.883C59.2632 548.274 58.925 548.826 58.7831 549.538L57.0072 549.417ZM68.5644 553.65C68.7198 551.362 69.2133 549.605 70.0449 548.378C70.8775 547.139 72.225 546.582 74.0873 546.708C75.9364 546.834 77.1896 547.567 77.847 548.908C78.5052 550.236 78.7566 552.044 78.6013 554.332C78.4432 556.66 77.9479 558.443 77.1153 559.683C76.2828 560.923 74.9419 561.48 73.0929 561.355C71.2305 561.228 69.9706 560.494 69.3133 559.153C68.656 557.813 68.4063 555.978 68.5644 553.65ZM76.8054 554.21C76.884 553.052 76.8706 552.069 76.7651 551.26C76.6739 550.439 76.4056 549.766 75.9601 549.241C75.5279 548.717 74.8662 548.425 73.9749 548.364C73.0703 548.303 72.3619 548.502 71.8495 548.962C71.3505 549.422 70.9937 550.053 70.7789 550.854C70.5784 551.642 70.4388 552.615 70.3603 553.772C70.279 554.969 70.2839 555.979 70.3752 556.8C70.4797 557.622 70.7481 558.295 71.1802 558.819C71.6257 559.344 72.3007 559.637 73.2053 559.698C74.0966 559.759 74.7918 559.559 75.2908 559.098C75.8031 558.639 76.16 558.008 76.3614 557.206C76.5761 556.406 76.7241 555.407 76.8054 554.21ZM81.0941 554.501C81.2495 552.213 81.743 550.456 82.5747 549.229C83.4072 547.989 84.7547 547.433 86.6171 547.559C88.4662 547.685 89.7194 548.418 90.3767 549.759C91.0349 551.086 91.2864 552.894 91.131 555.182C90.973 557.51 90.4776 559.294 89.6451 560.534C88.8125 561.774 87.4717 562.331 85.6226 562.205C83.7602 562.079 82.5004 561.345 81.843 560.004C81.1857 558.663 80.9361 556.829 81.0941 554.501ZM89.3352 555.06C89.4137 553.903 89.4003 552.92 89.2949 552.111C89.2037 551.29 88.9353 550.616 88.4898 550.092C88.0576 549.568 87.3959 549.276 86.5046 549.215C85.6001 549.154 84.8916 549.353 84.3793 549.813C83.8803 550.273 83.5234 550.904 83.3087 551.704C83.1081 552.493 82.9686 553.465 82.89 554.623C82.8087 555.82 82.8137 556.829 82.9049 557.651C83.0094 558.473 83.2778 559.146 83.71 559.67C84.1555 560.195 84.8305 560.488 85.7351 560.549C86.6264 560.61 87.3215 560.41 87.8205 559.949C88.3328 559.489 88.6897 558.859 88.8911 558.057C89.1059 557.257 89.2539 556.258 89.3352 555.06ZM93.6239 555.352C93.7792 553.064 94.2728 551.306 95.1044 550.08C95.937 548.84 97.2845 548.283 99.1468 548.41C100.996 548.535 102.249 549.269 102.906 550.61C103.565 551.937 103.816 553.745 103.661 556.033C103.503 558.361 103.007 560.145 102.175 561.385C101.342 562.625 100.001 563.182 98.1524 563.056C96.29 562.93 95.0301 562.196 94.3728 560.855C93.7155 559.514 93.4658 557.68 93.6239 555.352ZM101.865 555.911C101.943 554.754 101.93 553.771 101.825 552.962C101.733 552.14 101.465 551.467 101.02 550.943C100.587 550.419 99.9257 550.127 99.0344 550.066C98.1298 550.005 97.4213 550.204 96.909 550.663C96.41 551.124 96.0531 551.755 95.8384 552.555C95.6379 553.343 95.4983 554.316 95.4197 555.474C95.3385 556.671 95.3434 557.68 95.4347 558.502C95.5392 559.324 95.8075 559.997 96.2397 560.521C96.6852 561.045 97.3602 561.338 98.2648 561.4C99.1561 561.46 99.8512 561.26 100.35 560.8C100.863 560.34 101.219 559.71 101.421 558.908C101.636 558.107 101.784 557.108 101.865 555.911ZM121.198 553.876L120.472 564.572L118.716 564.452L119.34 555.254L113.813 554.878L113.188 564.077L111.432 563.958L112.159 553.262L121.198 553.876ZM129.712 554.254C131.029 554.343 132.056 554.874 132.791 555.846C133.541 556.819 133.852 558.23 133.727 560.079C133.603 561.902 133.103 563.258 132.228 564.147C131.366 565.037 130.269 565.437 128.939 565.347C128.114 565.291 127.44 565.091 126.915 564.748C126.404 564.393 126.01 563.999 125.732 563.566L125.613 563.558C125.624 563.785 125.631 564.073 125.634 564.421C125.637 564.769 125.63 565.069 125.613 565.322L125.315 569.711L123.559 569.592L124.61 554.108L126.047 554.205L126.188 555.678L126.267 555.684C126.618 555.24 127.064 554.876 127.605 554.592C128.145 554.308 128.848 554.195 129.712 554.254ZM129.293 555.709C128.202 555.635 127.41 555.888 126.916 556.469C126.435 557.052 126.139 557.967 126.028 559.216L126.005 559.555C125.915 560.872 126.059 561.904 126.436 562.651C126.827 563.386 127.608 563.793 128.778 563.873C129.43 563.917 129.975 563.773 130.411 563.442C130.861 563.112 131.207 562.648 131.448 562.049C131.703 561.439 131.858 560.734 131.912 559.936C131.995 558.712 131.822 557.718 131.393 556.954C130.977 556.191 130.277 555.776 129.293 555.709ZM145.824 560.901C145.704 562.67 145.158 564.009 144.188 564.919C143.23 565.83 141.987 566.233 140.457 566.129C139.513 566.065 138.682 565.795 137.966 565.318C137.265 564.83 136.729 564.159 136.359 563.305C135.99 562.438 135.846 561.412 135.926 560.229C136.047 558.459 136.585 557.126 137.541 556.229C138.497 555.331 139.741 554.935 141.27 555.039C142.241 555.105 143.078 555.382 143.78 555.871C144.496 556.347 145.032 557.011 145.388 557.864C145.759 558.704 145.904 559.717 145.824 560.901ZM137.742 560.352C137.656 561.616 137.834 562.637 138.276 563.415C138.732 564.181 139.505 564.601 140.596 564.675C141.673 564.748 142.49 564.436 143.045 563.739C143.601 563.028 143.922 562.041 144.008 560.777C144.094 559.514 143.908 558.505 143.451 557.753C142.995 557 142.221 556.587 141.13 556.513C140.039 556.438 139.223 556.744 138.682 557.429C138.141 558.114 137.828 559.088 137.742 560.352ZM152.519 566.948C151.574 566.884 150.743 566.634 150.024 566.197C149.318 565.762 148.78 565.124 148.41 564.284C148.053 563.444 147.917 562.392 148.003 561.129C148.092 559.812 148.384 558.756 148.879 557.961C149.374 557.166 150.007 556.601 150.778 556.266C151.563 555.931 152.434 555.797 153.392 555.862C153.937 555.899 154.459 555.994 154.956 556.148C155.454 556.289 155.858 556.45 156.166 556.631L155.528 558.051C155.217 557.91 154.852 557.772 154.434 557.636C154.015 557.501 153.62 557.421 153.248 557.395C151.146 557.253 150.003 558.532 149.82 561.232C149.732 562.522 149.918 563.531 150.376 564.257C150.849 564.97 151.591 565.361 152.602 565.43C153.187 565.47 153.703 565.445 154.15 565.355C154.611 565.266 155.033 565.148 155.417 565L155.312 566.556C154.94 566.718 154.531 566.831 154.086 566.894C153.653 566.972 153.131 566.99 152.519 566.948ZM170.029 557.192L169.303 567.887L167.727 567.78L168.19 560.956C168.209 560.677 168.236 560.384 168.27 560.079C168.317 559.775 168.364 559.478 168.41 559.187L168.351 559.183L164.275 567.546L162.798 567.446L159.99 558.615L159.93 558.611C159.929 559.212 159.908 559.826 159.865 560.451L159.406 567.215L157.829 567.108L158.556 556.413L160.89 556.571L163.679 565.4L167.695 557.033L170.029 557.192ZM182.38 563.383C182.26 565.152 181.715 566.491 180.744 567.401C179.787 568.312 178.543 568.715 177.014 568.611C176.069 568.547 175.239 568.277 174.523 567.801C173.821 567.312 173.285 566.641 172.916 565.787C172.547 564.92 172.403 563.895 172.483 562.711C172.603 560.941 173.141 559.608 174.098 558.711C175.054 557.814 176.297 557.417 177.827 557.521C178.798 557.587 179.634 557.864 180.336 558.353C181.052 558.829 181.588 559.493 181.945 560.346C182.315 561.187 182.461 562.199 182.38 563.383ZM174.299 562.834C174.213 564.098 174.391 565.119 174.832 565.897C175.288 566.663 176.062 567.083 177.152 567.157C178.23 567.23 179.046 566.918 179.601 566.221C180.158 565.51 180.479 564.523 180.564 563.259C180.65 561.996 180.465 560.987 180.008 560.235C179.551 559.482 178.777 559.069 177.687 558.995C176.596 558.921 175.78 559.226 175.239 559.911C174.698 560.596 174.385 561.57 174.299 562.834ZM192.613 560.209L189.121 559.972L188.495 569.19L186.759 569.072L187.385 559.854L183.933 559.619L184.033 558.143L192.713 558.732L192.613 560.209ZM199.922 559.021C201.239 559.11 202.265 559.641 203.001 560.613C203.75 561.586 204.062 562.997 203.936 564.846C203.813 566.669 203.313 568.025 202.437 568.914C201.575 569.804 200.479 570.204 199.148 570.114C198.324 570.058 197.649 569.859 197.124 569.516C196.614 569.16 196.22 568.766 195.942 568.333L195.822 568.325C195.833 568.553 195.84 568.84 195.844 569.188C195.847 569.536 195.84 569.836 195.823 570.089L195.524 574.479L193.768 574.359L194.82 558.875L196.257 558.973L196.397 560.446L196.477 560.451C196.828 560.007 197.273 559.643 197.814 559.359C198.354 559.075 199.057 558.962 199.922 559.021ZM199.502 560.476C198.411 560.402 197.619 560.655 197.125 561.237C196.645 561.819 196.349 562.734 196.237 563.983L196.214 564.322C196.125 565.639 196.268 566.671 196.645 567.418C197.036 568.153 197.817 568.56 198.988 568.64C199.64 568.684 200.184 568.541 200.621 568.209C201.071 567.879 201.416 567.415 201.658 566.817C201.913 566.206 202.068 565.501 202.122 564.703C202.205 563.479 202.032 562.485 201.603 561.721C201.187 560.958 200.487 560.543 199.502 560.476ZM216.033 565.668C215.913 567.437 215.368 568.776 214.397 569.686C213.44 570.597 212.196 571 210.667 570.896C209.722 570.832 208.892 570.562 208.176 570.086C207.474 569.597 206.938 568.926 206.568 568.072C206.2 567.205 206.056 566.18 206.136 564.996C206.256 563.226 206.794 561.893 207.751 560.996C208.707 560.099 209.95 559.702 211.48 559.806C212.451 559.872 213.287 560.149 213.989 560.638C214.705 561.114 215.241 561.779 215.598 562.631C215.968 563.472 216.113 564.484 216.033 565.668ZM207.952 565.119C207.866 566.383 208.044 567.404 208.485 568.182C208.941 568.948 209.715 569.368 210.805 569.442C211.883 569.515 212.699 569.203 213.254 568.506C213.811 567.795 214.131 566.808 214.217 565.544C214.303 564.281 214.118 563.272 213.661 562.52C213.204 561.767 212.43 561.354 211.34 561.28C210.249 561.206 209.433 561.511 208.892 562.196C208.351 562.881 208.038 563.855 207.952 565.119ZM227.595 563.807C227.55 564.472 227.315 564.977 226.891 565.322C226.466 565.668 225.937 565.886 225.303 565.976L225.297 566.056C225.956 566.195 226.519 566.473 226.985 566.892C227.452 567.298 227.658 567.9 227.604 568.699C227.542 569.603 227.152 570.332 226.433 570.884C225.728 571.424 224.604 571.642 223.061 571.537L218.452 571.224L219.178 560.529L223.767 560.841C224.526 560.892 225.198 561.025 225.785 561.238C226.386 561.439 226.846 561.751 227.165 562.174C227.498 562.584 227.641 563.128 227.595 563.807ZM225.804 563.906C225.839 563.4 225.677 563.022 225.32 562.77C224.977 562.506 224.393 562.346 223.569 562.29L220.835 562.105L220.636 565.038L223.05 565.202C224.819 565.322 225.737 564.89 225.804 563.906ZM225.788 568.575C225.829 567.963 225.626 567.509 225.179 567.211C224.731 566.913 224.055 566.734 223.151 566.672L220.537 566.495L220.304 569.927L222.958 570.107C223.836 570.167 224.516 570.086 224.999 569.865C225.482 569.63 225.745 569.2 225.788 568.575Z" fill="black" fill-opacity="0.7"/>
<rect x="370.998" y="446.727" width="240" height="43" rx="21.5" transform="rotate(-5.43379 370.998 446.727)" fill="#9AFFED"/>
<g clip-path="url(#clip3_449_6636)">
<path d="M418.954 462.046C419.155 463.571 418.757 465.115 417.844 466.354C415.748 469.177 413.738 472.098 411.541 474.841C411.036 475.461 410.12 475.56 409.496 475.061L401.29 468.498C398.81 466.514 398.336 462.854 400.23 460.305C400.676 459.696 401.242 459.183 401.892 458.799C402.543 458.415 403.265 458.167 404.014 458.07C404.763 457.973 405.524 458.029 406.251 458.235C406.978 458.441 407.656 458.792 408.243 459.268L408.542 459.505L408.769 459.2C409.217 458.591 409.783 458.08 410.433 457.696C411.084 457.311 411.805 457.062 412.554 456.963C414.061 456.768 415.582 457.201 416.782 458.162C417.981 459.127 418.76 460.519 418.954 462.046V462.046Z" stroke="#2E4D47" stroke-width="1.5" stroke-linejoin="round"/>
</g>
<path d="M442.316 467.607C443.873 466.093 445.088 464.859 445.962 463.905C446.834 462.938 447.551 461.953 448.111 460.949C448.684 459.93 448.927 458.962 448.84 458.047C448.758 457.184 448.481 456.527 448.009 456.076C447.55 455.611 446.856 455.423 445.927 455.511C445.024 455.597 444.348 455.949 443.898 456.568C443.459 457.172 443.265 457.947 443.315 458.894L441.563 459.06C441.475 457.569 441.817 456.377 442.589 455.487C443.362 454.596 444.418 454.087 445.759 453.96C447.126 453.83 448.244 454.105 449.112 454.786C449.994 455.466 450.498 456.469 450.624 457.796C450.729 458.898 450.499 460.005 449.935 461.117C449.383 462.214 448.727 463.2 447.967 464.076C447.205 464.939 446.224 465.956 445.023 467.129L451.872 466.477L452.016 467.99L442.439 468.901L442.316 467.607ZM462.084 454.255L455.096 454.92L455.528 459.46C455.792 459.006 456.211 458.618 456.783 458.295C457.354 457.96 457.984 457.759 458.674 457.694C459.776 457.589 460.694 457.736 461.429 458.135C462.162 458.52 462.709 459.064 463.071 459.767C463.444 460.454 463.669 461.203 463.746 462.013C463.837 462.968 463.739 463.842 463.453 464.632C463.167 465.423 462.673 466.073 461.971 466.581C461.283 467.089 460.394 467.394 459.306 467.498C457.912 467.631 456.75 467.379 455.819 466.745C454.888 466.11 454.273 465.204 453.973 464.027L455.745 463.859C455.99 464.599 456.411 465.155 457.009 465.527C457.607 465.898 458.33 466.044 459.18 465.963C460.228 465.863 460.988 465.476 461.46 464.802C461.93 464.114 462.116 463.253 462.018 462.217C461.919 461.182 461.578 460.411 460.994 459.904C460.409 459.384 459.599 459.173 458.563 459.271C457.86 459.338 457.259 459.569 456.761 459.965C456.275 460.346 455.94 460.84 455.757 461.447L454.044 461.61L453.272 453.486L461.933 452.663L462.084 454.255ZM473.608 455.028C473.176 453.582 472.196 452.932 470.67 453.077C469.488 453.189 468.649 453.731 468.152 454.703C467.654 455.661 467.511 457.181 467.722 459.264C467.962 458.545 468.415 457.959 469.082 457.507C469.761 457.041 470.539 456.766 471.415 456.683C472.782 456.553 473.911 456.874 474.801 457.646C475.705 458.418 476.228 459.553 476.371 461.053C476.457 461.956 476.354 462.782 476.064 463.533C475.787 464.283 475.311 464.904 474.634 465.397C473.971 465.889 473.135 466.182 472.126 466.278C470.759 466.408 469.662 466.205 468.834 465.667C468.006 465.13 467.388 464.338 466.981 463.292C466.573 462.246 466.294 460.933 466.144 459.354C465.68 454.482 467.148 451.885 470.546 451.562C471.847 451.438 472.902 451.693 473.712 452.326C474.523 452.958 475.045 453.806 475.28 454.868L473.608 455.028ZM471.182 458.252C470.611 458.306 470.085 458.477 469.603 458.764C469.121 459.037 468.743 459.428 468.469 459.936C468.208 460.43 468.11 461.015 468.174 461.692C468.27 462.701 468.641 463.496 469.285 464.078C469.929 464.646 470.795 464.878 471.883 464.775C472.812 464.686 473.522 464.331 474.012 463.708C474.513 463.071 474.718 462.262 474.624 461.279C474.526 460.244 474.183 459.46 473.597 458.926C473.009 458.379 472.204 458.155 471.182 458.252ZM478.201 454.792C478.178 453.562 478.558 452.561 479.342 451.79C480.126 451.019 481.195 450.569 482.549 450.44C483.451 450.354 484.244 450.446 484.926 450.716C485.62 450.972 486.159 451.363 486.544 451.888C486.942 452.413 487.175 453.027 487.241 453.731C487.32 454.554 487.148 455.287 486.727 455.929C486.32 456.571 485.746 457.014 485.005 457.258L485.015 457.358C485.898 457.488 486.621 457.841 487.185 458.417C487.749 458.993 488.079 459.785 488.175 460.794C488.246 461.551 488.139 462.251 487.852 462.894C487.564 463.524 487.091 464.045 486.433 464.455C485.776 464.866 484.963 465.118 483.994 465.21C482.587 465.344 481.397 465.088 480.425 464.444C479.452 463.787 478.848 462.786 478.613 461.442L480.365 461.276C480.534 462.063 480.921 462.683 481.526 463.134C482.132 463.586 482.899 463.767 483.828 463.679C484.757 463.59 485.438 463.284 485.87 462.761C486.315 462.223 486.5 461.569 486.427 460.8C486.332 459.804 485.932 459.119 485.227 458.744C484.522 458.369 483.499 458.245 482.158 458.373L481.7 458.416L481.556 456.903L482.034 456.858C483.254 456.728 484.158 456.442 484.745 455.997C485.331 455.54 485.585 454.9 485.506 454.077C485.439 453.373 485.154 452.831 484.649 452.45C484.157 452.069 483.486 451.918 482.637 451.999C481.814 452.077 481.17 452.353 480.706 452.825C480.242 453.298 479.998 453.897 479.973 454.623L478.201 454.792ZM504.879 463.123L503.107 463.291L502.231 454.073L499.085 454.372C499.126 456.632 499.059 458.466 498.885 459.876C498.71 461.272 498.4 462.306 497.955 462.978C497.51 463.65 496.902 464.022 496.132 464.095C495.96 464.112 495.786 464.115 495.611 464.105C495.45 464.107 495.314 464.086 495.203 464.043L495.078 462.729C495.16 462.748 495.248 462.76 495.343 462.764C495.437 462.769 495.53 462.766 495.623 462.758C496.34 462.689 496.838 461.872 497.118 460.305C497.411 458.737 497.516 456.323 497.433 453.063L503.864 452.451L504.879 463.123ZM511.276 451.565C512.577 451.441 513.567 451.635 514.245 452.146C514.923 452.658 515.321 453.537 515.44 454.785L516.131 462.052L514.857 462.174L514.375 460.693L514.295 460.7C513.886 461.328 513.436 461.807 512.945 462.134C512.467 462.461 511.777 462.667 510.874 462.753C509.905 462.846 509.078 462.67 508.393 462.226C507.706 461.769 507.312 460.996 507.208 459.908C507.107 458.846 507.447 457.99 508.229 457.339C509.01 456.676 510.267 456.235 512.001 456.016L513.807 455.784L513.747 455.147C513.662 454.258 513.411 453.659 512.993 453.35C512.575 453.042 512.015 452.921 511.311 452.988C510.754 453.041 510.231 453.178 509.743 453.398C509.254 453.606 508.8 453.836 508.382 454.09L507.72 452.827C508.16 452.531 508.691 452.266 509.312 452.033C509.931 451.787 510.586 451.631 511.276 451.565ZM512.336 457.21C511.013 457.389 510.111 457.69 509.629 458.11C509.16 458.53 508.957 459.078 509.022 459.755C509.079 460.353 509.299 460.774 509.684 461.018C510.082 461.262 510.567 461.356 511.138 461.302C512.04 461.216 512.767 460.899 513.317 460.351C513.867 459.79 514.092 458.992 513.994 457.956L513.903 457.001L512.336 457.21ZM526.633 445.825C526.634 446.829 526.368 447.618 525.833 448.191C525.31 448.75 524.418 449.089 523.158 449.209C521.857 449.333 520.91 449.169 520.318 448.716C519.739 448.262 519.368 447.534 519.206 446.531L520.839 446.376C520.973 447.087 521.205 447.553 521.535 447.777C521.876 447.985 522.392 448.057 523.082 447.991C523.692 447.933 524.158 447.761 524.479 447.476C524.812 447.177 524.979 446.679 524.98 445.982L526.633 445.825ZM520.684 457.42C520.699 457.58 520.715 457.819 520.732 458.139C520.749 458.459 520.76 458.779 520.763 459.1C520.78 459.42 520.791 459.674 520.796 459.861L525.659 450.378L527.81 450.173L528.825 460.845L527.192 461L526.594 454.709C526.574 454.496 526.547 454.217 526.514 453.872C526.495 453.526 526.476 453.186 526.457 452.853C526.438 452.507 526.426 452.247 526.423 452.073L521.597 461.532L519.427 461.739L518.412 451.067L520.065 450.91L520.684 457.42ZM537.517 449.25L539.429 449.068L535.358 454.638L540.822 459.704L538.791 459.897L533.458 454.94L533.973 460.355L532.221 460.522L531.206 449.85L532.958 449.683L533.45 454.86L537.517 449.25ZM551.139 453.318C551.307 455.083 550.986 456.493 550.175 457.548C549.378 458.602 548.217 459.201 546.69 459.346C545.748 459.436 544.885 459.304 544.101 458.95C543.329 458.581 542.692 458.006 542.189 457.223C541.684 456.427 541.376 455.439 541.264 454.257C541.096 452.492 541.411 451.089 542.209 450.049C543.008 449.009 544.17 448.416 545.697 448.271C546.666 448.179 547.536 448.317 548.308 448.685C549.091 449.039 549.728 449.608 550.218 450.392C550.72 451.161 551.027 452.137 551.139 453.318ZM543.076 454.085C543.196 455.346 543.536 456.325 544.098 457.021C544.672 457.703 545.503 457.993 546.592 457.889C547.667 457.787 548.422 457.347 548.857 456.569C549.29 455.777 549.447 454.751 549.327 453.49C549.207 452.229 548.861 451.265 548.289 450.596C547.716 449.927 546.886 449.644 545.797 449.748C544.709 449.851 543.953 450.285 543.53 451.048C543.107 451.812 542.956 452.824 543.076 454.085ZM562.247 449.609C562.31 450.273 562.161 450.81 561.798 451.219C561.435 451.629 560.948 451.93 560.337 452.122L560.344 452.201C561.017 452.231 561.617 452.415 562.145 452.753C562.671 453.078 562.972 453.639 563.048 454.435C563.134 455.338 562.867 456.12 562.246 456.782C561.638 457.429 560.564 457.826 559.025 457.972L554.425 458.41L553.41 447.738L557.99 447.302C558.746 447.23 559.431 447.252 560.045 447.368C560.671 447.469 561.175 447.702 561.558 448.068C561.953 448.419 562.183 448.933 562.247 449.609ZM560.496 449.997C560.448 449.493 560.228 449.145 559.834 448.955C559.453 448.75 558.851 448.687 558.028 448.765L555.301 449.025L555.579 451.951L557.988 451.722C559.754 451.554 560.59 450.979 560.496 449.997ZM561.236 454.608C561.178 453.997 560.904 453.581 560.414 453.36C559.924 453.139 559.228 453.071 558.326 453.157L555.717 453.405L556.043 456.829L558.691 456.578C559.567 456.494 560.226 456.304 560.666 456.008C561.105 455.698 561.295 455.232 561.236 454.608Z" fill="black" fill-opacity="0.7"/>
<path d="M155 500C155 484.536 167.536 472 183 472C198.464 472 211 484.536 211 500C211 515.464 198.464 528 183 528C167.536 528 155 515.464 155 500Z" fill="#303030"/>
<path d="M180.372 497.026V495.936C179.999 495.886 179.619 495.854 179.227 495.854C174.553 495.848 170.75 499.654 170.75 504.339C170.75 507.21 172.181 509.752 174.372 511.29C172.959 509.777 172.094 507.74 172.094 505.51C172.094 500.894 175.791 497.131 180.372 497.026Z" fill="#25F4EE"/>
<path d="M180.577 509.384C182.662 509.384 184.368 507.721 184.442 505.653L184.449 487.171H187.822C187.753 486.791 187.716 486.399 187.716 486H183.11L183.104 504.482C183.03 506.55 181.324 508.213 179.239 508.213C178.592 508.213 177.982 508.051 177.44 507.765C178.138 508.743 179.283 509.384 180.577 509.384Z" fill="#25F4EE"/>
<path d="M194.127 493.444V492.416C192.839 492.416 191.644 492.036 190.636 491.376C191.532 492.404 192.746 493.151 194.127 493.444Z" fill="#25F4EE"/>
<path d="M190.635 491.376C189.652 490.248 189.06 488.778 189.06 487.171H187.828C188.145 488.928 189.191 490.435 190.635 491.376Z" fill="#FE2C55"/>
<path d="M179.234 500.458C177.099 500.458 175.362 502.196 175.362 504.332C175.362 505.821 176.209 507.117 177.441 507.765C176.981 507.129 176.707 506.351 176.707 505.503C176.707 503.367 178.443 501.629 180.578 501.629C180.976 501.629 181.362 501.697 181.723 501.81V497.1C181.35 497.05 180.97 497.019 180.578 497.019C180.509 497.019 180.447 497.026 180.379 497.026V500.638C180.012 500.526 179.632 500.458 179.234 500.458Z" fill="#FE2C55"/>
<path d="M194.127 493.444V497.026C191.737 497.026 189.521 496.259 187.716 494.964V504.339C187.716 509.017 183.913 512.829 179.233 512.829C177.428 512.829 175.748 512.256 174.372 511.29C175.922 512.954 178.131 514 180.577 514C185.251 514 189.06 510.194 189.06 505.51V496.135C190.865 497.431 193.081 498.197 195.471 498.197V493.587C195.004 493.587 194.556 493.537 194.127 493.444Z" fill="#FE2C55"/>
<path d="M187.717 504.339V494.964C189.522 496.259 191.737 497.026 194.127 497.026V493.444C192.746 493.151 191.532 492.404 190.636 491.376C189.192 490.435 188.152 488.928 187.822 487.171H184.449L184.443 505.653C184.368 507.721 182.663 509.384 180.578 509.384C179.283 509.384 178.144 508.743 177.435 507.771C176.202 507.117 175.356 505.827 175.356 504.339C175.356 502.202 177.093 500.464 179.227 500.464C179.626 500.464 180.012 500.533 180.373 500.645V497.032C175.792 497.132 172.095 500.894 172.095 505.51C172.095 507.74 172.96 509.77 174.373 511.29C175.748 512.256 177.429 512.829 179.234 512.829C183.908 512.829 187.717 509.017 187.717 504.339Z" fill="white"/>
<rect x="63" y="116" width="48" height="48" rx="24" fill="#5181B8"/>
<path fill-rule="evenodd" clip-rule="evenodd" d="M102.266 132.535C102.488 131.793 102.266 131.248 101.207 131.248H97.7062C96.816 131.248 96.4059 131.719 96.1834 132.238C96.1834 132.238 94.403 136.577 91.8809 139.396C91.0649 140.212 90.6941 140.471 90.249 140.471C90.0264 140.471 89.7044 140.212 89.7044 139.47V132.535C89.7044 131.644 89.4461 131.248 88.7041 131.248H83.2028C82.6467 131.248 82.3121 131.661 82.3121 132.052C82.3121 132.896 83.5729 133.091 83.703 135.465V140.62C83.703 141.75 83.4989 141.955 83.0538 141.955C81.867 141.955 78.9804 137.596 77.268 132.609C76.9324 131.639 76.5958 131.248 75.7011 131.248H72.2003C71.2 131.248 71 131.719 71 132.238C71 133.165 72.187 137.764 76.5263 143.847C79.4195 148 83.4949 150.252 87.2038 150.252C89.4293 150.252 89.7044 149.752 89.7044 148.891V145.751C89.7044 144.751 89.9152 144.551 90.6196 144.551C91.1392 144.551 92.0292 144.811 94.1064 146.814C96.4799 149.187 96.871 150.252 98.2064 150.252H101.707C102.707 150.252 103.208 149.752 102.919 148.765C102.603 147.781 101.47 146.355 99.9663 144.663C99.1503 143.698 97.9263 142.66 97.5557 142.141C97.0363 141.473 97.1846 141.176 97.5557 140.583C97.5557 140.583 101.821 134.575 102.266 132.535V132.535Z" fill="white"/>
<rect x="451" y="287" width="48" height="48" rx="24" fill="#CA0000"/>
<path d="M470.002 311C470.002 308.239 472.24 306 475.001 306C477.762 306 480.001 308.239 480.001 311C480.001 313.761 477.762 316 475.001 316C472.24 316 470.002 313.761 470.002 311ZM467.299 311C467.299 315.254 470.747 318.702 475.001 318.702C479.255 318.702 482.703 315.254 482.703 311C482.703 306.746 479.255 303.298 475.001 303.298C470.747 303.298 467.299 306.746 467.299 311ZM481.208 302.992C481.208 303.348 481.314 303.696 481.511 303.992C481.709 304.289 481.99 304.519 482.319 304.656C482.648 304.792 483.009 304.828 483.359 304.759C483.708 304.689 484.029 304.518 484.28 304.266C484.532 304.015 484.704 303.694 484.773 303.345C484.843 302.996 484.808 302.634 484.671 302.305C484.535 301.976 484.305 301.695 484.009 301.497C483.713 301.299 483.365 301.193 483.009 301.193H483.008C482.531 301.193 482.073 301.383 481.736 301.72C481.398 302.058 481.209 302.515 481.208 302.992ZM468.941 323.21C467.479 323.143 466.684 322.899 466.155 322.694C465.455 322.421 464.955 322.096 464.43 321.572C463.905 321.047 463.579 320.548 463.308 319.847C463.102 319.319 462.859 318.524 462.792 317.062C462.719 315.481 462.705 315.006 462.705 311C462.705 306.994 462.721 306.521 462.792 304.938C462.859 303.476 463.104 302.682 463.308 302.153C463.581 301.452 463.905 300.953 464.43 300.427C464.955 299.902 465.454 299.577 466.155 299.305C466.683 299.099 467.479 298.856 468.941 298.789C470.522 298.717 470.997 298.702 475.001 298.702C479.005 298.702 479.48 298.718 481.063 298.789C482.525 298.856 483.319 299.101 483.848 299.305C484.549 299.577 485.048 299.903 485.574 300.427C486.099 300.952 486.423 301.452 486.696 302.153C486.902 302.681 487.145 303.476 487.212 304.938C487.284 306.521 487.299 306.994 487.299 311C487.299 315.006 487.284 315.479 487.212 317.062C487.145 318.524 486.9 319.319 486.696 319.847C486.423 320.548 486.098 321.047 485.574 321.572C485.049 322.096 484.549 322.421 483.848 322.694C483.32 322.9 482.525 323.143 481.063 323.21C479.482 323.282 479.007 323.297 475.001 323.297C470.995 323.297 470.522 323.282 468.941 323.21ZM468.817 296.091C467.22 296.164 466.129 296.417 465.176 296.788C464.189 297.17 463.354 297.684 462.519 298.518C461.684 299.351 461.171 300.188 460.789 301.175C460.418 302.128 460.165 303.219 460.092 304.816C460.018 306.415 460.001 306.926 460.001 311C460.001 315.074 460.018 315.585 460.092 317.184C460.165 318.781 460.418 319.872 460.789 320.825C461.171 321.811 461.684 322.649 462.519 323.482C463.353 324.315 464.189 324.828 465.176 325.212C466.131 325.583 467.22 325.836 468.817 325.909C470.417 325.982 470.927 326 475.001 326C479.074 326 479.586 325.983 481.185 325.909C482.782 325.836 483.873 325.583 484.826 325.212C485.812 324.828 486.648 324.316 487.483 323.482C488.318 322.649 488.829 321.811 489.213 320.825C489.584 319.872 489.839 318.781 489.91 317.184C489.983 315.584 490 315.074 490 311C490 306.926 489.983 306.415 489.91 304.816C489.837 303.219 489.584 302.128 489.213 301.175C488.829 300.189 488.317 299.353 487.483 298.518C486.65 297.683 485.812 297.17 484.827 296.788C483.873 296.417 482.782 296.162 481.186 296.091C479.587 296.018 479.076 296 475.002 296C470.929 296 470.417 296.017 468.817 296.091Z" fill="white"/>
<rect x="515" y="224" width="63" height="63" rx="31.5" fill="#005BAF"/>
<path d="M548.604 276.5V257.342H555.034L555.997 249.875H548.604V245.108C548.604 242.947 549.204 241.473 552.304 241.473L556.258 241.472V234.794C555.574 234.703 553.227 234.5 550.497 234.5C544.796 234.5 540.894 237.979 540.894 244.369V249.875H534.446V257.342H540.893V276.5L548.604 276.5Z" fill="white"/>
<rect x="336" y="129" width="48" height="48" rx="24" fill="url(#paint3_linear_449_6636)"/>
<path d="M360.188 167.073C360.101 167.073 360.021 167.073 359.96 167.06C359.914 167.073 359.86 167.073 359.807 167.073C358.021 167.073 356.831 166.231 355.767 165.489C355.012 164.954 354.303 164.445 353.467 164.305C353.059 164.231 352.644 164.205 352.263 164.205C351.554 164.205 350.993 164.312 350.591 164.392C350.337 164.439 350.123 164.479 349.956 164.479C349.782 164.479 349.562 164.432 349.475 164.138C349.401 163.897 349.354 163.67 349.308 163.449C349.187 162.894 349.087 162.553 348.88 162.519C346.646 162.178 345.309 161.663 345.048 161.055C345.028 160.988 345.001 160.921 345.001 160.868C344.988 160.68 345.121 160.527 345.309 160.493C347.081 160.199 348.672 159.256 350.016 157.705C351.06 156.501 351.568 155.337 351.615 155.21C351.615 155.197 351.628 155.197 351.628 155.197C351.882 154.669 351.936 154.221 351.782 153.853C351.494 153.164 350.545 152.87 349.896 152.669C349.729 152.622 349.588 152.569 349.468 152.529C348.913 152.308 347.99 151.84 348.111 151.191C348.197 150.723 348.819 150.389 349.328 150.389C349.468 150.389 349.588 150.409 349.689 150.462C350.257 150.723 350.772 150.857 351.213 150.857C351.762 150.857 352.023 150.65 352.089 150.583C352.076 150.288 352.056 149.981 352.036 149.693C351.902 147.647 351.748 145.106 352.397 143.648C354.343 139.288 358.476 138.94 359.7 138.94C359.733 138.94 360.235 138.927 360.235 138.927C360.255 138.927 360.281 138.927 360.308 138.927C361.532 138.927 365.665 139.268 367.611 143.635C368.266 145.092 368.105 147.64 367.972 149.68L367.958 149.78C367.945 150.054 367.925 150.315 367.911 150.583C367.978 150.636 368.219 150.837 368.714 150.843C369.142 150.83 369.61 150.69 370.145 150.449C370.312 150.375 370.486 150.349 370.613 150.349C370.8 150.349 370.988 150.395 371.148 150.449H371.162C371.61 150.616 371.904 150.93 371.904 151.258C371.917 151.566 371.676 152.034 370.533 152.495C370.413 152.542 370.272 152.596 370.105 152.636C369.47 152.83 368.52 153.137 368.219 153.819C368.052 154.18 368.119 154.642 368.373 155.163C368.373 155.177 368.386 155.177 368.386 155.177C368.46 155.364 370.392 159.751 374.692 160.466C374.88 160.5 375 160.654 375 160.841C375 160.908 374.987 160.975 374.953 161.035C374.692 161.65 373.368 162.152 371.121 162.499C370.914 162.533 370.814 162.874 370.693 163.429C370.647 163.656 370.593 163.877 370.526 164.118C370.459 164.338 370.319 164.459 370.078 164.459H370.045C369.891 164.459 369.684 164.439 369.409 164.385C368.928 164.285 368.4 164.211 367.738 164.211C367.343 164.211 366.935 164.245 366.534 164.312C365.705 164.445 364.989 164.96 364.234 165.495C363.157 166.231 361.96 167.073 360.188 167.073Z" fill="white"/>
<defs>
<filter id="filter0_d_449_6636" x="134.251" y="152.195" width="330.675" height="330.675" filterUnits="userSpaceOnUse" color-interpolation-filters="sRGB">
<feFlood flood-opacity="0" result="BackgroundImageFix"/>
<feColorMatrix in="SourceAlpha" type="matrix" values="0 0 0 0 0 0 0 0 0 0 0 0 0 0 0 0 0 0 127 0" result="hardAlpha"/>
<feOffset dy="40"/>
<feGaussianBlur stdDeviation="40"/>
<feColorMatrix type="matrix" values="0 0 0 0 0 0 0 0 0 0 0 0 0 0 0 0 0 0 0.1 0"/>
<feBlend mode="normal" in2="BackgroundImageFix" result="effect1_dropShadow_449_6636"/>
<feBlend mode="normal" in="SourceGraphic" in2="effect1_dropShadow_449_6636" result="shape"/>
</filter>
<filter id="filter1_d_449_6636" x="221.433" y="200.711" width="164.095" height="164.095" filterUnits="userSpaceOnUse" color-interpolation-filters="sRGB">
<feFlood flood-opacity="0" result="BackgroundImageFix"/>
<feColorMatrix in="SourceAlpha" type="matrix" values="0 0 0 0 0 0 0 0 0 0 0 0 0 0 0 0 0 0 127 0" result="hardAlpha"/>
<feOffset dx="3" dy="4"/>
<feGaussianBlur stdDeviation="9"/>
<feComposite in2="hardAlpha" operator="out"/>
<feColorMatrix type="matrix" values="0 0 0 0 0.321569 0 0 0 0 0.266667 0 0 0 0 0.615686 0 0 0 0.38 0"/>
<feBlend mode="normal" in2="BackgroundImageFix" result="effect1_dropShadow_449_6636"/>
<feBlend mode="normal" in="SourceGraphic" in2="effect1_dropShadow_449_6636" result="shape"/>
</filter>
<linearGradient id="paint0_linear_449_6636" x1="307" y1="24" x2="307" y2="638" gradientUnits="userSpaceOnUse">
<stop stop-color="#F8FBFE"/>
<stop offset="1" stop-color="white" stop-opacity="0.84"/>
</linearGradient>
<radialGradient id="paint1_radial_449_6636" cx="0" cy="0" r="1" gradientUnits="userSpaceOnUse" gradientTransform="translate(277.19 258.38) rotate(20.2128) scale(85.3134)">
<stop stop-color="#6C63FF" stop-opacity="0.16"/>
<stop offset="1" stop-color="#6C63FF"/>
</radialGradient>
<linearGradient id="paint2_linear_449_6636" x1="127" y1="271" x2="127" y2="330.555" gradientUnits="userSpaceOnUse">
<stop stop-color="#00B8FF"/>
<stop offset="1" stop-color="#0083EA"/>
</linearGradient>
<linearGradient id="paint3_linear_449_6636" x1="360" y1="129" x2="360" y2="177" gradientUnits="userSpaceOnUse">
<stop stop-color="#FCF60B"/>
<stop offset="1" stop-color="#C39907"/>
</linearGradient>
<clipPath id="clip0_449_6636">
<rect width="24" height="24" fill="white" transform="translate(315.998 33.0051) rotate(-3.94364)"/>
</clipPath>
<clipPath id="clip1_449_6636">
<rect width="24" height="24" fill="white" transform="translate(20.7842 538.501) rotate(3.88438)"/>
</clipPath>
<clipPath id="clip2_449_6636">
<rect width="24" height="24" fill="white" transform="translate(20.7842 538.501) rotate(3.88438)"/>
</clipPath>
<clipPath id="clip3_449_6636">
<rect width="24" height="24" fill="white" transform="translate(395.998 456.082) rotate(-7.37604)"/>
</clipPath>
</defs>
</svg>
