<svg width="67" height="66" viewBox="0 0 67 66" fill="none" xmlns="http://www.w3.org/2000/svg">
<path opacity="0.25" d="M32.8266 55.9206C45.4463 55.9206 55.6767 45.6902 55.6767 33.0705C55.6767 20.4508 45.4463 10.2205 32.8266 10.2205C20.2069 10.2205 9.97656 20.4508 9.97656 33.0705C9.97656 45.6902 20.2069 55.9206 32.8266 55.9206Z" fill="#E1D6FD"/>
<path opacity="0.5" d="M14.0632 28.8318C8.37716 28.8298 3.25143 25.405 1.07339 20.1527C-1.10464 14.9004 0.0933271 8.85331 4.10933 4.82806C9.60256 -0.662414 18.5059 -0.662414 23.9992 4.82806C26.638 7.46491 28.1207 11.0425 28.1207 14.773C28.1207 18.5035 26.638 22.081 23.9992 24.7179C21.3705 27.3627 17.792 28.8443 14.0632 28.8318Z" fill="#BDB8FE"/>
<path opacity="0.5" d="M52.1093 66C45.3966 66.0024 39.6174 61.2617 38.3071 54.6782C36.9969 48.0946 40.5206 41.5025 46.7227 38.9345C52.9248 36.3666 60.0772 38.5384 63.8043 44.1213C67.5315 49.7042 66.7949 57.1426 62.0453 61.8861C59.4144 64.5275 55.8374 66.0086 52.1093 66V66Z" fill="#D794F8"/>
<path d="M14.4405 65.8479C8.75117 65.8531 3.61882 62.4311 1.4362 57.1771C-0.746429 51.9231 0.450404 45.8717 4.46871 41.8442C5.08301 41.2452 5.75054 40.7034 6.46306 40.2255L7.15169 39.7872C7.63463 39.5011 8.13545 39.2417 8.66311 38.9913C8.93141 38.875 9.1997 38.7498 9.49483 38.6425C10.0439 38.4419 10.6056 38.2776 11.1762 38.1506L11.5339 38.0522C11.5953 38.0303 11.658 38.0123 11.7217 37.9986L14.9055 37.7661C15.3169 37.7661 15.7998 37.8466 16.2381 37.9092H16.3364H16.7568H16.8909H17.0251H17.8836C23.3875 37.858 28.6413 35.6032 32.4701 31.6489C36.32 27.7246 38.4281 22.4157 38.319 16.9193V16.7673V16.6152C38.2874 16.444 38.2695 16.2706 38.2653 16.0965V15.6673L38.1491 15.2559C38.1491 15.0054 38.0865 14.7372 38.0775 14.4778L38.2922 11.5265V11.455V11.4013C38.2922 11.3298 38.4263 10.9363 38.4263 10.9363C38.5622 10.3299 38.7355 9.73259 38.945 9.14761C39.0434 8.87931 39.1686 8.61101 39.2938 8.34272C39.5286 7.81313 39.7975 7.2993 40.0987 6.80447V6.72398C40.2239 6.51829 40.3402 6.31259 40.4833 6.11584C40.9531 5.40781 41.4891 4.74601 42.0841 4.13938C47.5864 -1.3728 56.5154 -1.38081 62.0276 4.12149C67.5398 9.6238 67.5478 18.5528 62.0455 24.065C61.4346 24.6588 60.7699 25.1947 60.0601 25.6658C59.8454 25.8179 59.6576 25.9252 59.4698 26.0414L59.3625 26.104C58.8438 26.4081 58.343 26.6764 57.86 26.9C57.5738 27.0252 57.3145 27.1504 57.0462 27.2488C56.4818 27.4537 55.9053 27.624 55.3201 27.7585C55.1962 27.7848 55.0739 27.8177 54.9535 27.8569L54.7299 27.9195L51.6087 28.1342C51.2152 28.1342 50.7948 28.0626 50.3566 28.009H50.1599H49.7574H49.4981H49.355H48.6574C37.2508 28.1758 28.1184 37.5199 28.2131 48.9273V49.0793V49.2403C28.2373 49.3973 28.2522 49.5555 28.2578 49.7143C28.2578 49.8842 28.2578 50.0452 28.3025 50.2061C28.3472 50.3671 28.3025 50.5102 28.3562 50.6712C28.3874 50.9025 28.4053 51.1354 28.4098 51.3688L28.1863 54.4363C28.1696 54.5178 28.1487 54.5984 28.1237 54.6778L28.0432 54.955C27.9152 55.5624 27.7449 56.1601 27.5334 56.7437C27.435 57.012 27.3009 57.2892 27.1757 57.5665C26.9484 58.083 26.6946 58.5874 26.4155 59.0779C26.2724 59.3283 26.1382 59.5519 25.9862 59.7665C25.5123 60.482 24.9702 61.1499 24.3675 61.7609C21.7388 64.4001 18.1654 65.8809 14.4405 65.8747V65.8479Z" fill="url(#paint0_linear_65_3464)"/>
<defs>
<linearGradient id="paint0_linear_65_3464" x1="0.359375" y1="32.9374" x2="66.167" y2="32.9374" gradientUnits="userSpaceOnUse">
<stop stop-color="#B224EF"/>
<stop offset="1" stop-color="#7579FF"/>
</linearGradient>
</defs>
</svg>
