<svg width="217" height="39" viewBox="0 0 217 39" fill="none" xmlns="http://www.w3.org/2000/svg">
<path d="M67.1357 29.182C65.1597 29.182 63.5477 28.7573 62.2997 27.908C61.069 27.0413 60.4537 25.8193 60.4537 24.242C60.4537 24.086 60.471 23.852 60.5057 23.54H65.1337C65.0817 24.1987 65.2377 24.7187 65.6017 25.1C65.9657 25.4813 66.5204 25.672 67.2657 25.672C67.9417 25.672 68.4704 25.5247 68.8517 25.23C69.2504 24.9353 69.4497 24.5193 69.4497 23.982C69.4497 23.4273 69.1984 22.9767 68.6957 22.63C68.2104 22.2833 67.4477 21.8933 66.4077 21.46C65.4024 21.044 64.579 20.654 63.9377 20.29C63.3137 19.9087 62.7677 19.3973 62.2997 18.756C61.8317 18.1147 61.5977 17.3087 61.5977 16.338C61.5804 15.142 61.875 14.102 62.4817 13.218C63.0884 12.334 63.929 11.658 65.0037 11.19C66.0784 10.722 67.309 10.488 68.6957 10.488C69.9437 10.488 71.053 10.6873 72.0237 11.086C72.9944 11.4673 73.7484 12.0307 74.2857 12.776C74.823 13.504 75.0917 14.3707 75.0917 15.376C75.0917 15.636 75.083 15.8267 75.0657 15.948H70.3337C70.351 15.8787 70.3597 15.7747 70.3597 15.636C70.3597 15.1507 70.1864 14.7607 69.8397 14.466C69.5104 14.154 69.051 13.998 68.4617 13.998C67.8377 13.998 67.3264 14.154 66.9277 14.466C66.5464 14.7607 66.3557 15.168 66.3557 15.688C66.3557 16.208 66.5984 16.65 67.0837 17.014C67.569 17.3607 68.323 17.768 69.3457 18.236C70.3684 18.704 71.2004 19.1373 71.8417 19.536C72.5004 19.9347 73.0637 20.472 73.5317 21.148C73.9997 21.8067 74.2337 22.6213 74.2337 23.592C74.2337 24.6667 73.9477 25.6287 73.3757 26.478C72.8037 27.3273 71.9804 27.9947 70.9057 28.48C69.831 28.948 68.5744 29.182 67.1357 29.182ZM99.9495 10.748L96.7255 29H92.2795L94.2295 18.054L88.1975 29H84.6095L82.4255 18.002L80.5015 29H76.0555L79.2795 10.748H84.5315L87.4435 23.384L94.7235 10.748H99.9495ZM123.817 10.748L120.593 29H116.147L118.097 18.054L112.065 29H108.477L106.293 18.002L104.369 29H99.9227L103.147 10.748H108.399L111.311 23.384L118.591 10.748H123.817Z" fill="url(#paint0_linear_155_2129)"/>
<path d="M129.822 29.208C128.678 29.208 127.647 29.026 126.728 28.662C125.827 28.298 125.116 27.7953 124.596 27.154C124.076 26.4953 123.816 25.7413 123.816 24.892C123.816 24.7707 123.833 24.554 123.868 24.242H128.158C128.123 24.7793 128.279 25.2127 128.626 25.542C128.99 25.854 129.501 26.01 130.16 26.01C130.715 26.01 131.174 25.906 131.538 25.698C131.902 25.49 132.084 25.1953 132.084 24.814C132.084 24.45 131.885 24.164 131.486 23.956C131.105 23.7307 130.463 23.462 129.562 23.15C128.626 22.838 127.837 22.5347 127.196 22.24C126.572 21.928 126.035 21.486 125.584 20.914C125.133 20.342 124.908 19.6227 124.908 18.756C124.908 17.9067 125.159 17.144 125.662 16.468C126.165 15.7747 126.867 15.2373 127.768 14.856C128.687 14.4747 129.744 14.284 130.94 14.284C132.136 14.284 133.176 14.4833 134.06 14.882C134.944 15.2633 135.629 15.8007 136.114 16.494C136.599 17.1873 136.842 17.9673 136.842 18.834L136.816 19.224H132.786C132.821 18.704 132.665 18.288 132.318 17.976C131.971 17.664 131.477 17.508 130.836 17.508C130.333 17.508 129.917 17.612 129.588 17.82C129.276 18.028 129.12 18.314 129.12 18.678C129.12 19.0593 129.328 19.38 129.744 19.64C130.177 19.8827 130.845 20.16 131.746 20.472C132.682 20.784 133.453 21.096 134.06 21.408C134.684 21.7027 135.213 22.1273 135.646 22.682C136.097 23.2193 136.322 23.8953 136.322 24.71C136.322 25.646 136.036 26.452 135.464 27.128C134.909 27.804 134.138 28.324 133.15 28.688C132.179 29.0347 131.07 29.208 129.822 29.208ZM144.918 16.546C145.473 15.87 146.166 15.324 146.998 14.908C147.847 14.492 148.783 14.284 149.806 14.284C151.366 14.284 152.623 14.7953 153.576 15.818C154.547 16.8407 155.032 18.2273 155.032 19.978C155.032 20.5153 154.98 21.096 154.876 21.72C154.616 23.2107 154.105 24.528 153.342 25.672C152.579 26.7987 151.661 27.674 150.586 28.298C149.511 28.9047 148.376 29.208 147.18 29.208C146.175 29.208 145.325 29 144.632 28.584C143.939 28.168 143.427 27.6307 143.098 26.972L141.512 35.916H137.066L140.836 14.492H145.282L144.918 16.546ZM150.378 21.72C150.43 21.4253 150.456 21.1567 150.456 20.914C150.456 20.0473 150.205 19.3713 149.702 18.886C149.217 18.4007 148.593 18.158 147.83 18.158C146.946 18.158 146.14 18.4787 145.412 19.12C144.684 19.7613 144.216 20.6367 144.008 21.746C143.956 22.058 143.93 22.344 143.93 22.604C143.93 23.4533 144.173 24.1207 144.658 24.606C145.143 25.0913 145.767 25.334 146.53 25.334C147.414 25.334 148.22 25.0133 148.948 24.372C149.693 23.7133 150.17 22.8293 150.378 21.72ZM167.426 14.336C168.848 14.336 169.966 14.7433 170.78 15.558C171.612 16.3727 172.028 17.508 172.028 18.964C172.028 19.4493 171.976 19.9693 171.872 20.524L170.364 29H165.944L167.348 21.122C167.4 20.8273 167.426 20.5673 167.426 20.342C167.426 19.614 167.218 19.0507 166.802 18.652C166.404 18.2533 165.84 18.054 165.112 18.054C164.246 18.054 163.518 18.3227 162.928 18.86C162.339 19.3973 161.958 20.1513 161.784 21.122V21.07L160.38 29H155.934L159.34 9.76H163.786L162.616 16.416C163.188 15.7747 163.89 15.272 164.722 14.908C165.554 14.5267 166.456 14.336 167.426 14.336ZM182.502 14.284C184.374 14.284 185.856 14.7953 186.948 15.818C188.057 16.8233 188.612 18.2013 188.612 19.952C188.612 20.524 188.569 21.0353 188.482 21.486C188.413 21.8847 188.309 22.3093 188.17 22.76H178.108C178.091 22.864 178.082 23.0287 178.082 23.254C178.082 24.0167 178.29 24.5973 178.706 24.996C179.122 25.3947 179.677 25.594 180.37 25.594C181.479 25.594 182.329 25.126 182.918 24.19H187.65C187.026 25.6633 186.012 26.868 184.608 27.804C183.204 28.74 181.627 29.208 179.876 29.208C178.004 29.208 176.505 28.688 175.378 27.648C174.269 26.608 173.714 25.1953 173.714 23.41C173.714 22.8727 173.766 22.318 173.87 21.746C174.13 20.238 174.667 18.9207 175.482 17.794C176.297 16.6673 177.311 15.8007 178.524 15.194C179.737 14.5873 181.063 14.284 182.502 14.284ZM184.114 20.498C184.149 20.2553 184.166 20.0907 184.166 20.004C184.166 19.3107 183.949 18.782 183.516 18.418C183.083 18.0367 182.511 17.846 181.8 17.846C181.037 17.846 180.361 18.08 179.772 18.548C179.2 18.9987 178.784 19.6487 178.524 20.498H184.114ZM196.001 17.118C196.677 16.2513 197.449 15.5753 198.315 15.09C199.199 14.5873 200.118 14.336 201.071 14.336L200.239 19.042H199.017C197.908 19.042 197.033 19.2847 196.391 19.77C195.75 20.238 195.325 21.07 195.117 22.266L193.921 29H189.475L192.023 14.492H196.469L196.001 17.118ZM209.645 14.284C211.517 14.284 212.999 14.7953 214.091 15.818C215.2 16.8233 215.755 18.2013 215.755 19.952C215.755 20.524 215.711 21.0353 215.625 21.486C215.555 21.8847 215.451 22.3093 215.313 22.76H205.251C205.233 22.864 205.225 23.0287 205.225 23.254C205.225 24.0167 205.433 24.5973 205.849 24.996C206.265 25.3947 206.819 25.594 207.513 25.594C208.622 25.594 209.471 25.126 210.061 24.19H214.793C214.169 25.6633 213.155 26.868 211.751 27.804C210.347 28.74 208.769 29.208 207.019 29.208C205.147 29.208 203.647 28.688 202.521 27.648C201.411 26.608 200.857 25.1953 200.857 23.41C200.857 22.8727 200.909 22.318 201.013 21.746C201.273 20.238 201.81 18.9207 202.625 17.794C203.439 16.6673 204.453 15.8007 205.667 15.194C206.88 14.5873 208.206 14.284 209.645 14.284ZM211.257 20.498C211.291 20.2553 211.309 20.0907 211.309 20.004C211.309 19.3107 211.092 18.782 210.659 18.418C210.225 18.0367 209.653 17.846 208.943 17.846C208.18 17.846 207.504 18.08 206.915 18.548C206.343 18.9987 205.927 19.6487 205.667 20.498H211.257Z" fill="#282C4B"/>
<path opacity="0.25" d="M14.6819 30.0113C20.3263 30.0113 24.9019 25.4356 24.9019 19.7913C24.9019 14.1469 20.3263 9.57129 14.6819 9.57129C9.03756 9.57129 4.46191 14.1469 4.46191 19.7913C4.46191 25.4356 9.03756 30.0113 14.6819 30.0113Z" fill="#E1D6FD"/>
<path opacity="0.5" d="M6.28996 17.8952C3.7468 17.8943 1.45425 16.3625 0.48009 14.0133C-0.494067 11.6641 0.0417418 8.9595 1.83796 7.15915C4.29488 4.70346 8.27703 4.70346 10.734 7.15915C11.9142 8.33852 12.5774 9.93863 12.5774 11.6072C12.5774 13.2757 11.9142 14.8758 10.734 16.0552C9.55827 17.2381 7.95774 17.9008 6.28996 17.8952Z" fill="#BDB8FE"/>
<path opacity="0.5" d="M23.3056 34.5192C20.3033 34.5203 17.7184 32.4 17.1324 29.4554C16.5464 26.5108 18.1224 23.5624 20.8964 22.4138C23.6703 21.2653 26.8693 22.2366 28.5364 24.7337C30.2034 27.2307 29.874 30.5576 27.7496 32.6792C26.5729 33.8606 24.973 34.523 23.3056 34.5192Z" fill="#D794F8"/>
<path d="M6.45812 34.4514C3.9135 34.4537 1.61799 32.9232 0.64178 30.5732C-0.33443 28.2233 0.20087 25.5168 1.99812 23.7154C2.27287 23.4475 2.57143 23.2052 2.89012 22.9914L3.19812 22.7954C3.41412 22.6674 3.63812 22.5514 3.87412 22.4394C3.99412 22.3874 4.11412 22.3314 4.24612 22.2834C4.4917 22.1937 4.7429 22.1202 4.99812 22.0634L5.15812 22.0194C5.18556 22.0096 5.21362 22.0015 5.24212 21.9954L6.66612 21.8914C6.85012 21.8914 7.06612 21.9274 7.26212 21.9554H7.30612H7.49412H7.55412H7.61412H7.99812C10.4598 21.9325 12.8097 20.924 14.5221 19.1554C16.244 17.4002 17.1869 15.0257 17.1381 12.5674V12.4994V12.4314C17.124 12.3548 17.116 12.2772 17.1141 12.1994V12.0074L17.0621 11.8234C17.0621 11.7114 17.0341 11.5914 17.0301 11.4754L17.1261 10.1554V10.1234V10.0994C17.1261 10.0674 17.1861 9.8914 17.1861 9.8914C17.2469 9.62021 17.3244 9.35304 17.4181 9.09139C17.4621 8.9714 17.5181 8.85139 17.5741 8.7314C17.6791 8.49453 17.7994 8.26471 17.9341 8.0434V8.0074C17.9901 7.9154 18.0421 7.8234 18.1061 7.73539C18.3162 7.41872 18.556 7.12272 18.8221 6.8514C21.2831 4.386 25.2767 4.38241 27.7421 6.84339C30.2075 9.30438 30.2111 13.298 27.7501 15.7634C27.4769 16.029 27.1796 16.2687 26.8621 16.4794C26.7661 16.5474 26.6821 16.5954 26.5981 16.6474L26.5501 16.6754C26.3181 16.8114 26.0941 16.9314 25.8781 17.0314C25.7501 17.0874 25.6341 17.1434 25.5141 17.1874C25.2617 17.2791 25.0039 17.3552 24.7421 17.4154C24.6867 17.4271 24.632 17.4418 24.5781 17.4594L24.4781 17.4874L23.0821 17.5834C22.9061 17.5834 22.7181 17.5514 22.5221 17.5274H22.4341H22.2541H22.1381H22.0741H21.7621C16.6604 17.602 12.5758 21.7813 12.6181 26.8834V26.9514V27.0234C12.6289 27.0936 12.6356 27.1644 12.6381 27.2354C12.6381 27.3114 12.6381 27.3834 12.6581 27.4554C12.6781 27.5274 12.6581 27.5914 12.6821 27.6634C12.6961 27.7669 12.7041 27.871 12.7061 27.9754L12.6061 29.3474C12.5987 29.3839 12.5893 29.4199 12.5781 29.4554L12.5421 29.5794C12.4849 29.8511 12.4087 30.1184 12.3141 30.3794C12.2701 30.4994 12.2101 30.6234 12.1541 30.7474C12.0524 30.9784 11.939 31.204 11.8141 31.4234C11.7501 31.5354 11.6901 31.6354 11.6221 31.7314C11.4102 32.0514 11.1677 32.3502 10.8981 32.6234C9.7224 33.8038 8.12416 34.4662 6.45812 34.4634V34.4514Z" fill="url(#paint1_linear_155_2129)"/>
<defs>
<linearGradient id="paint0_linear_155_2129" x1="59.5957" y1="19.5" x2="216.596" y2="19.5" gradientUnits="userSpaceOnUse">
<stop stop-color="#B224EF"/>
<stop offset="1" stop-color="#7579FF"/>
</linearGradient>
<linearGradient id="paint1_linear_155_2129" x1="0.160156" y1="19.7317" x2="29.5935" y2="19.7317" gradientUnits="userSpaceOnUse">
<stop stop-color="#B224EF"/>
<stop offset="1" stop-color="#7579FF"/>
</linearGradient>
</defs>
</svg>
