<svg width="375" height="782" viewBox="0 0 375 782" fill="none" xmlns="http://www.w3.org/2000/svg">
<mask id="mask0_5_1527" style="mask-type:alpha" maskUnits="userSpaceOnUse" x="0" y="0" width="375" height="782">
<rect width="375" height="782" fill="white"/>
</mask>
<g mask="url(#mask0_5_1527)">
<path opacity="0.2" d="M438.728 130.602C425.595 102.402 409.934 74.3219 386.229 53.0975C351.38 21.8869 300.21 9.00897 256.648 20.5433C219.721 30.2981 190.498 55.2865 158.619 74.888C119.357 99.0411 75.1516 115.369 30.7057 130.148C6.83125 138.091 -17.822 145.951 -36.7052 161.683C-62.9196 183.529 -74.7817 219.046 -71.4514 253.601C-68.1211 288.156 -50.6898 321.502 -26.4563 348.475C-13.5606 362.828 1.87828 375.935 20.2636 382C39.7163 388.417 60.7932 386.444 80.2074 393.001C98.1985 399.075 113.224 411.987 126.1 425.868C142.913 443.99 156.992 464.307 167.924 486.219C180.292 511.049 188.318 537.487 200.523 562.345C212.727 587.202 230.21 611.365 255.308 624.644C278.901 637.13 306.247 638.579 332.339 638.502C374.963 638.415 417.509 634.981 459.555 628.236C487.737 623.696 516.011 617.501 540.366 604.022C586.935 578.257 614.623 525.227 609.363 471.893C605.003 427.705 580.326 386.556 552.822 349.505C527.741 315.718 493.291 281.907 478.599 242.71C464.605 205.318 455.871 167.434 438.728 130.602Z" fill="#A5A6F6"/>
<path opacity="0.2" d="M447.728 189.348C434.595 161.148 418.934 133.068 395.229 111.844C360.38 80.633 309.21 67.7551 265.648 79.2894C228.721 89.0442 199.498 114.033 167.619 133.634C128.357 157.787 84.1516 174.115 39.7057 188.894C15.8313 196.837 -8.822 204.697 -27.7052 220.429C-53.9196 242.275 -65.7817 277.793 -62.4514 312.347C-59.1211 346.902 -41.6898 380.248 -17.4563 407.221C-4.5606 421.574 10.8783 434.681 29.2636 440.746C48.7163 447.163 69.7932 445.19 89.2074 451.747C107.198 457.821 122.224 470.733 135.1 484.614C151.913 502.737 165.992 523.053 176.924 544.965C189.292 569.795 197.318 596.233 209.523 621.091C221.727 645.948 239.21 670.111 264.308 683.39C287.901 695.876 315.247 697.325 341.339 697.248C383.963 697.161 426.509 693.727 468.555 686.982C496.737 682.442 525.011 676.247 549.366 662.768C595.935 637.003 623.623 583.973 618.363 530.639C614.003 486.451 589.326 445.302 561.822 408.251C536.741 374.464 502.291 340.653 487.599 301.457C473.605 264.064 464.871 226.18 447.728 189.348Z" fill="#A5A6F6"/>
</g>
</svg>
