<svg width="375" height="784" viewBox="0 0 375 784" fill="none" xmlns="http://www.w3.org/2000/svg">
<mask id="mask0_5_1549" style="mask-type:alpha" maskUnits="userSpaceOnUse" x="0" y="0" width="375" height="784">
<rect width="375" height="784" fill="white"/>
</mask>
<g mask="url(#mask0_5_1549)">
<path opacity="0.2" d="M-142.518 268.604C-165.07 286.351 -186.919 306.21 -200.646 331.264C-220.834 368.099 -220.523 414.434 -199.806 448.589C-182.265 477.548 -152.684 496.404 -127.377 518.773C-96.198 546.322 -70.972 579.895 -47.0971 614.035C-34.2683 632.372 -21.3326 651.389 -2.59569 663.67C23.4211 680.719 58.496 682.405 89.1272 671.459C119.758 660.514 145.979 637.918 164.808 611.065C174.827 596.775 183.116 580.626 184.312 563.639C185.577 545.666 178.833 528.292 180.234 510.319C181.53 493.664 189.739 477.911 199.333 463.748C211.86 445.257 227.023 428.563 244.375 414.158C264.043 397.851 286.192 384.839 305.923 368.664C325.655 352.489 343.515 332.009 349.692 307.645C355.501 284.741 350.395 261.256 344.198 239.192C334.106 203.138 320.992 167.937 304.985 133.939C294.238 111.155 281.965 88.6828 263.992 71.2405C229.63 37.8866 174.918 26.9259 127.668 43.9213C88.5216 58.0039 56.9097 88.5669 29.6869 120.558C4.862 149.731 -17.7839 186.84 -49.9662 208.493C-80.6728 229.131 -113.061 245.433 -142.518 268.604Z" fill="#A5A6F6" fill-opacity="0.58"/>
<path opacity="0.2" d="M-91.5183 247.363C-114.07 265.11 -135.919 284.969 -149.646 310.022C-169.834 346.857 -169.523 393.193 -148.806 427.348C-131.265 456.306 -101.684 475.162 -76.3771 497.532C-45.198 525.081 -19.972 558.653 3.90286 592.793C16.7317 611.131 29.6674 630.147 48.4043 642.429C74.4211 659.477 109.496 661.163 140.127 650.218C170.758 639.272 196.979 616.677 215.808 589.823C225.827 575.533 234.116 559.384 235.312 542.398C236.577 524.425 229.833 507.051 231.234 489.078C232.53 472.423 240.739 456.669 250.333 442.507C262.86 424.016 278.023 407.321 295.375 392.916C315.043 376.609 337.192 363.598 356.923 347.423C376.655 331.247 394.515 310.768 400.692 286.404C406.501 263.5 401.395 240.015 395.198 217.95C385.106 181.896 371.992 146.696 355.985 112.697C345.238 89.9132 332.965 67.4413 314.992 49.9991C280.63 16.6451 225.918 5.68442 178.668 22.6798C139.522 36.7625 107.91 67.3255 80.6869 99.317C55.862 128.49 33.2161 165.599 1.03383 187.251C-29.6728 207.889 -62.061 224.191 -91.5183 247.363Z" fill="#A5A6F6" fill-opacity="0.58"/>
</g>
</svg>
