<svg width="375" height="812" viewBox="0 0 375 812" fill="none" xmlns="http://www.w3.org/2000/svg">
<mask id="mask0_5_1584" style="mask-type:alpha" maskUnits="userSpaceOnUse" x="0" y="0" width="375" height="812">
<rect width="375" height="812" fill="white"/>
</mask>
<g mask="url(#mask0_5_1584)">
<path opacity="0.2" d="M-142.518 278.197C-165.07 296.578 -186.919 317.146 -200.646 343.095C-220.834 381.245 -220.523 429.235 -199.806 464.61C-182.265 494.603 -152.684 514.133 -127.377 537.301C-96.198 565.833 -70.972 600.605 -47.0971 635.965C-34.2683 654.957 -21.3325 674.653 -2.59567 687.373C23.4211 705.03 58.496 706.776 89.1272 695.44C119.758 684.103 145.979 660.701 164.808 632.888C174.827 618.088 183.116 601.362 184.312 583.769C185.577 565.154 178.833 547.16 180.234 528.545C181.53 511.295 189.739 494.979 199.333 480.311C211.86 461.159 227.023 443.868 244.375 428.949C264.043 412.06 286.192 398.584 305.923 381.831C325.655 365.078 343.515 343.867 349.692 318.632C355.501 294.91 350.395 270.587 344.198 247.734C334.106 210.393 320.992 173.935 304.985 138.722C294.238 115.124 281.965 91.85 263.992 73.7848C229.63 39.2396 174.918 27.8875 127.668 45.4899C88.5216 60.0755 56.9097 91.73 29.6869 124.864C4.86199 155.079 -17.7839 193.513 -49.9662 215.939C-80.6728 237.314 -113.061 254.198 -142.518 278.197Z" fill="#A5A6F6"/>
<path opacity="0.2" d="M-91.5183 256.197C-114.07 274.578 -135.919 295.146 -149.646 321.095C-169.834 359.245 -169.523 407.235 -148.806 442.61C-131.265 472.603 -101.684 492.133 -76.3771 515.301C-45.198 543.833 -19.972 578.605 3.90288 613.965C16.7317 632.957 29.6675 652.653 48.4043 665.373C74.4211 683.03 109.496 684.776 140.127 673.44C170.758 662.103 196.979 638.701 215.808 610.888C225.827 596.088 234.116 579.362 235.312 561.769C236.577 543.154 229.833 525.16 231.234 506.545C232.53 489.295 240.739 472.979 250.333 458.311C262.86 439.159 278.023 421.868 295.375 406.949C315.043 390.06 337.192 376.584 356.923 359.831C376.655 343.078 394.515 321.867 400.692 296.632C406.501 272.91 401.395 248.587 395.198 225.734C385.106 188.393 371.992 151.935 355.985 116.722C345.238 93.1244 332.965 69.85 314.992 51.7848C280.63 17.2396 225.918 5.8875 178.668 23.4899C139.522 38.0755 107.91 69.73 80.6869 102.864C55.862 133.079 33.2161 171.513 1.03383 193.939C-29.6728 215.314 -62.061 232.198 -91.5183 256.197Z" fill="#A5A6F6"/>
</g>
</svg>
