<svg width="30" height="22" fill="none" xmlns="http://www.w3.org/2000/svg"><path fill-rule="evenodd" clip-rule="evenodd" d="M28.153 18.06h.913c-.163.091-.383.265-.658.52l-.914.934.501.717c.524.747.983 1.317 1.376 1.71h-1.307a7.324 7.324 0 00-.639-1.16l-.59-.884.512-.648c.458-.597.727-.993.806-1.19zm-1.386.432v3.007l.04.226c.026.04.085.072.176.098v.118h-1.268v-.118l.177-.098c.027-.04.04-.115.04-.226v-3.007l-.04-.216c-.026-.046-.085-.076-.177-.089v-.128h1.268v.128c-.091.013-.15.043-.177.089l-.039.216zm-1.887 0v3.007l.04.226.177.098v.118h-1.278v-.118a.455.455 0 00.197-.098l.029-.226v-1.563h-1.494V21.5l.04.226c.026.04.085.072.176.098v.118H21.48v-.118c.105-.026.17-.059.197-.098l.039-.226v-3.007l-.04-.216c-.026-.046-.091-.076-.196-.089v-.128h1.287v.128c-.091.013-.15.043-.176.089l-.04.216v1.189h1.494v-1.19l-.03-.215c-.039-.046-.104-.076-.196-.089v-.128h1.278v.128c-.092.013-.151.043-.177.089l-.04.216zm-6.18-.305v-.128h1.12a2 2 0 00.137.57l.826 2.32c.137.406.271.736.402.992h-.982l-.422-1.395h-1.249l-.265.923-.079.472h-.707l1.257-2.909c.125-.307.187-.517.187-.629 0-.124-.075-.196-.225-.216zm.462.521l-.531 1.562h1.061l-.53-1.562zm-1.985.197h-.217l-.049-.168c-.053-.19-.131-.314-.236-.373l-.54-.069h-.52c-.119 0-.197.02-.237.06-.032.032-.049.09-.049.176v.924h.216c.63 0 1.065.062 1.307.187.348.17.521.504.521 1.002 0 .485-.138.832-.413 1.041-.242.17-.619.256-1.13.256h-1.552v-.118l.186-.098.03-.226v-3.007l-.03-.216c-.026-.046-.088-.076-.186-.089v-.128h2.899v.846zm-1.848.796v1.66c0 .131.023.216.069.256.053.052.144.078.275.078h.118c.25 0 .432-.085.55-.255.105-.157.158-.41.158-.757 0-.34-.056-.583-.168-.727-.117-.17-.337-.255-.658-.255h-.344zm-1.395-.531c0 .452-.138.776-.413.973-.236.17-.603.255-1.1.255h-.394v1.1l.04.227c.02.04.081.072.186.098v.118h-1.277v-.118l.177-.098.039-.226v-3.007l-.04-.216c-.026-.046-.085-.076-.176-.089v-.128h1.611c.44 0 .76.066.963.197.256.17.384.475.384.914zm-1.848-.835c-.039.026-.059.085-.059.177v1.64h.394c.242 0 .412-.091.51-.275.086-.163.128-.412.128-.746 0-.557-.232-.836-.697-.836h-.099l-.177.04zm-1.7.57h-.206l-.049-.168c-.065-.19-.147-.314-.246-.373l-.53-.069h-.433l-.157.04-.04.147v1.199h.512c.354 0 .586-.04.697-.118v.491c-.11-.078-.343-.118-.697-.118h-.511v1.455c0 .118.04.2.118.245l.491.06h.108l.53-.08c.093-.058.165-.202.217-.432l.04-.147h.245v.904h-2.8v-.118c.098-.026.16-.059.186-.098l.04-.226v-3.007l-.04-.216c-.026-.046-.088-.076-.187-.089v-.128h2.712v.846zm-3.35 0h-.207l-.049-.168c-.059-.19-.14-.314-.245-.373l-.521-.069h-.54c-.112 0-.19.02-.237.06a.373.373 0 00-.029.176v.924h.216c.623 0 1.058.062 1.307.187.34.17.511.504.511 1.002 0 .485-.138.832-.413 1.041-.235.17-.612.256-1.13.256H4.137v-.118c.105-.026.17-.059.196-.098l.04-.226v-3.007l-.04-.216c-.026-.046-.091-.076-.196-.089v-.128h2.899v.846zm-3.911-.531c-.118-.085-.301-.128-.55-.128-.394 0-.672.144-.836.433-.137.249-.206.655-.206 1.218 0 .564.075.98.226 1.248.183.334.498.501.943.501.328 0 .652-.079.973-.236l.118.246c-.373.23-.812.344-1.317.344C1.245 22 .63 21.348.63 20.044c0-1.369.639-2.053 1.916-2.053.491 0 .868.059 1.13.177v.805H3.43l-.068-.235a.707.707 0 00-.236-.364zm2.083 1.327v1.66c0 .131.02.216.059.256.052.052.147.078.285.078h.108c.472 0 .708-.337.708-1.012 0-.34-.056-.583-.168-.727-.124-.17-.347-.255-.668-.255h-.324z" fill="#006236"/><path fill-rule="evenodd" clip-rule="evenodd" d="M19.545.937l.642.587L12.07 6.19 8.14 3.912l.368-.735 3.562 2.038L19.545.937zM17.91 0l.863.44-6.703 3.857-3.122-1.781.533-.643 2.59 1.488L17.91 0zm2.847 2.13l.477.643-9.164 5.27L7.645 5.51l.202-.808 4.223 2.424 8.687-4.995z" fill="url(#paint0_radial_152_3840)"/><path fill-rule="evenodd" clip-rule="evenodd" d="M22.078 4.5c.27.759.405 1.554.405 2.387 0 .832-.135 1.64-.405 2.424l-.183.496a7.634 7.634 0 01-1.598 2.387 7.382 7.382 0 01-2.387 1.58 7.34 7.34 0 01-5.84 0 7.717 7.717 0 01-2.369-1.58 7.242 7.242 0 01-1.598-2.387 7.54 7.54 0 01-.587-2.92V6.39l4.554 2.59 9.604-5.51.404 1.028z" fill="url(#paint1_radial_152_3840)"/><defs><radialGradient id="paint0_radial_152_3840" cx="0" cy="0" r="1" gradientUnits="userSpaceOnUse" gradientTransform="translate(15.486 7.052) scale(8.59902)"><stop stop-color="#52A347"/><stop offset=".502" stop-color="#83B03E"/><stop offset=".706" stop-color="#2EA64C"/><stop offset=".929" stop-color="#264122"/><stop offset=".933" stop-color="#264122"/></radialGradient><radialGradient id="paint1_radial_152_3840" cx="0" cy="0" r="1" gradientUnits="userSpaceOnUse" gradientTransform="translate(15.486 7.052) scale(8.59917)"><stop stop-color="#52A347"/><stop offset=".502" stop-color="#83B03E"/><stop offset=".706" stop-color="#2B9940"/><stop offset=".929" stop-color="#264122"/><stop offset=".933" stop-color="#264122"/></radialGradient></defs></svg>