<svg width="32" height="32" fill="none" xmlns="http://www.w3.org/2000/svg"><path d="M30.094 21.69L31.97 9.71a2.23 2.23 0 00-1.848-2.554L4.81 3.094A2.229 2.229 0 002.255 4.94l-.9 5.602V21.62l28.739.07z" fill="#8A8FB9"/><path d="M30.123 7.157l-7.19-1.154C18.105 13.392 10.3 18.51 4.313 21.627l25.782.063L31.97 9.712a2.23 2.23 0 00-1.847-2.555z" fill="#616692"/><path d="M2.23 9.986h25.636a2.23 2.23 0 012.23 2.229v14.49a2.23 2.23 0 01-2.23 2.23H2.23A2.23 2.23 0 010 26.705v-14.49a2.23 2.23 0 012.23-2.23z" fill="#ECECF2"/><path d="M27.867 9.986h-.446c-5.26 9.34-15.092 15.747-21.093 18.949h21.54a2.23 2.23 0 002.228-2.23v-14.49a2.23 2.23 0 00-2.229-2.23z" fill="#E3E3EE"/><path d="M8.358 12.773H2.785v4.458h5.573v-4.459z" fill="#F178B6"/><path d="M4.457 14.444H2.785v1.115h1.672v-1.115zm3.903 0H6.688v1.115H8.36v-1.115z" fill="#FCDDEC"/><path d="M24.521 26.148a2.787 2.787 0 100-5.573 2.787 2.787 0 000 5.573z" fill="#F178B6"/><path d="M21.177 26.148a2.787 2.787 0 100-5.573 2.787 2.787 0 000 5.573z" fill="#FCDDEC"/><path d="M5.574 21.132H2.23v1.115h3.344v-1.115zm5.575 0H7.805v1.115h3.344v-1.115zm5.57 0h-3.344v1.115h3.344v-1.115zm.002 3.344H2.231v1.115h14.49v-1.115zm3.901-11.703h-1.114v2.229h1.114v-2.23zm2.231 0h-1.115v2.229h1.115v-2.23zm2.227 0h-1.115v2.229h1.114v-2.23zm2.23 0h-1.115v2.229h1.115v-2.23z" fill="#A5A6F6"/></svg>