<svg width="40" height="19" fill="none" xmlns="http://www.w3.org/2000/svg"><path d="M19.598 10.64h.627v1.405h.453l.813-1.405h.686l-.976 1.65v.011l1.034 1.8h-.709l-.836-1.51h-.453v1.51h-.628V10.64h-.011zm4.043.918c.755 0 1.37.546 1.37 1.3 0 .768-.604 1.302-1.359 1.302s-1.36-.534-1.36-1.301c-.01-.767.593-1.301 1.349-1.301zm1.858.057h.593v1.953h.779v-1.952h.592v1.952h.778v-1.952h.593v2.486h-3.311v-2.487h-.024zm5.09-.057c.708 0 1.103.523 1.103 1.173-.002.082-.01.163-.023.244H29.96c.035.43.372.662.744.662.255 0 .51-.116.708-.267l.244.442c-.256.22-.639.36-.999.36-.825 0-1.336-.593-1.336-1.302 0-.778.523-1.312 1.266-1.312zm1.393 2.021c.302-.046.523-.302.523-1.185v-.778h1.813v2.486h-.616v-1.987h-.604v.279c0 1.08-.29 1.708-1.116 1.73v-.545zm4.102-2.021c.708 0 1.103.523 1.103 1.173-.002.082-.01.163-.023.244h-1.708c.035.43.372.662.744.662.255 0 .51-.116.708-.267l.244.442c-.255.22-.639.36-.999.36-.825 0-1.336-.593-1.336-1.302 0-.778.523-1.312 1.267-1.312zm1.614.057h.616v.953h.302l.604-.952h.686l-.79 1.185v.011l.883 1.29h-.72l-.651-1.01h-.325v1.01h-.617v-2.487h.012zm-14.057 2.01c.406 0 .743-.313.743-.778 0-.453-.337-.778-.744-.778-.406 0-.731.314-.731.778 0 .465.325.779.732.779zm7.424-1.08c0-.325-.221-.523-.5-.523-.314 0-.546.21-.604.523h1.104zm5.495 0c0-.325-.22-.523-.5-.523-.314 0-.546.21-.604.523h1.104z" fill="#2D3540"/><path d="M28.278 3.1v5.867a.16.16 0 01-.1.151.159.159 0 01-.063.011H26.92a.16.16 0 01-.163-.162V3.1a.159.159 0 01.163-.163h1.196a.159.159 0 01.163.163zm9.34-.163c.047 0 .105.023.163.07.035.035.035.093.023.14L35.83 9.024a.165.165 0 01-.15.105h-1.07c-.07 0-.127-.035-.15-.105l-1.151-3.427-1.15 3.427a.165.165 0 01-.151.104h-1.07c-.069 0-.127-.034-.15-.104l-1.975-5.879c-.012-.046-.012-.093.023-.139.023-.047.081-.07.128-.07H30.3a.16.16 0 01.151.116l1.057 3.474 1.162-3.474a.166.166 0 01.151-.104h.941c.07 0 .128.035.15.104l1.163 3.474 1.057-3.474a.16.16 0 01.151-.116h1.336zm2.022 0c.081 0 .15.07.163.163v5.867a.159.159 0 01-.163.162h-1.197a.158.158 0 01-.162-.162V3.1a.159.159 0 01.162-.163h1.197zM26.059 8.921c.07.08.011.197-.093.197h-1.464a.187.187 0 01-.151-.07l-.244-.302a3.277 3.277 0 01-1.755.523 3.243 3.243 0 01-3.24-3.241 3.243 3.243 0 013.24-3.242 3.243 3.243 0 013.242 3.242c0 .639-.186 1.243-.511 1.754l.976 1.138zm-12.234 2.846c.302.116.418.569.442.766.046.36-.058.5-.175.5-.116 0-.279-.14-.453-.418-.174-.28-.244-.592-.15-.755.057-.105.185-.151.336-.093zm-1.766 1.313c.186 0 .395.081.581.243.36.303.465.651.279.907a.612.612 0 01-.476.209.829.829 0 01-.546-.198c-.326-.278-.418-.743-.21-.999a.45.45 0 01.372-.162zm-4.066 3.357A7.993 7.993 0 010 8.444a7.993 7.993 0 0115.986 0 8.042 8.042 0 01-1.127 4.101c-.023.035-.081.024-.093-.023-.278-1.963-1.475-3.044-3.218-3.37-.151-.023-.174-.115.023-.139.535-.046 1.29-.035 1.685.035a5.29 5.29 0 00-5.251-5.902 5.29 5.29 0 00-5.287 5.286 5.29 5.29 0 005.287 5.287h.244a7.131 7.131 0 01-.105-1.43c.012-.325.081-.371.22-.116.733 1.267 1.778 2.405 3.823 2.858 1.673.372 3.346.802 5.147 3.09.162.198-.082.407-.267.245-1.836-1.627-3.509-2.161-5.031-2.161-1.708.012-2.87.232-4.043.232zM23.154 7.62l-.639-.778c-.07-.081-.011-.21.093-.21h1.348c.07-.185.105-.394.105-.603 0-.965-.72-1.801-1.709-1.801-.987 0-1.707.836-1.707 1.8 0 .965.72 1.79 1.707 1.79.28.011.558-.07.802-.198z" fill="#FF8C00"/></svg>