<svg width="26" height="22" fill="none" xmlns="http://www.w3.org/2000/svg"><path d="M13.057 0a6.99 6.99 0 013.01.68c.143.065.288.142.43.22l-.627.552-.942-.964-1.622 1.413-.955-1.015L9.368 3.52l1.91 2.068-.746.642 1.884 2.068-.745.642 2.695 2.941 1.595-1.438 1.388 1.541a7.755 7.755 0 01-.903.591 6.937 6.937 0 01-3.376.873c-3.781 0-6.855-3.018-6.855-6.73C6.202 3.032 9.276 0 13.057 0zm-1.256 6.306l1.635-1.438 1.466 1.605-1.636 1.439-1.465-1.606zm1.165 2.775l1.622-1.451 1.478 1.605-1.635 1.439-1.465-1.593zm-2.329-5.51l1.635-1.439 1.466 1.606-1.636 1.438-1.465-1.605zm2.996-.771l1.217-1.08 1.099 1.195-1.217 1.091-1.1-1.207zm2.172 4.945l1.216-1.079 1.1 1.207-1.217 1.08-1.1-1.208zm1.072 2.428l1.217-1.08 1.099 1.195-1.217 1.091-1.099-1.206zm.498-5.55l.81-.719.733.797-.81.72-.733-.797zm-1.047-2.375l.811-.732.733.809-.812.719-.732-.796zM18.408 7l.811-.72.746.797-.824.72L18.408 7zm-3.65-1.785l1.217-1.08 1.099 1.195-1.217 1.08-1.099-1.195zM2.38 18.232h-.038l-.714 2.713h-.584L.168 17.09h.606l.605 2.875h.038l.703-2.875h.482l.752 2.875h.037l.552-2.875h.633L3.7 20.945h-.585l-.735-2.713zm2.965 1.072h1.239c-.027-.57-.303-.799-.595-.799-.33 0-.585.256-.644.799zm1.671 1.022v.413a1.9 1.9 0 01-.957.25c-.909 0-1.282-.565-1.282-1.424 0-.826.417-1.424 1.228-1.424.676 0 1.093.44 1.093 1.326v.201H5.334c0 .652.265.94.823.94.292 0 .562-.103.86-.282zm1.338.228c.173.076.362.087.498.087.4 0 .703-.25.703-1.13 0-.691-.25-.914-.611-.914-.217 0-.374.06-.59.18v1.777zm.006-2.18c.161-.086.437-.201.73-.201.67 0 1.033.467 1.033 1.337 0 1.017-.487 1.511-1.271 1.511-.287 0-.73-.092-1.055-.266V16.96l.563-.136v1.55zm4.197 1.753h.027l1.158-3.039h.67v3.854h-.584v-2.794h-.048l-1.104 2.794h-.346l-1.103-2.728h-.049v2.728h-.487v-3.854h.655l1.211 3.039zm4.243-.562c0-.734-.297-1.043-.665-1.043-.357 0-.665.31-.665 1.043 0 .745.282 1.044.665 1.044.384 0 .665-.299.665-1.044zm-1.898 0c0-.951.52-1.424 1.233-1.424.714 0 1.234.473 1.234 1.424 0 .93-.493 1.424-1.234 1.424-.74 0-1.233-.495-1.233-1.424zm2.895-1.022c.243-.147.757-.402 1.379-.402.649 0 .892.255.892.815v1.968h-.562v-1.843c0-.429-.21-.505-.487-.505-.216 0-.492.098-.66.196v2.152h-.562v-2.38zm3.458.761h1.239c-.027-.57-.303-.799-.595-.799-.33 0-.584.256-.644.799zm1.671 1.022v.413a1.9 1.9 0 01-.957.25c-.908 0-1.282-.565-1.282-1.424 0-.826.417-1.424 1.228-1.424.676 0 1.093.44 1.093 1.326v.201h-1.763c0 .652.265.94.822.94.291 0 .562-.103.86-.282zm2.33-2.186h.58l-.98 2.718c-.27.75-.6 1.142-1.222 1.142v-.445c.368 0 .595-.294.725-.697l-1.039-2.717h.595l.693 2h.032l.616-2z" fill="#036CB5"/></svg>