<svg width="696" height="263" fill="none" xmlns="http://www.w3.org/2000/svg"><path d="M.305 224.28v-65.12L105.2 9.56h84.128v147.136h25.344v67.584h-25.344V263H110.48v-38.72H.305zM116.817 98.616l-38.016 58.08h38.016v-58.08z" fill="url(#paint0_linear_779_6685)"/><path d="M241.108 130.648c0-40.597 8.566-72.512 25.696-95.744 17.366-23.232 44-34.848 79.904-34.848 35.67 0 62.187 11.733 79.552 35.2 17.366 23.232 26.048 55.03 26.048 95.392 0 40.597-8.682 72.629-26.048 96.096-17.365 23.232-43.882 34.848-79.552 34.848-35.904 0-62.538-11.616-79.904-34.848-17.13-23.467-25.696-55.499-25.696-96.096zm134.112 0c0-18.773-1.877-32.853-5.632-42.24-3.754-9.621-11.381-14.432-22.88-14.432-11.733 0-19.477 4.81-23.232 14.432-3.754 9.387-5.632 23.467-5.632 42.24 0 19.008 1.878 33.323 5.632 42.944 3.755 9.387 11.499 14.08 23.232 14.08 11.499 0 19.126-4.693 22.88-14.08 3.755-9.621 5.632-23.936 5.632-42.944z" fill="url(#paint1_linear_779_6685)"/><path d="M481.211 224.28v-65.12L586.107 9.56h84.128v147.136h25.344v67.584h-25.344V263h-78.848v-38.72H481.211zM597.723 98.616l-38.016 58.08h38.016v-58.08z" fill="url(#paint2_linear_779_6685)"/><defs><linearGradient id="paint0_linear_779_6685" x1=".305" y1="131.528" x2="695.579" y2="131.528" gradientUnits="userSpaceOnUse"><stop stop-color="#B224EF"/><stop offset="1" stop-color="#7579FF"/></linearGradient><linearGradient id="paint1_linear_779_6685" x1=".305" y1="131.528" x2="695.579" y2="131.528" gradientUnits="userSpaceOnUse"><stop stop-color="#B224EF"/><stop offset="1" stop-color="#7579FF"/></linearGradient><linearGradient id="paint2_linear_779_6685" x1=".305" y1="131.528" x2="695.579" y2="131.528" gradientUnits="userSpaceOnUse"><stop stop-color="#B224EF"/><stop offset="1" stop-color="#7579FF"/></linearGradient></defs></svg>