<svg width="13" height="15" fill="none" xmlns="http://www.w3.org/2000/svg"><path d="M9.255.5c-.398 0-.785.076-1.16.229a3.056 3.056 0 00-.984.667L1.837 6.67A4.264 4.264 0 00.712 8.604a4.362 4.362 0 000 2.197c.2.738.575 1.383 1.125 1.933a4.264 4.264 0 001.934 1.125 4.35 4.35 0 002.197 0 4.264 4.264 0 001.934-1.125l3.516-3.515-.791-.791-3.516 3.515c-.41.41-.89.686-1.442.827a3.15 3.15 0 01-1.617 0 3.089 3.089 0 01-1.424-.827 3.089 3.089 0 01-.826-1.423 3.152 3.152 0 010-1.618c.14-.55.416-1.03.826-1.441l5.274-5.274c.246-.246.533-.41.861-.492.328-.093.656-.093.985 0 .34.082.632.246.879.492.246.247.41.54.492.88a1.77 1.77 0 010 .984 1.825 1.825 0 01-.492.861l-5.274 5.273a.656.656 0 01-.967 0 .656.656 0 010-.966L9.22 4.385l-.79-.791-4.835 4.834a1.747 1.747 0 00-.527 1.283c0 .492.176.914.527 1.266a1.73 1.73 0 001.266.527c.504 0 .932-.176 1.283-.527l5.274-5.274c.386-.387.644-.844.773-1.371.14-.527.14-1.049 0-1.564a2.868 2.868 0 00-.774-1.372A3.055 3.055 0 009.256.5z" fill="#8181A5"/></svg>