<svg width="26" height="26" fill="none" xmlns="http://www.w3.org/2000/svg"><path opacity=".4" d="M11.437 1.062c.863-.737 2.275-.737 3.15 0l1.975 1.7c.375.325 1.075.588 1.575.588h2.125a2.422 2.422 0 012.413 2.412v2.125c0 .488.262 1.2.587 1.575l1.7 1.975c.738.863.738 2.275 0 3.15l-1.7 1.975c-.325.375-.587 1.075-.587 1.575v2.125a2.422 2.422 0 01-2.413 2.413h-2.125c-.487 0-1.2.262-1.575.587l-1.975 1.7c-.862.738-2.275.738-3.15 0l-1.975-1.7c-.375-.325-1.075-.587-1.575-.587H5.725a2.422 2.422 0 01-2.413-2.413v-2.137c0-.488-.262-1.188-.575-1.563L1.05 14.575c-.725-.863-.725-2.263 0-3.125l1.687-1.988c.313-.375.575-1.075.575-1.562V5.75a2.422 2.422 0 012.413-2.413h2.162c.488 0 1.2-.262 1.575-.587l1.975-1.688z" fill="url(#paint0_linear_629_6677)"/><path d="M11.488 16.963c-.25 0-.488-.1-.663-.275L7.8 13.663a.943.943 0 010-1.325.943.943 0 011.325 0l2.363 2.362 5.375-5.375a.943.943 0 011.325 0 .943.943 0 010 1.325l-6.038 6.038a.937.937 0 01-.662.275z" fill="#010D82"/><defs><linearGradient id="paint0_linear_629_6677" x1=".506" y1="13.012" x2="25.515" y2="13.012" gradientUnits="userSpaceOnUse"><stop stop-color="#667EEA"/><stop offset="1" stop-color="#764BA2"/></linearGradient></defs></svg>