<svg width="14" height="14" fill="none" xmlns="http://www.w3.org/2000/svg"><path d="M3.063.5v.563H.813v12.374h12.374V1.063h-2.25V.5H9.813v.563H4.186V.5H3.063zM1.937 2.188h1.125v.562h1.126v-.563h5.625v.563h1.124v-.563h1.126v1.126H1.937V2.187zm0 2.25h10.126v7.875H1.937V4.436zm3.375 1.125v1.125h1.125V5.563H5.313zm2.25 0v1.125h1.125V5.563H7.563zm2.25 0v1.125h1.126V5.563H9.812zm-6.75 2.25v1.125h1.126V7.812H3.063zm2.25 0v1.125h1.125V7.812H5.313zm2.25 0v1.125h1.125V7.812H7.563zm2.25 0v1.125h1.126V7.812H9.812zm-6.75 2.25v1.124h7.876v-1.124H3.061z" fill="#8181A5"/></svg>