<svg width="179" height="156" fill="none" xmlns="http://www.w3.org/2000/svg"><path fill-rule="evenodd" clip-rule="evenodd" d="M91.933.04c15.12-.88 26.477 12.666 38.695 21.613 12.161 8.905 24.681 17.13 32.113 30.24 8.798 15.523 21.931 34.633 13.603 50.413-8.611 16.315-33.534 11.908-50.422 19.347-12.003 5.288-21.056 15.648-33.989 17.838-14.75 2.498-30.425 2.502-43.529-4.713-14.062-7.742-23.927-21.177-30.27-35.919C11.3 82.981 3.34 64.033 11.373 48.726 19.38 33.472 41.635 34.892 56.382 25.98 69.252 18.202 76.92.916 91.934.04z" fill="#F1F3FC"/><path d="M115.85 48.5a7.17 7.17 0 00-1.469 0H14.048a7.165 7.165 0 00-1.9.287l51.78 51.564L115.85 48.5z" fill="#8B3FFD"/><path d="M121.151 53.48l-52.174 51.96a7.166 7.166 0 01-10.105 0L7.165 53.875a7.166 7.166 0 00-.25 1.791v71.667a7.167 7.167 0 007.166 7.167h100.333a7.167 7.167 0 007.167-7.167V55.667a7.193 7.193 0 00-.43-2.186zM18.99 127.334h-4.98v-5.124l26.05-25.836 5.052 5.053-26.122 25.907zm95.352 0h-5.016l-26.123-25.907 5.053-5.053 26.051 25.836.035 5.124z" fill="#8B3FFD"/><path d="M137.999 13.333c-7.812 0-14.167 6.355-14.167 14.167h5.667c0-4.686 3.813-8.5 8.5-8.5 4.686 0 8.5 3.814 8.5 8.5 0 3.029-1.287 4.15-4.196 6.39-1.083.832-2.304 1.773-3.474 2.94-3.717 3.715-3.678 7.378-3.664 7.67v5.667h5.667v-5.693c0-.068.065-1.702 2.003-3.638.907-.906 1.933-1.694 2.921-2.456 3.004-2.312 6.409-4.93 6.409-10.88 0-7.812-6.355-14.167-14.166-14.167zM135.165 53h5.667v5.667h-5.667V53z" fill="url(#paint0_linear_459_6867)"/><defs><linearGradient id="paint0_linear_459_6867" x1="123.124" y1="8.333" x2="158.672" y2="11.187" gradientUnits="userSpaceOnUse"><stop stop-color="#37268C"/><stop offset="1" stop-color="#9B8EF0"/></linearGradient></defs></svg>