<svg width="17" height="17" fill="none" xmlns="http://www.w3.org/2000/svg"><path d="M6.093 8.627h.7V1.14H1.14v7.487h4.953zm0 7.333h.7v-3.82H1.14v3.82h4.953zm9.167 0h.7V8.473h-5.653v7.487h4.953zm-4.953-11.7v.7h5.653V1.14h-5.653v3.12zM1.4 8.767a.4.4 0 01-.4-.4V1.4c0-.22.18-.4.4-.4h5.133a.4.4 0 01.4.4v6.967a.4.4 0 01-.4.4H1.4zm0 7.333a.4.4 0 01-.4-.4v-3.3c0-.22.18-.4.4-.4h5.133a.4.4 0 01.4.4v3.3a.4.4 0 01-.4.4H1.4zm9.167 0a.4.4 0 01-.4-.4V8.733a.4.4 0 01.4-.4H15.7c.22 0 .4.18.4.4V15.7a.4.4 0 01-.4.4h-5.133zm-.4-14.7a.4.4 0 01.4-.4H15.7c.22 0 .4.18.4.4v3.3a.4.4 0 01-.4.4h-5.133a.4.4 0 01-.4-.4V1.4z" fill="#9A9CA5" stroke="#9A9CA5" stroke-width="1.4"/></svg>