<svg width="515" height="546" fill="none" xmlns="http://www.w3.org/2000/svg"><g filter="url(#filter0_d_459_6613)"><path fill-rule="evenodd" clip-rule="evenodd" d="M151.252 277.533c0-47.131 38.207-85.338 85.338-85.338 47.13 0 85.337 38.207 85.337 85.338 0 47.13-38.207 85.337-85.337 85.337-47.131 0-85.338-38.207-85.338-85.337z" fill="#fff"/></g><mask id="a" style="mask-type:alpha" maskUnits="userSpaceOnUse" x="272" y="138" width="119" height="268"><path fill-rule="evenodd" clip-rule="evenodd" d="M309.316 138.024l-37.103 43.04 23.004 200.358 37.103 24.488 57.881-83.111-7.42-129.12-73.465-55.655z" fill="#fff"/></mask><g mask="url(#a)"><path d="M98.09 277.531c0-77.316 62.677-139.993 139.992-139.993 77.316 0 139.993 62.677 139.993 139.993 0 77.315-62.677 139.992-139.993 139.992-77.315 0-139.992-62.677-139.992-139.992z" stroke="#6879E3" stroke-opacity=".55" stroke-width="2"/></g><mask id="b" style="mask-type:alpha" maskUnits="userSpaceOnUse" x="48" y="299" width="377" height="166"><path fill-rule="evenodd" clip-rule="evenodd" d="M405.787 307.215l18.552 5.936-34.135 84.596-98.695 66.786-129.12-6.679-86.08-63.075-28.198-95.727 43.04 4.453 96.469 117.988 138.024-11.131 80.143-103.147z" fill="#fff"/></mask><g mask="url(#b)"><path d="M60.986 277.532c0-97.807 79.289-177.096 177.096-177.096s177.096 79.289 177.096 177.096-79.289 177.096-177.096 177.096S60.986 375.339 60.986 277.532z" stroke="#6879E3" stroke-opacity=".55" stroke-width="2"/></g><mask id="c" style="mask-type:alpha" maskUnits="userSpaceOnUse" x="4" y="61" width="175" height="360"><path fill-rule="evenodd" clip-rule="evenodd" d="M88.181 407.395L59.983 420.01 4.328 313.895l23.004-140.251 56.397-62.333 80.143-49.719 14.842 44.524L50.336 212.232l-11.13 126.893 48.975 68.27z" fill="#fff"/></mask><g mask="url(#c)"><path d="M23.88 277.534c0-118.299 95.901-214.2 214.2-214.2 118.299 0 214.199 95.901 214.199 214.2 0 118.299-95.9 214.199-214.199 214.199s-214.2-95.9-214.2-214.199z" stroke="#6879E3" stroke-opacity=".55" stroke-width="2"/></g><mask id="d" style="mask-type:alpha" maskUnits="userSpaceOnUse" x="11" y="0" width="495" height="265"><path fill-rule="evenodd" clip-rule="evenodd" d="M67.397 75.69l-55.655 63.076 27.828 14.842 102.776-90.532 135.798-6.679L438.43 176.612l29.682 87.563 37.846-18.551-48.234-179.58L231.394 0 67.397 75.69z" fill="#fff"/></mask><g mask="url(#d)"><path d="M-13.227 277.532c0-138.791 112.512-251.303 251.303-251.303 138.79 0 251.302 112.512 251.302 251.303 0 138.79-112.512 251.302-251.302 251.302S-13.227 416.322-13.227 277.532z" stroke="#6879E3" stroke-opacity=".55" stroke-width="2"/></g><mask id="e" style="mask-type:alpha" maskUnits="userSpaceOnUse" x="108" y="399" width="362" height="147"><path fill-rule="evenodd" clip-rule="evenodd" d="M131.221 482.342l-23.004 37.103 117.988 25.972 193.679-47.492 49.719-72.722-31.167-25.973-138.024 102.406-169.191-19.294z" fill="#fff"/></mask><g mask="url(#e)"><path d="M-13.22 277.531c0-138.79 112.511-251.302 251.302-251.302 138.79 0 251.302 112.512 251.302 251.302 0 138.791-112.512 251.302-251.302 251.302S-13.221 416.322-13.221 277.531z" stroke="#6879E3" stroke-opacity=".55" stroke-width="2"/></g><path d="M308.832 394.036a6.421 6.421 0 1112.843 0 6.421 6.421 0 01-12.843 0zm137.279 14.098a6.421 6.421 0 1112.843 0 6.421 6.421 0 01-12.843 0zm-336.156 88.307a6.421 6.421 0 1112.843 0 6.421 6.421 0 01-12.843 0zm180.324-345.802a6.421 6.421 0 1112.843 0 6.421 6.421 0 01-12.843 0zm115.766 158.058a6.42 6.42 0 1112.84 0 6.42 6.42 0 01-12.84 0zm-350.264-7.421a6.421 6.421 0 1112.842 0 6.421 6.421 0 01-12.842 0zm9.653 112.053a6.421 6.421 0 1112.842 0 6.421 6.421 0 01-12.842 0zM161.16 74.948a6.42 6.42 0 1112.842 0 6.42 6.42 0 01-12.842 0zM18.684 143.217a6.42 6.42 0 016.42-6.42 6.42 6.42 0 110 12.841 6.421 6.421 0 01-6.42-6.421zm463.048 109.825a6.42 6.42 0 016.421-6.42 6.42 6.42 0 110 12.841 6.42 6.42 0 01-6.421-6.421z" fill="#fff" stroke="#6C63FF" stroke-width="2"/><g filter="url(#filter1_d_459_6613)"><circle cx="237.481" cy="278.759" r="64.047" fill="url(#paint0_radial_459_6613)" shape-rendering="crispEdges"/></g><rect x="34" y="271" width="60" height="60" rx="30" fill="#419FD9"/><rect x="34" y="271" width="60" height="60" rx="30" fill="url(#paint1_linear_459_6613)"/><path d="M47.484 300.339c8.724-3.881 14.542-6.44 17.453-7.676 8.31-3.529 10.037-4.142 11.163-4.163.248-.004.801.059 1.16.356.302.25.386.589.425.827.04.238.09.78.05 1.203-.45 4.832-2.399 16.556-3.39 21.968-.42 2.289-1.245 3.057-2.045 3.132-1.738.164-3.058-1.172-4.74-2.299-2.635-1.763-4.123-2.86-6.68-4.58-2.954-1.988-1.039-3.081.645-4.867.44-.467 8.098-7.578 8.246-8.223.019-.081.036-.382-.14-.54-.174-.159-.432-.105-.619-.062-.264.062-4.472 2.901-12.623 8.519-1.194.837-2.276 1.245-3.245 1.224-1.069-.024-3.124-.617-4.652-1.124-1.874-.622-3.364-.951-3.234-2.007.067-.55.81-1.113 2.226-1.688z" fill="#fff"/><path d="M92 500c0-15.464 12.536-28 28-28s28 12.536 28 28-12.536 28-28 28-28-12.536-28-28z" fill="#303030"/><path d="M117.372 497.026v-1.09a8.583 8.583 0 00-1.145-.082c-4.674-.006-8.477 3.8-8.477 8.485a8.48 8.48 0 003.622 6.951 8.45 8.45 0 01-2.278-5.78c0-4.616 3.697-8.379 8.278-8.484z" fill="#25F4EE"/><path d="M117.578 509.384a3.876 3.876 0 003.865-3.731l.007-18.482h3.373a6.556 6.556 0 01-.106-1.171h-4.606l-.006 18.482a3.876 3.876 0 01-3.865 3.731 3.839 3.839 0 01-1.799-.448 3.848 3.848 0 003.137 1.619zm13.548-15.94v-1.028a6.34 6.34 0 01-3.491-1.04 6.404 6.404 0 003.491 2.068z" fill="#25F4EE"/><path d="M127.635 491.376a6.376 6.376 0 01-1.575-4.205h-1.232a6.388 6.388 0 002.807 4.205zm-11.402 9.082a3.877 3.877 0 00-3.872 3.874c0 1.489.847 2.785 2.079 3.433a3.841 3.841 0 01-.734-2.262 3.877 3.877 0 013.871-3.874c.398 0 .784.068 1.145.181v-4.71a8.584 8.584 0 00-1.145-.081c-.069 0-.131.007-.199.007v3.612a3.9 3.9 0 00-1.145-.18z" fill="#FE2C55"/><path d="M131.128 493.444v3.582c-2.39 0-4.606-.767-6.411-2.062v9.375c0 4.678-3.803 8.49-8.483 8.49a8.444 8.444 0 01-4.861-1.539 8.465 8.465 0 006.205 2.71c4.674 0 8.483-3.806 8.483-8.49v-9.375a10.962 10.962 0 006.411 2.062v-4.61c-.467 0-.915-.05-1.344-.143z" fill="#FE2C55"/><path d="M124.716 504.339v-9.375a10.966 10.966 0 006.41 2.062v-3.582a6.404 6.404 0 01-3.491-2.068 6.439 6.439 0 01-2.813-4.205h-3.374l-.006 18.482a3.876 3.876 0 01-3.865 3.731 3.885 3.885 0 01-3.143-1.613 3.89 3.89 0 01-2.079-3.432 3.877 3.877 0 013.871-3.875c.399 0 .785.069 1.146.181v-3.613c-4.581.1-8.278 3.862-8.278 8.478 0 2.23.865 4.26 2.278 5.78a8.442 8.442 0 004.861 1.539c4.674 0 8.483-3.812 8.483-8.49z" fill="#fff"/><rect y="116" width="48" height="48" rx="24" fill="#5181B8"/><path fill-rule="evenodd" clip-rule="evenodd" d="M39.266 132.535c.222-.742 0-1.287-1.059-1.287h-3.5c-.891 0-1.301.471-1.524.99 0 0-1.78 4.339-4.302 7.158-.816.816-1.187 1.075-1.632 1.075-.223 0-.545-.259-.545-1.001v-6.935c0-.891-.258-1.287-1-1.287h-5.501c-.556 0-.89.413-.89.804 0 .844 1.26 1.039 1.39 3.413v5.155c0 1.13-.204 1.335-.65 1.335-1.186 0-4.073-4.359-5.785-9.346-.336-.97-.672-1.361-1.567-1.361h-3.5c-1.001 0-1.201.471-1.201.99 0 .927 1.187 5.526 5.526 11.609 2.893 4.153 6.969 6.405 10.678 6.405 2.225 0 2.5-.5 2.5-1.361v-3.14c0-1 .211-1.2.916-1.2.52 0 1.41.26 3.486 2.263 2.374 2.373 2.765 3.438 4.1 3.438h3.501c1 0 1.5-.5 1.212-1.487-.316-.984-1.449-2.41-2.953-4.102-.816-.965-2.04-2.003-2.41-2.522-.52-.668-.371-.965 0-1.558 0 0 4.265-6.008 4.71-8.048z" fill="#fff"/><rect x="388" y="287" width="48" height="48" rx="24" fill="#CA0000"/><path d="M407.001 311a5 5 0 1110 0 5 5 0 01-10 0zm-2.703 0a7.702 7.702 0 007.702 7.702 7.702 7.702 0 007.702-7.702 7.702 7.702 0 00-7.702-7.702 7.702 7.702 0 00-7.702 7.702zm13.909-8.008a1.806 1.806 0 001.111 1.664 1.805 1.805 0 002.455-1.311 1.798 1.798 0 00-.765-1.848 1.799 1.799 0 00-1-.304h-.001a1.8 1.8 0 00-1.8 1.799zM405.94 323.21c-1.462-.067-2.257-.311-2.786-.516-.7-.273-1.2-.598-1.725-1.122a4.64 4.64 0 01-1.122-1.725c-.206-.528-.449-1.323-.516-2.785-.073-1.581-.087-2.056-.087-6.062s.016-4.479.087-6.062c.067-1.462.312-2.256.516-2.785.273-.701.597-1.2 1.122-1.726a4.64 4.64 0 011.725-1.122c.528-.206 1.324-.449 2.786-.516 1.581-.072 2.056-.087 6.06-.087s4.479.016 6.062.087c1.462.067 2.256.312 2.785.516.701.272 1.2.598 1.726 1.122a4.656 4.656 0 011.122 1.726c.206.528.449 1.323.516 2.785.072 1.583.087 2.056.087 6.062s-.015 4.479-.087 6.062c-.067 1.462-.312 2.257-.516 2.785a4.665 4.665 0 01-1.122 1.725 4.668 4.668 0 01-1.726 1.122c-.528.206-1.323.449-2.785.516-1.581.072-2.056.087-6.062.087s-4.479-.015-6.06-.087zm-.124-27.119c-1.597.073-2.688.326-3.641.697a7.338 7.338 0 00-2.657 1.73 7.309 7.309 0 00-1.73 2.657c-.371.953-.624 2.044-.697 3.641-.074 1.599-.091 2.11-.091 6.184s.017 4.585.091 6.184c.073 1.597.326 2.688.697 3.641a7.317 7.317 0 001.73 2.657 7.37 7.37 0 002.657 1.73c.955.371 2.044.624 3.641.697 1.6.073 2.11.091 6.184.091s4.585-.017 6.184-.091c1.597-.073 2.688-.326 3.641-.697a7.373 7.373 0 002.657-1.73 7.343 7.343 0 001.73-2.657c.371-.953.626-2.044.697-3.641.073-1.6.09-2.11.09-6.184s-.017-4.585-.09-6.184c-.073-1.597-.326-2.688-.697-3.641a7.373 7.373 0 00-1.73-2.657 7.322 7.322 0 00-2.656-1.73c-.954-.371-2.045-.626-3.641-.697-1.599-.073-2.11-.091-6.184-.091-4.073 0-4.585.017-6.185.091z" fill="#fff"/><rect x="452" y="224" width="63" height="63" rx="31.5" fill="#005BAF"/><path d="M485.603 276.5v-19.158h6.43l.963-7.467h-7.393v-4.767c0-2.161.6-3.635 3.7-3.635l3.954-.001v-6.678c-.684-.091-3.031-.294-5.761-.294-5.701 0-9.603 3.479-9.603 9.869v5.506h-6.448v7.467h6.447V276.5h7.711z" fill="#fff"/><rect x="273" y="129" width="48" height="48" rx="24" fill="url(#paint2_linear_459_6613)"/><path d="M297.188 167.073c-.087 0-.167 0-.228-.013-.046.013-.1.013-.153.013-1.786 0-2.976-.842-4.04-1.584-.755-.535-1.464-1.044-2.3-1.184a6.814 6.814 0 00-1.204-.1 8.18 8.18 0 00-1.672.187c-.254.047-.468.087-.635.087-.174 0-.394-.047-.481-.341-.074-.241-.121-.468-.167-.689-.121-.555-.221-.896-.428-.93-2.234-.341-3.571-.856-3.832-1.464-.02-.067-.047-.134-.047-.187-.013-.188.12-.341.308-.375 1.772-.294 3.363-1.237 4.707-2.788 1.044-1.204 1.552-2.368 1.599-2.495 0-.013.013-.013.013-.013.254-.528.308-.976.154-1.344-.288-.689-1.237-.983-1.886-1.184-.167-.047-.308-.1-.428-.14-.555-.221-1.478-.689-1.357-1.338.086-.468.708-.802 1.217-.802.14 0 .26.02.361.073.568.261 1.083.395 1.524.395.549 0 .81-.207.876-.274a35.789 35.789 0 00-.053-.89c-.134-2.046-.288-4.587.361-6.045 1.946-4.36 6.079-4.708 7.303-4.708l.535-.013h.073c1.224 0 5.357.341 7.303 4.708.655 1.457.494 4.005.361 6.045l-.014.1c-.013.274-.033.535-.047.803.067.053.308.254.803.26.428-.013.896-.153 1.431-.394.167-.074.341-.1.468-.1.187 0 .375.046.535.1h.014c.448.167.742.481.742.809.013.308-.228.776-1.371 1.237-.12.047-.261.101-.428.141-.635.194-1.585.501-1.886 1.183-.167.361-.1.823.154 1.344 0 .014.013.014.013.014.074.187 2.006 4.574 6.306 5.289a.37.37 0 01.308.375.39.39 0 01-.047.194c-.261.615-1.585 1.117-3.832 1.464-.207.034-.307.375-.428.93a9.79 9.79 0 01-.167.689c-.067.22-.207.341-.448.341h-.033c-.154 0-.361-.02-.636-.074a7.936 7.936 0 00-1.671-.174c-.395 0-.803.034-1.204.101-.829.133-1.545.648-2.3 1.183-1.077.736-2.274 1.578-4.046 1.578z" fill="#fff"/><defs><linearGradient id="paint1_linear_459_6613" x1="64" y1="271" x2="64" y2="330.555" gradientUnits="userSpaceOnUse"><stop stop-color="#00B8FF"/><stop offset="1" stop-color="#0083EA"/></linearGradient><linearGradient id="paint2_linear_459_6613" x1="297" y1="129" x2="297" y2="177" gradientUnits="userSpaceOnUse"><stop stop-color="#FCF60B"/><stop offset="1" stop-color="#C39907"/></linearGradient><filter id="filter0_d_459_6613" x="71.252" y="152.195" width="330.676" height="330.675" filterUnits="userSpaceOnUse" color-interpolation-filters="sRGB"><feFlood flood-opacity="0" result="BackgroundImageFix"/><feColorMatrix in="SourceAlpha" values="0 0 0 0 0 0 0 0 0 0 0 0 0 0 0 0 0 0 127 0" result="hardAlpha"/><feOffset dy="40"/><feGaussianBlur stdDeviation="40"/><feColorMatrix values="0 0 0 0 0 0 0 0 0 0 0 0 0 0 0 0 0 0 0.1 0"/><feBlend in2="BackgroundImageFix" result="effect1_dropShadow_459_6613"/><feBlend in="SourceGraphic" in2="effect1_dropShadow_459_6613" result="shape"/></filter><filter id="filter1_d_459_6613" x="158.434" y="200.711" width="164.096" height="164.095" filterUnits="userSpaceOnUse" color-interpolation-filters="sRGB"><feFlood flood-opacity="0" result="BackgroundImageFix"/><feColorMatrix in="SourceAlpha" values="0 0 0 0 0 0 0 0 0 0 0 0 0 0 0 0 0 0 127 0" result="hardAlpha"/><feOffset dx="3" dy="4"/><feGaussianBlur stdDeviation="9"/><feComposite in2="hardAlpha" operator="out"/><feColorMatrix values="0 0 0 0 0.321569 0 0 0 0 0.266667 0 0 0 0 0.615686 0 0 0 0.38 0"/><feBlend in2="BackgroundImageFix" result="effect1_dropShadow_459_6613"/><feBlend in="SourceGraphic" in2="effect1_dropShadow_459_6613" result="shape"/></filter><radialGradient id="paint0_radial_459_6613" cx="0" cy="0" r="1" gradientUnits="userSpaceOnUse" gradientTransform="rotate(20.213 -617.704 730.032) scale(85.3134)"><stop stop-color="#6C63FF" stop-opacity=".16"/><stop offset="1" stop-color="#6C63FF"/></radialGradient></defs></svg>