<svg width="14" height="14" fill="none" xmlns="http://www.w3.org/2000/svg"><path d="M7 .5c-1.219 0-2.355.31-3.41.932A6.42 6.42 0 001.182 3.84 6.605 6.605 0 00.25 7.25c0 1.219.31 2.355.932 3.41a6.551 6.551 0 002.408 2.426A6.702 6.702 0 007 14a6.702 6.702 0 003.41-.914 6.686 6.686 0 002.426-2.426 6.702 6.702 0 00.914-3.41 6.702 6.702 0 00-.914-3.41 6.551 6.551 0 00-2.426-2.408A6.606 6.606 0 007 .5zm0 1.125a5.53 5.53 0 012.848.773 5.478 5.478 0 012.004 2.004 5.54 5.54 0 01.773 2.848c0 1.02-.258 1.969-.773 2.848a5.478 5.478 0 01-2.004 2.004A5.531 5.531 0 017 12.875a5.531 5.531 0 01-2.848-.773 5.478 5.478 0 01-2.004-2.004 5.531 5.531 0 01-.773-2.848c0-1.02.258-1.969.773-2.848a5.478 5.478 0 012.004-2.004A5.53 5.53 0 017 1.625zm-.563 2.25v4.5h1.125v-4.5H6.438zm0 5.625v1.125h1.125V9.5H6.438z" fill="#FF808B"/></svg>