<svg width="12" height="13" fill="none" xmlns="http://www.w3.org/2000/svg"><path d="M.984.5L.828.672.61.828C.443.943.307 1 .203 1v1c.146 0 .292-.026.438-.078.083-.031.198-.089.343-.172L1 1.734V4h1V.5H.984zM3.5 2v1H12V2H3.5zM1.25 5c-.344 0-.64.125-.89.375-.24.24-.36.531-.36.875v.25h1v-.25c0-.052.026-.104.078-.156.063-.063.12-.094.172-.094.052 0 .104.031.156.094.063.052.094.104.094.156L.156 7.547 0 7.687V8.5h2.5v-1h-.86l.438-.438.063-.046L2.125 7a.956.956 0 00.266-.344.916.916 0 00.109-.406c0-.344-.125-.635-.375-.875A1.166 1.166 0 001.25 5zM3.5 6.5v1H12v-1H3.5zM0 9.5v1h.688l-.188.313v.687h.75c.052 0 .104.031.156.094.063.052.094.104.094.156 0 .052-.031.11-.094.172-.052.052-.104.078-.156.078H0v1h1.25c.344 0 .635-.12.875-.36.25-.25.375-.546.375-.89 0-.24-.073-.453-.219-.64a1.476 1.476 0 00-.547-.407l.204-.344.062-.125V9.5H0zM3.5 11v1H12v-1H3.5z" fill="#5E81F4"/></svg>