<svg width="18" height="18" fill="none" xmlns="http://www.w3.org/2000/svg"><path fill-rule="evenodd" clip-rule="evenodd" d="M.25 9a8.75 8.75 0 1017.5 0A8.75 8.75 0 00.25 9zm16 0a7.25 7.25 0 11-14.5 0 7.25 7.25 0 0114.5 0z" fill="#7874FE"/><path fill-rule="evenodd" clip-rule="evenodd" d="M5.25 9c0 4.522 1.491 8.25 3.75 8.25s3.75-3.728 3.75-8.25S11.259.75 9 .75 5.25 4.478 5.25 9zm6 0c0 3.762-1.195 6.75-2.25 6.75S6.75 12.762 6.75 9 7.945 2.25 9 2.25 11.25 5.238 11.25 9z" fill="#7874FE"/><path d="M2.602 4.467l1.006-1.112c.1.09.209.18.325.267 1.27.952 3.3 1.54 5.515 1.54 1.89 0 3.652-.427 4.93-1.158a5.26 5.26 0 00.82-.57l.974 1.141a6.73 6.73 0 01-1.048.73c-1.516.868-3.534 1.356-5.676 1.356-2.522 0-4.865-.678-6.415-1.839a6.063 6.063 0 01-.431-.355zm0 9.082l1.006 1.112c.1-.091.209-.18.325-.267 1.27-.952 3.3-1.54 5.515-1.54 1.89 0 3.652.427 4.93 1.158.309.176.583.367.82.57l.974-1.141a6.84 6.84 0 00-1.048-.73c-1.516-.868-3.534-1.356-5.676-1.356-2.522 0-4.865.678-6.415 1.839-.15.112-.293.23-.431.355zM.75 9.75v-1.5h16.5v1.5H.75z" fill="#7874FE"/></svg>