<svg width="21" height="16" fill="none" xmlns="http://www.w3.org/2000/svg"><path d="M3.103 9.093a1.922 1.922 0 00-1.25-.431 1.912 1.912 0 00-1.236.467 1.626 1.626 0 00-.56 1.115 1.6 1.6 0 00.415 1.167l4.055 3.914c.17.164.374.295.6.384a1.968 1.968 0 001.429.008c.226-.087.43-.214.602-.375l12.384-11.76c.167-.158.3-.346.389-.552a1.568 1.568 0 00-.02-1.291 1.69 1.69 0 00-.406-.542 1.858 1.858 0 00-.6-.358A1.976 1.976 0 0017.5.857a1.847 1.847 0 00-.59.374L5.861 11.747 3.103 9.093z" fill="#ECECF2"/></svg>