<svg width="14" height="19" fill="none" xmlns="http://www.w3.org/2000/svg"><path d="M7 .813c-.387 0-.716.136-.988.408a1.31 1.31 0 00-.387.966l.021.172c-.787.2-1.496.559-2.126 1.075a5.478 5.478 0 00-1.483 1.89A5.297 5.297 0 001.5 7.688v6.187a.67.67 0 01-.193.494.67.67 0 01-.494.194H.125v1.374h4.941a2.07 2.07 0 00-.128.688c0 .559.2 1.038.601 1.44.415.415.902.622 1.461.622s1.038-.207 1.44-.623c.415-.4.623-.88.623-1.439a2.07 2.07 0 00-.13-.688h4.942v-1.374h-.688a.67.67 0 01-.494-.194.67.67 0 01-.193-.494V7.881c0-.845-.179-1.647-.537-2.406a5.562 5.562 0 00-1.461-1.977 5.374 5.374 0 00-2.148-1.139l.021-.171c0-.387-.136-.71-.408-.967A1.277 1.277 0 007 .812zm-.3 2.75h.429c.73.028 1.404.243 2.02.644.615.387 1.095.91 1.439 1.568.358.66.537 1.361.537 2.106v5.994c0 .215.043.444.129.688H2.746a2.07 2.07 0 00.129-.688V7.687c0-.716.165-1.375.494-1.976.344-.616.81-1.11 1.397-1.482a4.062 4.062 0 011.933-.667zM7 15.937c.2 0 .365.065.494.194a.67.67 0 01.194.494c0 .186-.065.35-.194.494a.67.67 0 01-.494.194.717.717 0 01-.494-.194.717.717 0 01-.194-.494c0-.2.065-.365.194-.494A.717.717 0 017 15.937z" fill="#8A8FB9"/></svg>