<svg width="83" height="84" fill="none" xmlns="http://www.w3.org/2000/svg"><circle cx="41.5" cy="42" r="41.5" fill="red"/><path d="M28.545 43.2a3.89 3.89 0 00-2.53-.871 3.871 3.871 0 00-2.5.945c-.675.594-1.08 1.4-1.134 2.257a3.23 3.23 0 00.84 2.363l8.208 7.924a3.72 3.72 0 001.215.777 4.003 4.003 0 002.892.015 3.727 3.727 0 001.218-.758l25.07-23.806a3.4 3.4 0 00.788-1.119 3.173 3.173 0 00-.04-2.613 3.422 3.422 0 00-.822-1.098 3.761 3.761 0 00-1.216-.724 4.001 4.001 0 00-2.841.037 3.739 3.739 0 00-1.194.756L34.13 48.574 28.545 43.2z" fill="#ECECF2"/></svg>