<svg width="20" height="20" fill="none" xmlns="http://www.w3.org/2000/svg"><path d="M10.718 8.8c-.48-.12-.96-.36-1.32-.72-.36-.12-.48-.48-.48-.72s.12-.6.36-.72c.36-.24.72-.48 1.08-.36.72 0 1.32.36 1.68.84l1.08-1.44c-.36-.36-.72-.6-1.08-.84-.36-.24-.84-.36-1.32-.36V2.8h-1.44v1.68c-.6.12-1.2.48-1.68.96-.48.6-.84 1.32-.72 2.04 0 .72.24 1.44.72 1.92.6.6 1.44.96 2.16 1.32.36.12.84.36 1.2.6.24.24.36.6.36.96s-.12.72-.36 1.08c-.36.36-.84.48-1.2.48-.48 0-1.08-.12-1.44-.48-.36-.24-.72-.6-.96-.96l-1.2 1.32c.36.48.72.84 1.2 1.2.6.36 1.32.72 2.04.72v1.56h1.32v-1.8c.72-.12 1.32-.48 1.8-.96.6-.6.96-1.56.96-2.4 0-.72-.24-1.56-.84-2.04-.6-.6-1.2-.96-1.92-1.2zM9.998.4C4.718.4.398 4.72.398 10c0 5.28 4.32 9.6 9.6 9.6 5.28 0 9.6-4.32 9.6-9.6 0-5.28-4.32-9.6-9.6-9.6zm0 17.88c-4.56 0-8.28-3.72-8.28-8.28 0-4.56 3.72-8.28 8.28-8.28 4.56 0 8.28 3.72 8.28 8.28 0 4.56-3.72 8.28-8.28 8.28z" fill="#8A8FB9"/></svg>