<svg width="274" height="14" fill="none" xmlns="http://www.w3.org/2000/svg"><path d="M71.479 13.926c0-.04-.066-.066-.147-.056a.883.883 0 01-.37-.085c-.13-.06-.33-.103-.477-.103-.2 0-.216-.008-.077-.04.135-.031.13-.044-.02-.053-.153-.01-.146-.024.032-.066.173-.04.182-.055.038-.065-.104-.006-.19-.024-.19-.04 0-.015.068-.02.15-.01.086.01.111-.002.06-.028-.05-.024-.012-.045.083-.045.125 0 .128-.015.01-.057-.13-.047-.115-.058.077-.058s.202-.008.048-.039c-.195-.04-.576-.004-.526.05.013.014-.057.03-.154.037-.117.009-.147-.009-.09-.051.049-.035.026-.057-.05-.049a3.32 3.32 0 01-.44-.006c-.24-.016-.169-.025.341-.042.401-.013.643-.036.643-.062 0-.022.132-.04.294-.04.162 0 .387-.026.5-.057.205-.056.975-.132 1.225-.12.07.003.513-.013.984-.036.47-.023 1.28-.05 1.8-.062.52-.011.984-.032 1.03-.046.046-.014.234-.026.416-.027.182 0 .74-.039 1.239-.086.5-.047 1.023-.086 1.163-.086.141 0 .298-.014.35-.03.051-.015.016-.028-.078-.028-.21 0-.134-.13.078-.133.083 0 .45-.018.814-.038a12.9 12.9 0 011.032-.018c.204.01.586.005.85-.011.264-.015.86-.043 1.324-.06 1.275-.047 1.955-.087 1.955-.114 0-.028-7.76-.009-9.681.024-1.013.017-1.399.013-1.816-.022a54.103 54.103 0 00-.605-.048c-.041-.002-.274-.02-.517-.04a5.818 5.818 0 00-.681-.016c-.132.01-2.145.022-4.474.028-2.33.005-4.542.023-4.917.039-.374.016-1.496.044-2.493.062-.997.019-1.943.047-2.102.063-.16.017-.622.024-1.028.016-.407-.007-.776-.002-.82.012a.678.678 0 01-.223.009c-.078-.01-.14-.003-.14.014 0 .016-.052.028-.114.024-.252-.012-1.55.04-1.55.063 0 .028-1.144.075-1.576.065a3.074 3.074 0 00-.573.051c-.156.032-.4.06-.543.062l-1.166.01c-.5.003-1.18.02-1.513.04a56.3 56.3 0 01-1.176.049c-.315.009-.535.027-.49.041.14.044-.195.055-2.824.096-.14.002-.241.016-.226.031.014.015-.11.035-.276.045-.166.01-.474.04-.684.066-.275.036-.848.055-2.043.069-.913.01-1.817.017-2.01.015a9.346 9.346 0 00-.814.043c-.264.026-.505.034-.558.02-.13-.037-.662-.073-.546-.037.123.038-.024.036-.427-.006-.813-.084-4.661-.02-5.063.085-.124.032-.137.054-.037.06.086.005.156.021.156.036 0 .014-.095.018-.212.01a1.12 1.12 0 00-.311.015c-.147.045.76.039 1.25-.009.224-.022.714-.05 1.088-.061l.946-.03c.145-.006.264.007.264.028 0 .026.189.035.643.028.497-.008.582-.003.375.02-.147.016-.233.04-.192.053.09.028-.756.056-2.393.079-.92.013-1.22.008-1.321-.023-.096-.029-.133-.03-.135-.003-.003.053-.912.044-1.238-.012-.152-.027-.277-.036-.277-.02 0 .016-.49.019-1.248.007l-2.382-.036a42.757 42.757 0 01-1.631-.05 10.319 10.319 0 00-.874-.02c-.207.008-.42.001-.472-.015-.058-.018-.019-.02.103-.006.123.014.161.012.1-.007-.113-.035-.835-.067-1.689-.075-.503-.004-.607-.015-.621-.067-.015-.056.09-.065.983-.084.55-.012 1.17-.02 1.378-.016l.378.006-.401-.042c-.696-.072-1.375-.102-2.7-.12a82.05 82.05 0 01-2.269-.066c-1.244-.06-5.56-.064-5.748-.006a.877.877 0 01-.296.015c-.252-.03-3.036-.04-2.941-.01.088.027.066.027-1.913.039a179.38 179.38 0 00-4.078.068c-.953.023-1.51.01-2.056-.048-.228-.025-.179-.038.37-.105.444-.053.986-.085 1.803-.104 1.396-.034 2.727-.077 3.686-.118.574-.025.688-.04.628-.084-.043-.031-.161-.047-.286-.038-.116.008-.212.001-.212-.017 0-.017.12-.032.265-.032.226 0 .232-.005.038-.028-.144-.018-.16-.029-.043-.029.102 0 .146-.02.097-.044-.06-.03.09-.058.497-.093l.583-.05-1.478-.017c-.812-.01-1.885-.016-2.382-.014a56.79 56.79 0 01-.905-.001c0-.002.137-.034.303-.07.166-.037.303-.058.303-.047 0 .01.153 0 .34-.024.188-.023.845-.057 1.462-.075a60.167 60.167 0 001.72-.074c.33-.022.847-.04 1.148-.041.842-.002 2.965-.107 2.351-.117a21.63 21.63 0 01-.441-.016c-.167-.007-.386-.017-.488-.02-.346-.015-.368-.043-.048-.063.175-.01.497-.05.714-.09a5.12 5.12 0 01.733-.07c.186 0 .415-.017.51-.039.142-.032.017-.043-.7-.059-.48-.01-1.077-.025-1.326-.033-.594-.018-2.957-.015-3.12.004-.218.026-1.948.038-1.948.014 0-.013.102-.04.227-.06.125-.02.227-.049.227-.066 0-.016-.045-.021-.1-.01a1.17 1.17 0 01-.302-.014c-.113-.018-.203-.02-.203-.005 0 .016-.102.028-.227.028-.363 0-.264-.03.236-.073.561-.047.48-.067-.425-.105-.825-.034-.983-.088-.39-.134.612-.047 3.49-.108 5.136-.11.77 0 1.583-.009 1.803-.02l.402-.018-.431-.068a5.888 5.888 0 00-.687-.068c-.359-.002-.468-.047-.276-.116.204-.073 1.52-.203 2.048-.203.223 0 .352-.012.299-.029a1.877 1.877 0 00-.371-.029c-.256 0-.541-.072-.485-.123.057-.051-2.343.007-2.544.061-.154.042-4.016.152-4.396.125l-.362-.025.352-.036c.194-.02 1.45-.071 2.793-.114 2.457-.078 3.055-.133 1.445-.133-.495 0-.95-.017-1.098-.04-.21-.033-.5-.034-1.726-.006-2.254.053-3.564.089-3.87.107-.204.012-.265.003-.228-.032.055-.05.523-.111 1.257-.161.632-.043.24-.081-.568-.055-.35.011-.943.03-1.318.04l-.68.021.567-.104a8.07 8.07 0 00.567-.114c0-.006-.422-.02-.938-.03C.644 9.337-.008 9.272 0 9.177c.005-.05.983-.117 1.894-.13.375-.005 1.226-.03 1.891-.055.666-.026 1.687-.052 2.27-.06.582-.006 1.467-.026 1.966-.043 3.1-.104 3.797-.13 3.931-.144.082-.009-.156-.03-.53-.048-.375-.017-.678-.048-.678-.07 0-.048 1.524-.154 2.908-.2.673-.024 1.171-.058 1.335-.092.145-.031.652-.07 1.153-.089 1.136-.043 1.106-.083-.13-.17-.264-.019-.45-.05-.413-.068.086-.042.787-.105 1.161-.105.155 0 .24-.013.188-.03-.051-.015-.6-.028-1.22-.028-1.02 0-1.429-.03-.936-.068.441-.034-1.767-.015-2.857.024-1.358.05-2.097.029-2.097-.058 0-.04.395-.093 1.485-.198 1.027-.098 1.424-.15 1.286-.167-.261-.032-.003-.065 1.011-.13 1.432-.09 2.568-.241 2.419-.322-.102-.055.456-.085 2.762-.148 1.146-.032 2.294-.078 2.551-.102.257-.025.8-.052 1.208-.062 1.124-.026 3.275-.13 3.611-.174a7.43 7.43 0 01.757-.042c.252-.001.594-.013.76-.027.241-.02.18-.026-.302-.03-1.29-.008-1.974-.032-2.145-.075a1.96 1.96 0 00-.53-.026c-.302.016-.314.014-.083-.014.147-.017.385-.028.53-.024.143.005.353-.002.465-.016.12-.014.356-.009.576.014.291.03.437.03.66.004.18-.022.32-.024.377-.006.05.016.48.029.953.03.473 0 1.03.02 1.239.042.453.05.605.053.605.014 0-.016-.106-.029-.236-.029s-.199-.011-.153-.025c.046-.014-.06-.033-.234-.042-.174-.008-.287-.033-.25-.054.066-.038.743-.06 2.84-.094 1.893-.03 2.42-.047 2.42-.075 0-.015-.102-.027-.227-.027-.126 0-.227-.026-.227-.058 0-.043.1-.058.378-.058.435 0 .51-.045.108-.065a58.487 58.487 0 00-1.702.002c-2.293.025-3.21.017-3.69-.033a4.692 4.692 0 00-.54-.034c-.053.006-.068-.025-.034-.07.075-.098-.138-.113-1.69-.121-.93-.005-1.003-.01-.68-.041.532-.053 2.482-.128 3.644-.141.594-.007 1.155-.03 1.357-.058.43-.057.69-.058.98-.003.13.025.495.043.859.043 1.12-.001 5.304-.082 5.872-.114.53-.03.546-.034.434-.13-.07-.059-.054-.11.04-.127.109-.021.104-.043-.014-.07-.362-.083.098-.1 2.306-.086 1.715.01 2.25.005 2.598-.03.368-.035 2.029-.085 3.161-.093a58.96 58.96 0 001.06-.029l.756-.025-.681-.021a94.34 94.34 0 00-2.496-.007c-.998.008-2.428.013-3.177.011a145.34 145.34 0 00-3.252.043c-2.058.052-4.18.087-5.093.086-.32 0-.623.011-.675.025a4.447 4.447 0 01-.567.029c-.26.002-.472.014-.472.027 0 .014-.153.016-.34.006-.267-.014-.292-.012-.114.012.196.026.19.03-.038.03-.145.001-.265.016-.265.034 0 .02-.143.014-.372-.015-.415-.052-.596-.06-.47-.02.045.013-.053.031-.218.04-.172.008-.301 0-.301-.019s-.239-.033-.567-.033c-.36 0-.555.013-.532.035.024.024-.139.03-.523.02-.63-.015-1.251-.082-1.255-.135-.001-.023-.054-.02-.149.008-.113.033-.147.025-.148-.038-.003-.105.246-.193.541-.193.127 0 .188-.013.137-.03-.051-.015.03-.03.18-.03a9.35 9.35 0 001.152-.064c.302-.038 1.013-.023 1.013.02a.717.717 0 01-.203 0 1.659 1.659 0 00-.416.035c-.184.044-.184.047.002.026.165-.02.19-.013.108.028-.064.032-.028.063.088.077.29.035.533.028.27-.008-.171-.023-.084-.027.354-.015.321.009.704 0 .857-.017.21-.025.33-.025.498.002.179.028.245.025.34-.017.064-.028.106-.06.092-.073-.013-.011.073-.021.19-.021a.84.84 0 00.273-.033c.031-.018.257-.037.501-.042a3.78 3.78 0 00.613-.054.844.844 0 01.291-.022c.068.011.08-.002.028-.03-.117-.062.172-.068.297-.006.08.04.122.04.374-.004.268-.047.284-.046.286.006.002.046.026.048.149.011.218-.064.187-.078-.218-.098-.257-.012-.361-.036-.344-.078.026-.068.553-.118 1.16-.111.566.006 1.066-.031 1.066-.08 0-.03.15-.04.567-.034.61.008 1.635-.024 2.004-.064.184-.02.169-.025-.075-.026l-1.06-.016c-1.285-.023-2.996-.022-3.614.001-.424.017-.56.014-.483-.01.065-.02.024-.026-.107-.016a1.58 1.58 0 01-.485-.064c-.195-.057-.22-.083-.09-.091.122-.008.093-.025-.09-.053-.25-.037-.233-.04.18-.026.25.009.37.008.265-.002-.383-.034-.172-.07.416-.07.382 0 .606.014.607.036.002.027.037.026.133-.003a.408.408 0 01.225-.01c.102.032.294.03.767-.01.162-.012.518-.024.792-.025.627-.003.83-.074.21-.074-.245 0-.47-.02-.52-.044-.058-.029.008-.043.204-.043.16 0 .344-.016.41-.036.174-.052.79-.113.95-.095a.677.677 0 00.23-.013c.052-.016.282-.03.512-.03.23 0 .787-.02 1.239-.046.713-.041.777-.05.486-.071-.185-.014-1.448-.023-2.807-.02-1.36.002-2.56-.007-2.669-.02a.906.906 0 00-.301.009c-.122.037-4.824.066-4.941.03a1.284 1.284 0 00-.31-.006c-.158.011-.18.024-.064.037.093.011-.037.02-.29.02s-.46-.012-.46-.027c0-.016-.104-.012-.23.008a1.33 1.33 0 01-.339.016c-.059-.01.062-.045.269-.075l.376-.054-.378.014c-.332.012-.341.01-.076-.014a9.82 9.82 0 011.573.009c.41.043.923.029.923-.026 0-.025.299-.036.983-.037.617 0 .983.01.983.03 0 .018.086.011.19-.015.136-.034.546-.053 1.474-.066.708-.01 1.716-.037 2.241-.06a51.95 51.95 0 011.437-.043c.265-.001.823-.02 1.239-.042.709-.037.629-.038-1.286-.024l-2.27.017c-.124 0-1.69.03-3.478.068a530.42 530.42 0 01-4.334.076c-.595.005-1.05.019-1.012.03.038.013-.224.023-.583.023-.358 0-1.264.019-2.013.042-1.284.04-4.305.08-3.894.052.104-.007.151-.025.104-.04-.047-.014.106-.026.34-.027.233 0 .663-.026.954-.056.291-.03.666-.067.832-.082.547-.049 9.469-.33 11.572-.366.624-.01 2.428-.044 4.009-.076 1.58-.031 3.667-.07 4.636-.085a87.23 87.23 0 002.49-.07c.526-.03.757-.033.833-.01.095.03 1.687.022 3.613-.018.291-.006 1.21-.02 2.042-.029a197.81 197.81 0 005.04-.133c.36-.015.718-.02.796-.011.078.009 1.132-.012 2.342-.047 1.79-.052 2.265-.057 2.547-.029.283.03.645.024 1.996-.026l6.642-.25a312.63 312.63 0 002.149-.086 43.13 43.13 0 011.437-.04c.274 0 .804-.019 1.179-.042.63-.038 1.923-.081 5.37-.178 1.77-.05 2.128-.061 3.933-.126a801.956 801.956 0 014.992-.165c1.766-.055 2.102-.054 2.454.008.19.034.344.076.344.094 0 .018.051.031.114.03.062-.003.269-.003.459 0 .289.002.32.012.194.057-.185.066-.037.101.24.058.312-.05.241-.005-.118.073a6.08 6.08 0 01-.914.09c-.508.016-.566.026-.403.063.244.056.038.06 9.731-.164.666-.016 1.857-.035 2.648-.042.79-.008 2.22-.028 3.176-.045a534.83 534.83 0 012.799-.041 54.836 54.836 0 001.657-.042c.329-.016 1.634-.03 2.9-.032a136.4 136.4 0 002.503-.014c.272-.018 3.817-.053 4.661-.047.373.003.782.023.909.045.285.05 1.011.054 4.388.03 1.552-.011 2.977-.037 3.445-.061.611-.033 1.624-.042 4.311-.038a1324.1 1324.1 0 007.144-.017c4.046-.025 3.83-.025 8.017.01 2.711.022 4.275.023 6.656.004.416-.004.637-.013.492-.02-.146-.007-.265-.027-.265-.043 0-.02.425-.025 1.248-.014.686.01 2.746.03 4.576.047 1.83.016 4.179.042 5.219.058 4.178.066 5.771.09 7.942.116 5.427.066 8.287.092 11.269.103 1.373.006 3.075.019 3.782.03.707.01 1.762.018 2.345.017.582-.002 1.739.01 2.571.026.832.015 3.527.034 5.988.04 2.461.008 4.776.026 5.143.042.368.015 1.203.035 1.857.043.653.009 1.402.023 1.664.03.894.029 2.291.048 4.333.06 1.798.01 3.545.036 6.126.089.416.008.995.02 1.286.024l1.664.026c.624.01 1.679.027 2.344.036.666.01 1.244.022 1.286.027.042.005.463.017.936.026.473.01.96.025 1.082.034.122.009.824.02 1.56.025 2.022.013 2.019.013 2.019.06 0 .023.072.043.161.043.088 0 .111-.015.05-.034-.074-.023-.025-.028.155-.014a10 10 0 00.598.019c.225 0 .341.019.356.058.027.069-.055.072-.358.014-.317-.06-.671-.056-.564.007.052.032.036.039-.043.019-.087-.022-.513-.026-1.338-.013-1.42.022-2.491.016-4.462-.026l-2.269-.047a44.96 44.96 0 01-1.009-.026.66.66 0 00-.265.033c-.065.032-.208.038-.553.024a89.666 89.666 0 00-2.333-.058c-.583-.01-1.1-.024-1.15-.03-.106-.013-2.129-.015-4.901-.005-1.759.006-2.999-.01-3.924-.052-.522-.024-4.169-.034-4.169-.012 0 .011.459.03 1.021.041.562.012 1.157.026 1.324.033 1.167.044 4.293.093 6.807.107.582.003 1.131.015 1.219.026.146.017 4.778.086 5.027.074.059-.002.618.004 1.242.015.964.018 3.428.052 4.046.057.224.002.25.04.045.064-.147.017-1.288.021-2.32.008-.315-.004-.628-.025-.695-.046-.092-.028-.352-.033-1.016-.018-.491.01-.938.025-.994.031a1.53 1.53 0 01-.33-.032.953.953 0 00-.31-.02c-.085.027-3.138.016-4.023-.014-.292-.01-.805-.02-1.141-.024a13.37 13.37 0 01-.945-.04c-.268-.028-.335-.027-.335.004 0 .023-.202.042-.491.046-1.196.019-2.871.017-4.198-.004-.955-.015-1.362-.013-1.215.006.597.076-.522.113-2.264.076-1.545-.034-1.821-.036-2.489-.016-.344.01-.827.008-1.073-.005-.648-.033-4.015-.092-5.515-.096-.707-.002-1.728-.013-2.269-.024-.54-.01-1.63-.026-2.42-.034-.79-.008-2.662-.034-4.16-.057a878.066 878.066 0 00-4.95-.062c-1.996-.018-2.237-.015-2.324.028-.082.041-.345.048-1.781.047-.927 0-1.991.01-2.366.022l-.681.024 1.135.032c.624.018 1.373.032 1.664.032.291 0 1.482.019 2.647.044 1.165.024 3.377.059 4.917.077 1.539.017 2.949.038 3.135.046.185.007 1.716.026 3.403.042 3.032.027 5.156.05 6.773.072l3.489.04c1.461.017 2.754.036 2.874.043a20.09 20.09 0 001.404.065c.32.004.661.028.757.053.139.036.533.047 1.915.053.956.004 1.807.016 1.89.026.083.01.662.025 1.286.034 2.983.045 5.964.081 7.336.09.832.004 2.602.031 3.933.06 1.331.027 3.033.054 3.782.06 5.183.036 9.322.082 11.497.127.748.015 2.061.036 2.916.047.856.01 1.591.03 1.635.043.044.014-.145.026-.42.027-.276.001-.693.005-.928.008a3.645 3.645 0 01-.493-.014c-.036-.011-.317-.007-.624.01-.312.016-.997.02-1.55.01-.545-.011-3.441-.025-6.436-.03-2.995-.007-6.569-.02-7.942-.03-2.447-.02-3.14-.008-1.535.024.446.009.843.022.883.03.108.02-.445.072-.904.083-.535.014-.703.05-.246.054a781.29 781.29 0 007.059.073c2.496.016 2.761.022 2.761.068 0 .063.609.078 4.279.105 1.48.011 2.726.031 2.769.045.044.013.378.024.742.024 1.243 0 .895.08-.632.145-.431.018-1.01.03-1.286.028-1.842-.02-1.359.037.708.083.832.019 1.989.04 2.572.048.582.008 1.637.027 2.344.043.707.016 2.137.037 3.177.048 1.281.012 1.94.03 2.042.056.084.021.624.047 1.21.057.583.01 1.127.035 1.21.054.084.02.649.044 1.256.055.608.01 1.258.039 1.444.062.214.027.868.047 1.77.055 1.943.017 3.466.05 3.55.076.089.027-1.235.067-1.439.043-.083-.01-.152-.006-.152.01 0 .014.239.035.53.045.575.021.683.057.265.088-.495.037.197.095 1.752.147 1.306.044 2.132.098 1.53.1-.565.003.308.054 1.216.072.54.01 1.061.031 1.157.047.097.015.607.04 1.133.057 1.462.045 1.446.081-.045.103-.558.009-1.067.034-1.22.06-.215.037-.478.04-1.437.024-1.951-.035-2.337-.028-2.63.046-.143.036-.231.075-.195.086.036.011.524.03 1.085.04.561.012 1.087.031 1.171.043.083.013.474.032.869.044 1.085.03.862.071-.39.071-.611 0-1.161.01-1.224.022-.063.012-.698.022-1.41.022-.901 0-1.315.01-1.361.036-.044.024.118.036.515.036.319 0 .819.012 1.11.027.291.014 1.105.034 1.81.044.704.01 1.357.03 1.451.046.093.015.21.02.258.01a3.02 3.02 0 01.44.007c.272.019.111.028-.707.043-.965.016-2.065.059-2.647.101-.37.027.205.057 1.929.1.852.02 1.55.046 1.55.055 0 .01.442.012.983.006.79-.01.984-.004.984.03 0 .052-.479.138-.769.137-.178 0-.175-.005.012-.028.193-.024.187-.028-.042-.029-.149 0-.311.02-.36.045-.077.038-.35.042-1.848.03-1.878-.017-2.339.002-1.993.082.579.133 2.941.276 4.565.276.981 0 1.493.035 1.493.103 0 .033-.242.042-1.172.041-.645 0-1.445-.014-1.777-.031-.333-.017-1.901-.036-3.485-.043-2.8-.013-2.88-.012-2.902.045-.022.055.162.095.487.105l1.45.052c2.338.084 4.414.135 6.539.161 1.969.024 2.64.057 2.437.12a.698.698 0 01-.229.01c-.08-.01-.126 0-.103.02.023.022-.076.037-.222.035-.145-.002-.23.006-.19.018.04.013-.159.031-.441.041-.611.022-.755.074-.443.16.167.045.185.072.066.1-.195.044-.068.075.313.075a1.6 1.6 0 01.277.012.37.37 0 00.101.062c.092.046-.01.048-1.248.03a147.25 147.25 0 01-1.916-.036c-.451-.013-.567-.008-.567.028 0 .025-.11.057-.244.071-.346.037-.138.204.296.237.31.024.312.026.024.03-.303.003-.303.003 0 .028.295.024-.118.035-1.664.042-.646.003-1.135.042-1.135.09 0 .026-.157.042-.416.042-.229 0-.571.008-.76.018-.322.016-.327.02-.075.056.147.022.454.04.682.04.227 0 .863.047 1.411.102.554.056 1.219.101 1.493.101.917 0 2.347.037 2.276.059-.038.012.046.02.188.018.141-.003.281.018.311.045.069.064-.824.174-1.285.158-.184-.006-.36.003-.39.02-.072.041-1.837.053-2.543.017-.3-.015-1.849-.031-3.441-.035-2.694-.008-3.488.007-2.481.046.229.008.723.029 1.097.045.374.016.97.03 1.324.03.353.001.643.015.643.03 0 .017.106.03.236.03.131 0 .377.014.548.032.307.03.306.032-.048.065-.621.06-.428.115.615.179.535.032 1.004.078 1.043.1.039.024.131.05.205.06.231.029-.046.118-.308.099-.132-.01-.198-.01-.147 0 .051.01-.079.05-.289.09-.276.053-.56.074-1.028.078-.357.002-.62.013-.587.024.034.01-.59.012-1.386.004-1.158-.011-1.499-.005-1.702.03-.282.049-1.767.069-2.542.034-.296-.013-.512-.009-.576.011a2.496 2.496 0 01-.46.032c-.455 0-.835.028-.835.06 0 .015.098.027.219.027s.277.02.348.043c.079.028.671.064 1.558.097 1.747.065 3.034.165 2.912.225a.773.773 0 01-.3.027c-.118-.009-.177-.004-.131.01.047.014-.094.067-.312.116a2.273 2.273 0 01-.7.072c-.169-.01-.266-.007-.219.008.047.014-.152.027-.441.029a51.35 51.35 0 00-1.588.052l-1.062.05.338.069c.186.037.401.069.478.069.077 0 .373.02.659.046.498.046.509.05.289.115-.145.042-.174.073-.078.085.084.01.109.031.055.047a.406.406 0 01-.229-.009.467.467 0 00-.246-.01 6.175 6.175 0 01-.567.072l-.454.042.479.01c.518.01.795.084.42.112-.127.01-.269.01-.315 0a4.47 4.47 0 00-.587.039c-.277.03-.762.063-1.079.074a7.624 7.624 0 00-.778.06c-.265.05-.369.05-1.775-.02-1.261-.06-1.617-.055-2.134.035-.292.051-.41.054-1.201.026-1.036-.037-2.99-.041-2.878-.007.042.013.574.04 1.181.06 1.546.05 1.72.061 1.466.091-.44.052 1.531.175 3.457.215.52.011.979.03 1.019.043.041.012-.069.057-.244.1-.293.07-.298.08-.073.128.134.028.243.059.243.067 0 .036-2.561-.015-3.403-.068-1.211-.076-3.663-.13-3.889-.088-.12.023-.121.043-.004.07.158.036.401.052 2.418.155.629.033.945.063.945.092 0 .037-.178.04-1.122.024-.719-.012-1.157-.008-1.219.01-.053.017-.013.03.089.03s.15.007.107.016c-.102.019-2.244-.067-2.457-.099-.168-.025-2.377-.09-2.848-.084-.145.002-.264.02-.264.04s-.036.054-.079.075c-.074.037 1.773.112 4.957.2.478.014 1.116.045 1.418.069.301.024.761.044 1.021.044.685 0 1.669.057 1.51.088-.074.014-.995.029-2.047.034-1.052.004-1.902.01-1.888.013.013.002.361.03.772.06.716.054.733.058.406.092-.256.026-.53.027-1.096.004-.92-.038-1.041-.038-1.041-.005 0 .015.203.035.452.046.827.035.648.072-.345.072-.577 0-1.161.019-1.444.046a5.906 5.906 0 01-.811.025c-.432-.026-7.534-.036-7.451-.01.176.054-1.809.053-3.502-.001-3.429-.11-6.346-.174-8.228-.178-1.04-.002-2.606-.021-3.48-.043a462.42 462.42 0 00-3.458-.07 111.257 111.257 0 01-1.967-.04c-.053-.007-.607-.02-1.231-.03a343.88 343.88 0 01-1.664-.03c-.606-.015-3.366-.044-5.37-.058-1.449-.01-3.652-.037-5.143-.062-.499-.009-2.439-.021-4.311-.028a568.444 568.444 0 01-4.916-.036c-.832-.013-3.133-.022-5.114-.02-2.995.002-3.624.01-3.744.045a.382.382 0 01-.279.002c-.091-.027-.285-.035-.583-.023-.246.01-.521.003-.613-.015a5.81 5.81 0 00-.665-.037 22.97 22.97 0 01-.801-.024c-.907-.051-1.852-.066-2.232-.035-.306.025-1.068-.004-.963-.037.039-.012-.69-.025-1.62-.03-2.503-.011-2.763-.016-3.046-.061-.231-.037-.254-.035-.208.015.035.038-.022.053-.176.046-.125-.006-.38-.01-.567-.01-.187-.001-.34-.011-.34-.024 0-.012-.11-.03-.244-.04-.177-.013-.219-.005-.153.027.062.032.032.039-.097.023a37.587 37.587 0 00-1.624-.032c-1.662-.01-1.415-.01-9.228-.005a706.83 706.83 0 01-6.91-.017 21.124 21.124 0 00-1.19-.002c-.257.019-5.199.056-6.717.05-1.187-.004-2.534.13-1.785.177.112.008.034.028-.189.05-.208.021-.416.05-.462.063-.167.048-1.451.075-1.816.038-.23-.023-.839-.032-1.797-.025-.797.006-3.414.018-5.817.026a402.05 402.05 0 00-4.735.033c-.202.01-1.061.02-1.909.022-.847.002-1.677.02-1.843.037a30.05 30.05 0 01-1.935.072c-.29-.014-.827-.01-1.317.01a18.82 18.82 0 01-1.437.007c-.167-.003-.95.01-1.74.029-.79.018-1.731.033-2.091.033-.36 0-.734.011-.832.026a8.93 8.93 0 01-.67.048c-.402.016-.491.011-.491-.029 0-.043-.125-.046-1.097-.028-.603.011-2.186.023-3.517.027s-2.787.022-3.235.04c-.448.02-.848.034-.889.034-.04 0 .012.02.115.044.104.024.418.043.7.043.281 0 .51.006.51.012 0 .007.042.033.092.058.126.063-.3.06-.636-.005-.19-.036-.281-.04-.326-.014a.414.414 0 01-.201.02c-.076-.01-.139-.006-.139.007 0 .013-.153.025-.34.027a480.41 480.41 0 01-7.148.08c-1.58.007-3.044.019-3.252.028-.705.03-4.58.098-6.656.117-3.847.037-6.764.142-7.366.266-.188.039-.52.07-.757.071-1.958.012-4.676.051-5.87.084-.498.014-1.374.034-1.945.043a115.98 115.98 0 00-2.613.073c-.03 0-.055-.033-.055-.074zm0-.263c0-.031-.067-.034-.297-.01-.177.018-.262.048-.21.074.068.033.137.036.298.01.115-.018.209-.051.209-.074zm25.489-.43c.592-.04.577-.04-.68-.027-2.88.033-3.782.049-3.782.069 0 .037 3.826.002 4.462-.042zm-70.265-.349c0-.006-.102-.011-.227-.011s-.227.013-.227.028c0 .015.102.02.227.011.125-.009.227-.021.227-.028zm10.967-.098c.053-.016-.071-.029-.285-.029-.208 0-.42.013-.471.03-.053.016.07.028.284.028.208 0 .42-.013.472-.029zm-7.185-.147c0-.03-.181-.033-.517-.008-.38.027-.278.062.139.047.207-.008.378-.026.378-.04zm85.594-.005c.516-.028.587-.038.333-.05-.404-.018-5.217.02-7.796.063-.701.011 4.712.04 5.824.03a45.818 45.818 0 001.639-.043zm5.244-.09c.166-.007-.14-.012-.681-.01-1.291.003-1.802.03-.983.05.332.01.775.007.983-.005.208-.011.514-.027.681-.034zm-96.536.01c.311-.002.309-.004-.04-.03-.413-.032-.767-.016-.767.033 0 .018.107.025.24.016a9.9 9.9 0 01.567-.02zm98.808-.033c.04-.008-.229-.016-.598-.02-.37-.002-.719.01-.777.028-.073.023.105.029.599.02.386-.008.736-.02.776-.028zm118.29-.341c.058-.018-.183-.028-.634-.026-.646.003-.676.006-.273.026.661.032.803.032.907 0zM8.73 11.755a1.478 1.478 0 00-.29.002c-.05.01.04.017.199.016.176-.002.212-.009.091-.018zm1.787-.038c.304-.019.319-.023.076-.024-.167 0-.44.01-.605.024-.386.032.012.032.529 0zm2.03.011c.131-.01.239-.04.239-.069 0-.044-.095-.05-.643-.037-.695.017-1.149.066-.606.066.178 0 .366.013.417.03.108.032.255.035.593.01zm245.751-.502c0-.016-.119-.029-.265-.029-.226 0-.231.005-.038.029.286.035.303.035.303 0zM16.294 10.05a1.486 1.486 0 00-.29.002c-.05.01.039.017.198.016.176-.002.212-.009.092-.018zm-1.239-.084c0-.047-.42-.053-.973-.012-.602.043-.46.074.292.063.457-.007.681-.024.681-.051zm2.81.02c-.151-.046-.692-.058-.692-.015 0 .025.155.041.387.041.213 0 .35-.011.305-.025zm-1.146-.032c.169-.02.082-.028-.34-.028-.312 0-.568.012-.568.028 0 .037.61.037.908 0zm252.168-3.38c0-.017-.068-.03-.151-.03-.084 0-.152.013-.152.03 0 .015.068.028.152.028.083 0 .151-.013.151-.029zm1.097-.54a2.988 2.988 0 00-.379 0c-.104.008-.018.015.19.015s.293-.007.189-.015zm-2.269-.348a11.22 11.22 0 00-.681 0c-.187.007-.034.012.34.012.375 0 .528-.005.341-.012zm-6.997-.233c0-.013-.561-.038-1.248-.057a96.772 96.772 0 01-1.612-.054c-.226-.013-.329-.01-.271.008.051.016.691.045 1.423.066.731.02 1.398.04 1.481.045l.19.012c.02.001.037-.008.037-.02zM40.09 5.186c.27-.022.26-.025-.104-.027a2.987 2.987 0 00-.5.027c-.112.035.184.035.604 0zm219.569-.17c0-.013-.683-.039-1.518-.057-1.88-.04-2.218-.042-2.026-.005.081.016.894.04 1.808.054.913.014 1.678.027 1.699.03.02.002.037-.007.037-.021zM31.604 4.672c.043-.013-.022-.024-.143-.024-.12 0-.22.01-.22.024 0 .013.064.024.142.024.079 0 .178-.01.22-.024zm20.238-.054a1.491 1.491 0 00-.29.003c-.05.01.04.016.199.015.176-.002.212-.008.091-.018zM28.367 4.58c0-.016-.12-.028-.265-.028-.226 0-.232.004-.038.028.286.036.303.036.303 0zm.605-.045a.463.463 0 00-.151-.012c-.084 0-.152.013-.152.03s.069.023.152.013a.49.49 0 00.151-.03zm8.622-.2a61.85 61.85 0 011.438-.045 60.986 60.986 0 002.117-.083c0 .011 1.036-.05 1.55-.093.781-.063.83-.112.114-.112-.37 0-.53-.013-.53-.043 0-.044.678-.062 1.802-.047.49.007 1.886-.043 2.206-.078.239-.027-.525-.057-1.52-.06a22.44 22.44 0 00-1.882.07c-.53.04-1.105.072-1.277.072-.248 0-.267.006-.092.027.121.015.274.02.34.012.067-.007.121-.002.121.013 0 .026-.33.045-1.486.083-.277.009-.54.034-.585.057-.067.033-.125.034-.32.003-.198-.03-.223-.029-.148.01.065.032.002.043-.236.04-.18-.003-.552.007-.828.021-.348.018-.568.016-.718-.008-.122-.02-.217-.022-.217-.006 0 .032-1.152.123-1.555.123-.143 0-.26.018-.26.04 0 .03.203.037.794.031a35.96 35.96 0 001.172-.028zm6.223-1.049a1.713 1.713 0 00-.358.018c-.112.021-.053.025.198.013.205-.01.274-.024.16-.031zm182.714-.114c0-.012-.207-.025-.459-.028-.263-.004-.421.005-.369.021.105.033.828.038.828.007zM44.251 2.99l.378-.003-.353-.027c-.399-.03-1.085-.007-1.085.037 0 .017.152.022.34.012.188-.01.511-.018.72-.02zm181.07.006c0-.013-.102-.024-.227-.024s-.227.01-.227.024c0 .013.102.024.227.024s.227-.011.227-.024zm.633.004a1.48 1.48 0 00-.289.002c-.051.01.039.017.198.016.176-.002.212-.009.091-.018zM46.85 2.941a1.491 1.491 0 00-.29.003c-.05.01.04.016.199.015.176-.002.212-.008.091-.018zm-16.97-.038c0-.016-.069-.029-.152-.029-.083 0-.15.013-.15.03 0 .015.067.028.15.028.083 0 .152-.013.152-.029zm3.933-.076c0-.032-.285-.004-.366.037-.08.04-.057.041.135.01.127-.02.23-.04.23-.047zm1.512.004c0-.024-.026-.043-.06-.043a.418.418 0 00-.146.043c-.047.024-.02.043.06.043s.146-.02.146-.043zm198.042-.988a1.49 1.49 0 00-.29.002c-.05.01.039.017.198.016.177-.002.212-.009.092-.018zm-139.28-.585c.048-.015.025-.034-.05-.043a.48.48 0 00-.225.027c-.094.047.133.06.275.016zM22.286 13.661c-.087-.02-.099-.037-.026-.037.072-.001.004-.016-.151-.033-.4-.044-.046-.082.736-.079.41.002.507.009.303.021-.288.018-.503.092-.265.091.445-.002.765-.04.696-.082-.067-.041-.05-.041.14.003.259.06 1.41.07 1.51.014.05-.028.112-.028.299.001.294.047.468.16.218.142-.098-.007-.155-.03-.129-.052.035-.027-.035-.024-.23.01-.224.039-.549.047-1.612.043-.845-.004-1.388-.02-1.489-.042zm-2.077-.064c-.201-.024-.104-.088.133-.088.173 0 .324.081.183.098a1.733 1.733 0 01-.316-.01zm3.201-.233c-.167-.05-.15-.058.153-.062.188-.002.444-.006.568-.009.404-.008.48.018.214.074-.337.071-.697.07-.935-.003zm91.635-.215c0-.007.068-.02.151-.03.083-.01.151-.004.151.012 0 .017-.068.031-.151.031a.462.462 0 01-.151-.013zm1.775-.02a.983.983 0 01.271-.02c.047.01-.037.026-.187.037-.215.015-.233.012-.084-.017zm-81.192-.079c0-.014.105-.042.233-.062.182-.03.274-.03.415-.003.141.027.131.041-.044.062-.286.035-.604.036-.604.003zm170.784-.264c0-.016.098-.029.218-.029s.26.013.312.03c.051.015-.047.028-.218.028-.172 0-.312-.013-.312-.029zm-2.571-.03c0-.033.406-.037.51-.005.04.013-.058.025-.218.027-.161.003-.292-.008-.292-.022zm-150.016-.047c-.136-.068.071-.078.594-.028.273.025.428.048.345.05-.638.019-.868.013-.94-.022zm130.804-.067c0-.016.03-.03.067-.03a.67.67 0 01.16.03c.052.016.022.029-.067.029-.088 0-.16-.013-.16-.03zm-2.181-.025c-.065-.02-.077-.045-.027-.054.135-.026.283.012.21.054-.052.03-.087.03-.183 0zm.555.006c-.31-.024-.214-.064.114-.047.166.008.302.026.302.04 0 .028-.118.03-.416.007zm72.522-.145c-.174-.033-.11-.067.126-.067.125 0 .227.02.227.043 0 .045-.179.057-.353.024zm-187.733-.177c-.04-.012.06-.025.221-.027.163-.002.256.008.208.023a.969.969 0 01-.429.004zm1.364-.05c.047-.023.198-.044.335-.045.136-.001.555-.008.93-.015.49-.01.616-.005.453.016-.187.024-.19.03-.013.03.118 0 .172.008.12.018-.051.01-.503.023-1.003.029-.757.009-.894.003-.822-.033zm-61.734-.07c-.111-.034.173-.068.375-.045.169.02.058.072-.154.072a.922.922 0 01-.22-.027zm1.431-.751c0-.015.067-.035.15-.045.085-.01.11.002.059.027-.1.05-.209.06-.209.018zm1.11-.015c0-.023.057-.035.128-.027.07.008.09.027.041.042-.122.038-.17.034-.17-.015zm263.613-3.772c-.124-.016-.159-.029-.075-.029.083 0 .253.013.378.029.125.015.159.028.075.028-.083 0-.253-.013-.378-.029zM25.039 5.498c0-.013.136-.023.302-.023.167 0 .303.012.303.027s-.136.025-.302.023c-.167-.002-.303-.015-.303-.027zm6.335-.424l-.355-.055.905-.023a88.705 88.705 0 011.7-.025c.436 0 .793-.01.793-.021 0-.023.902.022 1.042.052.051.01-.117.011-.373.002a7.15 7.15 0 00-.908.028c-.243.024-.798.046-1.235.047-.437.002-.794.013-.794.026 0 .042-.412.025-.775-.031zm-1.907.008c.05-.01.18-.01.29-.002.12.009.084.016-.092.017-.16.001-.248-.005-.198-.015zm-2.752-.4c-.007-.03.029-.047.08-.037.05.01.055.034.011.055-.048.023-.084.017-.091-.017zm4.131-.242c.042-.013-.062-.047-.233-.074-.304-.05-.294-.052.627-.136 1.11-.1 1.211-.102 1.211-.026 0 .035-.101.058-.264.058-.215 0-.225.005-.051.026.117.014.339.021.491.016.153-.006.278.003.278.02 0 .015-.221.026-.492.023-.27-.002-.627-.003-.794-.001-.252.002-.264.008-.075.031.194.024.188.028-.038.028-.146 0-.265.014-.265.03s-.106.029-.236.029-.201-.011-.159-.024zm1.934-.233c-.152-.018-.146-.03.029-.058.245-.039.44-.005.271.047a.905.905 0 01-.3.01zM27.535 2.99c-.052-.016.009-.029.133-.029a1.5 1.5 0 01.32.029c.052.016-.008.029-.133.029a1.5 1.5 0 01-.32-.03zm3.098-.13c.218-.05.306-.055.306-.018 0 .015-.112.034-.249.044-.207.016-.217.011-.057-.025zm213.791-.466c.177-.034 1.146-.06 1.341-.037.112.014.136.027.053.028-.814.018-1.463.022-1.394.01zm-.919-.035c-.125-.016-.031-.024.265-.024.253 0 .46.01.46.024 0 .03-.47.03-.725 0zm-3.889-.037c-.647-.028-2.22-.048-5.157-.066-1.006-.006-1.974-.025-2.152-.044-.194-.02-.871-.03-1.688-.025a74.69 74.69 0 01-1.365.002c0-.01.88-.095.985-.095.05 0 .05.013-.002.029-.054.017.1.029.37.029.254 0 .462-.013.462-.029s.072-.029.161-.029c.088 0 .109.016.046.036-.084.027-.057.029.105.007a4.46 4.46 0 01.52-.026l1.106.008c.442.002.771.014.733.026-.039.012.349.02.861.017a18.75 18.75 0 011.196.023c.176.018.264.016.264-.005 0-.017.083-.022.183-.01.101.012.764.025 1.475.03a122.662 122.662 0 012.048.024c.416.005.774.012.795.015.035.006.191.015.453.026.121.005-.589.089-.718.085a152.38 152.38 0 01-.681-.028zm-6.126-.145c0-.014-.132-.025-.294-.025-.161 0-.33.011-.375.025-.045.014.087.025.293.025.207 0 .376-.01.376-.025zm8.091-.083a.7.7 0 00-.236-.013c-.077.009-.141.003-.141-.012 0-.056.244-.057.425-.002.101.03.152.056.115.056a.689.689 0 01-.163-.03zm-3.238-.113c-.16-.03-.322-.05-.36-.042-.039.007-.402.018-.807.023-.702.01-1.572-.05-1.351-.092.176-.034 1.221-.026 1.449.01.234.038.66.04.85.003.161-.03.932-.024 1.039.01.145.044-.071.143-.313.143-.12 0-.348-.025-.507-.055zm1.561.022c-.064-.02-.042-.026.056-.014.091.01.207.006.26-.01.141-.044.329-.036.329.014 0 .05-.488.058-.645.01zM63.049 1.788c.05-.01.18-.011.29-.003.12.01.085.016-.092.018-.16.001-.248-.006-.198-.015zm30.515-.82c0-.017.03-.03.067-.03.037 0 .109.013.16.03.052.015.022.028-.066.028s-.16-.013-.16-.029zm3.528.002c-.244-.034-.186-.084.083-.07.171.008.281-.003.297-.032l.05-.089c.015-.024.15-.045.303-.047.153-.002.329-.006.391-.01l.567-.029c.555-.028.857-.07.746-.105-.045-.014.052-.025.216-.025s.333.016.376.036c.053.025.114.026.201.005a3.1 3.1 0 01.93-.035c.196.03.214.03.107-.004-.098-.031-.066-.037.135-.022.145.01.356.02.468.02.113 0 .245.024.296.054.058.036.188.05.363.042.386-.02.346-.091-.043-.077-.308.01-.308.01-.013-.017.166-.015.533-.028.815-.03.281 0 .928-.014 1.437-.03a513.579 513.579 0 018.11-.16c.789-.013 2.346-.034 4.387-.059.79-.01 1.879-.025 2.42-.034 1.3-.02 3.346-.022 3.631-.002.125.008.516.025.87.038.353.012.642.031.642.043 0 .012-.168.053-.374.093-.304.058-.515.07-1.135.068-.452-.001-.74.01-.71.027.028.016.575.03 1.216.031 1.006.002 1.676.04 1.447.081-.102.019-2.108.037-2.107.02 0-.01-.459-.012-1.021-.007a58.782 58.782 0 01-1.889-.017c-.478-.015-.901-.02-.94-.013-.04.008-.364.016-.721.02a30.62 30.62 0 00-1.066.028 3.58 3.58 0 01-.61-.008c-.106-.017-.851-.033-1.655-.037-.996-.005-1.432-.017-1.365-.038.053-.017-.019-.013-.16.009-.176.027-.449.034-.872.02-.404-.011-.582-.008-.52.012.108.033.088.033-1.283.04-.541.003-1.137.016-1.324.028-.187.013-.34.012-.34 0 0-.014-.17-.024-.378-.024s-.378.01-.378.021c0 .012-.107.022-.236.022-.13 0-.201-.011-.157-.024.105-.033-1.449.015-1.562.047-.206.06-3.037.121-3.037.066 0-.017-.073-.031-.161-.031-.088 0-.121.012-.073.027.137.042-.211.068-.436.032-.151-.024-.222-.022-.279.006-.049.024-.298.036-.698.031-.342-.003-.622.006-.622.02 0 .048-.778.017-.929-.037a.766.766 0 00-.292-.035c-.08.01-.111.028-.069.041.043.014-.022.032-.144.04a1.172 1.172 0 01-.312-.011c-.055-.017-.249-.012-.496.015-.465.05-1.913.102-2.097.076zM94.926.839c0-.051.09-.058.22-.018.048.014.018.035-.066.045-.085.01-.154-.002-.154-.027zm.57-.05c.088-.017.25-.025.358-.018.114.007.045.02-.16.03-.251.013-.31.01-.198-.012zm52.11-.074c-.187-.006-.341-.022-.341-.034 0-.035.658-.016.723.021.032.019.036.032.009.03-.028-.002-.204-.01-.391-.017zM144.467.65c.416-.034.655-.034.378 0a4.243 4.243 0 01-.454.027c-.149-.001-.124-.01.076-.027zm.916.003c-.046-.015.052-.02.218-.011.353.017.398.037.085.037a1.45 1.45 0 01-.303-.026zM125.909.586c-.238-.045-.13-.048 1.74-.05 1.096-.002 2.145-.008 2.331-.015.185-.007.372-.002.415.012.043.013.287.021.542.018.688-.01.691.033.003.045-.325.006-.559 0-.52-.011.125-.039-.108-.024-.345.02-.258.05-.897.059-1.038.015-.062-.019-.193-.019-.39.002-.335.034-.65.01-.496-.037.067-.02.03-.023-.111-.006a18.01 18.01 0 01-1.045.04c-.655.013-.886.006-1.086-.033zm12.129.034c0-.016.03-.029.067-.029a.64.64 0 01.16.03c.051.015.021.028-.067.028-.088 0-.16-.013-.16-.029zm-6.051-.058c-.136-.016-.155-.028-.047-.028.099 0 .223.013.274.028.116.036.064.036-.227 0zM191.071.56c.078-.025-.498-.053-.615-.03-.162.03-.835.036-.835.006 0-.018-.43-.022-1.172-.012-.91.014-1.291.007-1.702-.03-.291-.026-.415-.041-.274-.034.14.008.276.002.302-.012a1.19 1.19 0 01.275-.034c.124-.005.277-.022.338-.038s.112 0 .113.034c.002.06.025.061.418.022.374-.037.438-.036.626.009.199.048.205.048.118 0-.07-.04-.008-.05.275-.05.201 0 .435.022.52.05.085.028.156.034.159.014.004-.038.458-.052.458-.014 0 .012.515.02 1.144.02.629-.001 1.177.009 1.219.021.041.013.221.024.399.024.259 0 .286.007.135.036-.189.036-2.016.053-1.901.018zm2.483-.001c0-.014.051-.025.114-.026l.597-.014c.599-.015.812.034.236.054-.569.02-.947.015-.947-.014zM182.663.46c0-.016-.255-.029-.567-.029-.312 0-.618.013-.679.03-.074.019-.112.019-.114 0-.003-.037-.909-.045-.909-.01 0 .015-.062.02-.138.011-.144-.017-1.474-.044-2.888-.06a26.892 26.892 0 01-.832-.015c0-.019-1.99-.02-2.117 0-.228.035-1.74.059-1.74.028 0-.015-.102-.027-.227-.027s-.227.013-.227.028c0 .017-1.065.023-2.836.014l-3.201-.013c-.201 0-.593-.012-.87-.026-.304-.017-.505-.017-.505 0 0 .026-.529.021-.673-.006-.041-.008-.729-.01-1.529-.004-.965.007-1.527-.001-1.669-.024-.166-.026-.214-.025-.216.006-.001.025-.043.028-.113.01-.067-.019-.928-.032-2.154-.034l-7.563-.02c-3.037-.01-6.934-.019-8.66-.02-1.727-.003-3.139-.013-3.139-.023-.001-.01-.375-.018-.832-.018-.458 0-.832.01-.832.022 0 .012-.072.021-.16.021-.088 0-.118-.013-.067-.028.051-.016-.013-.03-.142-.03-.13 0-.236-.012-.236-.028s-.072-.03-.16-.03c-.089 0-.119.014-.067.03.055.017-.111.028-.407.028-.379 0-.446-.007-.274-.028.168-.021.175-.028.027-.029-.154 0-.148-.01.027-.044a3.66 3.66 0 01.54-.043c.173 0 .314-.014.314-.03 0-.019.131-.024.321-.012.217.013.288.009.218-.013-.057-.017-.063-.032-.014-.032a.56.56 0 01.205.06l.115.06.399-.06c.273-.042.432-.05.504-.028a.365.365 0 00.232-.007c.103-.032 1.141-.039 5.54-.038a1643.806 1643.806 0 0113.658.055c5.557.033 6.989.045 7.114.06.278.033 1.497.062 1.682.04a.936.936 0 01.314.012.42.42 0 00.266-.01c.082-.023.15-.03.152-.014.001.019.937.028 2.536.026 2.527-.004 6.844.043 6.845.074 0 .009.527.015 1.172.013 1.105-.003 3.65.036 4.101.064.167.01.17.02.017.056-.155.035-.151.041.02.03l.633-.03c.26-.01.389-.031.335-.053-.048-.02-.008-.015.089.01.142.037.337.041 1.016.024.478-.013.954-.01 1.105.005.146.015.457.029.691.031.393.004.397.005.061.017-.282.01-.316.02-.151.04.234.027.037.03-2.093.037-.743.002-1.248-.008-1.248-.026zM138.698.2a.474.474 0 00-.222-.027c-.214.025-.158.07.087.07.135 0 .188-.016.135-.043zm-8.822.1c.155-.056.146-.063-.068-.047s-.223.01-.07-.046l.179-.063.151.064c.172.074.485.085.612.021.048-.024.033-.043-.034-.043s-.121-.02-.121-.044c0-.035.137-.04.731-.025.499.013.731.008.731-.014 0-.018.24-.033.539-.033.352 0 .502.011.435.032-.073.023-.011.022.215 0 .263-.028.302-.026.229.01a.61.61 0 01-.224.045c-.074 0-.135.013-.135.029 0 .06.273.025.454-.058.21-.097.216-.098.595-.059.191.02.25.05.198.103-.041.04-.015.07.058.066a.63.63 0 01.208.02c.044.016-.315.03-.88.033-.874.004-.97-.001-1.121-.065-.163-.068-.722-.098-.722-.038 0 .016.067.022.149.012.085-.01.112.002.064.026-.051.025-.186.036-.326.025-.156-.011-.202-.006-.133.016.122.037-.381.065-.964.053a7.148 7.148 0 00-.655.018c-.247.023-.257.019-.095-.039zm4.138-.11c.043-.013-.019-.023-.136-.023s-.179.01-.136.024a.57.57 0 00.136.024.57.57 0 00.136-.024zm-6.176.115c-.046-.014.053-.033.218-.041.201-.01.271-.03.209-.061-.05-.025-.028-.046.05-.046.208 0 .174.094-.048.137-.226.043-.317.045-.429.01zm.927-.08a.368.368 0 01.121-.04c.024 0 .078.018.121.04.042.02-.012.038-.121.038s-.163-.017-.121-.039zm.584-.082c.161-.023.443-.042.625-.043.361-.001.591.043.365.07a.421.421 0 01-.199-.017c-.044-.025-.138-.025-.381 0-.465.047-.758.04-.41-.01zm-2.01-.004c.05-.01.18-.01.29-.002.12.01.084.016-.092.018-.159 0-.249-.006-.198-.016zm7.976-.011c-.194-.024-.188-.028.038-.028.146 0 .265.012.265.028 0 .035-.017.035-.303 0zm-.812-.044c-.072-.036-.034-.038.21-.013.351.035.384.057.089.057a.884.884 0 01-.299-.044z" fill="#F87F81"/></svg>