<svg width="20" height="15" fill="none" xmlns="http://www.w3.org/2000/svg"><path d="M10 .563a5.85 5.85 0 00-2.535.58 6.354 6.354 0 00-1.998 1.525l-.108-.022a.925.925 0 00-.171-.021c-.502 0-.96.129-1.375.387A2.9 2.9 0 002.803 4a2.67 2.67 0 00-.365 1.375 4.456 4.456 0 00-1.483 1.44 3.724 3.724 0 00-.58 2.019c0 .73.186 1.41.559 2.041.372.63.873 1.132 1.503 1.504.63.372 1.318.559 2.063.559h3.438v-1.376H4.5c-.501 0-.967-.121-1.396-.365a2.725 2.725 0 01-.989-.988 2.785 2.785 0 01-.365-1.396c0-.56.15-1.068.451-1.526a2.799 2.799 0 011.225-1.01l.472-.193-.086-.709c0-.387.13-.709.387-.967a1.346 1.346 0 011.31-.365l.43.107.258-.343a4.754 4.754 0 011.655-1.354 4.615 4.615 0 012.127-.515c.744 0 1.439.157 2.084.472a4.65 4.65 0 011.654 1.31c.458.545.773 1.16.945 1.848l.129.537.58-.021c.258-.014.3-.021.129-.021.501 0 .96.121 1.375.365.43.243.766.58 1.01 1.01.243.415.365.873.365 1.375 0 .5-.122.966-.365 1.396-.244.415-.58.745-1.01.988a2.67 2.67 0 01-1.375.366h-3.438v1.374H15.5c.745 0 1.432-.186 2.063-.558a4.204 4.204 0 001.503-1.504c.373-.63.559-1.318.559-2.063 0-.716-.172-1.374-.516-1.976a3.96 3.96 0 00-1.396-1.44 4.194 4.194 0 00-1.934-.644 6.326 6.326 0 00-1.289-2.148 5.705 5.705 0 00-1.976-1.483A5.81 5.81 0 0010 .563zm0 5.5l-2.75 2.75h2.063v5.5h1.374v-5.5h2.063L10 6.063z" fill="#8181A5"/></svg>