<svg width="18" height="19" fill="none" xmlns="http://www.w3.org/2000/svg"><path d="M7 .252c-.874 0-1.683.215-2.428.644a4.776 4.776 0 00-1.74 1.762 4.66 4.66 0 00-.644 2.406c0 .831.186 1.605.558 2.32.387.703.91 1.261 1.568 1.677a6.412 6.412 0 00-2.191 1.418 6.972 6.972 0 00-1.482 2.19 6.843 6.843 0 00-.516 2.643H1.5c0-.988.243-1.904.73-2.75a5.512 5.512 0 012.02-1.997A5.295 5.295 0 017 9.813c.272 0 .637.042 1.096.128l.107-.107a5.445 5.445 0 00-.902 1.59A5.594 5.594 0 007 13.25c0 .988.243 1.905.73 2.75a5.512 5.512 0 002.02 1.998 5.295 5.295 0 002.75.752c.988 0 1.905-.25 2.75-.752A5.349 5.349 0 0017.248 16 5.295 5.295 0 0018 13.25c0-.988-.25-1.905-.752-2.75a5.35 5.35 0 00-1.998-1.998 5.295 5.295 0 00-2.75-.752c-.587 0-1.167.1-1.74.3a4.885 4.885 0 001.053-2.986 4.66 4.66 0 00-.645-2.406A4.727 4.727 0 009.406.896 4.66 4.66 0 007 .252zm0 1.31c.63 0 1.203.158 1.719.473.53.3.945.716 1.246 1.246.315.516.473 1.089.473 1.719 0 .63-.158 1.21-.473 1.74-.3.516-.716.931-1.246 1.246A3.35 3.35 0 017 8.438c-.63 0-1.21-.15-1.74-.452A3.704 3.704 0 014.014 6.74 3.463 3.463 0 013.562 5c0-.63.15-1.203.452-1.719A3.46 3.46 0 015.26 2.035 3.343 3.343 0 017 1.562zm2.256 7.262c-.014 0-.022.007-.022.022l-.043.021.065-.043zm3.244.301a3.98 3.98 0 012.063.559 4.19 4.19 0 011.503 1.504c.373.63.559 1.317.559 2.062a3.98 3.98 0 01-.559 2.063 4.204 4.204 0 01-1.503 1.503 3.981 3.981 0 01-2.063.559 3.981 3.981 0 01-2.063-.559 4.204 4.204 0 01-1.503-1.503 3.981 3.981 0 01-.559-2.063c0-.745.186-1.432.559-2.063a4.204 4.204 0 011.504-1.503 3.981 3.981 0 012.062-.559zm-3.781.15a2.188 2.188 0 00-.258.258l.258-.258zm3.094 1.225v3.158l-1.16 1.182.945.945 1.59-1.568V10.5h-1.376z" fill="#F4BE5E"/></svg>