<svg width="16" height="12" fill="none" xmlns="http://www.w3.org/2000/svg"><path d="M8.2 6.147a3.28 3.28 0 001.134-2.48 3.333 3.333 0 10-6.667 0A3.28 3.28 0 003.8 6.147 5.333 5.333 0 00.667 11 .667.667 0 102 11a4 4 0 018 0 .667.667 0 001.334 0A5.333 5.333 0 008.2 6.147zM6 5.667a2 2 0 110-4 2 2 0 010 4zm6.494.213A3.334 3.334 0 0010 .333a.667.667 0 000 1.334 2 2 0 011.731 2.997 2 2 0 01-.73.73.666.666 0 00-.034 1.133l.26.173.087.047A4.666 4.666 0 0113.98 11a.667.667 0 001.334 0 6 6 0 00-2.82-5.12z" fill="#9A9CA5"/></svg>