<svg width="25" height="25" fill="none" xmlns="http://www.w3.org/2000/svg"><path d="M17.142 13.387a7.495 7.495 0 002.572-3.78 7.457 7.457 0 00-.11-4.564 7.5 7.5 0 00-2.751-3.653 7.565 7.565 0 00-8.743 0 7.5 7.5 0 00-2.75 3.653 7.457 7.457 0 00-.11 4.563 7.495 7.495 0 002.571 3.78 12.554 12.554 0 00-5.328 4.036 12.455 12.455 0 00-2.485 6.184 1.25 1.25 0 00.27.923 1.266 1.266 0 002.242-.648 9.977 9.977 0 013.289-6.336 10.081 10.081 0 016.698-2.543c2.47 0 4.855.905 6.697 2.543a9.977 9.977 0 013.29 6.336c.033.307.18.59.413.795.232.206.532.318.842.317h.138a1.248 1.248 0 001.106-1.375 12.454 12.454 0 00-2.499-6.198 12.553 12.553 0 00-5.352-4.033zm-4.66-.887a5.044 5.044 0 01-2.792-.842 5.003 5.003 0 01-1.85-2.243 4.972 4.972 0 011.088-5.446 5.05 5.05 0 015.476-1.083 5.018 5.018 0 012.255 1.84 4.977 4.977 0 01-.625 6.31 5.039 5.039 0 01-3.553 1.464z" fill="#fff"/></svg>