<svg width="38" height="29" fill="none" xmlns="http://www.w3.org/2000/svg"><path d="M19.5 14.867a8.201 8.201 0 002.834-6.2 8.333 8.333 0 00-16.667 0 8.2 8.2 0 002.833 6.2A13.333 13.333 0 00.667 27 1.667 1.667 0 104 27a10 10 0 1120 0 1.666 1.666 0 103.334 0A13.333 13.333 0 0019.5 14.867zm-5.5-1.2a5 5 0 110-10 5 5 0 010 10zm16.234.533A8.333 8.333 0 0024 .333a1.667 1.667 0 000 3.334 5 5 0 015 5 5 5 0 01-2.5 4.316 1.666 1.666 0 00-.083 2.834l.65.433.217.117A11.667 11.667 0 0133.95 27a1.666 1.666 0 103.334 0 15 15 0 00-7.05-12.8z" fill="#6B68BC"/></svg>