<svg width="696" height="263" viewBox="0 0 696 263" fill="none" xmlns="http://www.w3.org/2000/svg">
<path d="M0.304688 224.28V159.16L105.201 9.55991H189.329V156.696H214.673V224.28H189.329V263H110.481V224.28H0.304688ZM116.817 98.6159L78.8007 156.696H116.817V98.6159Z" fill="url(#paint0_linear_779_6685)"/>
<path d="M241.108 130.648C241.108 90.0506 249.674 58.1359 266.804 34.9039C284.17 11.6719 310.804 0.0559082 346.708 0.0559082C382.378 0.0559082 408.895 11.7892 426.26 35.2559C443.626 58.4879 452.308 90.2852 452.308 130.648C452.308 171.245 443.626 203.277 426.26 226.744C408.895 249.976 382.378 261.592 346.708 261.592C310.804 261.592 284.17 249.976 266.804 226.744C249.674 203.277 241.108 171.245 241.108 130.648ZM375.22 130.648C375.22 111.875 373.343 97.7946 369.588 88.4079C365.834 78.7866 358.207 73.9759 346.708 73.9759C334.975 73.9759 327.231 78.7866 323.476 88.4079C319.722 97.7946 317.844 111.875 317.844 130.648C317.844 149.656 319.722 163.971 323.476 173.592C327.231 182.979 334.975 187.672 346.708 187.672C358.207 187.672 365.834 182.979 369.588 173.592C373.343 163.971 375.22 149.656 375.22 130.648Z" fill="url(#paint1_linear_779_6685)"/>
<path d="M481.211 224.28V159.16L586.107 9.55991H670.235V156.696H695.579V224.28H670.235V263H591.387V224.28H481.211ZM597.723 98.6159L559.707 156.696H597.723V98.6159Z" fill="url(#paint2_linear_779_6685)"/>
<defs>
<linearGradient id="paint0_linear_779_6685" x1="0.304688" y1="131.528" x2="695.579" y2="131.528" gradientUnits="userSpaceOnUse">
<stop stop-color="#B224EF"/>
<stop offset="1" stop-color="#7579FF"/>
</linearGradient>
<linearGradient id="paint1_linear_779_6685" x1="0.304688" y1="131.528" x2="695.579" y2="131.528" gradientUnits="userSpaceOnUse">
<stop stop-color="#B224EF"/>
<stop offset="1" stop-color="#7579FF"/>
</linearGradient>
<linearGradient id="paint2_linear_779_6685" x1="0.304688" y1="131.528" x2="695.579" y2="131.528" gradientUnits="userSpaceOnUse">
<stop stop-color="#B224EF"/>
<stop offset="1" stop-color="#7579FF"/>
</linearGradient>
</defs>
</svg>
