<svg width="13" height="15" viewBox="0 0 13 15" fill="none" xmlns="http://www.w3.org/2000/svg">
<path d="M9.2554 0.5C8.85696 0.5 8.47025 0.576172 8.09525 0.728516C7.73196 0.880859 7.40384 1.10352 7.11087 1.39648L1.83743 6.66992C1.28665 7.2207 0.911652 7.86523 0.712433 8.60352C0.524933 9.33008 0.524933 10.0625 0.712433 10.8008C0.911652 11.5391 1.28665 12.1836 1.83743 12.7344C2.38821 13.2852 3.03275 13.6602 3.77103 13.8594C4.50931 14.0469 5.24173 14.0469 5.96829 13.8594C6.70657 13.6602 7.3511 13.2852 7.90189 12.7344L11.4175 9.21875L10.6265 8.42773L7.11087 11.9434C6.70071 12.3535 6.22025 12.6289 5.66946 12.7695C5.1304 12.9102 4.59134 12.9102 4.05228 12.7695C3.51321 12.6289 3.0386 12.3535 2.62845 11.9434C2.21829 11.5332 1.9429 11.0586 1.80228 10.5195C1.66165 9.98047 1.66165 9.44141 1.80228 8.90234C1.9429 8.35156 2.21829 7.87109 2.62845 7.46094L7.90189 2.1875C8.14798 1.94141 8.43509 1.77734 8.76321 1.69531C9.09134 1.60156 9.41946 1.60156 9.74759 1.69531C10.0874 1.77734 10.3804 1.94141 10.6265 2.1875C10.8726 2.43359 11.0367 2.72656 11.1187 3.06641C11.2124 3.39453 11.2124 3.72266 11.1187 4.05078C11.0367 4.37891 10.8726 4.66602 10.6265 4.91211L5.35306 10.1855C5.21243 10.3262 5.04837 10.3965 4.86087 10.3965C4.68509 10.3965 4.52689 10.3262 4.38626 10.1855C4.24564 10.0449 4.17532 9.88672 4.17532 9.71094C4.17532 9.52344 4.24564 9.35938 4.38626 9.21875L9.22025 4.38477L8.42923 3.59375L3.59525 8.42773C3.24368 8.7793 3.0679 9.20703 3.0679 9.71094C3.0679 10.2031 3.24368 10.625 3.59525 10.9766C3.94681 11.3281 4.36868 11.5039 4.86087 11.5039C5.36478 11.5039 5.79251 11.3281 6.14407 10.9766L11.4175 5.70312C11.8042 5.31641 12.062 4.85938 12.1909 4.33203C12.3316 3.80469 12.3316 3.2832 12.1909 2.76758C12.062 2.24023 11.8042 1.7832 11.4175 1.39648C11.1245 1.10352 10.7906 0.880859 10.4156 0.728516C10.0406 0.576172 9.65384 0.5 9.2554 0.5Z" fill="#8181A5"/>
</svg>
