<svg width="26" height="26" viewBox="0 0 26 26" fill="none" xmlns="http://www.w3.org/2000/svg">
<path opacity="0.4" d="M11.4371 1.0624C12.2996 0.324902 13.7121 0.324902 14.5871 1.0624L16.5621 2.7624C16.9371 3.0874 17.6371 3.3499 18.1371 3.3499H20.2621C21.5871 3.3499 22.6746 4.4374 22.6746 5.7624V7.8874C22.6746 8.3749 22.9371 9.0874 23.2621 9.4624L24.9621 11.4374C25.6996 12.2999 25.6996 13.7124 24.9621 14.5874L23.2621 16.5624C22.9371 16.9374 22.6746 17.6374 22.6746 18.1374V20.2624C22.6746 21.5874 21.5871 22.6749 20.2621 22.6749H18.1371C17.6496 22.6749 16.9371 22.9374 16.5621 23.2624L14.5871 24.9624C13.7246 25.6999 12.3121 25.6999 11.4371 24.9624L9.46211 23.2624C9.08711 22.9374 8.38711 22.6749 7.88711 22.6749H5.72461C4.39961 22.6749 3.31211 21.5874 3.31211 20.2624V18.1249C3.31211 17.6374 3.04961 16.9374 2.73711 16.5624L1.04961 14.5749C0.324609 13.7124 0.324609 12.3124 1.04961 11.4499L2.73711 9.4624C3.04961 9.0874 3.31211 8.3874 3.31211 7.8999V5.7499C3.31211 4.4249 4.39961 3.3374 5.72461 3.3374H7.88711C8.37461 3.3374 9.08711 3.0749 9.46211 2.7499L11.4371 1.0624Z" fill="url(#paint0_linear_629_6677)"/>
<path d="M11.4877 16.9626C11.2377 16.9626 11.0002 16.8626 10.8252 16.6876L7.8002 13.6626C7.4377 13.3001 7.4377 12.7001 7.8002 12.3376C8.1627 11.9751 8.76269 11.9751 9.12519 12.3376L11.4877 14.7001L16.8627 9.3251C17.2252 8.9626 17.8252 8.9626 18.1877 9.3251C18.5502 9.6876 18.5502 10.2876 18.1877 10.6501L12.1502 16.6876C11.9752 16.8626 11.7377 16.9626 11.4877 16.9626Z" fill="#010D82"/>
<defs>
<linearGradient id="paint0_linear_629_6677" x1="0.505859" y1="13.0124" x2="25.5152" y2="13.0124" gradientUnits="userSpaceOnUse">
<stop stop-color="#667EEA"/>
<stop offset="1" stop-color="#764BA2"/>
</linearGradient>
</defs>
</svg>
