<svg width="22" height="16" viewBox="0 0 22 16" fill="none" xmlns="http://www.w3.org/2000/svg">
<path d="M14.75 11C14.5511 11 14.3603 11.079 14.2197 11.2197C14.079 11.3603 14 11.5511 14 11.75C14 11.9489 14.079 12.1397 14.2197 12.2803C14.3603 12.421 14.5511 12.5 14.75 12.5H17.75C17.9489 12.5 18.1397 12.421 18.2803 12.2803C18.421 12.1397 18.5 11.9489 18.5 11.75C18.5 11.5511 18.421 11.3603 18.2803 11.2197C18.1397 11.079 17.9489 11 17.75 11H14.75Z" fill="#8A8FB9"/>
<path d="M0.5 3.5C0.5 2.70435 0.816071 1.94129 1.37868 1.37868C1.94129 0.81607 2.70435 0.5 3.5 0.5H18.5C19.2956 0.5 20.0587 0.81607 20.6213 1.37868C21.1839 1.94129 21.5 2.70435 21.5 3.5V12.5C21.5 13.2956 21.1839 14.0587 20.6213 14.6213C20.0587 15.1839 19.2956 15.5 18.5 15.5H3.5C2.70435 15.5 1.94129 15.1839 1.37868 14.6213C0.816071 14.0587 0.5 13.2956 0.5 12.5V3.5ZM20 3.5C20 3.10218 19.842 2.72064 19.5607 2.43934C19.2794 2.15804 18.8978 2 18.5 2H3.5C3.10218 2 2.72064 2.15804 2.43934 2.43934C2.15804 2.72064 2 3.10218 2 3.5V5H20V3.5ZM2 12.5C2 12.8978 2.15804 13.2794 2.43934 13.5607C2.72064 13.842 3.10218 14 3.5 14H18.5C18.8978 14 19.2794 13.842 19.5607 13.5607C19.842 13.2794 20 12.8978 20 12.5V6.5H2V12.5Z" fill="#8A8FB9"/>
</svg>
