<svg width="179" height="156" viewBox="0 0 179 156" fill="none" xmlns="http://www.w3.org/2000/svg">
<path fill-rule="evenodd" clip-rule="evenodd" d="M91.933 0.0409222C107.053 -0.840229 118.41 12.7056 130.628 21.6529C142.789 30.5582 155.309 38.7825 162.741 51.8931C171.539 67.416 184.672 86.5256 176.344 102.306C167.733 118.621 142.81 114.214 125.922 121.653C113.919 126.941 104.866 137.301 91.933 139.491C77.1825 141.989 61.5084 141.993 48.404 134.778C34.3417 127.036 24.4767 113.601 18.1331 98.8594C11.3002 82.9808 3.34086 64.0328 11.3743 48.7261C19.3801 33.4719 41.6353 34.892 56.3825 25.9796C69.2525 18.2018 76.9192 0.915867 91.933 0.0409222Z" fill="#F1F3FC"/>
<path d="M115.85 48.4999C115.362 48.4496 114.869 48.4496 114.381 48.4999H14.0476C13.4046 48.5098 12.7658 48.6062 12.1484 48.7866L63.9276 100.351L115.85 48.4999Z" fill="#8B3FFD"/>
<path d="M121.151 53.4807L68.9774 105.439C67.6346 106.774 65.8182 107.523 63.9249 107.523C62.0316 107.523 60.2152 106.774 58.8724 105.439L7.1649 53.8749C7.00594 54.4591 6.92165 55.0611 6.91406 55.6665V127.333C6.91406 129.234 7.66912 131.057 9.01313 132.401C10.3571 133.745 12.18 134.5 14.0807 134.5H114.414C116.315 134.5 118.138 133.745 119.482 132.401C120.826 131.057 121.581 129.234 121.581 127.333V55.6665C121.552 54.92 121.407 54.1825 121.151 53.4807ZM18.9899 127.333H14.0091V122.209L40.0599 96.3732L45.1124 101.426L18.9899 127.333ZM114.342 127.333H109.326L83.2032 101.426L88.2557 96.3732L114.307 122.209L114.342 127.333Z" fill="#8B3FFD"/>
<path d="M137.999 13.3333C130.187 13.3333 123.832 19.6884 123.832 27.4999H129.499C129.499 22.8136 133.312 18.9999 137.999 18.9999C142.685 18.9999 146.499 22.8136 146.499 27.4999C146.499 30.5287 145.212 31.6507 142.303 33.8891C141.22 34.7221 139.999 35.6627 138.829 36.8301C135.112 40.5446 135.151 44.2081 135.165 44.4999V50.1666H140.832V44.4744C140.832 44.4064 140.897 42.7716 142.835 40.8364C143.742 39.9297 144.768 39.1421 145.756 38.3799C148.76 36.0679 152.165 33.4499 152.165 27.4999C152.165 19.6884 145.81 13.3333 137.999 13.3333ZM135.165 52.9999H140.832V58.6666H135.165V52.9999Z" fill="url(#paint0_linear_459_6867)"/>
<defs>
<linearGradient id="paint0_linear_459_6867" x1="123.124" y1="8.33326" x2="158.672" y2="11.1874" gradientUnits="userSpaceOnUse">
<stop stop-color="#37268C"/>
<stop offset="1" stop-color="#9B8EF0"/>
</linearGradient>
</defs>
</svg>
