<svg width="22" height="20" viewBox="0 0 22 20" fill="none" xmlns="http://www.w3.org/2000/svg">
<path d="M0.5 3.75C0.5 2.75544 0.895088 1.80161 1.59835 1.09835C2.30161 0.395088 3.25544 0 4.25 0H17.75C18.7446 0 19.6984 0.395088 20.4016 1.09835C21.1049 1.80161 21.5 2.75544 21.5 3.75V11.25C21.5 11.7425 21.403 12.2301 21.2145 12.6851C21.0261 13.14 20.7499 13.5534 20.4016 13.9017C20.0534 14.2499 19.64 14.5261 19.1851 14.7145C18.7301 14.903 18.2425 15 17.75 15H12.032L7.4375 19.02C7.22491 19.2059 6.96328 19.3265 6.68391 19.3676C6.40454 19.4087 6.11925 19.3685 5.86214 19.2517C5.60504 19.1349 5.38701 18.9466 5.23412 18.7092C5.08123 18.4718 4.99995 18.1954 5 17.913V15H4.25C3.25544 15 2.30161 14.6049 1.59835 13.9017C0.895088 13.1984 0.5 12.2446 0.5 11.25V3.75ZM4.25 1.5C3.65326 1.5 3.08097 1.73705 2.65901 2.15901C2.23705 2.58097 2 3.15326 2 3.75V11.25C2 11.8467 2.23705 12.419 2.65901 12.841C3.08097 13.2629 3.65326 13.5 4.25 13.5H6.5V17.847L11.468 13.5H17.75C18.3467 13.5 18.919 13.2629 19.341 12.841C19.7629 12.419 20 11.8467 20 11.25V3.75C20 3.15326 19.7629 2.58097 19.341 2.15901C18.919 1.73705 18.3467 1.5 17.75 1.5H4.25Z" fill="white"/>
</svg>
