<svg width="17" height="17" viewBox="0 0 17 17" fill="none" xmlns="http://www.w3.org/2000/svg">
<path d="M6.09333 8.62667H6.79333V7.92667V1.84V1.14H6.09333H1.84H1.14V1.84V7.92667V8.62667H1.84H6.09333ZM6.09333 15.96H6.79333V15.26V12.84V12.14H6.09333H1.84H1.14V12.84V15.26V15.96H1.84H6.09333ZM15.26 15.96H15.96V15.26V9.17333V8.47333H15.26H11.0067H10.3067V9.17333V15.26V15.96H11.0067H15.26ZM10.3067 4.26V4.96H11.0067H15.26H15.96V4.26V1.84V1.14H15.26H11.0067H10.3067V1.84V4.26ZM1.4 8.76667C1.17909 8.76667 1 8.58758 1 8.36667V1.4C1 1.17909 1.17909 1 1.4 1H6.53333C6.75425 1 6.93333 1.17909 6.93333 1.4V8.36667C6.93333 8.58758 6.75425 8.76667 6.53333 8.76667H1.4ZM1.4 16.1C1.17909 16.1 1 15.9209 1 15.7V12.4C1 12.1791 1.17909 12 1.4 12H6.53333C6.75425 12 6.93333 12.1791 6.93333 12.4V15.7C6.93333 15.9209 6.75425 16.1 6.53333 16.1H1.4ZM10.5667 16.1C10.3458 16.1 10.1667 15.9209 10.1667 15.7V8.73333C10.1667 8.51242 10.3458 8.33333 10.5667 8.33333H15.7C15.9209 8.33333 16.1 8.51242 16.1 8.73333V15.7C16.1 15.9209 15.9209 16.1 15.7 16.1H10.5667ZM10.1667 1.4C10.1667 1.17909 10.3458 1 10.5667 1H15.7C15.9209 1 16.1 1.17909 16.1 1.4V4.7C16.1 4.92092 15.9209 5.1 15.7 5.1H10.5667C10.3458 5.1 10.1667 4.92091 10.1667 4.7V1.4Z" fill="#9A9CA5" stroke="#9A9CA5" stroke-width="1.4"/>
</svg>
