<svg width="515" height="546" viewBox="0 0 515 546" fill="none" xmlns="http://www.w3.org/2000/svg">
<g filter="url(#filter0_d_459_6613)">
<path fill-rule="evenodd" clip-rule="evenodd" d="M151.252 277.533C151.252 230.402 189.459 192.195 236.59 192.195C283.72 192.195 321.927 230.402 321.927 277.533C321.927 324.663 283.72 362.87 236.59 362.87C189.459 362.87 151.252 324.663 151.252 277.533Z" fill="white"/>
</g>
<mask id="mask0_459_6613" style="mask-type:alpha" maskUnits="userSpaceOnUse" x="272" y="138" width="119" height="268">
<path fill-rule="evenodd" clip-rule="evenodd" d="M309.316 138.024L272.213 181.064L295.217 381.422L332.32 405.91L390.201 322.799L382.781 193.679L309.316 138.024Z" fill="white"/>
</mask>
<g mask="url(#mask0_459_6613)">
<path d="M98.0898 277.531C98.0898 200.215 160.767 137.538 238.082 137.538C315.398 137.538 378.075 200.215 378.075 277.531C378.075 354.846 315.398 417.523 238.082 417.523C160.767 417.523 98.0898 354.846 98.0898 277.531Z" stroke="#6879E3" stroke-opacity="0.55" stroke-width="2"/>
</g>
<mask id="mask1_459_6613" style="mask-type:alpha" maskUnits="userSpaceOnUse" x="48" y="299" width="377" height="166">
<path fill-rule="evenodd" clip-rule="evenodd" d="M405.787 307.215L424.339 313.151L390.204 397.747L291.509 464.533L162.389 457.854L76.3098 394.779L48.1113 299.052L91.1511 303.505L187.62 421.493L325.644 410.362L405.787 307.215Z" fill="white"/>
</mask>
<g mask="url(#mask1_459_6613)">
<path d="M60.9863 277.532C60.9863 179.725 140.275 100.436 238.082 100.436C335.889 100.436 415.178 179.725 415.178 277.532C415.178 375.339 335.889 454.628 238.082 454.628C140.275 454.628 60.9863 375.339 60.9863 277.532Z" stroke="#6879E3" stroke-opacity="0.55" stroke-width="2"/>
</g>
<mask id="mask2_459_6613" style="mask-type:alpha" maskUnits="userSpaceOnUse" x="4" y="61" width="175" height="360">
<path fill-rule="evenodd" clip-rule="evenodd" d="M88.1815 407.395L59.983 420.01L4.32812 313.895L27.3322 173.644L83.7291 111.311L163.872 61.5923L178.714 106.116L50.3362 212.232L39.2052 339.125L88.1815 407.395Z" fill="white"/>
</mask>
<g mask="url(#mask2_459_6613)">
<path d="M23.8809 277.534C23.8809 159.235 119.781 63.3347 238.08 63.3347C356.379 63.3347 452.279 159.235 452.279 277.534C452.279 395.833 356.379 491.733 238.08 491.733C119.781 491.733 23.8809 395.833 23.8809 277.534Z" stroke="#6879E3" stroke-opacity="0.55" stroke-width="2"/>
</g>
<mask id="mask3_459_6613" style="mask-type:alpha" maskUnits="userSpaceOnUse" x="11" y="0" width="495" height="265">
<path fill-rule="evenodd" clip-rule="evenodd" d="M67.3971 75.6907L11.7422 138.766L39.5696 153.608L142.346 63.0756L278.144 56.397L438.43 176.612L468.112 264.175L505.958 245.624L457.724 66.0438L231.394 0L67.3971 75.6907Z" fill="white"/>
</mask>
<g mask="url(#mask3_459_6613)">
<path d="M-13.2266 277.532C-13.2266 138.741 99.2854 26.2292 238.076 26.2292C376.866 26.2292 489.378 138.741 489.378 277.532C489.378 416.322 376.866 528.834 238.076 528.834C99.2854 528.834 -13.2266 416.322 -13.2266 277.532Z" stroke="#6879E3" stroke-opacity="0.55" stroke-width="2"/>
</g>
<mask id="mask4_459_6613" style="mask-type:alpha" maskUnits="userSpaceOnUse" x="108" y="399" width="362" height="147">
<path fill-rule="evenodd" clip-rule="evenodd" d="M131.221 482.342L108.217 519.445L226.205 545.417L419.884 497.925L469.603 425.203L438.436 399.23L300.412 501.636L131.221 482.342Z" fill="white"/>
</mask>
<g mask="url(#mask4_459_6613)">
<path d="M-13.2207 277.531C-13.2207 138.741 99.2912 26.2288 238.082 26.2288C376.872 26.2288 489.384 138.741 489.384 277.531C489.384 416.322 376.872 528.833 238.082 528.833C99.2912 528.833 -13.2207 416.322 -13.2207 277.531Z" stroke="#6879E3" stroke-opacity="0.55" stroke-width="2"/>
</g>
<path d="M308.832 394.036C308.832 390.49 311.707 387.615 315.253 387.615C318.799 387.615 321.673 390.49 321.673 394.036C321.673 397.582 318.799 400.457 315.253 400.457C311.707 400.457 308.832 397.582 308.832 394.036Z" fill="white" stroke="#6C63FF" stroke-width="2"/>
<path d="M446.111 408.134C446.111 404.588 448.986 401.713 452.532 401.713C456.078 401.713 458.953 404.588 458.953 408.134C458.953 411.68 456.078 414.555 452.532 414.555C448.986 414.555 446.111 411.68 446.111 408.134Z" fill="white" stroke="#6C63FF" stroke-width="2"/>
<path d="M109.955 496.441C109.955 492.895 112.83 490.02 116.376 490.02C119.922 490.02 122.796 492.895 122.796 496.441C122.796 499.987 119.922 502.861 116.376 502.861C112.83 502.861 109.955 499.987 109.955 496.441Z" fill="white" stroke="#6C63FF" stroke-width="2"/>
<path d="M290.279 150.639C290.279 147.093 293.154 144.218 296.7 144.218C300.246 144.218 303.121 147.093 303.121 150.639C303.121 154.185 300.246 157.059 296.7 157.059C293.154 157.059 290.279 154.185 290.279 150.639Z" fill="white" stroke="#6C63FF" stroke-width="2"/>
<path d="M406.045 308.697C406.045 305.151 408.92 302.277 412.466 302.277C416.012 302.277 418.886 305.151 418.886 308.697C418.886 312.243 416.012 315.118 412.466 315.118C408.92 315.118 406.045 312.243 406.045 308.697Z" fill="white" stroke="#6C63FF" stroke-width="2"/>
<path d="M55.7812 301.276C55.7812 297.73 58.6559 294.855 62.2019 294.855C65.7479 294.855 68.6226 297.73 68.6226 301.276C68.6226 304.822 65.7479 307.697 62.2019 307.697C58.6559 307.697 55.7812 304.822 55.7812 301.276Z" fill="white" stroke="#6C63FF" stroke-width="2"/>
<path d="M65.4336 413.329C65.4336 409.783 68.3082 406.908 71.8543 406.908C75.4003 406.908 78.2749 409.783 78.2749 413.329C78.2749 416.875 75.4003 419.749 71.8543 419.749C68.3082 419.749 65.4336 416.875 65.4336 413.329Z" fill="white" stroke="#6C63FF" stroke-width="2"/>
<path d="M161.16 74.9475C161.16 71.4015 164.035 68.5269 167.581 68.5269C171.127 68.5269 174.001 71.4015 174.001 74.9475C174.001 78.4935 171.127 81.3682 167.581 81.3682C164.035 81.3682 161.16 78.4935 161.16 74.9475Z" fill="white" stroke="#6C63FF" stroke-width="2"/>
<path d="M18.6836 143.217C18.6836 139.671 21.5582 136.797 25.1043 136.797C28.6503 136.797 31.5249 139.671 31.5249 143.217C31.5249 146.763 28.6503 149.638 25.1043 149.638C21.5582 149.638 18.6836 146.763 18.6836 143.217Z" fill="white" stroke="#6C63FF" stroke-width="2"/>
<path d="M481.732 253.042C481.732 249.496 484.607 246.622 488.153 246.622C491.699 246.622 494.574 249.496 494.574 253.042C494.574 256.589 491.699 259.463 488.153 259.463C484.607 259.463 481.732 256.589 481.732 253.042Z" fill="white" stroke="#6C63FF" stroke-width="2"/>
<g filter="url(#filter1_d_459_6613)">
<circle cx="237.481" cy="278.759" r="64.0475" fill="url(#paint0_radial_459_6613)" shape-rendering="crispEdges"/>
</g>
<rect x="34" y="271" width="60" height="60" rx="30" fill="#419FD9"/>
<rect x="34" y="271" width="60" height="60" rx="30" fill="url(#paint1_linear_459_6613)"/>
<path d="M47.4842 300.339C56.2083 296.458 62.0258 293.899 64.9366 292.663C73.2474 289.134 74.9744 288.521 76.0999 288.5C76.3475 288.496 76.901 288.559 77.2596 288.856C77.5623 289.106 77.6456 289.445 77.6855 289.683C77.7254 289.921 77.775 290.463 77.7355 290.886C77.2852 295.718 75.3364 307.442 74.345 312.854C73.9255 315.143 73.0995 315.911 72.2998 315.986C70.562 316.15 69.2423 314.814 67.5591 313.687C64.9252 311.924 63.4372 310.827 60.8805 309.107C57.9259 307.119 59.8412 306.026 61.5251 304.24C61.9658 303.773 69.6229 296.662 69.7711 296.017C69.7896 295.936 69.8068 295.635 69.6319 295.477C69.4569 295.318 69.1986 295.372 69.0123 295.415C68.7481 295.477 64.5404 298.316 56.3892 303.934C55.1948 304.771 54.113 305.179 53.1438 305.158C52.0752 305.134 50.0198 304.541 48.4918 304.034C46.6177 303.412 45.1282 303.083 45.2579 302.027C45.3254 301.477 46.0675 300.914 47.4842 300.339Z" fill="white"/>
<path d="M92 500C92 484.536 104.536 472 120 472C135.464 472 148 484.536 148 500C148 515.464 135.464 528 120 528C104.536 528 92 515.464 92 500Z" fill="#303030"/>
<path d="M117.372 497.026V495.936C116.999 495.886 116.619 495.854 116.227 495.854C111.553 495.848 107.75 499.654 107.75 504.339C107.75 507.21 109.181 509.752 111.372 511.29C109.959 509.777 109.094 507.74 109.094 505.51C109.094 500.894 112.791 497.131 117.372 497.026Z" fill="#25F4EE"/>
<path d="M117.578 509.384C119.663 509.384 121.369 507.721 121.443 505.653L121.45 487.171H124.823C124.754 486.791 124.717 486.399 124.717 486H120.111L120.105 504.482C120.03 506.55 118.325 508.213 116.24 508.213C115.593 508.213 114.983 508.051 114.441 507.765C115.138 508.743 116.284 509.384 117.578 509.384Z" fill="#25F4EE"/>
<path d="M131.126 493.444V492.416C129.838 492.416 128.643 492.036 127.635 491.376C128.531 492.404 129.745 493.151 131.126 493.444Z" fill="#25F4EE"/>
<path d="M127.635 491.376C126.652 490.248 126.06 488.778 126.06 487.171H124.828C125.145 488.928 126.191 490.435 127.635 491.376Z" fill="#FE2C55"/>
<path d="M116.233 500.458C114.098 500.458 112.361 502.196 112.361 504.332C112.361 505.821 113.208 507.117 114.44 507.765C113.98 507.129 113.706 506.351 113.706 505.503C113.706 503.367 115.442 501.629 117.577 501.629C117.975 501.629 118.361 501.697 118.722 501.81V497.1C118.349 497.05 117.969 497.019 117.577 497.019C117.508 497.019 117.446 497.026 117.378 497.026V500.638C117.011 500.526 116.631 500.458 116.233 500.458Z" fill="#FE2C55"/>
<path d="M131.128 493.444V497.026C128.738 497.026 126.522 496.259 124.717 494.964V504.339C124.717 509.017 120.914 512.829 116.234 512.829C114.429 512.829 112.749 512.256 111.373 511.29C112.923 512.954 115.132 514 117.578 514C122.252 514 126.061 510.194 126.061 505.51V496.135C127.866 497.431 130.082 498.197 132.472 498.197V493.587C132.005 493.587 131.557 493.537 131.128 493.444Z" fill="#FE2C55"/>
<path d="M124.716 504.339V494.964C126.521 496.259 128.736 497.026 131.126 497.026V493.444C129.745 493.151 128.531 492.404 127.635 491.376C126.191 490.435 125.151 488.928 124.822 487.171H121.448L121.442 505.653C121.367 507.721 119.662 509.384 117.577 509.384C116.282 509.384 115.143 508.743 114.434 507.771C113.202 507.117 112.355 505.827 112.355 504.339C112.355 502.202 114.092 500.464 116.226 500.464C116.625 500.464 117.011 500.533 117.372 500.645V497.032C112.791 497.132 109.094 500.894 109.094 505.51C109.094 507.74 109.959 509.77 111.372 511.29C112.747 512.256 114.428 512.829 116.233 512.829C120.907 512.829 124.716 509.017 124.716 504.339Z" fill="white"/>
<rect y="116" width="48" height="48" rx="24" fill="#5181B8"/>
<path fill-rule="evenodd" clip-rule="evenodd" d="M39.2658 132.535C39.4884 131.793 39.2658 131.248 38.2071 131.248H34.7062C33.816 131.248 33.4059 131.719 33.1834 132.238C33.1834 132.238 31.403 136.577 28.8809 139.396C28.0649 140.212 27.6941 140.471 27.249 140.471C27.0264 140.471 26.7044 140.212 26.7044 139.47V132.535C26.7044 131.644 26.4461 131.248 25.7041 131.248H20.2028C19.6467 131.248 19.3121 131.661 19.3121 132.052C19.3121 132.896 20.5729 133.091 20.703 135.465V140.62C20.703 141.75 20.4989 141.955 20.0538 141.955C18.867 141.955 15.9804 137.596 14.268 132.609C13.9324 131.639 13.5958 131.248 12.7011 131.248H9.20028C8.20005 131.248 8 131.719 8 132.238C8 133.165 9.18703 137.764 13.5263 143.847C16.4195 148 20.4949 150.252 24.2038 150.252C26.4293 150.252 26.7044 149.752 26.7044 148.891V145.751C26.7044 144.751 26.9152 144.551 27.6196 144.551C28.1392 144.551 29.0292 144.811 31.1064 146.814C33.4799 149.187 33.871 150.252 35.2064 150.252H38.7072C39.7074 150.252 40.2075 149.752 39.919 148.765C39.6034 147.781 38.4701 146.355 36.9663 144.663C36.1503 143.698 34.9263 142.66 34.5557 142.141C34.0363 141.473 34.1846 141.176 34.5557 140.583C34.5557 140.583 38.8207 134.575 39.2658 132.535V132.535Z" fill="white"/>
<rect x="388" y="287" width="48" height="48" rx="24" fill="#CA0000"/>
<path d="M407.001 311C407.001 308.239 409.239 306 412 306C414.761 306 417 308.239 417 311C417 313.761 414.761 316 412 316C409.239 316 407.001 313.761 407.001 311ZM404.298 311C404.298 315.254 407.746 318.702 412 318.702C416.254 318.702 419.702 315.254 419.702 311C419.702 306.746 416.254 303.298 412 303.298C407.746 303.298 404.298 306.746 404.298 311ZM418.207 302.992C418.207 303.348 418.313 303.696 418.51 303.992C418.708 304.289 418.989 304.519 419.318 304.656C419.647 304.792 420.009 304.828 420.358 304.759C420.707 304.689 421.028 304.518 421.28 304.266C421.531 304.015 421.703 303.694 421.773 303.345C421.842 302.996 421.807 302.634 421.67 302.305C421.534 301.976 421.304 301.695 421.008 301.497C420.712 301.299 420.364 301.193 420.008 301.193H420.007C419.53 301.193 419.072 301.383 418.735 301.72C418.397 302.058 418.208 302.515 418.207 302.992ZM405.94 323.21C404.478 323.143 403.683 322.899 403.154 322.694C402.454 322.421 401.954 322.096 401.429 321.572C400.904 321.047 400.579 320.548 400.307 319.847C400.101 319.319 399.858 318.524 399.791 317.062C399.718 315.481 399.704 315.006 399.704 311C399.704 306.994 399.72 306.521 399.791 304.938C399.858 303.476 400.103 302.682 400.307 302.153C400.58 301.452 400.904 300.953 401.429 300.427C401.954 299.902 402.453 299.577 403.154 299.305C403.682 299.099 404.478 298.856 405.94 298.789C407.521 298.717 407.996 298.702 412 298.702C416.004 298.702 416.479 298.718 418.062 298.789C419.524 298.856 420.318 299.101 420.847 299.305C421.548 299.577 422.047 299.903 422.573 300.427C423.098 300.952 423.422 301.452 423.695 302.153C423.901 302.681 424.144 303.476 424.211 304.938C424.283 306.521 424.298 306.994 424.298 311C424.298 315.006 424.283 315.479 424.211 317.062C424.144 318.524 423.899 319.319 423.695 319.847C423.422 320.548 423.097 321.047 422.573 321.572C422.048 322.096 421.548 322.421 420.847 322.694C420.319 322.9 419.524 323.143 418.062 323.21C416.481 323.282 416.006 323.297 412 323.297C407.994 323.297 407.521 323.282 405.94 323.21ZM405.816 296.091C404.219 296.164 403.128 296.417 402.175 296.788C401.188 297.17 400.353 297.684 399.518 298.518C398.683 299.351 398.17 300.188 397.788 301.175C397.417 302.128 397.164 303.219 397.091 304.816C397.017 306.415 397 306.926 397 311C397 315.074 397.017 315.585 397.091 317.184C397.164 318.781 397.417 319.872 397.788 320.825C398.17 321.811 398.683 322.649 399.518 323.482C400.352 324.315 401.188 324.828 402.175 325.212C403.13 325.583 404.219 325.836 405.816 325.909C407.416 325.982 407.926 326 412 326C416.074 326 416.585 325.983 418.184 325.909C419.781 325.836 420.872 325.583 421.825 325.212C422.811 324.828 423.647 324.316 424.482 323.482C425.317 322.649 425.828 321.811 426.212 320.825C426.583 319.872 426.838 318.781 426.909 317.184C426.982 315.584 426.999 315.074 426.999 311C426.999 306.926 426.982 306.415 426.909 304.816C426.836 303.219 426.583 302.128 426.212 301.175C425.828 300.189 425.316 299.353 424.482 298.518C423.649 297.683 422.811 297.17 421.826 296.788C420.872 296.417 419.781 296.162 418.185 296.091C416.586 296.018 416.075 296 412.001 296C407.928 296 407.416 296.017 405.816 296.091Z" fill="white"/>
<rect x="452" y="224" width="63" height="63" rx="31.5" fill="#005BAF"/>
<path d="M485.603 276.5V257.342H492.033L492.996 249.875H485.603V245.108C485.603 242.947 486.203 241.473 489.303 241.473L493.257 241.472V234.794C492.573 234.703 490.226 234.5 487.496 234.5C481.795 234.5 477.893 237.979 477.893 244.369V249.875H471.445V257.342H477.892V276.5L485.603 276.5Z" fill="white"/>
<rect x="273" y="129" width="48" height="48" rx="24" fill="url(#paint2_linear_459_6613)"/>
<path d="M297.188 167.073C297.101 167.073 297.021 167.073 296.96 167.06C296.914 167.073 296.86 167.073 296.807 167.073C295.021 167.073 293.831 166.231 292.767 165.489C292.012 164.954 291.303 164.445 290.467 164.305C290.059 164.231 289.644 164.205 289.263 164.205C288.554 164.205 287.993 164.312 287.591 164.392C287.337 164.439 287.123 164.479 286.956 164.479C286.782 164.479 286.562 164.432 286.475 164.138C286.401 163.897 286.354 163.67 286.308 163.449C286.187 162.894 286.087 162.553 285.88 162.519C283.646 162.178 282.309 161.663 282.048 161.055C282.028 160.988 282.001 160.921 282.001 160.868C281.988 160.68 282.121 160.527 282.309 160.493C284.081 160.199 285.672 159.256 287.016 157.705C288.06 156.501 288.568 155.337 288.615 155.21C288.615 155.197 288.628 155.197 288.628 155.197C288.882 154.669 288.936 154.221 288.782 153.853C288.494 153.164 287.545 152.87 286.896 152.669C286.729 152.622 286.588 152.569 286.468 152.529C285.913 152.308 284.99 151.84 285.111 151.191C285.197 150.723 285.819 150.389 286.328 150.389C286.468 150.389 286.588 150.409 286.689 150.462C287.257 150.723 287.772 150.857 288.213 150.857C288.762 150.857 289.023 150.65 289.089 150.583C289.076 150.288 289.056 149.981 289.036 149.693C288.902 147.647 288.748 145.106 289.397 143.648C291.343 139.288 295.476 138.94 296.7 138.94C296.733 138.94 297.235 138.927 297.235 138.927C297.255 138.927 297.281 138.927 297.308 138.927C298.532 138.927 302.665 139.268 304.611 143.635C305.266 145.092 305.105 147.64 304.972 149.68L304.958 149.78C304.945 150.054 304.925 150.315 304.911 150.583C304.978 150.636 305.219 150.837 305.714 150.843C306.142 150.83 306.61 150.69 307.145 150.449C307.312 150.375 307.486 150.349 307.613 150.349C307.8 150.349 307.988 150.395 308.148 150.449H308.162C308.61 150.616 308.904 150.93 308.904 151.258C308.917 151.566 308.676 152.034 307.533 152.495C307.413 152.542 307.272 152.596 307.105 152.636C306.47 152.83 305.52 153.137 305.219 153.819C305.052 154.18 305.119 154.642 305.373 155.163C305.373 155.177 305.386 155.177 305.386 155.177C305.46 155.364 307.392 159.751 311.692 160.466C311.88 160.5 312 160.654 312 160.841C312 160.908 311.987 160.975 311.953 161.035C311.692 161.65 310.368 162.152 308.121 162.499C307.914 162.533 307.814 162.874 307.693 163.429C307.647 163.656 307.593 163.877 307.526 164.118C307.459 164.338 307.319 164.459 307.078 164.459H307.045C306.891 164.459 306.684 164.439 306.409 164.385C305.928 164.285 305.4 164.211 304.738 164.211C304.343 164.211 303.935 164.245 303.534 164.312C302.705 164.445 301.989 164.96 301.234 165.495C300.157 166.231 298.96 167.073 297.188 167.073Z" fill="white"/>
<defs>
<filter id="filter0_d_459_6613" x="71.252" y="152.195" width="330.676" height="330.675" filterUnits="userSpaceOnUse" color-interpolation-filters="sRGB">
<feFlood flood-opacity="0" result="BackgroundImageFix"/>
<feColorMatrix in="SourceAlpha" type="matrix" values="0 0 0 0 0 0 0 0 0 0 0 0 0 0 0 0 0 0 127 0" result="hardAlpha"/>
<feOffset dy="40"/>
<feGaussianBlur stdDeviation="40"/>
<feColorMatrix type="matrix" values="0 0 0 0 0 0 0 0 0 0 0 0 0 0 0 0 0 0 0.1 0"/>
<feBlend mode="normal" in2="BackgroundImageFix" result="effect1_dropShadow_459_6613"/>
<feBlend mode="normal" in="SourceGraphic" in2="effect1_dropShadow_459_6613" result="shape"/>
</filter>
<filter id="filter1_d_459_6613" x="158.434" y="200.711" width="164.096" height="164.095" filterUnits="userSpaceOnUse" color-interpolation-filters="sRGB">
<feFlood flood-opacity="0" result="BackgroundImageFix"/>
<feColorMatrix in="SourceAlpha" type="matrix" values="0 0 0 0 0 0 0 0 0 0 0 0 0 0 0 0 0 0 127 0" result="hardAlpha"/>
<feOffset dx="3" dy="4"/>
<feGaussianBlur stdDeviation="9"/>
<feComposite in2="hardAlpha" operator="out"/>
<feColorMatrix type="matrix" values="0 0 0 0 0.321569 0 0 0 0 0.266667 0 0 0 0 0.615686 0 0 0 0.38 0"/>
<feBlend mode="normal" in2="BackgroundImageFix" result="effect1_dropShadow_459_6613"/>
<feBlend mode="normal" in="SourceGraphic" in2="effect1_dropShadow_459_6613" result="shape"/>
</filter>
<radialGradient id="paint0_radial_459_6613" cx="0" cy="0" r="1" gradientUnits="userSpaceOnUse" gradientTransform="translate(214.191 258.38) rotate(20.2128) scale(85.3134)">
<stop stop-color="#6C63FF" stop-opacity="0.16"/>
<stop offset="1" stop-color="#6C63FF"/>
</radialGradient>
<linearGradient id="paint1_linear_459_6613" x1="64" y1="271" x2="64" y2="330.555" gradientUnits="userSpaceOnUse">
<stop stop-color="#00B8FF"/>
<stop offset="1" stop-color="#0083EA"/>
</linearGradient>
<linearGradient id="paint2_linear_459_6613" x1="297" y1="129" x2="297" y2="177" gradientUnits="userSpaceOnUse">
<stop stop-color="#FCF60B"/>
<stop offset="1" stop-color="#C39907"/>
</linearGradient>
</defs>
</svg>
