<svg width="24" height="18" viewBox="0 0 24 18" fill="none" xmlns="http://www.w3.org/2000/svg">
<path d="M11.7802 11.4797C12.4262 11.4797 13.0457 11.2231 13.5024 10.7663C13.9591 10.3096 14.2157 9.69009 14.2157 9.04415C14.2157 8.39821 13.9591 7.77873 13.5024 7.32199C13.0457 6.86524 12.4262 6.60864 11.7802 6.60864C11.1343 6.60864 10.5148 6.86524 10.0581 7.32199C9.60132 7.77873 9.34473 8.39821 9.34473 9.04415C9.34473 9.69009 9.60132 10.3096 10.0581 10.7663C10.5148 11.2231 11.1343 11.4797 11.7802 11.4797Z" stroke="white" stroke-width="1.5" stroke-linecap="round" stroke-linejoin="round"/>
<path d="M22.7399 9.04407C20.4395 12.6864 16.3077 16.3506 11.7801 16.3506C7.25249 16.3506 3.12065 12.6864 0.820312 9.04407C3.61993 5.58321 6.89934 1.73755 11.7801 1.73755C16.6609 1.73755 19.9403 5.58321 22.7399 9.04407Z" stroke="white" stroke-width="1.5" stroke-linecap="round" stroke-linejoin="round"/>
</svg>
