<svg width="16" height="12" viewBox="0 0 16 12" fill="none" xmlns="http://www.w3.org/2000/svg">
<path d="M10 6C10 6.5304 9.78931 7.03913 9.41418 7.41418C9.03913 7.78931 8.5304 8 8 8C7.4696 8 6.96086 7.78931 6.58579 7.41418C6.21071 7.03913 6 6.5304 6 6C6 5.4696 6.21071 4.96086 6.58579 4.58579C6.96086 4.21071 7.4696 4 8 4C8.5304 4 9.03913 4.21071 9.41418 4.58579C9.78931 4.96086 10 5.4696 10 6Z" stroke="#9A9CA5" stroke-width="1.5" stroke-linecap="round" stroke-linejoin="round"/>
<path d="M1.63867 5.99992C2.48801 3.29525 5.01534 1.33325 8 1.33325C10.9853 1.33325 13.512 3.29525 14.3613 5.99992C13.512 8.70458 10.9853 10.6666 8 10.6666C5.01534 10.6666 2.48801 8.70458 1.63867 5.99992Z" stroke="#9A9CA5" stroke-width="1.5" stroke-linecap="round" stroke-linejoin="round"/>
</svg>
