<svg width="18" height="16" viewBox="0 0 18 16" fill="none" xmlns="http://www.w3.org/2000/svg">
<path d="M2.78459 2.62737C2.42407 2.98788 2.1381 3.41587 1.94299 3.8869C1.74788 4.35793 1.64746 4.86278 1.64746 5.37263C1.64746 5.88247 1.74788 6.38732 1.94299 6.85835C2.1381 7.32938 2.42407 7.75737 2.78459 8.11788L9.41219 14.7455L16.0398 8.11788C16.7679 7.38979 17.1769 6.40229 17.1769 5.37263C17.1769 4.34295 16.7679 3.35546 16.0398 2.62737C15.3117 1.89928 14.3242 1.49024 13.2945 1.49024C12.2649 1.49024 11.2774 1.89928 10.5493 2.62737L9.41219 3.76446L8.2751 2.62737C7.91459 2.26686 7.4866 1.98088 7.01557 1.78576C6.54453 1.59066 6.03969 1.49023 5.52985 1.49023C5.02001 1.49023 4.51516 1.59066 4.04412 1.78576C3.57309 1.98088 3.1451 2.26686 2.78459 2.62737Z" stroke="#9A9CA5" stroke-width="1.5" stroke-linecap="round" stroke-linejoin="round"/>
</svg>
