<svg width="25" height="23" viewBox="0 0 25 23" fill="none" xmlns="http://www.w3.org/2000/svg">
<path d="M24 7.74138C24.0039 9.51096 23.3222 11.2133 22.0979 12.4909C19.2907 15.4016 16.5674 18.4365 13.6568 21.2402C12.9886 21.8727 11.9294 21.8497 11.2912 21.1885L2.90183 12.4921C0.366055 9.86315 0.366055 5.6196 2.90183 2.99182C3.50115 2.36276 4.22198 1.86196 5.02061 1.51978C5.81924 1.17759 6.67904 1.00115 7.54789 1.00115C8.41674 1.00115 9.27654 1.17759 10.0752 1.51978C10.8738 1.86196 11.5946 2.36276 12.1939 2.99182L12.4998 3.30693L12.8046 2.99182C13.4051 2.36425 14.1262 1.86437 14.9245 1.52211C15.7228 1.17985 16.582 1.00227 17.4507 1C19.1987 1 20.8696 1.71761 22.0967 2.99182C23.3215 4.26931 24.0036 5.97164 24 7.74138V7.74138Z" stroke="white" stroke-width="1.5" stroke-linejoin="round"/>
</svg>
