<svg width="20" height="20" viewBox="0 0 20 20" fill="none" xmlns="http://www.w3.org/2000/svg">
<path d="M11.5443 8.45596C10.7252 7.6372 9.61445 7.17725 8.4563 7.17725C7.29815 7.17725 6.18741 7.6372 5.3683 8.45596L2.2793 11.544C1.46018 12.3631 1 13.474 1 14.6325C1 15.7909 1.46018 16.9018 2.2793 17.721C3.09842 18.5401 4.20939 19.0003 5.3678 19.0003C6.52621 19.0003 7.63718 18.5401 8.4563 17.721L10.0003 16.177" stroke="#8A8FB9" stroke-width="2" stroke-linecap="round" stroke-linejoin="round"/>
<path d="M8.45703 11.5441C9.27614 12.3628 10.3869 12.8228 11.545 12.8228C12.7032 12.8228 13.8139 12.3628 14.633 11.5441L17.722 8.45605C18.5412 7.63693 19.0013 6.52597 19.0013 5.36755C19.0013 4.20914 18.5412 3.09818 17.722 2.27905C16.9029 1.45993 15.7919 0.999756 14.6335 0.999756C13.4751 0.999756 12.3642 1.45993 11.545 2.27905L10.001 3.82305" stroke="#8A8FB9" stroke-width="2" stroke-linecap="round" stroke-linejoin="round"/>
</svg>
