<svg width="12" height="13" viewBox="0 0 12 13" fill="none" xmlns="http://www.w3.org/2000/svg">
<path d="M0.984375 0.5L0.828125 0.671875L0.609375 0.828125C0.442708 0.942708 0.307292 1 0.203125 1V2C0.348958 2 0.494792 1.97396 0.640625 1.92188C0.723958 1.89062 0.838542 1.83333 0.984375 1.75L1 1.73438V4H2V0.5H0.984375ZM3.5 2V3H12V2H3.5ZM1.25 5C0.90625 5 0.609375 5.125 0.359375 5.375C0.119792 5.61458 0 5.90625 0 6.25V6.5H1V6.25C1 6.19792 1.02604 6.14583 1.07812 6.09375C1.14062 6.03125 1.19792 6 1.25 6C1.30208 6 1.35417 6.03125 1.40625 6.09375C1.46875 6.14583 1.5 6.19792 1.5 6.25L0.15625 7.54688L0 7.6875V8.5H2.5V7.5H1.64062L2.07812 7.0625L2.14062 7.01562L2.125 7C2.23958 6.90625 2.32812 6.79167 2.39062 6.65625C2.46354 6.51042 2.5 6.375 2.5 6.25C2.5 5.90625 2.375 5.61458 2.125 5.375C1.88542 5.125 1.59375 5 1.25 5ZM3.5 6.5V7.5H12V6.5H3.5ZM0 9.5V10.5H0.6875L0.5 10.8125V11.5H1.25C1.30208 11.5 1.35417 11.5312 1.40625 11.5938C1.46875 11.6458 1.5 11.6979 1.5 11.75C1.5 11.8021 1.46875 11.8594 1.40625 11.9219C1.35417 11.974 1.30208 12 1.25 12H0V13H1.25C1.59375 13 1.88542 12.8802 2.125 12.6406C2.375 12.3906 2.5 12.0938 2.5 11.75C2.5 11.5104 2.42708 11.2969 2.28125 11.1094C2.14583 10.9427 1.96354 10.8073 1.73438 10.7031L1.9375 10.3594L2 10.2344V9.5H0ZM3.5 11V12H12V11H3.5Z" fill="#5E81F4"/>
</svg>
