<svg width="18" height="18" viewBox="0 0 18 18" fill="none" xmlns="http://www.w3.org/2000/svg">
<path fill-rule="evenodd" clip-rule="evenodd" d="M0.25 9C0.25 11.3206 1.17187 13.5462 2.81282 15.1872C4.45376 16.8281 6.67936 17.75 9 17.75C11.3206 17.75 13.5462 16.8281 15.1872 15.1872C16.8281 13.5462 17.75 11.3206 17.75 9C17.75 6.67936 16.8281 4.45376 15.1872 2.81282C13.5462 1.17187 11.3206 0.25 9 0.25C6.67936 0.25 4.45376 1.17187 2.81282 2.81282C1.17187 4.45376 0.25 6.67936 0.25 9ZM16.25 9C16.25 10.9228 15.4862 12.7669 14.1265 14.1265C12.7669 15.4862 10.9228 16.25 9 16.25C7.07718 16.25 5.23311 15.4862 3.87348 14.1265C2.51384 12.7669 1.75 10.9228 1.75 9C1.75 7.07718 2.51384 5.23311 3.87348 3.87348C5.23311 2.51384 7.07718 1.75 9 1.75C10.9228 1.75 12.7669 2.51384 14.1265 3.87348C15.4862 5.23311 16.25 7.07718 16.25 9Z" fill="#7874FE"/>
<path fill-rule="evenodd" clip-rule="evenodd" d="M5.25 9C5.25 13.522 6.741 17.25 9 17.25C11.259 17.25 12.75 13.522 12.75 9C12.75 4.478 11.259 0.75 9 0.75C6.741 0.75 5.25 4.478 5.25 9ZM11.25 9C11.25 12.762 10.055 15.75 9 15.75C7.945 15.75 6.75 12.762 6.75 9C6.75 5.238 7.945 2.25 9 2.25C10.055 2.25 11.25 5.238 11.25 9Z" fill="#7874FE"/>
<path d="M2.60156 4.46698L3.60756 3.35498C3.70756 3.44498 3.81656 3.53498 3.93256 3.62198C5.20356 4.57398 7.23256 5.16198 9.44756 5.16198C11.3386 5.16198 13.0996 4.73498 14.3786 4.00398C14.6866 3.82798 14.9606 3.63698 15.1976 3.43398L16.1716 4.57498C15.8616 4.83998 15.5106 5.08498 15.1236 5.30498C13.6076 6.17298 11.5896 6.66098 9.44756 6.66098C6.92556 6.66098 4.58256 5.98298 3.03256 4.82198C2.88352 4.71033 2.7397 4.59187 2.60156 4.46698Z" fill="#7874FE"/>
<path d="M2.60156 13.549L3.60756 14.661C3.70756 14.57 3.81656 14.481 3.93256 14.394C5.20356 13.442 7.23256 12.854 9.44756 12.854C11.3386 12.854 13.0996 13.281 14.3786 14.012C14.6866 14.188 14.9606 14.379 15.1976 14.582L16.1716 13.441C15.8458 13.1655 15.4949 12.9211 15.1236 12.711C13.6076 11.843 11.5896 11.355 9.44756 11.355C6.92556 11.355 4.58256 12.033 3.03256 13.194C2.88352 13.3056 2.7397 13.4241 2.60156 13.549Z" fill="#7874FE"/>
<path d="M0.75 9.75V8.25H17.25V9.75H0.75Z" fill="#7874FE"/>
</svg>
