<svg width="7" height="7" viewBox="0 0 7 7" fill="none" xmlns="http://www.w3.org/2000/svg">
<path fill-rule="evenodd" clip-rule="evenodd" d="M0.903635 5.35451C0.698789 5.55935 0.698788 5.89147 0.903634 6.09632C1.10848 6.30116 1.4406 6.30116 1.64545 6.09632L3.49991 4.24186L5.35475 6.0967C5.5596 6.30155 5.89172 6.30155 6.09656 6.0967C6.30141 5.89186 6.30141 5.55974 6.09656 5.35489L4.24172 3.50005L6.09632 1.64545C6.30117 1.4406 6.30117 1.10848 6.09632 0.903634C5.89148 0.698789 5.55936 0.698788 5.35451 0.903634L3.49991 2.75824L1.64569 0.904019C1.44084 0.699173 1.10872 0.699173 0.903873 0.904019C0.699027 1.10886 0.699027 1.44098 0.903873 1.64583L2.75809 3.50005L0.903635 5.35451Z" fill="#7874FE"/>
</svg>
