<svg width="21" height="16" viewBox="0 0 21 16" fill="none" xmlns="http://www.w3.org/2000/svg">
<path d="M3.10264 9.09261C2.75987 8.8091 2.31323 8.65527 1.85231 8.66199C1.39138 8.66871 0.950264 8.83547 0.61744 9.12882C0.284616 9.42218 0.0847033 9.82043 0.0578025 10.2437C0.0309017 10.6669 0.179002 11.0839 0.472398 11.4109L4.52735 15.3252C4.69712 15.489 4.90112 15.6195 5.12711 15.709C5.3531 15.7985 5.59642 15.8451 5.84247 15.846C6.08721 15.8473 6.32974 15.8033 6.55566 15.7168C6.78157 15.6302 6.98627 15.5027 7.15759 15.342L19.5416 3.58242C19.7095 3.42358 19.8418 3.23587 19.9308 3.03003C20.0198 2.82418 20.0639 2.60422 20.0605 2.3827C20.0571 2.16119 20.0063 1.94246 19.911 1.739C19.8157 1.53554 19.6778 1.35134 19.5051 1.19691C19.3324 1.04248 19.1283 0.920847 18.9045 0.838959C18.6807 0.757071 18.4415 0.71653 18.2007 0.71965C17.9598 0.72277 17.722 0.76949 17.5008 0.857142C17.2796 0.944795 17.0793 1.07166 16.9114 1.23051L5.86073 11.7469L3.10264 9.09261Z" fill="#ECECF2"/>
</svg>
