<svg width="14" height="19" viewBox="0 0 14 19" fill="none" xmlns="http://www.w3.org/2000/svg">
<path d="M7 0.8125C6.61328 0.8125 6.28385 0.948568 6.01172 1.2207C5.75391 1.47852 5.625 1.80078 5.625 2.1875L5.64648 2.35938C4.85872 2.5599 4.14974 2.91797 3.51953 3.43359C2.88932 3.94922 2.39518 4.57943 2.03711 5.32422C1.67904 6.05469 1.5 6.84245 1.5 7.6875V13.875C1.5 14.0755 1.43555 14.2402 1.30664 14.3691C1.17773 14.498 1.01302 14.5625 0.8125 14.5625H0.125V15.9375H5.06641C4.98047 16.181 4.9375 16.4102 4.9375 16.625C4.9375 17.1836 5.13802 17.6634 5.53906 18.0645C5.95443 18.4798 6.44141 18.6875 7 18.6875C7.55859 18.6875 8.03841 18.4798 8.43945 18.0645C8.85482 17.6634 9.0625 17.1836 9.0625 16.625C9.0625 16.4102 9.01953 16.181 8.93359 15.9375H13.875V14.5625H13.1875C12.987 14.5625 12.8223 14.498 12.6934 14.3691C12.5645 14.2402 12.5 14.0755 12.5 13.875V7.88086C12.5 7.03581 12.321 6.23372 11.9629 5.47461C11.6191 4.70117 11.1322 4.04232 10.502 3.49805C9.87174 2.95378 9.1556 2.57422 8.35352 2.35938L8.375 2.1875C8.375 1.80078 8.23893 1.47852 7.9668 1.2207C7.70898 0.948568 7.38672 0.8125 7 0.8125ZM6.69922 3.5625C6.74219 3.5625 6.80664 3.5625 6.89258 3.5625H7.12891C7.85938 3.59115 8.53255 3.80599 9.14844 4.20703C9.76432 4.59375 10.2441 5.11654 10.5879 5.77539C10.946 6.43424 11.125 7.13607 11.125 7.88086V13.875C11.125 14.0898 11.168 14.319 11.2539 14.5625H2.74609C2.83203 14.319 2.875 14.0898 2.875 13.875V7.6875C2.875 6.97135 3.03971 6.3125 3.36914 5.71094C3.71289 5.09505 4.17839 4.60091 4.76562 4.22852C5.35286 3.8418 5.9974 3.61979 6.69922 3.5625ZM7 15.9375C7.20052 15.9375 7.36523 16.002 7.49414 16.1309C7.62305 16.2598 7.6875 16.4245 7.6875 16.625C7.6875 16.8112 7.62305 16.9759 7.49414 17.1191C7.36523 17.248 7.20052 17.3125 7 17.3125C6.8138 17.3125 6.64909 17.248 6.50586 17.1191C6.37695 16.9759 6.3125 16.8112 6.3125 16.625C6.3125 16.4245 6.37695 16.2598 6.50586 16.1309C6.64909 16.002 6.8138 15.9375 7 15.9375Z" fill="#8A8FB9"/>
</svg>
