<svg width="34" height="38" viewBox="0 0 34 38" fill="none" xmlns="http://www.w3.org/2000/svg">
<path fill-rule="evenodd" clip-rule="evenodd" d="M32.3169 27.9024V12.4551L21.2832 1.42139H10.2494C9.0789 1.42139 7.95631 1.88638 7.12862 2.71407C6.30093 3.54176 5.83594 4.66435 5.83594 5.83488V27.9024C5.83594 29.0729 6.30093 30.1955 7.12862 31.0232C7.95631 31.8509 9.0789 32.3159 10.2494 32.3159H27.9034C29.074 32.3159 30.1965 31.8509 31.0242 31.0232C31.8519 30.1955 32.3169 29.0729 32.3169 27.9024Z" stroke="#8A8FB9" stroke-width="2" stroke-linecap="round" stroke-linejoin="round"/>
<path d="M19.0781 10.2483V19.0753H25.6984" stroke="#8A8FB9" stroke-width="2" stroke-linecap="round" stroke-linejoin="round"/>
<path d="M5.83537 5.83496C4.66484 5.83496 3.54225 6.29995 2.71456 7.12764C1.88687 7.95533 1.42188 9.07792 1.42188 10.2485V32.3159C1.42188 33.4865 1.88687 34.609 2.71456 35.4367C3.54225 36.2644 4.66484 36.7294 5.83537 36.7294H23.4894C24.6599 36.7294 25.7825 36.2644 26.6102 35.4367C27.4379 34.609 27.9028 33.4865 27.9028 32.3159" stroke="#8A8FB9" stroke-width="2" stroke-linecap="round" stroke-linejoin="round"/>
</svg>
