<svg width="83" height="84" viewBox="0 0 83 84" fill="none" xmlns="http://www.w3.org/2000/svg">
<circle cx="41.5" cy="42" r="41.5" fill="#6BC25A"/>
<path d="M28.5452 43.2005C27.8514 42.6265 26.9472 42.3151 26.0141 42.3287C25.081 42.3423 24.188 42.6799 23.5142 43.2738C22.8405 43.8677 22.4358 44.6739 22.3813 45.5307C22.3268 46.3875 22.6267 47.2316 23.2206 47.8937L31.4294 55.8176C31.7731 56.1492 32.1861 56.4135 32.6436 56.5947C33.1011 56.7759 33.5936 56.8701 34.0917 56.8719C34.5872 56.8746 35.0781 56.7856 35.5355 56.6103C35.9928 56.4351 36.4072 56.1771 36.754 55.8516L61.8242 32.0457C62.1641 31.7241 62.4318 31.3442 62.612 30.9274C62.7923 30.5107 62.8815 30.0654 62.8746 29.617C62.8678 29.1686 62.7649 28.7258 62.572 28.3139C62.3791 27.902 62.0998 27.5291 61.7502 27.2165C61.4006 26.9039 60.9874 26.6576 60.5344 26.4919C60.0813 26.3261 59.5971 26.244 59.1096 26.2503C58.622 26.2567 58.1405 26.3512 57.6927 26.5287C57.2449 26.7061 56.8394 26.963 56.4995 27.2845L34.1287 48.5738L28.5452 43.2005Z" fill="#ECECF2"/>
</svg>
