<svg width="19" height="19" viewBox="0 0 19 19" fill="none" xmlns="http://www.w3.org/2000/svg">
<path fill-rule="evenodd" clip-rule="evenodd" d="M0.530659 15.9055C-0.176947 16.6131 -0.176947 17.7604 0.530659 18.468C1.23827 19.1756 2.38552 19.1756 3.09313 18.468L9.49918 12.0619L15.9065 18.4693C16.6141 19.1769 17.7614 19.1769 18.469 18.4693C19.1766 17.7617 19.1766 16.6144 18.469 15.9068L12.0616 9.49946L18.4679 3.09318C19.1756 2.38557 19.1756 1.23831 18.4679 0.530709C17.7603 -0.176897 16.6131 -0.176894 15.9055 0.530711L9.49918 6.937L3.09418 0.532006C2.38657 -0.1756 1.23932 -0.1756 0.53171 0.532006C-0.175897 1.23961 -0.175895 2.38687 0.531711 3.09447L6.93671 9.49946L0.530659 15.9055Z" fill="white"/>
</svg>
