<svg width="11" height="15" viewBox="0 0 11 15" fill="none" xmlns="http://www.w3.org/2000/svg">
<path d="M1.94 15V12.28H0.2V10.98H1.94V9.2H0.2V7.68H1.94V0.719999H5.7C7.44667 0.719999 8.74 1.07333 9.58 1.78C10.4333 2.48667 10.86 3.51333 10.86 4.86C10.86 6.22 10.4 7.28667 9.48 8.06C8.56 8.82 7.20667 9.2 5.42 9.2H3.74V10.98H7.04V12.28H3.74V15H1.94ZM5.16 7.68C6.37333 7.68 7.31333 7.48 7.98 7.08C8.66 6.68 9 5.96 9 4.92C9 4.01333 8.72 3.34 8.16 2.9C7.6 2.46 6.72667 2.24 5.54 2.24H3.74V7.68H5.16Z" fill="#8181A5"/>
</svg>
