<svg width="15" height="17" viewBox="0 0 15 17" fill="none" xmlns="http://www.w3.org/2000/svg">
<path d="M8.86719 14.416H5.45117V16.5H2.22852V14.416H0.0478516V11.8057H2.22852V10.9893H0.0478516V8.37891H2.22852V0.859375H8.30859C9.48307 0.859375 10.5143 1.07064 11.4023 1.49316C12.2904 1.91569 12.9779 2.52083 13.4648 3.30859C13.959 4.08919 14.2061 4.98079 14.2061 5.9834C14.2061 7.53027 13.6797 8.7513 12.627 9.64648C11.5814 10.5417 10.124 10.9893 8.25488 10.9893H5.45117V11.8057H8.86719V14.416ZM5.45117 8.37891H8.2334C10.0381 8.37891 10.9404 7.58757 10.9404 6.00488C10.9404 5.25293 10.7113 4.64779 10.2529 4.18945C9.7946 3.72396 9.16081 3.48763 8.35156 3.48047H5.45117V8.37891Z" fill="#7874FE"/>
</svg>
