<svg width="20" height="20" viewBox="0 0 20 20" fill="none" xmlns="http://www.w3.org/2000/svg">
<path d="M10.7184 8.7999C10.2384 8.6799 9.75844 8.4399 9.39844 8.0799C9.03844 7.9599 8.91844 7.5999 8.91844 7.3599C8.91844 7.1199 9.03844 6.7599 9.27844 6.6399C9.63844 6.3999 9.99844 6.1599 10.3584 6.2799C11.0784 6.2799 11.6784 6.6399 12.0384 7.1199L13.1184 5.6799C12.7584 5.3199 12.3984 5.0799 12.0384 4.8399C11.6784 4.5999 11.1984 4.4799 10.7184 4.4799V2.7999H9.27844V4.4799C8.67844 4.5999 8.07844 4.9599 7.59844 5.4399C7.11844 6.0399 6.75844 6.7599 6.87844 7.4799C6.87844 8.1999 7.11844 8.9199 7.59844 9.3999C8.19844 9.9999 9.03844 10.3599 9.75844 10.7199C10.1184 10.8399 10.5984 11.0799 10.9584 11.3199C11.1984 11.5599 11.3184 11.9199 11.3184 12.2799C11.3184 12.6399 11.1984 12.9999 10.9584 13.3599C10.5984 13.7199 10.1184 13.8399 9.75844 13.8399C9.27844 13.8399 8.67844 13.7199 8.31844 13.3599C7.95844 13.1199 7.59844 12.7599 7.35844 12.3999L6.15844 13.7199C6.51844 14.1999 6.87844 14.5599 7.35844 14.9199C7.95844 15.2799 8.67844 15.6399 9.39844 15.6399V17.1999H10.7184V15.3999C11.4384 15.2799 12.0384 14.9199 12.5184 14.4399C13.1184 13.8399 13.4784 12.8799 13.4784 12.0399C13.4784 11.3199 13.2384 10.4799 12.6384 9.9999C12.0384 9.3999 11.4384 9.0399 10.7184 8.7999ZM9.99844 0.399902C4.71844 0.399902 0.398438 4.7199 0.398438 9.9999C0.398438 15.2799 4.71844 19.5999 9.99844 19.5999C15.2784 19.5999 19.5984 15.2799 19.5984 9.9999C19.5984 4.7199 15.2784 0.399902 9.99844 0.399902ZM9.99844 18.2799C5.43844 18.2799 1.71844 14.5599 1.71844 9.9999C1.71844 5.4399 5.43844 1.7199 9.99844 1.7199C14.5584 1.7199 18.2784 5.4399 18.2784 9.9999C18.2784 14.5599 14.5584 18.2799 9.99844 18.2799Z" fill="#8A8FB9"/>
</svg>
