<svg width="20" height="15" viewBox="0 0 20 15" fill="none" xmlns="http://www.w3.org/2000/svg">
<path d="M10 0.5625C9.1263 0.5625 8.28125 0.755859 7.46484 1.14258C6.72005 1.50065 6.05404 2.00911 5.4668 2.66797L5.35938 2.64648C5.28776 2.63216 5.23047 2.625 5.1875 2.625C4.6862 2.625 4.22786 2.75391 3.8125 3.01172C3.39714 3.25521 3.06055 3.58464 2.80273 4C2.55924 4.41536 2.4375 4.8737 2.4375 5.375C1.82161 5.7474 1.32747 6.22721 0.955078 6.81445C0.568359 7.43034 0.375 8.10352 0.375 8.83398C0.375 9.56445 0.561198 10.2448 0.933594 10.875C1.30599 11.5052 1.80729 12.0065 2.4375 12.3789C3.06771 12.7513 3.75521 12.9375 4.5 12.9375H7.9375V11.5625H4.5C3.9987 11.5625 3.5332 11.4408 3.10352 11.1973C2.68815 10.9538 2.35872 10.6243 2.11523 10.209C1.87174 9.7793 1.75 9.3138 1.75 8.8125C1.75 8.25391 1.90039 7.74544 2.20117 7.28711C2.51628 6.82878 2.92448 6.49219 3.42578 6.27734L3.89844 6.08398L3.8125 5.375C3.8125 4.98828 3.94141 4.66602 4.19922 4.4082C4.47135 4.13607 4.80078 4 5.1875 4C5.28776 4 5.39518 4.01432 5.50977 4.04297L5.93945 4.15039L6.19727 3.80664C6.64128 3.23372 7.19271 2.78255 7.85156 2.45312C8.52474 2.10938 9.23372 1.9375 9.97852 1.9375C10.7233 1.9375 11.418 2.09505 12.0625 2.41016C12.7214 2.72526 13.2728 3.16211 13.7168 3.7207C14.1751 4.26497 14.4902 4.88086 14.6621 5.56836L14.791 6.10547L15.3711 6.08398C15.6289 6.06966 15.6719 6.0625 15.5 6.0625C16.0013 6.0625 16.4596 6.18424 16.875 6.42773C17.3047 6.67122 17.6413 7.00781 17.8848 7.4375C18.1283 7.85286 18.25 8.3112 18.25 8.8125C18.25 9.3138 18.1283 9.7793 17.8848 10.209C17.6413 10.6243 17.3047 10.9538 16.875 11.1973C16.4596 11.4408 16.0013 11.5625 15.5 11.5625H12.0625V12.9375H15.5C16.2448 12.9375 16.9323 12.7513 17.5625 12.3789C18.1927 12.0065 18.694 11.5052 19.0664 10.875C19.4388 10.2448 19.625 9.55729 19.625 8.8125C19.625 8.09635 19.4531 7.4375 19.1094 6.83594C18.7656 6.23438 18.3001 5.75456 17.7129 5.39648C17.1257 5.02409 16.4811 4.80924 15.7793 4.75195C15.4928 3.94987 15.0632 3.23372 14.4902 2.60352C13.9316 1.95898 13.2728 1.46484 12.5137 1.12109C11.7259 0.748698 10.888 0.5625 10 0.5625ZM10 6.0625L7.25 8.8125H9.3125V14.3125H10.6875V8.8125H12.75L10 6.0625Z" fill="#8181A5"/>
</svg>
