<svg width="38" height="29" viewBox="0 0 38 29" fill="none" xmlns="http://www.w3.org/2000/svg">
<path d="M19.5003 14.8666C20.3896 14.0968 21.1029 13.1447 21.5918 12.075C22.0807 11.0052 22.3337 9.84277 22.3337 8.66659C22.3337 6.45645 21.4557 4.33683 19.8929 2.77403C18.3301 1.21123 16.2105 0.333252 14.0003 0.333252C11.7902 0.333252 9.67057 1.21123 8.10777 2.77403C6.54497 4.33683 5.66699 6.45645 5.66699 8.66659C5.66698 9.84277 5.92 11.0052 6.40887 12.075C6.89774 13.1447 7.61103 14.0968 8.50033 14.8666C6.16723 15.9231 4.18777 17.6291 2.79863 19.7808C1.40948 21.9325 0.669445 24.4388 0.666992 26.9999C0.666992 27.4419 0.842587 27.8659 1.15515 28.1784C1.46771 28.491 1.89163 28.6666 2.33366 28.6666C2.77569 28.6666 3.19961 28.491 3.51217 28.1784C3.82473 27.8659 4.00033 27.4419 4.00033 26.9999C4.00033 24.3478 5.05389 21.8042 6.92926 19.9289C8.80462 18.0535 11.3482 16.9999 14.0003 16.9999C16.6525 16.9999 19.196 18.0535 21.0714 19.9289C22.9468 21.8042 24.0003 24.3478 24.0003 26.9999C24.0003 27.4419 24.1759 27.8659 24.4885 28.1784C24.801 28.491 25.225 28.6666 25.667 28.6666C26.109 28.6666 26.5329 28.491 26.8455 28.1784C27.1581 27.8659 27.3337 27.4419 27.3337 26.9999C27.3312 24.4388 26.5912 21.9325 25.202 19.7808C23.8129 17.6291 21.8334 15.9231 19.5003 14.8666ZM14.0003 13.6666C13.0114 13.6666 12.0447 13.3733 11.2225 12.8239C10.4002 12.2745 9.75937 11.4936 9.38093 10.58C9.00249 9.66637 8.90347 8.66104 9.0964 7.69113C9.28933 6.72123 9.76553 5.83032 10.4648 5.13105C11.1641 4.43179 12.055 3.95559 13.0249 3.76266C13.9948 3.56973 15.0001 3.66875 15.9137 4.04719C16.8274 4.42563 17.6083 5.06649 18.1577 5.88873C18.7071 6.71098 19.0003 7.67768 19.0003 8.66659C19.0003 9.99267 18.4735 11.2644 17.5359 12.2021C16.5982 13.1398 15.3264 13.6666 14.0003 13.6666ZM30.2337 14.1999C31.3003 12.9988 31.997 11.515 32.24 9.92715C32.483 8.33929 32.2619 6.71504 31.6033 5.24992C30.9447 3.7848 29.8767 2.54124 28.5278 1.66896C27.1789 0.796669 25.6067 0.332823 24.0003 0.333252C23.5583 0.333252 23.1344 0.508847 22.8218 0.821408C22.5093 1.13397 22.3337 1.55789 22.3337 1.99992C22.3337 2.44195 22.5093 2.86587 22.8218 3.17843C23.1344 3.49099 23.5583 3.66659 24.0003 3.66659C25.3264 3.66659 26.5982 4.19337 27.5359 5.13105C28.4735 6.06873 29.0003 7.3405 29.0003 8.66659C28.998 9.54199 28.7658 10.4014 28.3271 11.159C27.8884 11.9165 27.2585 12.5456 26.5003 12.9833C26.2532 13.1258 26.0468 13.3294 25.9009 13.5745C25.755 13.8196 25.6745 14.0981 25.667 14.3833C25.66 14.6662 25.7252 14.9462 25.8564 15.197C25.9876 15.4478 26.1806 15.661 26.417 15.8166L27.067 16.2499L27.2837 16.3666C29.2927 17.3195 30.9875 18.8266 32.1686 20.7104C33.3497 22.5943 33.9679 24.7765 33.9503 26.9999C33.9503 27.4419 34.1259 27.8659 34.4385 28.1784C34.751 28.491 35.175 28.6666 35.617 28.6666C36.059 28.6666 36.4829 28.491 36.7955 28.1784C37.1081 27.8659 37.2837 27.4419 37.2837 26.9999C37.2973 24.4423 36.6567 21.9237 35.4228 19.6834C34.1889 17.443 32.4026 15.5554 30.2337 14.1999Z" fill="#6B68BC"/>
</svg>
