<svg width="25" height="25" viewBox="0 0 25 25" fill="none" xmlns="http://www.w3.org/2000/svg">
<path d="M17.1418 13.3867C18.3733 12.423 19.2722 11.1016 19.7135 9.60626C20.1547 8.1109 20.1163 6.51594 19.6036 5.0433C19.0909 3.57065 18.1294 2.29354 16.8529 1.38964C15.5764 0.485738 14.0484 0 12.4814 0C10.9144 0 9.3863 0.485738 8.1098 1.38964C6.8333 2.29354 5.87182 3.57065 5.35914 5.0433C4.84645 6.51594 4.80805 8.1109 5.24928 9.60626C5.69051 11.1016 6.58943 12.423 7.82097 13.3867C5.7107 14.2275 3.86941 15.622 2.49341 17.4217C1.1174 19.2214 0.258263 21.3587 0.00757703 23.6058C-0.0105689 23.7698 0.0039549 23.9358 0.0503188 24.0943C0.0966828 24.2528 0.173979 24.4006 0.277794 24.5294C0.487459 24.7894 0.792413 24.956 1.12557 24.9925C1.45873 25.0289 1.7928 24.9322 2.05429 24.7237C2.31578 24.5152 2.48327 24.2119 2.51992 23.8806C2.79576 21.4385 3.96664 19.1831 5.80886 17.5452C7.65107 15.9074 10.0355 15.002 12.5065 15.002C14.9775 15.002 17.3619 15.9074 19.2041 17.5452C21.0463 19.1831 22.2172 21.4385 22.4931 23.8806C22.5272 24.1876 22.6745 24.4711 22.9065 24.6764C23.1385 24.8817 23.4387 24.9943 23.7492 24.9925H23.8874C24.2167 24.9548 24.5177 24.7892 24.7247 24.5318C24.9318 24.2744 25.0282 23.946 24.9928 23.6182C24.741 21.3648 23.8772 19.222 22.4941 17.4196C21.1111 15.6171 19.2608 14.223 17.1418 13.3867ZM12.4814 12.4997C11.4876 12.4997 10.5161 12.2066 9.6898 11.6575C8.86349 11.1084 8.21947 10.328 7.83916 9.41486C7.45885 8.50175 7.35935 7.497 7.55323 6.52765C7.74711 5.55831 8.22566 4.66791 8.92838 3.96905C9.63109 3.27019 10.5264 2.79426 11.5011 2.60144C12.4758 2.40863 13.4861 2.50759 14.4042 2.88581C15.3224 3.26403 16.1071 3.90452 16.6592 4.72629C17.2114 5.54807 17.5061 6.51421 17.5061 7.50254C17.5061 8.82786 16.9767 10.0989 16.0344 11.036C15.092 11.9732 13.814 12.4997 12.4814 12.4997Z" fill="white"/>
</svg>
