<svg width="15" height="15" viewBox="0 0 15 15" fill="none" xmlns="http://www.w3.org/2000/svg">
<path d="M10.3378 8.29929C11.0202 7.76242 11.5182 7.02621 11.7627 6.19309C12.0072 5.35996 11.9859 4.47135 11.7018 3.65088C11.4178 2.83041 10.885 2.11888 10.1778 1.61529C9.47047 1.11169 8.6238 0.841064 7.75555 0.841064C6.88729 0.841064 6.04063 1.11169 5.33334 1.61529C4.62605 2.11888 4.09332 2.83041 3.80925 3.65088C3.52518 4.47135 3.5039 5.35996 3.74838 6.19309C3.99286 7.02621 4.49093 7.76242 5.1733 8.29929C4.00404 8.76775 2.98382 9.54472 2.2214 10.5474C1.45898 11.5501 0.982942 12.7408 0.844042 13.9928C0.833988 14.0842 0.842035 14.1766 0.867725 14.2649C0.893414 14.3532 0.936242 14.4356 0.993765 14.5073C1.10994 14.6522 1.27891 14.745 1.4635 14.7653C1.6481 14.7856 1.8332 14.7318 1.97809 14.6156C2.12298 14.4994 2.21578 14.3305 2.23609 14.1459C2.38892 12.7853 3.03769 11.5287 4.05843 10.6162C5.07917 9.70371 6.40032 9.19927 7.76947 9.19927C9.13862 9.19927 10.4598 9.70371 11.4805 10.6162C12.5012 11.5287 13.15 12.7853 13.3028 14.1459C13.3218 14.3169 13.4034 14.4749 13.5319 14.5893C13.6604 14.7037 13.8268 14.7664 13.9989 14.7653H14.0754C14.2579 14.7443 14.4246 14.6521 14.5394 14.5087C14.6541 14.3653 14.7075 14.1823 14.6879 13.9997C14.5484 12.7442 14.0698 11.5504 13.3034 10.5462C12.5371 9.54199 11.5119 8.76527 10.3378 8.29929ZM7.75555 7.80512C7.20491 7.80512 6.66663 7.64183 6.20879 7.33591C5.75095 7.02999 5.3941 6.59518 5.18338 6.08645C4.97266 5.57773 4.91753 5.01794 5.02495 4.47788C5.13238 3.93782 5.39754 3.44174 5.7869 3.05238C6.17626 2.66301 6.67234 2.39786 7.2124 2.29043C7.75246 2.18301 8.31225 2.23814 8.82097 2.44886C9.3297 2.65958 9.76451 3.01643 10.0704 3.47427C10.3764 3.93211 10.5396 4.47038 10.5396 5.02103C10.5396 5.75941 10.2463 6.46756 9.7242 6.98968C9.20208 7.51179 8.49393 7.80512 7.75555 7.80512Z" fill="white"/>
</svg>
