<svg width="19" height="16" viewBox="0 0 19 16" fill="none" xmlns="http://www.w3.org/2000/svg">
<path d="M12.1131 5.90484L16.078 3.52045C16.2107 3.44066 16.3582 3.403 16.5065 3.41102C16.6547 3.41905 16.7988 3.47252 16.9249 3.56634C17.0512 3.66016 17.1554 3.79124 17.2277 3.94712C17.3 4.103 17.338 4.27852 17.3381 4.45702V11.5432C17.338 11.7217 17.3 11.8971 17.2277 12.053C17.1554 12.2089 17.0512 12.34 16.9249 12.4338C16.7988 12.5276 16.6547 12.5811 16.5065 12.5891C16.3582 12.5971 16.2107 12.5595 16.078 12.4797L12.1131 10.0953V5.90484ZM3.40475 14.2858H10.3715C10.8333 14.2858 11.2763 14.065 11.6029 13.6721C11.9295 13.2792 12.1131 12.7462 12.1131 12.1906V3.80959C12.1131 3.2539 11.9295 2.72097 11.6029 2.32804C11.2763 1.9351 10.8333 1.71436 10.3715 1.71436H3.40475C2.94283 1.71436 2.49984 1.9351 2.17321 2.32804C1.84658 2.72097 1.66309 3.2539 1.66309 3.80959V12.1906C1.66309 12.7462 1.84658 13.2792 2.17321 13.6721C2.49984 14.065 2.94283 14.2858 3.40475 14.2858Z" stroke="#9A9CA5" stroke-width="1.5" stroke-linecap="round" stroke-linejoin="round"/>
</svg>
