<svg width="455" height="370" fill="none" xmlns="http://www.w3.org/2000/svg"><path d="M422.331 90.405c11.348 35.252 20.383 67.692 27.163 110.485 6.781 42.792 11.225 95.9-13.757 112.455-24.92 16.475-79.331-3.635-116.982-21.508-37.614-17.746-58.546-33.307-77.554-47.366-19.128-14.018-36.493-26.631-59.219-46.371-22.807-19.79-50.981-46.698-56.089-77.199-5.03-30.458 12.889-64.578 40.791-78.642 27.902-14.064 65.758-8.255 103.665-15.407 37.82-7.195 75.797-27.554 101.486-18.659 25.774 8.937 39.231 47.002 50.496 82.212z" fill="#E7EAFC" fill-opacity=".45"/><path d="M114.582 167.11c1.44-2.72 2.24-4.49 3.26-6.12 5.71-9.11 4.49-19.9-3.15-27.3a21.386 21.386 0 00-27.057-2.081 21.392 21.392 0 00-7.323 26.131c1.2 2.87 2.65 5.62 4.43 9.37h-12.93c-8.81 0-17.62.06-26.43 0-6-.06-10-3.46-10.13-9.34-.23-14.28-.07-28.56-.07-43.73a43.876 43.876 0 015.64 2.58c8 5.21 17.77 5.5 24.84.6A21.783 21.783 0 0074.532 94a20.78 20.78 0 00-18.94-15.86c-4.39-.24-8.95 1.71-13.35 3-2.14.6-4.09 1.88-6.85 3.2-.12-2.51-.27-4.25-.27-6 0-10.64-.07-21.28 0-31.92 0-7.18 3.58-10.73 10.74-10.76 14.79-.08 29.57 0 45.78 0-2.11-4.79-3.84-8.92-5.74-13-5-10.77 2.26-22.68 14-22.66 12.11 0 19.16 12.59 13.36 23.62-1.82 3.45-3.19 7.13-5.18 11.63 2.88.18 4.59.37 6.31.37h39.39c9.92 0 12.84 2.89 12.85 12.65v43.57c5.58-2.31 10.36-4.12 15-6.27 7.85-3.63 16.31-1.6 20.65 5.19a15.602 15.602 0 012.421 9.97 15.603 15.603 0 01-4.291 9.32c-5.22 5.32-12.91 6-19.7 2.47-4.09-2.13-8.65-3.37-14.07-5.41v48.97c0 7.39-3.59 11-11 11-13.3.07-26.58.03-41.06.03z" fill="url(#paint0_linear_663_6706)"/><path d="M245.532 165.5c2.55 6 4.46 10.71 6.49 15.33 4.29 9.78-.46 20.26-10.23 22.47a15.331 15.331 0 01-16.26-6.12c-3.91-5.61-4.06-11.5-.57-17.33 2.6-4.34 4.43-8.75 3.63-14.35h-44.13a52.732 52.732 0 01-5.48-.1c-5.06-.54-8.25-3.81-8.28-8.87-.1-14.12 0-28.24 0-43.33 2.62 1.4 4.77 2.38 6.75 3.65a21.493 21.493 0 0027-3c6.95-6.84 8.15-18 2.86-26.63a21.408 21.408 0 00-25.33-8.54c-3.54 1.33-6.88 3.19-10.87 5.07-.16-1.75-.37-3.12-.38-4.49 0-11.8-.05-23.6 0-35.4 0-5.87 3.2-9.59 9-9.68 13.95-.23 27.92-.07 41.88 0 .65.159 1.276.404 1.86.73-1 1.81-1.79 3.54-2.8 5.14-6.26 10-5.22 20.7 2.78 28.13a21.39 21.39 0 0027.84 1.39c8.57-6.63 10.71-17.53 5.49-27.76-1.13-2.2-2.2-4.44-3.61-7.3 1.86-.17 3.25-.4 4.63-.4h32.41c8.38 0 11.84 3.49 11.87 11.81v44.63c4.79-2.1 8.79-3.78 12.73-5.61 6.47-3 13.57-1.87 18.36 3.07a16.002 16.002 0 012.57 18c-4 8-14.1 10.62-22.25 6-3.24-1.84-6.85-3-11.41-5v45.8c0 9.45-3.15 12.64-12.45 12.66h-37.39l-6.71.03z" fill="url(#paint1_linear_663_6706)"/><path d="M325.322 333.05c4.44 3.11 8.23 5.68 11.94 8.37 5.34 3.86 7.67 9.18 6.51 15.63a14.74 14.74 0 01-11.13 12.19c-6.14 1.75-11.95.3-15.68-4.74-2.29-3.1-3-7.47-4-11.38-.91-3.57-1.27-7.28-2-11.72-13.74 8.18-26.41 15.7-39.06 23.26-8.58 5.12-12.76 3.91-17.82-4.78-6.69-11.47-13.6-22.82-20.42-34.21a26.425 26.425 0 00-1.72-2.06c-2.7 3.23-5.27 6.26-7.78 9.35-2 2.43-3.53 5.34-5.87 7.32-5.08 4.27-12.74 4.3-18.16.59a15.903 15.903 0 01-6.15-17.64c1.71-6.14 8.07-10.76 15.09-11 8.44-.24 9.8-.64 14.11-4.26a54042.53 54042.53 0 00-22.09-37.12 38.914 38.914 0 01-3.3-6.11c-1.46-4-.85-8.14 2.64-10.35 12.29-7.8 24.88-15.14 38.19-23.15.23 3.3.55 5.56.53 7.82-.13 12.48 8.32 21.82 20.47 22.52 11.3.66 21.63-8.3 22.49-20.18a20.215 20.215 0 00-1.743-9.988 20.21 20.21 0 00-6.377-7.882c-3.07-2.42-6.44-4.44-10.41-7.14 12.53-7.37 24.24-14.57 36.27-21.17 4.24-2.32 8.78-.63 11.32 3.5 7.56 12.27 14.8 24.73 22.67 38-3 .19-5.24.47-7.45.46-10.7-.08-20.2 7-22.09 16.54-2.15 10.93 3.13 20.76 13.42 24.94 9.46 3.84 19.89.25 26-9 1.54-2.33 3-4.7 5.06-7.86 5.12 8.53 9.86 16.41 14.58 24.3 1.46 2.42 2.86 4.87 4.31 7.29 4.41 7.33 3.26 12.3-4 16.61a6753.176 6753.176 0 01-35.14 20.92c-.69.42-1.35.9-3.21 2.13z" fill="url(#paint2_linear_663_6706)"/><path d="M166.812 223.67l-7.56-4.26c-10.86-6.1-23.7-2.73-29.83 7.83-5.73 9.86-2.3 22.78 8 29 6.79 4.13 13.91 3.79 21 .49 2.52-1.18 5-2.5 8-4.05.19 1.66.41 2.71.41 3.77 0 11.8.06 23.6 0 35.41 0 7-3.37 10.39-10.37 10.42h-42.79c1.49-2.81 2.51-5 3.76-7a21.35 21.35 0 00-3.9-27.2 21.717 21.717 0 00-27.11-1.42 21.31 21.31 0 00-6.78 26.24c1.3 2.84 2.69 5.65 4.5 9.43h-37.72c-7.62 0-11-3.22-11-10.87-.1-13.13 0-26.26 0-39.4v-6.16c-5 2.25-9.13 4.18-13.3 5.94-10.79 4.56-21.94-2.31-22.12-13.57-.19-12.38 12-19.76 23-14.08 3.61 1.85 7.43 3.3 12.08 5.35.15-3 .31-4.78.32-6.52v-39.4c0-9.45 3.13-12.62 12.46-12.64h43.67c-1.93-5-3.5-9-5.06-13.1-.89-2.32-2.16-4.56-2.57-7a15.331 15.331 0 018.05-16.3 16.428 16.428 0 0118.09 2.67 15.84 15.84 0 013 18.39 100.2 100.2 0 00-4.29 10c-1.25 3.56-.42 5.58 4.1 5.39 7.3-.32 14.63-.11 21.94-.08 36.1.11 31.93-3.79 32.08 32.32-.04 6.47-.06 12.91-.06 20.4z" fill="url(#paint3_linear_663_6706)"/><defs><linearGradient id="paint0_linear_663_6706" x1="0" y1="184.975" x2="370.262" y2="184.975" gradientUnits="userSpaceOnUse"><stop stop-color="#B224EF" stop-opacity=".95"/><stop offset="1" stop-color="#7579FF"/></linearGradient><linearGradient id="paint1_linear_663_6706" x1="0" y1="184.975" x2="370.262" y2="184.975" gradientUnits="userSpaceOnUse"><stop stop-color="#B224EF" stop-opacity=".95"/><stop offset="1" stop-color="#7579FF"/></linearGradient><linearGradient id="paint2_linear_663_6706" x1="0" y1="184.975" x2="370.262" y2="184.975" gradientUnits="userSpaceOnUse"><stop stop-color="#B224EF" stop-opacity=".95"/><stop offset="1" stop-color="#7579FF"/></linearGradient><linearGradient id="paint3_linear_663_6706" x1="0" y1="184.975" x2="370.262" y2="184.975" gradientUnits="userSpaceOnUse"><stop stop-color="#B224EF" stop-opacity=".95"/><stop offset="1" stop-color="#7579FF"/></linearGradient></defs></svg>