<svg width="514" height="357" fill="none" xmlns="http://www.w3.org/2000/svg"><path d="M281.62 113.229c23.211 28.124 43.282 54.518 65.058 91.204 21.775 36.686 45.167 83.661 28.334 107.899-16.806 24.142-73.907 25.542-114.86 22.89-40.873-2.55-65.688-9.17-88.196-15.117-22.602-5.865-43.079-11.087-71.057-20.879-28.068-9.807-63.638-24.174-79.411-50.223-15.686-26.038-11.707-63.777 8.704-86.798 20.412-23.022 57.163-31.481 89.244-51.819 31.985-20.346 59.324-52.794 86.066-54.003 26.834-1.202 52.998 28.73 76.118 56.846z" fill="#E7EAFC" fill-opacity=".29"/><path d="M384.698 153.365c.03 3.078.17 5.015.05 6.934-.679 10.73 5.535 19.635 15.778 22.501a21.39 21.39 0 0018.766-37.526c-2.422-1.951-5.007-3.678-8.359-6.127l11.368-6.161c7.745-4.198 15.462-8.449 23.236-12.594 5.304-2.806 10.441-1.723 13.357 3.385 7.006 12.445 13.67 25.076 20.898 38.413-2.05.286-4.118.426-6.188.419-9.516-.768-18.243 3.632-22.124 11.309a21.778 21.778 0 003.265 24.641 20.78 20.78 0 0024.209 4.919c3.974-1.881 7.054-5.768 10.308-8.999 1.595-1.547 2.7-3.601 4.497-6.077 1.302 2.15 2.263 3.608 3.097 5.146 5.07 9.355 10.201 18.676 15.209 28.064 3.421 6.312 1.965 11.139-4.315 14.577-12.965 7.118-25.998 14.09-40.249 21.814 4.137 3.206 7.626 6.013 11.241 8.694 9.527 7.087 8.82 21.017-1.512 26.593-10.646 5.771-22.844-1.939-23-14.4-.044-3.9-.593-7.789-.987-12.693-2.618 1.214-4.212 1.862-5.724 2.681l-34.631 18.769c-8.722 4.727-12.666 3.577-17.325-4.999l-20.761-38.306c-3.805 4.69-7.145 8.559-10.2 12.66-5.172 6.932-13.577 9.178-20.628 5.277a15.614 15.614 0 01-7.548-17.851c2.055-7.164 8.492-11.426 16.143-11.558 4.611-.076 9.211-1.159 14.948-1.948l-4.798-8.853-18.535-34.2c-3.522-6.498-2.085-11.382 4.429-14.913 11.66-6.399 23.355-12.691 36.085-19.591z" fill="url(#paint0_linear_663_6715)"/><path d="M270.337 217.177c-5.101-4.06-9.025-7.291-13.011-10.386-8.432-6.554-9.249-18.031-1.713-24.629a15.327 15.327 0 0117.212-2.367c6.111 3.069 9.049 8.176 8.759 14.964-.218 5.055.274 9.804 3.646 14.346l38.798-21.027a52.595 52.595 0 014.866-2.523c4.706-1.937 9.068-.582 11.506 3.853 6.816 12.366 13.456 24.828 20.646 38.094-2.971.018-5.328.181-7.674.008a21.49 21.49 0 00-22.308 15.502c-2.851 9.326 1.411 19.709 10.174 24.776a21.413 21.413 0 0026.339-4.561c2.479-2.856 4.529-6.083 7.141-9.637.975 1.462 1.812 2.566 2.474 3.766 5.622 10.374 11.289 20.725 16.867 31.123 2.797 5.161 1.756 9.956-3.3 12.799-12.155 6.849-24.513 13.365-36.82 19.955a7.413 7.413 0 01-1.983.245c.017-2.068-.113-3.965.012-5.853.739-11.775-5.274-20.687-15.847-23.407a21.393 21.393 0 00-25.139 12.043c-4.375 9.913-1.063 20.516 8.401 27.022 2.041 1.396 4.049 2.856 6.652 4.698-1.555 1.036-2.667 1.9-3.88 2.558l-28.494 15.443c-7.368 3.993-12.073 2.573-16.064-4.727l-18.059-33.321-3.206-5.917c-3.211 4.129-5.927 7.512-8.519 10.998-4.259 5.72-11.04 8.11-17.605 6.049a15.996 15.996 0 01-10.836-14.601c-.295-8.939 7.336-16.055 16.703-15.877 3.725.074 7.452-.626 12.414-1.04l-3.05-5.627-18.773-34.64c-4.503-8.308-3.254-12.614 4.913-17.063l32.873-17.815 5.885-3.224z" fill="url(#paint1_linear_663_6715)"/><path d="M120.351 107.889c-5.385-.619-9.942-1.072-14.486-1.669-6.534-.85-11.117-4.417-13.17-10.64a14.74 14.74 0 013.976-16.02c4.565-4.465 10.364-5.958 16.045-3.305 3.49 1.635 6.196 5.139 8.939 8.1 2.501 2.705 4.585 5.795 7.342 9.35 8.183-13.738 15.739-26.387 23.258-39.06 5.104-8.59 9.355-9.518 17.945-4.29 11.347 6.897 22.83 13.583 34.253 20.348a26.51 26.51 0 002.494.991c.835-4.126 1.651-8.015 2.385-11.927.6-3.09.559-6.377 1.673-9.233 2.431-6.175 9.152-9.85 15.685-9.172a15.9 15.9 0 0113.812 12.579c1.422 6.213-1.968 13.305-8.026 16.86-7.306 4.233-8.311 5.233-10.375 10.47a57828.802 57828.802 0 0037.108 22.109 38.922 38.922 0 015.813 3.799c3.19 2.822 4.626 6.752 2.611 10.358-7.089 12.714-14.66 25.166-22.546 38.55-1.774-2.792-3.132-4.626-4.192-6.623-5.832-11.034-17.712-15.219-28.727-10.045-10.249 4.804-15.062 17.604-10.157 28.458a20.197 20.197 0 0015.653 11.842c3.853.665 7.778.835 12.555 1.317-7.505 12.45-14.369 24.36-21.801 35.895-2.622 4.06-7.419 4.737-11.62 2.316-12.493-7.185-24.795-14.69-38.037-22.607 2.547-1.596 4.383-2.91 6.33-3.954 9.446-5.028 14.424-15.779 11.54-25.067-3.317-10.634-12.643-16.761-23.682-15.533-10.147 1.132-17.606 9.258-18.57 20.302-.244 2.782-.398 5.561-.704 9.321-8.566-5.06-16.488-9.729-24.397-14.417-2.437-1.432-4.835-2.919-7.263-4.355-7.37-4.343-8.727-9.261-4.397-16.509a6791.331 6791.331 0 0120.926-35.137c.406-.698.758-1.434 1.807-3.402z" fill="url(#paint2_linear_663_6715)"/><path d="M311.828 128.526l8.677.143c12.454.188 22.137-8.893 22.495-21.098.339-11.399-8.832-21.123-20.852-21.684-7.937-.396-14.035 3.296-18.696 9.575-1.653 2.239-3.205 4.581-5.104 7.373-.958-1.369-1.651-2.187-2.157-3.12-5.622-10.374-11.297-20.72-16.872-31.131-3.335-6.154-1.988-10.74 4.152-14.102l37.62-20.39c.029 3.181.176 5.593.03 7.947a21.353 21.353 0 0016.389 22.055 21.722 21.722 0 0024.511-11.67 21.307 21.307 0 00-6.542-26.3c-2.496-1.877-5.057-3.685-8.449-6.146l8.176-4.431 24.986-13.542c6.7-3.63 11.206-2.41 14.851 4.315 6.344 11.496 12.512 23.088 18.773 34.64l2.936 5.416c3.323-4.36 6.035-8.026 8.862-11.56 7.314-9.15 20.39-8.423 25.914 1.39 6.066 10.794-1.135 23.091-13.512 23.339-4.056.093-8.105.639-13.17 1.052 1.297 2.71 2.005 4.35 2.825 5.885l18.774 34.64c4.503 8.308 3.261 12.586-4.932 17.05l-32.442 17.582-5.952 3.226c4.079 3.476 7.366 6.245 10.691 9.106 1.888 1.616 4.072 2.98 5.595 4.93a15.327 15.327 0 01.689 18.166 16.429 16.429 0 01-17.176 6.272 15.833 15.833 0 01-11.401-14.738 99.809 99.809 0 00-.993-10.836c-.597-3.726-2.289-5.106-6.173-2.785-6.265 3.759-12.81 7.067-19.251 10.524-31.791 17.105-26.266 18.546-43.604-13.129a3209.967 3209.967 0 00-9.668-17.964z" fill="url(#paint3_linear_663_6715)"/><defs><linearGradient id="paint0_linear_663_6715" x1="476.924" y1="83.062" x2="151.397" y2="259.487" gradientUnits="userSpaceOnUse"><stop stop-color="#7028E4"/><stop offset="1" stop-color="#E5B2CA"/></linearGradient><linearGradient id="paint1_linear_663_6715" x1="476.924" y1="83.062" x2="151.397" y2="259.487" gradientUnits="userSpaceOnUse"><stop stop-color="#7028E4"/><stop offset="1" stop-color="#E5B2CA"/></linearGradient><linearGradient id="paint2_linear_663_6715" x1="476.924" y1="83.062" x2="151.397" y2="259.487" gradientUnits="userSpaceOnUse"><stop stop-color="#7028E4"/><stop offset="1" stop-color="#E5B2CA"/></linearGradient><linearGradient id="paint3_linear_663_6715" x1="476.924" y1="83.062" x2="151.397" y2="259.487" gradientUnits="userSpaceOnUse"><stop stop-color="#7028E4"/><stop offset="1" stop-color="#E5B2CA"/></linearGradient></defs></svg>