<svg width="614" height="638" fill="none" xmlns="http://www.w3.org/2000/svg"><circle cx="307" cy="331" r="307" fill="url(#paint0_linear_449_6636)"/><g filter="url(#filter0_d_449_6636)"><path fill-rule="evenodd" clip-rule="evenodd" d="M214.251 277.533c0-47.131 38.207-85.338 85.338-85.338 47.13 0 85.337 38.207 85.337 85.338 0 47.13-38.207 85.337-85.337 85.337-47.131 0-85.338-38.207-85.338-85.337z" fill="#fff"/></g><mask id="a" style="mask-type:alpha" maskUnits="userSpaceOnUse" x="335" y="138" width="119" height="268"><path fill-rule="evenodd" clip-rule="evenodd" d="M372.316 138.024l-37.103 43.04 23.004 200.358 37.103 24.488 57.881-83.111-7.42-129.12-73.465-55.655z" fill="#fff"/></mask><g mask="url(#a)"><path d="M161.09 277.531c0-77.316 62.677-139.993 139.992-139.993 77.316 0 139.993 62.677 139.993 139.993 0 77.315-62.677 139.992-139.993 139.992-77.315 0-139.992-62.677-139.992-139.992z" stroke="#6879E3" stroke-opacity=".55" stroke-width="2"/></g><mask id="b" style="mask-type:alpha" maskUnits="userSpaceOnUse" x="111" y="299" width="377" height="166"><path fill-rule="evenodd" clip-rule="evenodd" d="M468.785 307.215l18.552 5.936-34.135 84.596-98.695 66.786-129.119-6.679-86.08-63.075-28.199-95.727 43.04 4.453 96.469 117.988 138.024-11.131 80.143-103.147z" fill="#fff"/></mask><g mask="url(#b)"><path d="M123.984 277.532c0-97.807 79.289-177.096 177.096-177.096s177.096 79.289 177.096 177.096-79.289 177.096-177.096 177.096-177.096-79.289-177.096-177.096z" stroke="#6879E3" stroke-opacity=".55" stroke-width="2"/></g><mask id="c" style="mask-type:alpha" maskUnits="userSpaceOnUse" x="67" y="61" width="175" height="360"><path fill-rule="evenodd" clip-rule="evenodd" d="M151.181 407.395l-28.199 12.615-55.655-106.115 23.004-140.251 56.397-62.333 80.143-49.719 14.842 44.524-128.378 106.116-11.131 126.893 48.977 68.27z" fill="#fff"/></mask><g mask="url(#c)"><path d="M86.88 277.534c0-118.299 95.9-214.2 214.199-214.2s214.199 95.901 214.199 214.2c0 118.299-95.9 214.199-214.199 214.199s-214.2-95.9-214.2-214.199z" stroke="#6879E3" stroke-opacity=".55" stroke-width="2"/></g><mask id="d" style="mask-type:alpha" maskUnits="userSpaceOnUse" x="74" y="0" width="495" height="265"><path fill-rule="evenodd" clip-rule="evenodd" d="M130.397 75.69l-55.655 63.076 27.828 14.842 102.776-90.532 135.798-6.679L501.43 176.612l29.682 87.563 37.846-18.551-48.234-179.58L294.394 0 130.397 75.69z" fill="#fff"/></mask><g mask="url(#d)"><path d="M49.773 277.532c0-138.791 112.511-251.303 251.302-251.303 138.79 0 251.302 112.512 251.302 251.303 0 138.79-112.512 251.302-251.302 251.302-138.791 0-251.302-112.512-251.302-251.302z" stroke="#6879E3" stroke-opacity=".55" stroke-width="2"/></g><mask id="e" style="mask-type:alpha" maskUnits="userSpaceOnUse" x="171" y="399" width="362" height="147"><path fill-rule="evenodd" clip-rule="evenodd" d="M194.219 482.342l-23.004 37.103 117.988 25.972 193.679-47.492 49.719-72.722-31.167-25.973L363.41 501.636l-169.191-19.294z" fill="#fff"/></mask><g mask="url(#e)"><path d="M49.776 277.531c0-138.79 112.512-251.302 251.303-251.302 138.79 0 251.302 112.512 251.302 251.302 0 138.791-112.512 251.302-251.302 251.302-138.791 0-251.303-112.511-251.303-251.302z" stroke="#6879E3" stroke-opacity=".55" stroke-width="2"/></g><path d="M371.833 394.036a6.421 6.421 0 1112.843 0 6.421 6.421 0 01-12.843 0zm137.278 14.098a6.421 6.421 0 1112.843 0 6.421 6.421 0 01-12.843 0zm-336.156 88.307a6.421 6.421 0 1112.843 0 6.421 6.421 0 01-12.843 0zm180.324-345.802a6.421 6.421 0 1112.843 0 6.421 6.421 0 01-12.843 0zm115.765 158.058a6.42 6.42 0 1112.84 0 6.42 6.42 0 01-12.84 0zm-350.263-7.421a6.421 6.421 0 1112.843 0 6.421 6.421 0 01-12.843 0zm9.653 112.053a6.42 6.42 0 1112.84-.001 6.42 6.42 0 01-12.84.001zm95.725-338.381a6.42 6.42 0 1112.842 0 6.42 6.42 0 01-12.842 0zM81.684 143.217a6.42 6.42 0 016.42-6.42 6.42 6.42 0 110 12.841 6.421 6.421 0 01-6.42-6.421zm463.048 109.825a6.42 6.42 0 016.421-6.42 6.42 6.42 0 110 12.841 6.42 6.42 0 01-6.421-6.421z" fill="#fff" stroke="#6C63FF" stroke-width="2"/><g filter="url(#filter1_d_449_6636)"><circle cx="300.48" cy="278.759" r="64.047" fill="url(#paint1_radial_449_6636)" shape-rendering="crispEdges"/></g><rect x="97" y="271" width="60" height="60" rx="30" fill="#419FD9"/><rect x="97" y="271" width="60" height="60" rx="30" fill="url(#paint2_linear_449_6636)"/><path d="M110.484 300.339c8.724-3.881 14.542-6.44 17.453-7.676 8.31-3.529 10.037-4.142 11.163-4.163.248-.004.801.059 1.16.356.302.25.386.589.426.827.039.238.089.78.05 1.203-.451 4.832-2.4 16.556-3.391 21.968-.419 2.289-1.245 3.057-2.045 3.132-1.738.164-3.058-1.172-4.741-2.299-2.634-1.763-4.122-2.86-6.678-4.58-2.955-1.988-1.04-3.081.644-4.867.441-.467 8.098-7.578 8.246-8.223.019-.081.036-.382-.139-.54-.175-.159-.433-.105-.62-.062-.264.062-4.472 2.901-12.623 8.519-1.194.837-2.276 1.245-3.245 1.224-1.069-.024-3.124-.617-4.652-1.124-1.874-.622-3.364-.951-3.234-2.007.067-.55.81-1.113 2.226-1.688z" fill="#fff"/><rect x="299.998" y="25.092" width="248.521" height="43" rx="21.5" transform="rotate(-3.944 299.998 25.092)" fill="#FCFF8D"/><path d="M360.34 37.161l-7.004.483.314 4.55c.276-.447.705-.825 1.285-1.132a4.53 4.53 0 011.907-.552c1.104-.076 2.017.095 2.741.512.723.405 1.256.963 1.599 1.674a5.8 5.8 0 01.617 2.263c.066.958-.054 1.828-.361 2.611a4.085 4.085 0 01-1.532 1.91c-.702.49-1.598.772-2.688.847-1.397.096-2.552-.185-3.467-.843-.914-.66-1.505-1.58-1.774-2.765l1.776-.122c.225.746.632 1.313 1.22 1.7s1.307.551 2.159.492c1.05-.072 1.82-.44 2.309-1.101.488-.675.697-1.532.625-2.57-.071-1.037-.392-1.816-.963-2.338-.572-.536-1.376-.767-2.414-.696-.705.049-1.311.264-1.819.647a2.901 2.901 0 00-1.043 1.455l-1.716.118-.561-8.14 8.679-.599.111 1.596zm3.708 5.258c-.157-2.288.092-4.096.749-5.425.656-1.341 1.915-2.076 3.777-2.205 1.849-.127 3.191.429 4.025 1.667.833 1.226 1.328 2.983 1.486 5.27.16 2.329-.088 4.163-.744 5.505-.656 1.342-1.908 2.076-3.757 2.204-1.862.128-3.21-.427-4.044-1.666-.834-1.24-1.331-3.023-1.492-5.35zm8.241-.568c-.08-1.158-.227-2.13-.442-2.917-.202-.801-.56-1.431-1.072-1.89-.5-.46-1.195-.66-2.086-.599-.905.063-1.58.356-2.025.882-.431.524-.699 1.197-.803 2.02-.091.808-.097 1.79-.017 2.948.083 1.197.225 2.196.427 2.998.216.8.573 1.43 1.073 1.89.513.46 1.221.658 2.126.596.891-.062 1.553-.355 1.984-.88.445-.524.713-1.198.803-2.02.104-.822.114-1.831.032-3.028zm4.288-.296c-.157-2.288.092-4.096.749-5.424.656-1.342 1.915-2.077 3.777-2.205 1.849-.128 3.191.428 4.025 1.667.832 1.225 1.328 2.982 1.486 5.27.16 2.328-.088 4.163-.744 5.504-.656 1.342-1.908 2.076-3.757 2.204-1.862.128-3.21-.427-4.044-1.666-.834-1.239-1.331-3.022-1.492-5.35zm8.241-.568c-.08-1.157-.227-2.13-.442-2.917-.202-.801-.56-1.431-1.072-1.89-.5-.46-1.195-.66-2.087-.598-.904.062-1.579.356-2.024.881-.431.524-.699 1.198-.803 2.02-.091.808-.097 1.79-.017 2.948.083 1.197.225 2.197.427 2.998.216.8.573 1.43 1.073 1.89.513.46 1.221.658 2.126.596.891-.062 1.552-.355 1.984-.879.445-.525.713-1.198.803-2.02.104-.822.114-1.832.032-3.03zm4.288-.296c-.158-2.288.092-4.096.749-5.424.656-1.342 1.915-2.077 3.777-2.205 1.849-.128 3.191.428 4.024 1.667.833 1.226 1.329 2.982 1.486 5.27.161 2.328-.087 4.163-.743 5.505-.656 1.341-1.908 2.076-3.757 2.203-1.862.129-3.21-.427-4.044-1.666-.834-1.239-1.331-3.022-1.492-5.35zm8.241-.568c-.08-1.157-.227-2.13-.442-2.916-.202-.802-.56-1.432-1.073-1.891-.499-.46-1.194-.66-2.086-.598-.904.062-1.579.356-2.024.881-.431.525-.699 1.198-.803 2.02-.091.809-.097 1.791-.017 2.948.082 1.198.225 2.197.427 2.998.216.8.573 1.43 1.073 1.89.512.46 1.221.658 2.126.596.891-.061 1.552-.354 1.984-.879.445-.525.713-1.198.803-2.02.104-.822.114-1.832.032-3.029zm18.875-4.649l.737 10.695-1.755.12-.634-9.197-5.527.38.634 9.199-1.756.12-.737-10.694 9.038-.623zm13.078 4.451c.122 1.77-.236 3.17-1.074 4.204-.824 1.032-2.001 1.601-3.531 1.707-.944.065-1.803-.09-2.578-.464-.761-.389-1.384-.98-1.866-1.776-.484-.808-.766-1.805-.848-2.989-.122-1.769.23-3.163 1.055-4.182.825-1.02 2.003-1.582 3.532-1.687.971-.067 1.838.094 2.6.482.774.375 1.396.96 1.865 1.756.482.782.763 1.765.845 2.95zm-8.081.557c.087 1.264.402 2.251.946 2.962.556.697 1.379 1.008 2.47.932 1.077-.074 1.844-.494 2.299-1.26.454-.78.637-1.802.55-3.066-.087-1.263-.408-2.237-.963-2.92-.555-.684-1.378-.988-2.469-.913-1.09.075-1.857.49-2.3 1.241-.442.753-.62 1.76-.533 3.024zm18.437-6.624l.636 9.219 1.556-.108.358 5.188-1.696.117-.256-3.711-7.442.513.256 3.71-1.676.117-.358-5.188.858-.06c.831-1.326 1.417-2.81 1.758-4.45.354-1.656.48-3.308.38-4.959l5.626-.388zm-3.975 1.658a16.82 16.82 0 01-.225 2.842c-.16.973-.39 1.911-.688 2.814-.285.902-.639 1.688-1.06 2.359l4.888-.337-.541-7.842-2.374.164zm16.666-2.532l.738 10.694-1.756.121-.634-9.198-5.527.381.634 9.198-1.756.121-.737-10.694 9.038-.623zm5.519 6.175c.011.16.02.4.029.72.009.32.011.64.006.961.009.32.013.574.013.761l5.109-9.353 2.154-.149.738 10.695-1.636.113-.435-6.306-.058-.838-.03-1.02a22.224 22.224 0 01-.014-.78l-5.07 9.33-2.175.15-.737-10.695 1.656-.114.45 6.525zm15.756 3.304c-.945.065-1.803-.07-2.574-.404-.758-.335-1.378-.894-1.86-1.676-.468-.783-.746-1.806-.833-3.07-.091-1.317.055-2.403.437-3.258s.932-1.5 1.651-1.938c.731-.438 1.576-.69 2.534-.756a6.83 6.83 0 011.588.07c.513.072.935.177 1.265.315l-.438 1.493a10.448 10.448 0 00-1.141-.262 4.968 4.968 0 00-1.208-.077c-2.102.145-3.06 1.568-2.874 4.268.089 1.29.41 2.264.964 2.92.565.643 1.353.93 2.364.86a5.857 5.857 0 001.524-.286 7.52 7.52 0 001.207-.524l.107 1.556a4.705 4.705 0 01-1.168.502c-.418.136-.933.225-1.545.267zm6.35-7.475c.084 1.224.812 1.789 2.182 1.694a5.268 5.268 0 001.795-.424c.531-.25 1.07-.568 1.618-.954l-.316-4.589 1.756-.12.737 10.694-1.756.12-.329-4.768a9.873 9.873 0 01-1.712 1.04c-.558.253-1.242.407-2.053.463-1.091.075-1.962-.152-2.613-.682-.638-.53-.99-1.275-1.056-2.233l-.277-4.01 1.756-.121.268 3.89zm12.538 1.782a25.693 25.693 0 01.036 1.682c.008.32.013.574.012.76l5.109-9.353 2.155-.148.737 10.694-1.636.113-.435-6.305-.058-.838-.03-1.02c-.01-.347-.015-.607-.014-.781l-5.07 9.33-2.175.15-.737-10.694 1.656-.114.45 6.524zm17.04-7.73l1.916-.132-4.215 5.463 5.331 5.206-2.035.14-5.203-5.094.374 5.427-1.755.12-.738-10.694 1.756-.12.358 5.187 4.211-5.503zm13.512 4.421c.122 1.77-.236 3.17-1.074 4.204-.824 1.033-2.001 1.602-3.531 1.707-.944.065-1.804-.09-2.578-.464-.762-.388-1.384-.98-1.866-1.776-.484-.808-.766-1.805-.848-2.988-.122-1.77.23-3.164 1.055-4.183.825-1.02 2.003-1.581 3.532-1.687.971-.067 1.838.094 2.6.482.774.375 1.396.96 1.865 1.756.481.782.763 1.766.845 2.95zm-8.081.557c.087 1.264.402 2.251.946 2.962.556.697 1.379 1.008 2.47.933 1.077-.075 1.843-.495 2.298-1.261.455-.78.638-1.802.551-3.066-.087-1.263-.408-2.237-.963-2.92-.555-.684-1.378-.988-2.469-.913-1.091.076-1.857.49-2.3 1.241-.443.753-.62 1.76-.533 3.024zm19.281-3.975c.046.665-.118 1.198-.491 1.598-.373.4-.868.687-1.484.864l.006.08a3.567 3.567 0 011.785.598c.518.339.804.907.859 1.705.063.904-.225 1.68-.862 2.325-.625.63-1.709 1-3.252 1.106l-4.609.318-.737-10.695 4.589-.316c.758-.053 1.443-.013 2.053.119.623.117 1.121.364 1.495.739.385.36.602.88.648 1.559zm-1.76.342c-.035-.506-.247-.859-.635-1.06-.375-.214-.975-.293-1.8-.236l-2.734.189.203 2.933 2.414-.167c1.769-.122 2.62-.675 2.552-1.66zm.62 4.628c-.043-.612-.306-1.035-.79-1.269-.484-.234-1.178-.32-2.082-.257l-2.614.18.237 3.432 2.653-.183c.878-.06 1.541-.233 1.989-.518.448-.298.65-.76.607-1.385z" fill="#000" fill-opacity=".7"/><g clip-path="url(#clip0_449_6636)" stroke="#000" stroke-opacity=".7" stroke-width="2" stroke-linecap="round" stroke-linejoin="round"><path d="M333.403 52.855l-.138-1.995a4 4 0 00-4.266-3.716l-6.983.482a4 4 0 00-3.716 4.265l.138 1.995m6.796-10.492a4.001 4.001 0 10-.551-7.983 4.001 4.001 0 00.551 7.983zm8.481-.584l2.133 1.858 3.715-4.266"/></g><rect x="5.915" y="528" width="249" height="43" rx="21.5" transform="rotate(3.884 5.915 528)" fill="#FFDBA5"/><g clip-path="url(#clip1_449_6636)"><g clip-path="url(#clip2_449_6636)" stroke="#4D4232" stroke-width="1.5" stroke-linecap="round" stroke-linejoin="round"><path d="M31.489 554.743a2.433 2.433 0 002.595-2.265 2.436 2.436 0 10-2.595 2.265z"/><path d="M42.588 553.055c-2.542 3.479-6.912 6.854-11.43 6.548-4.517-.307-8.39-4.243-10.44-8.033 3.029-3.263 6.56-6.877 11.43-6.547 4.87.331 7.881 4.39 10.44 8.032z"/></g></g><path d="M57.007 549.417c.177-1.217.714-2.143 1.612-2.777.898-.634 2.026-.905 3.383-.812.904.061 1.671.28 2.3.657.644.364 1.113.837 1.408 1.419a3.53 3.53 0 01.39 1.93c-.056.825-.344 1.521-.863 2.087a3.142 3.142 0 01-1.915 1.032l-.007.1c.85.272 1.507.737 1.97 1.397.463.659.66 1.495.592 2.506a4.116 4.116 0 01-.658 2.02c-.387.575-.938 1.012-1.653 1.311-.715.299-1.558.415-2.53.349-1.41-.096-2.542-.54-3.397-1.333-.854-.806-1.288-1.892-1.302-3.256l1.755.119c.04.805.321 1.479.846 2.022.524.544 1.252.847 2.183.91.931.064 1.652-.128 2.164-.574.525-.459.814-1.074.867-1.846.067-.998-.216-1.738-.852-2.223-.635-.484-1.624-.771-2.968-.863l-.459-.031.103-1.516.479.032c1.225.07 2.163-.067 2.814-.41.653-.357 1.007-.947 1.063-1.772.048-.705-.147-1.286-.583-1.744-.424-.456-1.061-.713-1.913-.771-.824-.056-1.504.112-2.038.503-.535.391-.873.943-1.015 1.655l-1.776-.121zm11.557 4.233c.156-2.288.65-4.045 1.48-5.272.834-1.239 2.181-1.796 4.043-1.67 1.85.126 3.103.859 3.76 2.2.658 1.328.91 3.136.754 5.424-.158 2.328-.653 4.111-1.486 5.351-.832 1.24-2.173 1.797-4.022 1.672-1.862-.127-3.122-.861-3.78-2.202-.657-1.34-.907-3.175-.749-5.503zm8.241.56c.079-1.158.066-2.141-.04-2.95-.091-.821-.36-1.494-.805-2.019-.432-.524-1.094-.816-1.985-.877-.905-.061-1.613.138-2.125.598-.5.46-.856 1.091-1.071 1.892-.2.788-.34 1.761-.419 2.918-.081 1.197-.076 2.207.015 3.028.105.822.373 1.495.805 2.019.446.525 1.12.818 2.025.879.892.061 1.587-.139 2.086-.6.512-.459.869-1.09 1.07-1.892.215-.8.363-1.799.444-2.996zm4.29.291c.154-2.288.648-4.045 1.48-5.272.832-1.24 2.18-1.796 4.042-1.67 1.85.126 3.102.859 3.76 2.2.658 1.327.91 3.135.754 5.423-.158 2.328-.653 4.112-1.486 5.352-.832 1.24-2.173 1.797-4.022 1.671-1.863-.126-3.123-.86-3.78-2.201-.657-1.341-.907-3.175-.749-5.503zm8.24.559c.079-1.157.065-2.14-.04-2.949-.091-.821-.36-1.495-.805-2.019-.432-.524-1.094-.816-1.985-.877-.905-.061-1.613.138-2.126.598-.499.46-.856 1.091-1.07 1.891-.2.789-.34 1.761-.419 2.919-.081 1.197-.076 2.206.015 3.028.104.822.373 1.495.805 2.019.446.525 1.12.818 2.025.879.891.061 1.587-.139 2.085-.6.513-.46.87-1.09 1.071-1.892.215-.8.363-1.799.444-2.997zm4.289.292c.155-2.288.649-4.046 1.48-5.272.833-1.24 2.18-1.797 4.043-1.67 1.849.125 3.102.859 3.759 2.2.659 1.327.91 3.135.755 5.423-.158 2.328-.654 4.112-1.486 5.352-.833 1.24-2.174 1.797-4.023 1.671-1.862-.126-3.122-.86-3.78-2.201-.656-1.341-.906-3.175-.748-5.503zm8.241.559c.078-1.157.065-2.14-.04-2.949-.092-.822-.36-1.495-.805-2.019-.433-.524-1.094-.816-1.986-.877-.904-.061-1.613.138-2.125.597-.499.461-.856 1.092-1.07 1.892-.201.788-.34 1.761-.42 2.919-.08 1.197-.076 2.206.016 3.028.104.822.373 1.495.805 2.019.445.524 1.12.817 2.025.879.891.06 1.586-.14 2.085-.6.513-.46.869-1.09 1.071-1.892.215-.801.363-1.8.444-2.997zm19.333-2.035l-.726 10.696-1.756-.12.624-9.198-5.527-.376-.625 9.199-1.756-.119.727-10.696 9.039.614zm8.514.378c1.317.089 2.344.62 3.079 1.592.75.973 1.061 2.384.936 4.233-.124 1.823-.624 3.179-1.499 4.068-.862.89-1.959 1.29-3.289 1.2-.825-.056-1.499-.256-2.024-.599-.511-.355-.905-.749-1.183-1.182l-.119-.008c.011.227.018.515.021.863.003.348-.004.648-.021.901l-.298 4.389-1.756-.119 1.051-15.484 1.437.097.141 1.473.079.006a4.117 4.117 0 011.338-1.092c.54-.284 1.243-.397 2.107-.338zm-.419 1.455c-1.091-.074-1.883.179-2.377.76-.481.583-.777 1.498-.888 2.747l-.023.339c-.09 1.317.054 2.349.431 3.096.391.735 1.172 1.142 2.342 1.222.652.044 1.197-.1 1.633-.431.45-.33.796-.794 1.037-1.393.255-.61.41-1.315.464-2.113.083-1.224-.09-2.218-.519-2.982-.416-.763-1.116-1.178-2.1-1.245zm16.531 5.192c-.12 1.769-.666 3.108-1.636 4.018-.958.911-2.201 1.314-3.731 1.21-.944-.064-1.775-.334-2.491-.811-.701-.488-1.237-1.159-1.607-2.013-.369-.867-.513-1.893-.433-3.076.121-1.77.659-3.103 1.615-4 .956-.898 2.2-1.294 3.729-1.19.971.066 1.808.343 2.51.832.716.476 1.252 1.14 1.608 1.993.371.84.516 1.853.436 3.037zm-8.082-.549c-.086 1.264.092 2.285.534 3.063.456.766 1.229 1.186 2.32 1.26 1.077.073 1.894-.239 2.449-.936.556-.711.877-1.698.963-2.962.086-1.263-.1-2.272-.557-3.024-.456-.753-1.23-1.166-2.321-1.24-1.091-.075-1.907.231-2.448.916-.541.685-.854 1.659-.94 2.923zm14.777 6.596c-.945-.064-1.776-.314-2.495-.751-.706-.435-1.244-1.073-1.614-1.913-.357-.84-.493-1.892-.407-3.155.089-1.317.381-2.373.876-3.168.495-.795 1.128-1.36 1.899-1.695.785-.335 1.656-.469 2.614-.404a6.833 6.833 0 011.564.286c.498.141.902.302 1.21.483l-.638 1.42a10.672 10.672 0 00-1.094-.415 5.02 5.02 0 00-1.186-.241c-2.102-.142-3.245 1.137-3.428 3.837-.088 1.29.098 2.299.556 3.025.473.713 1.215 1.104 2.226 1.173.585.04 1.101.015 1.548-.075a7.445 7.445 0 001.267-.355l-.105 1.556a4.713 4.713 0 01-1.226.338c-.433.078-.955.096-1.567.054zm17.51-9.756l-.726 10.695-1.576-.107.463-6.824c.019-.279.046-.572.08-.877l.14-.892-.059-.004-4.076 8.363-1.477-.1-2.808-8.831-.06-.004a27.48 27.48 0 01-.065 1.84l-.459 6.764-1.577-.107.727-10.695 2.334.158 2.789 8.829 4.016-8.367 2.334.159zm12.351 6.191c-.12 1.769-.665 3.108-1.636 4.018-.957.911-2.201 1.314-3.73 1.21-.945-.064-1.775-.334-2.491-.81-.702-.489-1.238-1.16-1.607-2.014-.369-.867-.513-1.892-.433-3.076.12-1.77.658-3.103 1.615-4 .956-.897 2.199-1.294 3.729-1.19.971.066 1.807.343 2.509.832.716.476 1.252 1.14 1.609 1.993.37.841.516 1.853.435 3.037zm-8.081-.549c-.086 1.264.092 2.285.533 3.063.456.766 1.23 1.186 2.32 1.26 1.078.073 1.894-.239 2.449-.936.557-.711.878-1.698.963-2.962.086-1.263-.099-2.272-.556-3.024-.457-.753-1.231-1.166-2.321-1.24-1.091-.074-1.907.231-2.448.916-.541.685-.854 1.659-.94 2.923zm18.314-2.625l-3.492-.237-.626 9.218-1.736-.118.626-9.218-3.452-.235.1-1.476 8.68.589-.1 1.477zm7.309-1.188c1.317.089 2.343.62 3.079 1.592.749.973 1.061 2.384.935 4.233-.123 1.823-.623 3.179-1.499 4.068-.862.89-1.958 1.29-3.289 1.2-.824-.056-1.499-.255-2.024-.598-.51-.356-.904-.75-1.182-1.183l-.12-.008c.011.228.018.515.022.863.003.348-.004.648-.021.901l-.299 4.39-1.756-.12 1.052-15.484 1.437.098.14 1.473.08.005a4.113 4.113 0 011.337-1.092c.54-.284 1.243-.397 2.108-.338zm-.42 1.455c-1.091-.074-1.883.179-2.377.761-.48.582-.776 1.497-.888 2.746l-.023.339c-.089 1.317.054 2.349.431 3.096.391.735 1.172 1.142 2.343 1.222.652.044 1.196-.099 1.633-.431.45-.33.795-.794 1.037-1.392.255-.611.41-1.316.464-2.114.083-1.224-.09-2.218-.519-2.982-.416-.763-1.116-1.178-2.101-1.245zm16.531 5.192c-.12 1.769-.665 3.108-1.636 4.018-.957.911-2.201 1.314-3.73 1.21-.945-.064-1.775-.334-2.491-.81-.702-.489-1.238-1.16-1.608-2.014-.368-.867-.512-1.892-.432-3.076.12-1.77.658-3.103 1.615-4 .956-.897 2.199-1.294 3.729-1.19.971.066 1.807.343 2.509.832.716.476 1.252 1.141 1.609 1.993.37.841.515 1.853.435 3.037zm-8.081-.549c-.086 1.264.092 2.285.533 3.063.456.766 1.23 1.186 2.32 1.26 1.078.073 1.894-.239 2.449-.936.557-.711.877-1.698.963-2.962.086-1.263-.099-2.272-.556-3.024-.457-.753-1.231-1.166-2.321-1.24-1.091-.074-1.907.231-2.448.916-.541.685-.854 1.659-.94 2.923zm19.643-1.312c-.045.665-.28 1.17-.704 1.515-.425.346-.954.564-1.588.654l-.006.08a3.576 3.576 0 011.688.836c.467.406.673 1.008.619 1.807-.062.904-.452 1.633-1.171 2.185-.705.54-1.829.758-3.372.653l-4.609-.313.726-10.695 4.589.312c.759.051 1.431.184 2.018.397.601.201 1.061.513 1.38.936.333.41.476.954.43 1.633zm-1.791.099c.035-.506-.127-.884-.484-1.136-.343-.264-.927-.424-1.751-.48l-2.734-.185-.199 2.933 2.414.164c1.769.12 2.687-.312 2.754-1.296zm-.016 4.669c.041-.612-.162-1.066-.609-1.364-.448-.298-1.124-.477-2.028-.539l-2.614-.177-.233 3.432 2.654.18c.878.06 1.558-.021 2.041-.242.483-.235.746-.665.789-1.29z" fill="#000" fill-opacity=".7"/><rect x="370.998" y="446.727" width="240" height="43" rx="21.5" transform="rotate(-5.434 370.998 446.727)" fill="#9AFFED"/><g clip-path="url(#clip3_449_6636)"><path d="M418.954 462.046a5.952 5.952 0 01-1.11 4.308c-2.096 2.823-4.106 5.744-6.303 8.487a1.464 1.464 0 01-2.045.22l-8.206-6.563c-2.48-1.984-2.954-5.644-1.06-8.193a5.578 5.578 0 018.013-1.037l.299.237.227-.305a5.603 5.603 0 013.785-2.237 5.607 5.607 0 014.228 1.199 5.949 5.949 0 012.172 3.884v0z" stroke="#2E4D47" stroke-width="1.5" stroke-linejoin="round"/></g><path d="M442.316 467.607c1.557-1.514 2.772-2.748 3.646-3.702.872-.967 1.589-1.952 2.149-2.956.573-1.019.816-1.987.729-2.902-.082-.863-.359-1.52-.831-1.971-.459-.465-1.153-.653-2.082-.565-.903.086-1.579.438-2.029 1.057-.439.604-.633 1.379-.583 2.326l-1.752.166c-.088-1.491.254-2.683 1.026-3.573.773-.891 1.829-1.4 3.17-1.527 1.367-.13 2.485.145 3.353.826.882.68 1.386 1.683 1.512 3.01.105 1.102-.125 2.209-.689 3.321a14.294 14.294 0 01-1.968 2.959c-.762.863-1.743 1.88-2.944 3.053l6.849-.652.144 1.513-9.577.911-.123-1.294zm19.768-13.352l-6.988.665.432 4.54c.264-.454.683-.842 1.255-1.165a4.528 4.528 0 011.891-.601c1.102-.105 2.02.042 2.755.441.733.385 1.28.929 1.642 1.632.373.687.598 1.436.675 2.246.091.955-.007 1.829-.293 2.619a4.071 4.071 0 01-1.482 1.949c-.688.508-1.577.813-2.665.917-1.394.133-2.556-.119-3.487-.753-.931-.635-1.546-1.541-1.846-2.718l1.772-.168c.245.74.666 1.296 1.264 1.668.598.371 1.321.517 2.171.436 1.048-.1 1.808-.487 2.28-1.161.47-.688.656-1.549.558-2.585-.099-1.035-.44-1.806-1.024-2.313-.585-.52-1.395-.731-2.431-.633-.703.067-1.304.298-1.802.694a2.9 2.9 0 00-1.004 1.482l-1.713.163-.772-8.124 8.661-.823.151 1.592zm11.524.773c-.432-1.446-1.412-2.096-2.938-1.951-1.182.112-2.021.654-2.518 1.626-.498.958-.641 2.478-.43 4.561.24-.719.693-1.305 1.36-1.757.679-.466 1.457-.741 2.333-.824 1.367-.13 2.496.191 3.386.963.904.772 1.427 1.907 1.57 3.407.086.903-.017 1.729-.307 2.48a3.971 3.971 0 01-1.43 1.864c-.663.492-1.499.785-2.508.881-1.367.13-2.464-.073-3.292-.611-.828-.537-1.446-1.329-1.853-2.375-.408-1.046-.687-2.359-.837-3.938-.464-4.872 1.004-7.469 4.402-7.792 1.301-.124 2.356.131 3.166.764.811.632 1.333 1.48 1.568 2.542l-1.672.16zm-2.426 3.224a3.734 3.734 0 00-1.579.512c-.482.273-.86.664-1.134 1.172-.261.494-.359 1.079-.295 1.756.096 1.009.467 1.804 1.111 2.386.644.568 1.51.8 2.598.697.929-.089 1.639-.444 2.129-1.067.501-.637.706-1.446.612-2.429-.098-1.035-.441-1.819-1.027-2.353-.588-.547-1.393-.771-2.415-.674zm7.019-3.46c-.023-1.23.357-2.231 1.141-3.002.784-.771 1.853-1.221 3.207-1.35.902-.086 1.695.006 2.377.276.694.256 1.233.647 1.618 1.172a3.53 3.53 0 01.697 1.843c.079.823-.093 1.556-.514 2.198a3.135 3.135 0 01-1.722 1.329l.01.1c.883.13 1.606.483 2.17 1.059.564.576.894 1.368.99 2.377.071.757-.036 1.457-.323 2.1-.288.63-.761 1.151-1.419 1.561-.657.411-1.47.663-2.439.755-1.407.134-2.597-.122-3.569-.766-.973-.657-1.577-1.658-1.812-3.002l1.752-.166c.169.787.556 1.407 1.161 1.858.606.452 1.373.633 2.302.545.929-.089 1.61-.395 2.042-.918.445-.538.63-1.192.557-1.961-.095-.996-.495-1.681-1.2-2.056s-1.728-.499-3.069-.371l-.458.043-.144-1.513.478-.045c1.22-.13 2.124-.416 2.711-.861.586-.457.84-1.097.761-1.92-.067-.704-.352-1.246-.857-1.627-.492-.381-1.163-.532-2.012-.451-.823.078-1.467.354-1.931.826-.464.473-.708 1.072-.733 1.798l-1.772.169zm26.678 8.331l-1.772.168-.876-9.218-3.146.299c.041 2.26-.026 4.094-.2 5.504-.175 1.396-.485 2.43-.93 3.102-.445.672-1.053 1.044-1.823 1.117a3.35 3.35 0 01-.521.01 1.095 1.095 0 01-.408-.062l-.125-1.314c.082.019.17.031.265.035.094.005.187.002.28-.006.717-.069 1.215-.886 1.495-2.453.293-1.568.398-3.982.315-7.242l6.431-.612 1.015 10.672zm6.397-11.558c1.301-.124 2.291.07 2.969.581.678.512 1.076 1.391 1.195 2.639l.691 7.267-1.274.122-.482-1.481-.08.007c-.409.628-.859 1.107-1.35 1.434-.478.327-1.168.533-2.071.619-.969.093-1.796-.083-2.481-.527-.687-.457-1.081-1.23-1.185-2.318-.101-1.062.239-1.918 1.021-2.569.781-.663 2.038-1.104 3.772-1.323l1.806-.232-.06-.637c-.085-.889-.336-1.488-.754-1.797-.418-.308-.978-.429-1.682-.362-.557.053-1.08.19-1.568.41-.489.208-.943.438-1.361.692l-.662-1.263c.44-.296.971-.561 1.592-.794a7.129 7.129 0 011.964-.468zm1.06 5.645c-1.323.179-2.225.48-2.707.9-.469.42-.672.968-.607 1.645.057.598.277 1.019.662 1.263.398.244.883.338 1.454.284.902-.086 1.629-.403 2.179-.951.55-.561.775-1.359.677-2.395l-.091-.955-1.567.209zm14.297-11.385c.001 1.004-.265 1.793-.8 2.366-.523.559-1.415.898-2.675 1.018-1.301.124-2.248-.04-2.84-.493-.579-.454-.95-1.182-1.112-2.185l1.633-.155c.134.711.366 1.177.696 1.401.341.208.857.28 1.547.214.61-.058 1.076-.23 1.397-.515.333-.299.5-.797.501-1.494l1.653-.157zm-5.949 11.595c.015.16.031.399.048.719.017.32.028.64.031.961.017.32.028.574.033.761l4.863-9.483 2.151-.205 1.015 10.672-1.633.155-.598-6.291-.08-.837-.057-1.019a23.264 23.264 0 01-.034-.78l-4.826 9.459-2.17.207-1.015-10.672 1.653-.157.619 6.51zm16.833-8.17l1.912-.182-4.071 5.57 5.464 5.066-2.031.193-5.333-4.957.515 5.415-1.752.167-1.015-10.672 1.752-.167.492 5.177 4.067-5.61zm13.622 4.068c.168 1.765-.153 3.175-.964 4.23-.797 1.054-1.958 1.653-3.485 1.798-.942.09-1.805-.042-2.589-.396-.772-.369-1.409-.944-1.912-1.727-.505-.796-.813-1.784-.925-2.966-.168-1.765.147-3.168.945-4.208.799-1.04 1.961-1.633 3.488-1.778.969-.092 1.839.046 2.611.414.783.354 1.42.923 1.91 1.707.502.769.809 1.745.921 2.926zm-8.063.767c.12 1.261.46 2.24 1.022 2.936.574.682 1.405.972 2.494.868 1.075-.102 1.83-.542 2.265-1.32.433-.792.59-1.818.47-3.079-.12-1.261-.466-2.225-1.038-2.894-.573-.669-1.403-.952-2.492-.848-1.088.103-1.844.537-2.267 1.3-.423.764-.574 1.776-.454 3.037zm19.171-4.476c.063.664-.086 1.201-.449 1.61-.363.41-.85.711-1.461.903l.007.079c.673.03 1.273.214 1.801.552.526.325.827.886.903 1.682.086.903-.181 1.685-.802 2.347-.608.647-1.682 1.044-3.221 1.19l-4.6.438-1.015-10.672 4.58-.436c.756-.072 1.441-.05 2.055.066.626.101 1.13.334 1.513.7.395.351.625.865.689 1.541zm-1.751.388c-.048-.504-.268-.852-.662-1.042-.381-.205-.983-.268-1.806-.19l-2.727.26.278 2.926 2.409-.229c1.766-.168 2.602-.743 2.508-1.725zm.74 4.611c-.058-.611-.332-1.027-.822-1.248-.49-.221-1.186-.289-2.088-.203l-2.609.248.326 3.424 2.648-.251c.876-.084 1.535-.274 1.975-.57.439-.31.629-.776.57-1.4z" fill="#000" fill-opacity=".7"/><path d="M155 500c0-15.464 12.536-28 28-28s28 12.536 28 28-12.536 28-28 28-28-12.536-28-28z" fill="#303030"/><path d="M180.372 497.026v-1.09a8.583 8.583 0 00-1.145-.082c-4.674-.006-8.477 3.8-8.477 8.485a8.48 8.48 0 003.622 6.951 8.45 8.45 0 01-2.278-5.78c0-4.616 3.697-8.379 8.278-8.484z" fill="#25F4EE"/><path d="M180.577 509.384a3.876 3.876 0 003.865-3.731l.007-18.482h3.373a6.556 6.556 0 01-.106-1.171h-4.606l-.006 18.482a3.876 3.876 0 01-3.865 3.731 3.839 3.839 0 01-1.799-.448 3.85 3.85 0 003.137 1.619zm13.55-15.94v-1.028a6.34 6.34 0 01-3.491-1.04 6.404 6.404 0 003.491 2.068z" fill="#25F4EE"/><path d="M190.635 491.376a6.376 6.376 0 01-1.575-4.205h-1.232a6.388 6.388 0 002.807 4.205zm-11.401 9.082a3.877 3.877 0 00-3.872 3.874c0 1.489.847 2.785 2.079 3.433a3.841 3.841 0 01-.734-2.262 3.877 3.877 0 013.871-3.874c.398 0 .784.068 1.145.181v-4.71a8.584 8.584 0 00-1.145-.081c-.069 0-.131.007-.199.007v3.612a3.9 3.9 0 00-1.145-.18z" fill="#FE2C55"/><path d="M194.127 493.444v3.582c-2.39 0-4.606-.767-6.411-2.062v9.375c0 4.678-3.803 8.49-8.483 8.49a8.444 8.444 0 01-4.861-1.539 8.465 8.465 0 006.205 2.71c4.674 0 8.483-3.806 8.483-8.49v-9.375a10.962 10.962 0 006.411 2.062v-4.61c-.467 0-.915-.05-1.344-.143z" fill="#FE2C55"/><path d="M187.717 504.339v-9.375a10.966 10.966 0 006.41 2.062v-3.582a6.404 6.404 0 01-3.491-2.068 6.444 6.444 0 01-2.814-4.205h-3.373l-.006 18.482a3.876 3.876 0 01-3.865 3.731 3.885 3.885 0 01-3.143-1.613 3.888 3.888 0 01-2.079-3.432 3.877 3.877 0 013.871-3.875c.399 0 .785.069 1.146.181v-3.613c-4.581.1-8.278 3.862-8.278 8.478 0 2.23.865 4.26 2.278 5.78a8.442 8.442 0 004.861 1.539c4.674 0 8.483-3.812 8.483-8.49z" fill="#fff"/><rect x="63" y="116" width="48" height="48" rx="24" fill="#5181B8"/><path fill-rule="evenodd" clip-rule="evenodd" d="M102.266 132.535c.222-.742 0-1.287-1.059-1.287h-3.5c-.891 0-1.301.471-1.524.99 0 0-1.78 4.339-4.302 7.158-.816.816-1.187 1.075-1.632 1.075-.223 0-.545-.259-.545-1.001v-6.935c0-.891-.258-1.287-1-1.287h-5.501c-.556 0-.89.413-.89.804 0 .844 1.26 1.039 1.39 3.413v5.155c0 1.13-.204 1.335-.65 1.335-1.186 0-4.073-4.359-5.785-9.346-.336-.97-.672-1.361-1.567-1.361h-3.5c-1.001 0-1.201.471-1.201.99 0 .927 1.187 5.526 5.526 11.609 2.894 4.153 6.969 6.405 10.678 6.405 2.225 0 2.5-.5 2.5-1.361v-3.14c0-1 .211-1.2.916-1.2.52 0 1.41.26 3.486 2.263 2.374 2.373 2.765 3.438 4.1 3.438h3.501c1 0 1.501-.5 1.212-1.487-.316-.984-1.449-2.41-2.953-4.102-.816-.965-2.04-2.003-2.41-2.522-.52-.668-.371-.965 0-1.558 0 0 4.265-6.008 4.71-8.048z" fill="#fff"/><rect x="451" y="287" width="48" height="48" rx="24" fill="#CA0000"/><path d="M470.002 311a5 5 0 1110 0 5 5 0 01-10 0zm-2.703 0a7.702 7.702 0 007.702 7.702 7.702 7.702 0 007.702-7.702 7.702 7.702 0 00-7.702-7.702 7.702 7.702 0 00-7.702 7.702zm13.909-8.008a1.806 1.806 0 001.111 1.664 1.799 1.799 0 002.454-1.311 1.798 1.798 0 00-1.764-2.152h-.001a1.8 1.8 0 00-1.8 1.799zm-12.267 20.218c-1.462-.067-2.257-.311-2.786-.516-.7-.273-1.2-.598-1.725-1.122a4.628 4.628 0 01-1.122-1.725c-.206-.528-.449-1.323-.516-2.785-.073-1.581-.087-2.056-.087-6.062s.016-4.479.087-6.062c.067-1.462.312-2.256.516-2.785.273-.701.597-1.2 1.122-1.726a4.64 4.64 0 011.725-1.122c.528-.206 1.324-.449 2.786-.516 1.581-.072 2.056-.087 6.06-.087s4.479.016 6.062.087c1.462.067 2.256.312 2.785.516.701.272 1.2.598 1.726 1.122a4.656 4.656 0 011.122 1.726c.206.528.449 1.323.516 2.785.072 1.583.087 2.056.087 6.062s-.015 4.479-.087 6.062c-.067 1.462-.312 2.257-.516 2.785a4.665 4.665 0 01-1.122 1.725 4.668 4.668 0 01-1.726 1.122c-.528.206-1.323.449-2.785.516-1.581.072-2.056.087-6.062.087s-4.479-.015-6.06-.087zm-.124-27.119c-1.597.073-2.688.326-3.641.697a7.338 7.338 0 00-2.657 1.73 7.309 7.309 0 00-1.73 2.657c-.371.953-.624 2.044-.697 3.641-.074 1.599-.091 2.11-.091 6.184s.017 4.585.091 6.184c.073 1.597.326 2.688.697 3.641a7.317 7.317 0 001.73 2.657 7.37 7.37 0 002.657 1.73c.955.371 2.044.624 3.641.697 1.6.073 2.11.091 6.184.091 4.073 0 4.585-.017 6.184-.091 1.597-.073 2.688-.326 3.641-.697a7.373 7.373 0 002.657-1.73 7.343 7.343 0 001.73-2.657c.371-.953.626-2.044.697-3.641.073-1.6.09-2.11.09-6.184s-.017-4.585-.09-6.184c-.073-1.597-.326-2.688-.697-3.641a7.373 7.373 0 00-1.73-2.657 7.322 7.322 0 00-2.656-1.73c-.954-.371-2.045-.626-3.641-.697-1.599-.073-2.11-.091-6.184-.091-4.073 0-4.585.017-6.185.091z" fill="#fff"/><rect x="515" y="224" width="63" height="63" rx="31.5" fill="#005BAF"/><path d="M548.604 276.5v-19.158h6.43l.963-7.467h-7.393v-4.767c0-2.161.6-3.635 3.7-3.635l3.954-.001v-6.678c-.684-.091-3.031-.294-5.761-.294-5.701 0-9.603 3.479-9.603 9.869v5.506h-6.448v7.467h6.447V276.5h7.711z" fill="#fff"/><rect x="336" y="129" width="48" height="48" rx="24" fill="url(#paint3_linear_449_6636)"/><path d="M360.188 167.073c-.087 0-.167 0-.228-.013-.046.013-.1.013-.153.013-1.786 0-2.976-.842-4.04-1.584-.755-.535-1.464-1.044-2.3-1.184a6.814 6.814 0 00-1.204-.1 8.18 8.18 0 00-1.672.187c-.254.047-.468.087-.635.087-.174 0-.394-.047-.481-.341-.074-.241-.121-.468-.167-.689-.121-.555-.221-.896-.428-.93-2.234-.341-3.571-.856-3.832-1.464-.02-.067-.047-.134-.047-.187-.013-.188.12-.341.308-.375 1.772-.294 3.363-1.237 4.707-2.788 1.044-1.204 1.552-2.368 1.599-2.495 0-.013.013-.013.013-.013.254-.528.308-.976.154-1.344-.288-.689-1.237-.983-1.886-1.184-.167-.047-.308-.1-.428-.14-.555-.221-1.478-.689-1.357-1.338.086-.468.708-.802 1.217-.802.14 0 .26.02.361.073.568.261 1.083.395 1.524.395.549 0 .81-.207.876-.274a35.789 35.789 0 00-.053-.89c-.134-2.046-.288-4.587.361-6.045 1.946-4.36 6.079-4.708 7.303-4.708l.535-.013h.073c1.224 0 5.357.341 7.303 4.708.655 1.457.494 4.005.361 6.045l-.014.1c-.013.274-.033.535-.047.803.067.053.308.254.803.26.428-.013.896-.153 1.431-.394.167-.074.341-.1.468-.1.187 0 .375.046.535.1h.014c.448.167.742.481.742.809.013.308-.228.776-1.371 1.237-.12.047-.261.101-.428.141-.635.194-1.585.501-1.886 1.183-.167.361-.1.823.154 1.344 0 .014.013.014.013.014.074.187 2.006 4.574 6.306 5.289a.37.37 0 01.308.375.39.39 0 01-.047.194c-.261.615-1.585 1.117-3.832 1.464-.207.034-.307.375-.428.93a9.79 9.79 0 01-.167.689c-.067.22-.207.341-.448.341h-.033c-.154 0-.361-.02-.636-.074a7.936 7.936 0 00-1.671-.174c-.395 0-.803.034-1.204.101-.829.133-1.545.648-2.3 1.183-1.077.736-2.274 1.578-4.046 1.578z" fill="#fff"/><defs><clipPath id="clip0_449_6636"><path fill="#fff" transform="rotate(-3.944 637.33 -4572.71)" d="M0 0h24v24H0z"/></clipPath><clipPath id="clip1_449_6636"><path fill="#fff" transform="rotate(3.884 -7929.618 575.706)" d="M0 0h24v24H0z"/></clipPath><clipPath id="clip2_449_6636"><path fill="#fff" transform="rotate(3.884 -7929.618 575.706)" d="M0 0h24v24H0z"/></clipPath><clipPath id="clip3_449_6636"><path fill="#fff" transform="rotate(-7.376 3735.87 -2843.752)" d="M0 0h24v24H0z"/></clipPath><linearGradient id="paint0_linear_449_6636" x1="307" y1="24" x2="307" y2="638" gradientUnits="userSpaceOnUse"><stop stop-color="#F8FBFE"/><stop offset="1" stop-color="#fff" stop-opacity=".84"/></linearGradient><linearGradient id="paint2_linear_449_6636" x1="127" y1="271" x2="127" y2="330.555" gradientUnits="userSpaceOnUse"><stop stop-color="#00B8FF"/><stop offset="1" stop-color="#0083EA"/></linearGradient><linearGradient id="paint3_linear_449_6636" x1="360" y1="129" x2="360" y2="177" gradientUnits="userSpaceOnUse"><stop stop-color="#FCF60B"/><stop offset="1" stop-color="#C39907"/></linearGradient><filter id="filter0_d_449_6636" x="134.251" y="152.195" width="330.675" height="330.675" filterUnits="userSpaceOnUse" color-interpolation-filters="sRGB"><feFlood flood-opacity="0" result="BackgroundImageFix"/><feColorMatrix in="SourceAlpha" values="0 0 0 0 0 0 0 0 0 0 0 0 0 0 0 0 0 0 127 0" result="hardAlpha"/><feOffset dy="40"/><feGaussianBlur stdDeviation="40"/><feColorMatrix values="0 0 0 0 0 0 0 0 0 0 0 0 0 0 0 0 0 0 0.1 0"/><feBlend in2="BackgroundImageFix" result="effect1_dropShadow_449_6636"/><feBlend in="SourceGraphic" in2="effect1_dropShadow_449_6636" result="shape"/></filter><filter id="filter1_d_449_6636" x="221.433" y="200.711" width="164.095" height="164.095" filterUnits="userSpaceOnUse" color-interpolation-filters="sRGB"><feFlood flood-opacity="0" result="BackgroundImageFix"/><feColorMatrix in="SourceAlpha" values="0 0 0 0 0 0 0 0 0 0 0 0 0 0 0 0 0 0 127 0" result="hardAlpha"/><feOffset dx="3" dy="4"/><feGaussianBlur stdDeviation="9"/><feComposite in2="hardAlpha" operator="out"/><feColorMatrix values="0 0 0 0 0.321569 0 0 0 0 0.266667 0 0 0 0 0.615686 0 0 0 0.38 0"/><feBlend in2="BackgroundImageFix" result="effect1_dropShadow_449_6636"/><feBlend in="SourceGraphic" in2="effect1_dropShadow_449_6636" result="shape"/></filter><radialGradient id="paint1_radial_449_6636" cx="0" cy="0" r="1" gradientUnits="userSpaceOnUse" gradientTransform="rotate(20.213 -586.205 906.755) scale(85.3134)"><stop stop-color="#6C63FF" stop-opacity=".16"/><stop offset="1" stop-color="#6C63FF"/></radialGradient></defs></svg>