<svg width="217" height="39" fill="none" xmlns="http://www.w3.org/2000/svg"><path d="M67.136 29.182c-1.976 0-3.588-.425-4.836-1.274-1.231-.867-1.846-2.089-1.846-3.666 0-.156.017-.39.052-.702h4.628c-.052.659.104 1.179.468 1.56.364.381.918.572 1.664.572.676 0 1.204-.147 1.586-.442.398-.295.598-.71.598-1.248 0-.555-.252-1.005-.754-1.352-.486-.347-1.248-.737-2.288-1.17-1.006-.416-1.829-.806-2.47-1.17a5.717 5.717 0 01-1.638-1.534c-.468-.641-.702-1.447-.702-2.418-.018-1.196.277-2.236.884-3.12.606-.884 1.447-1.56 2.522-2.028 1.074-.468 2.305-.702 3.692-.702 1.248 0 2.357.2 3.328.598.97.381 1.724.945 2.262 1.69.537.728.806 1.595.806 2.6 0 .26-.009.45-.026.572h-4.732c.017-.07.026-.173.026-.312 0-.485-.174-.875-.52-1.17-.33-.312-.789-.468-1.378-.468-.624 0-1.136.156-1.534.468-.382.295-.572.702-.572 1.222s.242.962.728 1.326c.485.347 1.239.754 2.262 1.222 1.022.468 1.854.901 2.496 1.3a5.533 5.533 0 011.69 1.612c.468.659.702 1.473.702 2.444 0 1.075-.286 2.037-.858 2.886-.572.85-1.396 1.517-2.47 2.002-1.075.468-2.332.702-3.77.702zM99.95 10.748L96.725 29H92.28l1.95-10.946L88.198 29H84.61l-2.184-10.998L80.5 29h-4.446l3.224-18.252h5.252l2.912 12.636 7.28-12.636h5.227zm23.867 0L120.593 29h-4.446l1.95-10.946L112.065 29h-3.588l-2.184-10.998L104.369 29h-4.446l3.224-18.252h5.252l2.912 12.636 7.28-12.636h5.226z" fill="url(#paint0_linear_155_2129)"/><path d="M129.822 29.208c-1.144 0-2.175-.182-3.094-.546-.901-.364-1.612-.867-2.132-1.508a3.55 3.55 0 01-.78-2.262c0-.121.017-.338.052-.65h4.29c-.035.537.121.97.468 1.3.364.312.875.468 1.534.468.555 0 1.014-.104 1.378-.312.364-.208.546-.503.546-.884 0-.364-.199-.65-.598-.858-.381-.225-1.023-.494-1.924-.806a23.717 23.717 0 01-2.366-.91 4.732 4.732 0 01-1.612-1.326c-.451-.572-.676-1.291-.676-2.158 0-.85.251-1.612.754-2.288.503-.693 1.205-1.23 2.106-1.612.919-.381 1.976-.572 3.172-.572 1.196 0 2.236.2 3.12.598.884.381 1.569.919 2.054 1.612.485.693.728 1.473.728 2.34l-.026.39h-4.03c.035-.52-.121-.936-.468-1.248-.347-.312-.841-.468-1.482-.468-.503 0-.919.104-1.248.312-.312.208-.468.494-.468.858 0 .381.208.702.624.962.433.243 1.101.52 2.002.832.936.312 1.707.624 2.314.936a4.34 4.34 0 011.586 1.274c.451.537.676 1.213.676 2.028 0 .936-.286 1.742-.858 2.418-.555.676-1.326 1.196-2.314 1.56-.971.347-2.08.52-3.328.52zm15.096-12.662a6.289 6.289 0 012.08-1.638c.849-.416 1.785-.624 2.808-.624 1.56 0 2.817.511 3.77 1.534.971 1.023 1.456 2.41 1.456 4.16 0 .537-.052 1.118-.156 1.742-.26 1.49-.771 2.808-1.534 3.952-.763 1.127-1.681 2.002-2.756 2.626a6.826 6.826 0 01-3.406.91c-1.005 0-1.855-.208-2.548-.624-.693-.416-1.205-.953-1.534-1.612l-1.586 8.944h-4.446l3.77-21.424h4.446l-.364 2.054zm5.46 5.174c.052-.295.078-.563.078-.806 0-.867-.251-1.543-.754-2.028-.485-.485-1.109-.728-1.872-.728-.884 0-1.69.32-2.418.962-.728.641-1.196 1.517-1.404 2.626a5.252 5.252 0 00-.078.858c0 .85.243 1.517.728 2.002.485.485 1.109.728 1.872.728.884 0 1.69-.32 2.418-.962.745-.659 1.222-1.543 1.43-2.652zm17.048-7.384c1.422 0 2.54.407 3.354 1.222.832.815 1.248 1.95 1.248 3.406a8.49 8.49 0 01-.156 1.56L170.364 29h-4.42l1.404-7.878a4.56 4.56 0 00.078-.78c0-.728-.208-1.291-.624-1.69-.398-.399-.962-.598-1.69-.598-.866 0-1.594.269-2.184.806-.589.537-.97 1.291-1.144 2.262v-.052L160.38 29h-4.446l3.406-19.24h4.446l-1.17 6.656a6.004 6.004 0 012.106-1.508 6.414 6.414 0 012.704-.572zm15.076-.052c1.872 0 3.354.511 4.446 1.534 1.109 1.005 1.664 2.383 1.664 4.134 0 .572-.043 1.083-.13 1.534-.069.399-.173.823-.312 1.274h-10.062a3.382 3.382 0 00-.026.494c0 .763.208 1.343.624 1.742.416.399.971.598 1.664.598 1.109 0 1.959-.468 2.548-1.404h4.732c-.624 1.473-1.638 2.678-3.042 3.614-1.404.936-2.981 1.404-4.732 1.404-1.872 0-3.371-.52-4.498-1.56-1.109-1.04-1.664-2.453-1.664-4.238a9.3 9.3 0 01.156-1.664c.26-1.508.797-2.825 1.612-3.952a8.286 8.286 0 013.042-2.6c1.213-.607 2.539-.91 3.978-.91zm1.612 6.214a4.2 4.2 0 00.052-.494c0-.693-.217-1.222-.65-1.586-.433-.381-1.005-.572-1.716-.572-.763 0-1.439.234-2.028.702-.572.45-.988 1.1-1.248 1.95h5.59zm11.887-3.38c.676-.867 1.448-1.543 2.314-2.028.884-.503 1.803-.754 2.756-.754l-.832 4.706h-1.222c-1.109 0-1.984.243-2.626.728-.641.468-1.066 1.3-1.274 2.496L193.921 29h-4.446l2.548-14.508h4.446l-.468 2.626zm13.644-2.834c1.872 0 3.354.511 4.446 1.534 1.109 1.005 1.664 2.383 1.664 4.134a8.23 8.23 0 01-.13 1.534c-.07.399-.174.823-.312 1.274h-10.062a3.244 3.244 0 00-.026.494c0 .763.208 1.343.624 1.742.416.399.97.598 1.664.598 1.109 0 1.958-.468 2.548-1.404h4.732c-.624 1.473-1.638 2.678-3.042 3.614-1.404.936-2.982 1.404-4.732 1.404-1.872 0-3.372-.52-4.498-1.56-1.11-1.04-1.664-2.453-1.664-4.238a9.3 9.3 0 01.156-1.664c.26-1.508.797-2.825 1.612-3.952a8.27 8.27 0 013.042-2.6c1.213-.607 2.539-.91 3.978-.91zm1.612 6.214c.034-.243.052-.407.052-.494 0-.693-.217-1.222-.65-1.586-.434-.381-1.006-.572-1.716-.572-.763 0-1.439.234-2.028.702-.572.45-.988 1.1-1.248 1.95h5.59z" fill="#282C4B"/><path opacity=".25" d="M14.682 30.011c5.644 0 10.22-4.575 10.22-10.22 0-5.644-4.576-10.22-10.22-10.22-5.644 0-10.22 4.576-10.22 10.22 0 5.645 4.576 10.22 10.22 10.22z" fill="#E1D6FD"/><path opacity=".5" d="M6.29 17.895A6.292 6.292 0 011.838 7.16a6.292 6.292 0 0110.74 4.448 6.288 6.288 0 01-1.844 4.448 6.236 6.236 0 01-4.444 1.84z" fill="#BDB8FE"/><path opacity=".5" d="M23.306 34.52a6.292 6.292 0 114.444-1.84 6.252 6.252 0 01-4.444 1.84z" fill="#D794F8"/><path d="M6.458 34.451a6.292 6.292 0 01-4.46-10.736 6.4 6.4 0 01.892-.724l.308-.196c.216-.128.44-.244.676-.356.12-.052.24-.108.372-.156a5.99 5.99 0 01.752-.22l.16-.044a.662.662 0 01.084-.024l1.424-.104c.184 0 .4.036.596.064h.736a9.2 9.2 0 006.524-2.8 9.148 9.148 0 002.616-6.588v-.136a1.482 1.482 0 01-.024-.232v-.192l-.052-.184c0-.112-.028-.232-.032-.348l.096-1.32V10.1c0-.032.06-.208.06-.208.06-.27.138-.538.232-.8.044-.12.1-.24.156-.36a6 6 0 01.36-.688v-.036c.056-.092.108-.184.172-.272a6 6 0 01.716-.884 6.307 6.307 0 118.928 8.912c-.273.266-.57.506-.888.716-.096.068-.18.116-.264.168l-.048.028a7.923 7.923 0 01-.672.356c-.128.056-.244.112-.364.156a6.45 6.45 0 01-.772.228 1.58 1.58 0 00-.164.044l-.1.028-1.396.096c-.176 0-.364-.032-.56-.056h-.76a9.28 9.28 0 00-9.144 9.356v.14c.01.07.018.141.02.212 0 .076 0 .148.02.22.02.072 0 .136.024.208.014.104.022.208.024.312l-.1 1.372a1.057 1.057 0 01-.028.108l-.036.124a5.937 5.937 0 01-.228.8c-.044.12-.104.244-.16.368a7.363 7.363 0 01-.34.676 5.936 5.936 0 01-.916 1.2 6.252 6.252 0 01-4.44 1.84v-.012z" fill="url(#paint1_linear_155_2129)"/><defs><linearGradient id="paint0_linear_155_2129" x1="59.596" y1="19.5" x2="216.596" y2="19.5" gradientUnits="userSpaceOnUse"><stop stop-color="#B224EF"/><stop offset="1" stop-color="#7579FF"/></linearGradient><linearGradient id="paint1_linear_155_2129" x1=".16" y1="19.732" x2="29.593" y2="19.732" gradientUnits="userSpaceOnUse"><stop stop-color="#B224EF"/><stop offset="1" stop-color="#7579FF"/></linearGradient></defs></svg>