<svg width="67" height="66" fill="none" xmlns="http://www.w3.org/2000/svg"><path opacity=".25" d="M32.827 55.92c12.62 0 22.85-10.23 22.85-22.85 0-12.62-10.23-22.85-22.85-22.85-12.62 0-22.85 10.23-22.85 22.85 0 12.62 10.23 22.85 22.85 22.85z" fill="#E1D6FD"/><path opacity=".5" d="M14.063 28.832A14.068 14.068 0 014.11 4.828c5.494-5.49 14.397-5.49 19.89 0a14.06 14.06 0 010 19.89 13.943 13.943 0 01-9.936 4.114z" fill="#BDB8FE"/><path opacity=".5" d="M52.11 66a14.068 14.068 0 119.935-4.114A13.978 13.978 0 0152.11 66z" fill="#D794F8"/><path d="M14.44 65.848a14.068 14.068 0 01-9.97-24.004 14.134 14.134 0 011.994-1.619l.689-.438a18.56 18.56 0 011.511-.796c.268-.116.537-.241.832-.349.549-.2 1.11-.364 1.681-.491l.358-.099c.061-.022.124-.04.188-.053l3.184-.233c.41 0 .894.08 1.332.143h1.646a20.57 20.57 0 0014.586-6.26 20.453 20.453 0 005.849-14.73v-.304a3.295 3.295 0 01-.054-.518v-.43l-.116-.411c0-.25-.063-.519-.072-.778l.215-2.951V11.4c0-.071.134-.465.134-.465.136-.606.31-1.203.519-1.788.098-.269.224-.537.349-.805.235-.53.504-1.044.805-1.539v-.08c.125-.206.241-.411.384-.608.47-.708 1.006-1.37 1.601-1.977 5.502-5.512 14.431-5.52 19.944-.018 5.512 5.503 5.52 14.432.017 19.944-.61.594-1.275 1.13-1.985 1.6-.215.153-.402.26-.59.376l-.108.063c-.518.304-1.019.572-1.502.796-.286.125-.545.25-.814.349a14.73 14.73 0 01-1.726.51 3.61 3.61 0 00-.367.098l-.223.063-3.121.214c-.394 0-.814-.071-1.252-.125h-1.7c-11.406.167-20.539 9.51-20.444 20.918v.313c.024.157.04.316.045.474 0 .17 0 .331.044.492.045.161 0 .304.054.465.031.232.05.464.054.698l-.224 3.067a2.425 2.425 0 01-.062.242l-.08.277a13.297 13.297 0 01-.51 1.789c-.099.268-.233.545-.358.822a16.686 16.686 0 01-.76 1.512c-.144.25-.278.474-.43.688a13.29 13.29 0 01-1.619 1.995 13.978 13.978 0 01-9.927 4.114v-.027z" fill="url(#paint0_linear_65_3464)"/><defs><linearGradient id="paint0_linear_65_3464" x1=".359" y1="32.937" x2="66.167" y2="32.937" gradientUnits="userSpaceOnUse"><stop stop-color="#B224EF"/><stop offset="1" stop-color="#7579FF"/></linearGradient></defs></svg>