<svg width="375" height="782" fill="none" xmlns="http://www.w3.org/2000/svg"><mask id="a" style="mask-type:alpha" maskUnits="userSpaceOnUse" x="0" y="0" width="375" height="782"><path fill="#fff" d="M0 0h375v782H0z"/></mask><g mask="url(#a)" fill="#A5A6F6"><path opacity=".2" d="M438.728 130.602c-13.133-28.2-28.794-56.28-52.499-77.505C351.38 21.887 300.21 9.01 256.648 20.543c-36.927 9.755-66.15 34.743-98.029 54.345-39.262 24.153-83.467 40.481-127.913 55.26-23.875 7.943-48.528 15.803-67.411 31.535-26.215 21.846-38.077 57.363-34.746 91.918 3.33 34.555 20.761 67.901 44.995 94.874 12.895 14.353 28.334 27.46 46.72 33.525 19.452 6.417 40.53 4.444 59.943 11.001 17.992 6.074 33.017 18.986 45.893 32.867 16.813 18.122 30.892 38.439 41.824 60.351 12.368 24.83 20.394 51.268 32.599 76.126 12.204 24.857 29.687 49.02 54.785 62.299 23.593 12.486 50.939 13.935 77.031 13.858a813.737 813.737 0 00127.216-10.266c28.182-4.54 56.456-10.735 80.811-24.214 46.569-25.765 74.257-78.795 68.997-132.129-4.36-44.188-29.037-85.337-56.541-122.388-25.081-33.787-59.531-67.598-74.223-106.795-13.994-37.392-22.728-75.276-39.871-112.108z"/><path opacity=".2" d="M447.728 189.348c-13.133-28.2-28.794-56.28-52.499-77.504-34.849-31.211-86.019-44.089-129.581-32.555-36.927 9.755-66.15 34.744-98.029 54.345-39.262 24.153-83.467 40.481-127.913 55.26-23.875 7.943-48.528 15.803-67.411 31.535-26.215 21.846-38.077 57.364-34.746 91.918 3.33 34.555 20.761 67.901 44.995 94.874 12.895 14.353 28.334 27.46 46.72 33.525 19.452 6.417 40.53 4.444 59.943 11.001 17.991 6.074 33.017 18.986 45.893 32.867 16.813 18.123 30.892 38.439 41.824 60.351 12.368 24.83 20.394 51.268 32.599 76.126 12.204 24.857 29.687 49.02 54.785 62.299 23.593 12.486 50.939 13.935 77.031 13.858a813.737 813.737 0 00127.216-10.266c28.182-4.54 56.456-10.735 80.811-24.214 46.569-25.765 74.257-78.795 68.997-132.129-4.36-44.188-29.037-85.337-56.541-122.388-25.081-33.787-59.531-67.598-74.223-106.794-13.994-37.393-22.728-75.277-39.871-112.109z"/></g></svg>