<svg width="375" height="784" fill="none" xmlns="http://www.w3.org/2000/svg"><mask id="a" style="mask-type:alpha" maskUnits="userSpaceOnUse" x="0" y="0" width="375" height="784"><path fill="#fff" d="M0 0h375v784H0z"/></mask><g mask="url(#a)" fill="#A5A6F6" fill-opacity=".58"><path opacity=".2" d="M-142.518 268.604c-22.552 17.747-44.401 37.606-58.128 62.66-20.188 36.835-19.877 83.17.84 117.325 17.541 28.959 47.122 47.815 72.429 70.184 31.179 27.549 56.405 61.122 80.28 95.262 12.829 18.337 25.764 37.354 44.501 49.635 26.017 17.049 61.092 18.735 91.723 7.789 30.631-10.945 56.852-33.541 75.681-60.394 10.019-14.29 18.308-30.439 19.504-47.426 1.265-17.973-5.479-35.347-4.078-53.32 1.296-16.655 9.505-32.408 19.099-46.571 12.527-18.491 27.69-35.185 45.042-49.59 19.668-16.307 41.817-29.319 61.548-45.494 19.732-16.175 37.592-36.655 43.769-61.019 5.809-22.904.703-46.389-5.494-68.453a672.879 672.879 0 00-39.213-105.253c-10.747-22.784-23.02-45.256-40.993-62.698-34.362-33.354-89.074-44.315-136.324-27.32-39.146 14.083-70.758 44.646-97.981 76.637-24.825 29.173-47.47 66.282-79.653 87.935-30.707 20.638-63.095 36.94-92.552 60.111z"/><path opacity=".2" d="M-91.518 247.363c-22.552 17.747-44.401 37.606-58.128 62.659-20.188 36.835-19.877 83.171.84 117.326 17.541 28.958 47.122 47.814 72.429 70.184 31.179 27.549 56.405 61.121 80.28 95.261 12.829 18.338 25.764 37.354 44.501 49.636 26.017 17.048 61.092 18.734 91.723 7.789 30.631-10.946 56.852-33.541 75.681-60.395 10.019-14.29 18.308-30.439 19.504-47.425 1.265-17.973-5.479-35.347-4.078-53.32 1.296-16.655 9.505-32.409 19.099-46.571 12.527-18.491 27.69-35.186 45.042-49.591 19.668-16.307 41.817-29.318 61.548-45.493 19.732-16.176 37.592-36.655 43.769-61.019 5.809-22.904.703-46.389-5.494-68.454a672.916 672.916 0 00-39.213-105.253c-10.747-22.784-23.02-45.256-40.993-62.698-34.362-33.354-89.074-44.315-136.324-27.32-39.146 14.084-70.758 44.647-97.981 76.638-24.825 29.173-47.47 66.282-79.653 87.934-30.707 20.638-63.095 36.94-92.552 60.112z"/></g></svg>