<svg width="375" height="812" fill="none" xmlns="http://www.w3.org/2000/svg"><mask id="a" style="mask-type:alpha" maskUnits="userSpaceOnUse" x="0" y="0" width="375" height="812"><path fill="#fff" d="M0 0h375v812H0z"/></mask><g mask="url(#a)" fill="#A5A6F6"><path opacity=".2" d="M-142.518 278.197c-22.552 18.381-44.401 38.949-58.128 64.898-20.188 38.15-19.877 86.14.84 121.515 17.541 29.993 47.122 49.523 72.429 72.691 31.179 28.532 56.405 63.304 80.28 98.664 12.829 18.992 25.765 38.688 44.501 51.408 26.017 17.657 61.092 19.403 91.723 8.067 30.631-11.337 56.852-34.739 75.681-62.552 10.019-14.8 18.308-31.526 19.504-49.119 1.265-18.615-5.479-36.609-4.078-55.224 1.296-17.25 9.505-33.566 19.099-48.234a243.562 243.562 0 0145.042-51.362c19.668-16.889 41.817-30.365 61.548-47.118 19.732-16.753 37.592-37.964 43.769-63.199 5.809-23.722.703-48.045-5.494-70.898a712.864 712.864 0 00-39.213-109.012c-10.747-23.598-23.02-46.872-40.993-64.937C229.63 39.24 174.918 27.888 127.668 45.49 88.522 60.075 56.91 91.73 29.687 124.864c-24.825 30.215-47.47 68.649-79.653 91.075-30.707 21.375-63.095 38.259-92.552 62.258z"/><path opacity=".2" d="M-91.518 256.197c-22.552 18.381-44.401 38.949-58.128 64.898-20.188 38.15-19.877 86.14.84 121.515 17.541 29.993 47.122 49.523 72.429 72.691 31.179 28.532 56.405 63.304 80.28 98.664 12.829 18.992 25.765 38.688 44.501 51.408 26.017 17.657 61.092 19.403 91.723 8.067 30.631-11.337 56.852-34.739 75.681-62.552 10.019-14.8 18.308-31.526 19.504-49.119 1.265-18.615-5.479-36.609-4.078-55.224 1.296-17.25 9.505-33.566 19.099-48.234a243.562 243.562 0 0145.042-51.362c19.668-16.889 41.817-30.365 61.548-47.118 19.732-16.753 37.592-37.964 43.769-63.199 5.809-23.722.703-48.045-5.494-70.898a712.864 712.864 0 00-39.213-109.012c-10.747-23.598-23.02-46.872-40.993-64.937C280.63 17.24 225.918 5.888 178.668 23.49c-39.146 14.585-70.758 46.24-97.981 79.374-24.825 30.215-47.47 68.649-79.653 91.075-30.707 21.375-63.095 38.259-92.552 62.258z"/></g></svg>