<svg width="25" height="19" fill="none" xmlns="http://www.w3.org/2000/svg"><path fill-rule="evenodd" clip-rule="evenodd" d="M23.811 15.457h.786c-.141.077-.33.223-.567.439l-.785.788.43.605c.451.63.846 1.11 1.184 1.442h-1.124a6.15 6.15 0 00-.55-.978l-.506-.746.44-.547c.393-.503.624-.838.692-1.004zm-1.192.364v2.537l.034.191c.023.033.074.06.152.083v.1h-1.09v-.1l.152-.083c.023-.033.034-.097.034-.19V15.82l-.034-.182c-.022-.039-.073-.064-.152-.075v-.107h1.09v.107c-.079.011-.13.036-.152.075l-.034.182zm-1.622 0v2.537l.034.191.152.083v.1h-1.099v-.1a.397.397 0 00.17-.083l.024-.19V17.04h-1.284v1.318l.034.191c.022.033.073.06.152.083v.1h-1.107v-.1c.09-.022.146-.05.169-.083l.034-.19V15.82l-.034-.182c-.023-.039-.08-.064-.17-.075v-.107h1.108v.107c-.08.011-.13.036-.152.075l-.034.182v1.004h1.284V15.82l-.025-.182c-.034-.039-.09-.064-.169-.075v-.107h1.099v.107c-.08.011-.13.036-.152.075l-.034.182zm-5.316-.257v-.107h.964c.01.149.05.31.118.48l.71 1.957c.118.343.234.622.346.838h-.845l-.363-1.178h-1.073l-.229.78-.067.398h-.609l1.082-2.455c.107-.26.16-.436.16-.53 0-.105-.064-.166-.194-.183zm.398.44l-.457 1.318h.913l-.456-1.318zm-1.707.166h-.187l-.042-.141c-.045-.16-.113-.266-.203-.315l-.464-.059h-.448c-.102 0-.17.017-.203.05-.028.028-.042.078-.042.15v.779h.186c.54 0 .915.052 1.124.157.298.144.448.426.448.846 0 .41-.119.702-.356.879-.208.144-.532.216-.971.216h-1.335v-.1l.16-.083.025-.19V15.82l-.025-.182c-.022-.039-.076-.064-.16-.075v-.107h2.493v.713zm-1.59.671v1.401c0 .11.02.183.06.216.045.044.124.066.237.066h.101c.214 0 .372-.072.473-.215.09-.133.136-.346.136-.639 0-.287-.048-.492-.144-.613-.102-.144-.29-.216-.566-.216h-.296zm-1.2-.448c0 .382-.118.655-.354.821-.203.144-.518.216-.947.216h-.338v.928l.034.191c.017.033.07.06.16.083v.1H9.04v-.1l.152-.083.034-.19V15.82l-.034-.182c-.023-.039-.073-.064-.152-.075v-.107h1.386c.377 0 .653.055.828.165.22.144.33.401.33.771zm-1.588-.704c-.034.022-.05.072-.05.149v1.385h.337c.209 0 .355-.078.44-.233.073-.138.11-.348.11-.63 0-.47-.2-.704-.6-.704h-.085l-.152.033zm-1.462.48h-.177l-.043-.14c-.056-.16-.126-.266-.21-.315l-.457-.059h-.372l-.135.034-.034.124v1.012h.44c.304 0 .504-.034.6-.1v.415c-.096-.067-.296-.1-.6-.1h-.44v1.227c0 .1.034.169.101.207l.423.05h.093l.456-.066c.08-.05.141-.171.186-.365l.034-.124h.211v.762H6.2v-.099c.084-.022.138-.05.16-.083l.034-.19V15.82l-.034-.182c-.022-.039-.076-.064-.16-.075v-.107h2.332v.713zm-2.882 0h-.177l-.042-.14c-.051-.16-.121-.266-.212-.315l-.447-.059h-.465c-.096 0-.164.017-.203.05a.309.309 0 00-.025.15v.779h.186c.535 0 .91.052 1.123.157.293.144.44.426.44.846 0 .41-.118.702-.355.879-.203.144-.527.216-.972.216H3.158v-.1c.09-.022.146-.05.169-.083l.033-.19V15.82l-.033-.182c-.023-.039-.08-.064-.17-.075v-.107H5.65v.713zm-3.363-.447c-.101-.072-.259-.108-.473-.108-.338 0-.578.122-.718.365-.119.21-.178.553-.178 1.028s.065.826.194 1.053c.158.282.429.423.812.423.281 0 .56-.067.836-.2l.102.208c-.321.193-.699.29-1.133.29-1.059 0-1.588-.55-1.588-1.65 0-1.155.549-1.732 1.648-1.732.422 0 .746.05.971.149v.68h-.21l-.06-.2a.597.597 0 00-.203-.306zm1.792 1.12v1.4c0 .11.017.183.05.216.045.044.127.066.245.066h.093c.406 0 .609-.285.609-.854 0-.287-.048-.492-.144-.613-.107-.144-.298-.216-.574-.216h-.28z" fill="#006236"/><path fill-rule="evenodd" clip-rule="evenodd" d="M16.409 1.009l.553.496L9.98 5.44 6.6 3.518l.316-.62 3.064 1.72 6.428-3.61zm-1.406-.79l.742.372-5.764 3.254-2.685-1.503.458-.543 2.227 1.255L15.003.22zm2.448 1.797l.41.542-7.88 4.447-3.806-2.138.174-.682L9.98 6.231l7.47-4.215z" fill="url(#paint0_radial_662_6276)"/><path fill-rule="evenodd" clip-rule="evenodd" d="M18.588 4.015a5.88 5.88 0 01.348 2.014c0 .703-.116 1.385-.348 2.046l-.157.418a6.437 6.437 0 01-1.374 2.015 6.36 6.36 0 01-2.054 1.332 6.416 6.416 0 01-5.022 0 6.648 6.648 0 01-2.037-1.332A6.104 6.104 0 016.57 8.493a6.258 6.258 0 01-.506-2.464v-.418l3.917 2.185 8.26-4.649.348.868z" fill="url(#paint1_radial_662_6276)"/><defs><radialGradient id="paint0_radial_662_6276" cx="0" cy="0" r="1" gradientUnits="userSpaceOnUse" gradientTransform="matrix(7.39516 0 0 7.25543 12.919 6.169)"><stop stop-color="#52A347"/><stop offset=".502" stop-color="#83B03E"/><stop offset=".706" stop-color="#2EA64C"/><stop offset=".929" stop-color="#264122"/><stop offset=".933" stop-color="#264122"/></radialGradient><radialGradient id="paint1_radial_662_6276" cx="0" cy="0" r="1" gradientUnits="userSpaceOnUse" gradientTransform="matrix(7.39529 0 0 7.25555 12.919 6.169)"><stop stop-color="#52A347"/><stop offset=".502" stop-color="#83B03E"/><stop offset=".706" stop-color="#2B9940"/><stop offset=".929" stop-color="#264122"/><stop offset=".933" stop-color="#264122"/></radialGradient></defs></svg>