<svg width="35" height="16" fill="none" xmlns="http://www.w3.org/2000/svg"><path d="M17.155 8.884h.54v1.186h.39l.699-1.186h.59l-.84 1.392v.01l.89 1.519h-.61l-.72-1.275h-.39v1.275h-.539V8.883h-.01zm3.477.774c.65 0 1.18.46 1.18 1.098 0 .647-.52 1.098-1.17 1.098-.65 0-1.169-.451-1.169-1.098-.01-.647.51-1.098 1.16-1.098zm1.599.049h.51v1.647h.669V9.707h.51v1.647h.669V9.707h.51v2.098H22.25V9.707h-.02zm4.376-.049c.61 0 .95.441.95.99a1.448 1.448 0 01-.02.206h-1.47c.03.362.32.559.64.559.22 0 .44-.098.61-.226l.21.373c-.22.186-.55.304-.86.304-.71 0-1.149-.5-1.149-1.099 0-.656.45-1.107 1.09-1.107zm1.199 1.706c.26-.04.45-.255.45-1v-.657h1.558v2.098h-.53v-1.677h-.519v.235c0 .912-.25 1.442-.96 1.461v-.46zm3.527-1.706c.61 0 .95.441.95.99a1.434 1.434 0 01-.02.206h-1.47c.03.362.32.559.64.559.22 0 .44-.098.61-.226l.21.373c-.22.186-.55.304-.86.304-.71 0-1.149-.5-1.149-1.099 0-.656.45-1.107 1.09-1.107zm1.389.049h.53v.804h.26l.519-.804h.59l-.68 1v.01l.759 1.088h-.62l-.559-.853h-.28v.853h-.53V9.707h.01zm-12.09 1.696c.35 0 .64-.265.64-.657a.638.638 0 00-.64-.657c-.35 0-.63.265-.63.657s.28.657.63.657zm6.385-.912c0-.274-.19-.44-.43-.44-.27 0-.47.175-.52.44h.95zm4.726 0c0-.274-.19-.44-.43-.44-.27 0-.47.175-.52.44h.95z" fill="#2D3540"/><path d="M24.619 2.522v4.95a.132.132 0 01-.04.098.137.137 0 01-.1.04h-1.03a.14.14 0 01-.099-.04.135.135 0 01-.04-.098v-4.95a.133.133 0 01.086-.128.139.139 0 01.054-.01h1.029a.139.139 0 01.13.085c.007.017.01.035.01.053zm8.033-.137c.04 0 .09.02.14.058.03.03.03.079.02.118l-1.699 4.96a.144.144 0 01-.13.088h-.919c-.06 0-.11-.03-.13-.088l-.99-2.892-.988 2.892a.14.14 0 01-.13.088h-.92c-.06 0-.11-.03-.13-.088l-1.698-4.96c-.01-.04-.01-.079.02-.118.02-.039.07-.058.11-.058h1.149c.06 0 .11.039.13.097l.909 2.931 1-2.93a.14.14 0 01.05-.064.144.144 0 01.079-.025h.81c.06 0 .11.03.13.088l.998 2.931.91-2.93a.135.135 0 01.048-.07.14.14 0 01.082-.028h1.148zm1.738 0c.07 0 .13.058.14.137v4.95a.132.132 0 01-.04.098.138.138 0 01-.1.04h-1.029a.139.139 0 01-.1-.04.134.134 0 01-.04-.098v-4.95a.132.132 0 01.04-.098.137.137 0 01.1-.04h1.03zM22.71 7.433c.06.069.01.166-.08.166h-1.259a.164.164 0 01-.13-.058l-.21-.255a2.855 2.855 0 01-1.508.441c-1.538 0-2.787-1.225-2.787-2.735 0-1.51 1.249-2.735 2.787-2.735 1.539 0 2.788 1.225 2.788 2.735 0 .54-.16 1.049-.44 1.48l.84.96v.001zM12.19 9.834c.26.099.36.48.379.647.04.304-.05.422-.15.422-.1 0-.24-.118-.39-.353-.15-.235-.21-.5-.13-.637.05-.089.16-.128.29-.079zm-1.52 1.108c.16 0 .34.069.5.206.31.255.4.549.24.765a.53.53 0 01-.41.176.721.721 0 01-.47-.167c-.279-.235-.359-.627-.18-.843a.39.39 0 01.32-.137zm-3.496 2.833C3.377 13.775.3 10.755.3 7.031.3 3.306 3.377.287 7.174.287c3.796 0 6.874 3.02 6.874 6.744 0 1.264-.36 2.45-.97 3.46-.02.03-.07.02-.08-.02-.239-1.656-1.268-2.568-2.767-2.842-.13-.02-.15-.098.02-.118.46-.039 1.11-.03 1.449.03.02-.167.03-.344.03-.52 0-2.46-2.038-4.46-4.546-4.46-2.508 0-4.546 2-4.546 4.46s2.038 4.46 4.546 4.46h.21a5.907 5.907 0 01-.09-1.205c.01-.275.07-.314.19-.098.629 1.068 1.528 2.029 3.287 2.411 1.438.314 2.877.676 4.426 2.607.14.167-.07.344-.23.206-1.579-1.372-3.017-1.823-4.326-1.823-1.47.01-2.468.196-3.477.196zm13.038-7.44l-.55-.657a.107.107 0 01.08-.176h1.16c.06-.157.09-.334.09-.51 0-.814-.62-1.52-1.469-1.52-.849 0-1.469.706-1.469 1.52 0 .813.62 1.51 1.469 1.51.24.01.48-.06.69-.167z" fill="#FF8C00"/></svg>