<svg width="23" height="19" fill="none" xmlns="http://www.w3.org/2000/svg"><path d="M11.55.219c.922 0 1.8.206 2.587.574.124.054.248.12.371.184l-.54.466-.81-.812-1.394 1.192-.822-.857-2.565 2.222 1.642 1.745-.641.542 1.62 1.744-.641.542 2.318 2.482 1.372-1.214 1.193 1.3a6.685 6.685 0 01-.776.5 6.055 6.055 0 01-2.903.736c-3.252 0-5.896-2.546-5.896-5.678C5.654 2.777 8.298.219 11.55.219zm-1.08 5.32l1.406-1.213 1.26 1.355-1.407 1.213-1.26-1.354zm1 2.342l1.396-1.225 1.271 1.355-1.406 1.214-1.26-1.344zM9.469 3.23l1.406-1.213 1.26 1.354-1.406 1.214-1.26-1.354zm2.576-.65l1.047-.91.945 1.008-1.046.92-.946-1.018zm1.868 4.172l1.046-.91.946 1.019-1.047.91-.945-1.019zm.923 2.049l1.046-.91.945 1.007-1.046.921-.945-1.018zm.427-4.682l.698-.607.63.672-.697.607-.63-.672zm-.9-2.005l.698-.617.63.682-.698.607-.63-.672zm1.79 4.01l.697-.607.641.672-.708.607-.63-.672zm-3.14-1.506l1.047-.91.945 1.007-1.046.91-.946-1.007zM2.365 15.602h-.032l-.615 2.289h-.502l-.753-3.252h.52l.522 2.426h.032l.605-2.426h.414l.646 2.426h.033l.475-2.426h.544L3.5 17.891h-.502l-.633-2.29zm2.549.904H5.98c-.023-.48-.26-.673-.511-.673-.284 0-.503.215-.554.673zm1.437.863v.349c-.21.119-.488.21-.823.21-.781 0-1.102-.476-1.102-1.2 0-.698.358-1.203 1.056-1.203.58 0 .94.372.94 1.12v.169H4.904c0 .55.228.793.707.793.251 0 .484-.087.74-.238zm1.152.191c.15.065.312.075.429.075.344 0 .604-.212.604-.955 0-.582-.214-.77-.525-.77-.187 0-.321.05-.508.151v1.5zm.005-1.838c.14-.073.377-.17.628-.17.577 0 .888.395.888 1.128 0 .858-.418 1.276-1.092 1.276a2.17 2.17 0 01-.908-.226v-3.2l.484-.115v1.307zm3.609 1.478h.024l.995-2.563h.577v3.252h-.502v-2.358h-.042l-.95 2.358h-.297l-.949-2.303h-.042v2.303h-.418v-3.252h.563l1.041 2.564zm3.649-.473c0-.62-.255-.88-.572-.88-.307 0-.572.26-.572.88 0 .628.242.88.572.88.33 0 .572-.252.572-.88zm-1.632 0c0-.803.446-1.202 1.06-1.202.614 0 1.06.399 1.06 1.202 0 .784-.422 1.202-1.06 1.202-.637 0-1.06-.418-1.06-1.202zm2.488-.862c.21-.124.651-.34 1.186-.34.558 0 .767.216.767.688v1.66h-.483V16.32c0-.363-.181-.427-.419-.427-.186 0-.423.083-.567.165v1.817h-.484v-2.01zm2.978.641h1.065c-.023-.48-.26-.673-.512-.673-.284 0-.502.215-.553.673zm1.437.863v.349c-.21.119-.489.21-.824.21-.78 0-1.102-.476-1.102-1.2 0-.698.358-1.203 1.056-1.203.582 0 .94.372.94 1.12v.169H18.59c0 .55.228.793.707.793.251 0 .484-.087.74-.238zm2.002-1.844h.498l-.842 2.293c-.233.633-.517.963-1.051.963v-.376c.316 0 .511-.247.623-.587l-.893-2.293h.512l.595 1.688h.028l.53-1.688z" fill="#036CB5"/></svg>